<?xml version="1.0" encoding="utf-8" standalone="no"?>
<!DOCTYPE svg PUBLIC "-//W3C//DTD SVG 1.1//EN"
  "http://www.w3.org/Graphics/SVG/1.1/DTD/svg11.dtd">
<!-- Created with matplotlib (https://matplotlib.org/) -->
<svg height="227.17pt" version="1.1" viewBox="0 0 350.306875 227.17" width="350.306875pt" xmlns="http://www.w3.org/2000/svg" xmlns:xlink="http://www.w3.org/1999/xlink">
 <metadata>
  <rdf:RDF xmlns:cc="http://creativecommons.org/ns#" xmlns:dc="http://purl.org/dc/elements/1.1/" xmlns:rdf="http://www.w3.org/1999/02/22-rdf-syntax-ns#">
   <cc:Work>
    <dc:type rdf:resource="http://purl.org/dc/dcmitype/StillImage"/>
    <dc:date>2021-10-22T16:12:51.224291</dc:date>
    <dc:format>image/svg+xml</dc:format>
    <dc:creator>
     <cc:Agent>
      <dc:title>Matplotlib v3.3.4, https://matplotlib.org/</dc:title>
     </cc:Agent>
    </dc:creator>
   </cc:Work>
  </rdf:RDF>
 </metadata>
 <defs>
  <style type="text/css">*{stroke-linecap:butt;stroke-linejoin:round;}</style>
 </defs>
 <g id="figure_1">
  <g id="patch_1">
   <path d="M 0 227.17 
L 350.306875 227.17 
L 350.306875 0 
L 0 0 
z
" style="fill:none;"/>
  </g>
  <g id="axes_1">
   <g id="patch_2">
    <path d="M 52.654375 185.806875 
L 331.654375 185.806875 
L 331.654375 13.006875 
L 52.654375 13.006875 
z
" style="fill:none;"/>
   </g>
   <g id="PathCollection_1">
    <defs>
     <path d="M 0 1.581139 
C 0.419323 1.581139 0.821528 1.41454 1.118034 1.118034 
C 1.41454 0.821528 1.581139 0.419323 1.581139 0 
C 1.581139 -0.419323 1.41454 -0.821528 1.118034 -1.118034 
C 0.821528 -1.41454 0.419323 -1.581139 0 -1.581139 
C -0.419323 -1.581139 -0.821528 -1.41454 -1.118034 -1.118034 
C -1.41454 -0.821528 -1.581139 -0.419323 -1.581139 0 
C -1.581139 0.419323 -1.41454 0.821528 -1.118034 1.118034 
C -0.821528 1.41454 -0.419323 1.581139 0 1.581139 
z
" id="m31c1dbebad" style="stroke:#bf00bf;"/>
    </defs>
    <g clip-path="url(#pccbf954e2f)">
     <use style="fill:#bf00bf;stroke:#bf00bf;" x="264.640289" xlink:href="#m31c1dbebad" y="52.616424"/>
     <use style="fill:#bf00bf;stroke:#bf00bf;" x="270.777935" xlink:href="#m31c1dbebad" y="71.049166"/>
     <use style="fill:#bf00bf;stroke:#bf00bf;" x="264.89395" xlink:href="#m31c1dbebad" y="52.231842"/>
     <use style="fill:#bf00bf;stroke:#bf00bf;" x="280.722889" xlink:href="#m31c1dbebad" y="52.650139"/>
     <use style="fill:#bf00bf;stroke:#bf00bf;" x="263.081583" xlink:href="#m31c1dbebad" y="53.0853"/>
     <use style="fill:#bf00bf;stroke:#bf00bf;" x="271.583078" xlink:href="#m31c1dbebad" y="53.372191"/>
     <use style="fill:#bf00bf;stroke:#bf00bf;" x="270.329226" xlink:href="#m31c1dbebad" y="54.396444"/>
     <use style="fill:#bf00bf;stroke:#bf00bf;" x="264.731993" xlink:href="#m31c1dbebad" y="55.839622"/>
     <use style="fill:#bf00bf;stroke:#bf00bf;" x="272.627257" xlink:href="#m31c1dbebad" y="58.690809"/>
     <use style="fill:#bf00bf;stroke:#bf00bf;" x="262.090012" xlink:href="#m31c1dbebad" y="53.32638"/>
     <use style="fill:#bf00bf;stroke:#bf00bf;" x="266.887277" xlink:href="#m31c1dbebad" y="55.546659"/>
     <use style="fill:#bf00bf;stroke:#bf00bf;" x="255.613811" xlink:href="#m31c1dbebad" y="54.292344"/>
     <use style="fill:#bf00bf;stroke:#bf00bf;" x="266.789286" xlink:href="#m31c1dbebad" y="56.316407"/>
     <use style="fill:#bf00bf;stroke:#bf00bf;" x="254.096172" xlink:href="#m31c1dbebad" y="53.883067"/>
     <use style="fill:#bf00bf;stroke:#bf00bf;" x="269.895205" xlink:href="#m31c1dbebad" y="57.198091"/>
     <use style="fill:#bf00bf;stroke:#bf00bf;" x="243.61865" xlink:href="#m31c1dbebad" y="55.024682"/>
     <use style="fill:#bf00bf;stroke:#bf00bf;" x="264.447757" xlink:href="#m31c1dbebad" y="68.082564"/>
     <use style="fill:#bf00bf;stroke:#bf00bf;" x="254.677296" xlink:href="#m31c1dbebad" y="59.398838"/>
     <use style="fill:#bf00bf;stroke:#bf00bf;" x="259.917622" xlink:href="#m31c1dbebad" y="64.317828"/>
     <use style="fill:#bf00bf;stroke:#bf00bf;" x="252.676084" xlink:href="#m31c1dbebad" y="34.329503"/>
     <use style="fill:#bf00bf;stroke:#bf00bf;" x="249.917303" xlink:href="#m31c1dbebad" y="60.730913"/>
     <use style="fill:#bf00bf;stroke:#bf00bf;" x="239.354021" xlink:href="#m31c1dbebad" y="68.888401"/>
     <use style="fill:#bf00bf;stroke:#bf00bf;" x="269.757712" xlink:href="#m31c1dbebad" y="64.123426"/>
     <use style="fill:#bf00bf;stroke:#bf00bf;" x="240.744028" xlink:href="#m31c1dbebad" y="64.235052"/>
     <use style="fill:#bf00bf;stroke:#bf00bf;" x="240.081075" xlink:href="#m31c1dbebad" y="59.151152"/>
     <use style="fill:#bf00bf;stroke:#bf00bf;" x="238.429593" xlink:href="#m31c1dbebad" y="64.802704"/>
     <use style="fill:#bf00bf;stroke:#bf00bf;" x="267.276835" xlink:href="#m31c1dbebad" y="63.995596"/>
     <use style="fill:#bf00bf;stroke:#bf00bf;" x="233.808194" xlink:href="#m31c1dbebad" y="77.116839"/>
     <use style="fill:#bf00bf;stroke:#bf00bf;" x="254.081675" xlink:href="#m31c1dbebad" y="73.156807"/>
     <use style="fill:#bf00bf;stroke:#bf00bf;" x="247.085282" xlink:href="#m31c1dbebad" y="66.610792"/>
     <use style="fill:#bf00bf;stroke:#bf00bf;" x="232.14248" xlink:href="#m31c1dbebad" y="69.373193"/>
     <use style="fill:#bf00bf;stroke:#bf00bf;" x="232.038201" xlink:href="#m31c1dbebad" y="71.930571"/>
     <use style="fill:#bf00bf;stroke:#bf00bf;" x="231.137385" xlink:href="#m31c1dbebad" y="72.836616"/>
     <use style="fill:#bf00bf;stroke:#bf00bf;" x="224.401815" xlink:href="#m31c1dbebad" y="76.192564"/>
     <use style="fill:#bf00bf;stroke:#bf00bf;" x="228.448824" xlink:href="#m31c1dbebad" y="74.255498"/>
     <use style="fill:#bf00bf;stroke:#bf00bf;" x="245.809202" xlink:href="#m31c1dbebad" y="75.862169"/>
     <use style="fill:#bf00bf;stroke:#bf00bf;" x="223.710469" xlink:href="#m31c1dbebad" y="77.237901"/>
     <use style="fill:#bf00bf;stroke:#bf00bf;" x="245.710898" xlink:href="#m31c1dbebad" y="69.828477"/>
     <use style="fill:#bf00bf;stroke:#bf00bf;" x="231.027291" xlink:href="#m31c1dbebad" y="75.847427"/>
     <use style="fill:#bf00bf;stroke:#bf00bf;" x="231.015081" xlink:href="#m31c1dbebad" y="73.400403"/>
     <use style="fill:#bf00bf;stroke:#bf00bf;" x="242.707503" xlink:href="#m31c1dbebad" y="74.144847"/>
     <use style="fill:#bf00bf;stroke:#bf00bf;" x="223.171255" xlink:href="#m31c1dbebad" y="75.426348"/>
     <use style="fill:#bf00bf;stroke:#bf00bf;" x="230.866848" xlink:href="#m31c1dbebad" y="65.354939"/>
     <use style="fill:#bf00bf;stroke:#bf00bf;" x="224.790239" xlink:href="#m31c1dbebad" y="79.091377"/>
     <use style="fill:#bf00bf;stroke:#bf00bf;" x="226.669824" xlink:href="#m31c1dbebad" y="78.470109"/>
     <use style="fill:#bf00bf;stroke:#bf00bf;" x="242.359491" xlink:href="#m31c1dbebad" y="74.316399"/>
     <use style="fill:#bf00bf;stroke:#bf00bf;" x="233.294851" xlink:href="#m31c1dbebad" y="77.617424"/>
     <use style="fill:#bf00bf;stroke:#bf00bf;" x="217.564649" xlink:href="#m31c1dbebad" y="76.511473"/>
     <use style="fill:#bf00bf;stroke:#bf00bf;" x="231.815983" xlink:href="#m31c1dbebad" y="75.387982"/>
     <use style="fill:#bf00bf;stroke:#bf00bf;" x="238.339051" xlink:href="#m31c1dbebad" y="76.135688"/>
     <use style="fill:#bf00bf;stroke:#bf00bf;" x="226.031023" xlink:href="#m31c1dbebad" y="75.416997"/>
     <use style="fill:#bf00bf;stroke:#bf00bf;" x="240.198741" xlink:href="#m31c1dbebad" y="73.746275"/>
     <use style="fill:#bf00bf;stroke:#bf00bf;" x="229.901793" xlink:href="#m31c1dbebad" y="76.842197"/>
     <use style="fill:#bf00bf;stroke:#bf00bf;" x="218.862084" xlink:href="#m31c1dbebad" y="83.194873"/>
     <use style="fill:#bf00bf;stroke:#bf00bf;" x="229.457836" xlink:href="#m31c1dbebad" y="76.802018"/>
     <use style="fill:#bf00bf;stroke:#bf00bf;" x="231.978799" xlink:href="#m31c1dbebad" y="73.378834"/>
     <use style="fill:#bf00bf;stroke:#bf00bf;" x="229.406923" xlink:href="#m31c1dbebad" y="81.118642"/>
     <use style="fill:#bf00bf;stroke:#bf00bf;" x="249.988922" xlink:href="#m31c1dbebad" y="69.37321"/>
     <use style="fill:#bf00bf;stroke:#bf00bf;" x="220.590661" xlink:href="#m31c1dbebad" y="79.689607"/>
     <use style="fill:#bf00bf;stroke:#bf00bf;" x="212.284008" xlink:href="#m31c1dbebad" y="80.952452"/>
     <use style="fill:#bf00bf;stroke:#bf00bf;" x="241.884517" xlink:href="#m31c1dbebad" y="70.847933"/>
     <use style="fill:#bf00bf;stroke:#bf00bf;" x="228.106204" xlink:href="#m31c1dbebad" y="81.900184"/>
     <use style="fill:#bf00bf;stroke:#bf00bf;" x="224.21208" xlink:href="#m31c1dbebad" y="77.035447"/>
     <use style="fill:#bf00bf;stroke:#bf00bf;" x="232.632644" xlink:href="#m31c1dbebad" y="74.42319"/>
     <use style="fill:#bf00bf;stroke:#bf00bf;" x="233.66351" xlink:href="#m31c1dbebad" y="74.244078"/>
     <use style="fill:#bf00bf;stroke:#bf00bf;" x="230.091778" xlink:href="#m31c1dbebad" y="74.321107"/>
     <use style="fill:#bf00bf;stroke:#bf00bf;" x="225.730093" xlink:href="#m31c1dbebad" y="71.412091"/>
     <use style="fill:#bf00bf;stroke:#bf00bf;" x="223.162247" xlink:href="#m31c1dbebad" y="78.83606"/>
     <use style="fill:#bf00bf;stroke:#bf00bf;" x="206.339388" xlink:href="#m31c1dbebad" y="76.148835"/>
     <use style="fill:#bf00bf;stroke:#bf00bf;" x="239.342876" xlink:href="#m31c1dbebad" y="77.191287"/>
     <use style="fill:#bf00bf;stroke:#bf00bf;" x="226.370086" xlink:href="#m31c1dbebad" y="81.870381"/>
     <use style="fill:#bf00bf;stroke:#bf00bf;" x="220.49346" xlink:href="#m31c1dbebad" y="78.810077"/>
     <use style="fill:#bf00bf;stroke:#bf00bf;" x="235.111195" xlink:href="#m31c1dbebad" y="75.766364"/>
     <use style="fill:#bf00bf;stroke:#bf00bf;" x="215.480787" xlink:href="#m31c1dbebad" y="73.402023"/>
     <use style="fill:#bf00bf;stroke:#bf00bf;" x="226.828853" xlink:href="#m31c1dbebad" y="77.076114"/>
     <use style="fill:#bf00bf;stroke:#bf00bf;" x="219.902491" xlink:href="#m31c1dbebad" y="82.278117"/>
     <use style="fill:#bf00bf;stroke:#bf00bf;" x="218.36292" xlink:href="#m31c1dbebad" y="81.282651"/>
     <use style="fill:#bf00bf;stroke:#bf00bf;" x="220.815062" xlink:href="#m31c1dbebad" y="82.359684"/>
     <use style="fill:#bf00bf;stroke:#bf00bf;" x="216.752322" xlink:href="#m31c1dbebad" y="81.635088"/>
     <use style="fill:#bf00bf;stroke:#bf00bf;" x="231.597079" xlink:href="#m31c1dbebad" y="80.811847"/>
     <use style="fill:#bf00bf;stroke:#bf00bf;" x="212.374283" xlink:href="#m31c1dbebad" y="80.107375"/>
     <use style="fill:#bf00bf;stroke:#bf00bf;" x="237.445289" xlink:href="#m31c1dbebad" y="78.030085"/>
     <use style="fill:#bf00bf;stroke:#bf00bf;" x="233.285228" xlink:href="#m31c1dbebad" y="79.109081"/>
     <use style="fill:#bf00bf;stroke:#bf00bf;" x="221.061416" xlink:href="#m31c1dbebad" y="74.343303"/>
     <use style="fill:#bf00bf;stroke:#bf00bf;" x="235.943774" xlink:href="#m31c1dbebad" y="81.080692"/>
     <use style="fill:#bf00bf;stroke:#bf00bf;" x="221.548151" xlink:href="#m31c1dbebad" y="72.919764"/>
     <use style="fill:#bf00bf;stroke:#bf00bf;" x="236.257735" xlink:href="#m31c1dbebad" y="75.273521"/>
     <use style="fill:#bf00bf;stroke:#bf00bf;" x="234.188544" xlink:href="#m31c1dbebad" y="82.405907"/>
     <use style="fill:#bf00bf;stroke:#bf00bf;" x="226.609082" xlink:href="#m31c1dbebad" y="84.121329"/>
     <use style="fill:#bf00bf;stroke:#bf00bf;" x="212.878853" xlink:href="#m31c1dbebad" y="80.875012"/>
     <use style="fill:#bf00bf;stroke:#bf00bf;" x="211.539051" xlink:href="#m31c1dbebad" y="83.248446"/>
     <use style="fill:#bf00bf;stroke:#bf00bf;" x="214.370212" xlink:href="#m31c1dbebad" y="83.766625"/>
     <use style="fill:#bf00bf;stroke:#bf00bf;" x="235.215206" xlink:href="#m31c1dbebad" y="83.301358"/>
     <use style="fill:#bf00bf;stroke:#bf00bf;" x="218.571188" xlink:href="#m31c1dbebad" y="86.796751"/>
     <use style="fill:#bf00bf;stroke:#bf00bf;" x="217.529625" xlink:href="#m31c1dbebad" y="78.246813"/>
     <use style="fill:#bf00bf;stroke:#bf00bf;" x="232.853182" xlink:href="#m31c1dbebad" y="74.746453"/>
     <use style="fill:#bf00bf;stroke:#bf00bf;" x="209.076153" xlink:href="#m31c1dbebad" y="83.145858"/>
     <use style="fill:#bf00bf;stroke:#bf00bf;" x="203.441517" xlink:href="#m31c1dbebad" y="85.3533"/>
     <use style="fill:#bf00bf;stroke:#bf00bf;" x="213.973486" xlink:href="#m31c1dbebad" y="81.207777"/>
     <use style="fill:#bf00bf;stroke:#bf00bf;" x="228.410557" xlink:href="#m31c1dbebad" y="81.926728"/>
     <use style="fill:#bf00bf;stroke:#bf00bf;" x="223.889012" xlink:href="#m31c1dbebad" y="81.140611"/>
     <use style="fill:#bf00bf;stroke:#bf00bf;" x="236.29874" xlink:href="#m31c1dbebad" y="81.623155"/>
     <use style="fill:#bf00bf;stroke:#bf00bf;" x="223.995411" xlink:href="#m31c1dbebad" y="79.84763"/>
     <use style="fill:#bf00bf;stroke:#bf00bf;" x="223.442014" xlink:href="#m31c1dbebad" y="81.220419"/>
     <use style="fill:#bf00bf;stroke:#bf00bf;" x="212.973249" xlink:href="#m31c1dbebad" y="79.561593"/>
     <use style="fill:#bf00bf;stroke:#bf00bf;" x="219.510829" xlink:href="#m31c1dbebad" y="82.846549"/>
     <use style="fill:#bf00bf;stroke:#bf00bf;" x="230.769168" xlink:href="#m31c1dbebad" y="76.310004"/>
     <use style="fill:#bf00bf;stroke:#bf00bf;" x="228.460805" xlink:href="#m31c1dbebad" y="75.674321"/>
     <use style="fill:#bf00bf;stroke:#bf00bf;" x="226.140737" xlink:href="#m31c1dbebad" y="82.202052"/>
     <use style="fill:#bf00bf;stroke:#bf00bf;" x="219.88864" xlink:href="#m31c1dbebad" y="81.0694"/>
     <use style="fill:#bf00bf;stroke:#bf00bf;" x="222.34551" xlink:href="#m31c1dbebad" y="83.206944"/>
     <use style="fill:#bf00bf;stroke:#bf00bf;" x="217.743421" xlink:href="#m31c1dbebad" y="82.552253"/>
     <use style="fill:#bf00bf;stroke:#bf00bf;" x="220.033545" xlink:href="#m31c1dbebad" y="82.018928"/>
    </g>
   </g>
   <g id="PathCollection_2">
    <defs>
     <path d="M -1.581139 0 
L 1.581139 0 
M 0 1.581139 
L 0 -1.581139 
" id="m8af73951e5" style="stroke:#0000ff;"/>
    </defs>
    <g clip-path="url(#pccbf954e2f)">
     <use style="fill:#0000ff;stroke:#0000ff;" x="83.875804" xlink:href="#m8af73951e5" y="152.38005"/>
     <use style="fill:#0000ff;stroke:#0000ff;" x="74.575804" xlink:href="#m8af73951e5" y="171.723675"/>
     <use style="fill:#0000ff;stroke:#0000ff;" x="74.575804" xlink:href="#m8af73951e5" y="172.196818"/>
     <use style="fill:#0000ff;stroke:#0000ff;" x="74.575804" xlink:href="#m8af73951e5" y="172.229732"/>
     <use style="fill:#0000ff;stroke:#0000ff;" x="74.575804" xlink:href="#m8af73951e5" y="172.229732"/>
     <use style="fill:#0000ff;stroke:#0000ff;" x="74.575804" xlink:href="#m8af73951e5" y="172.229732"/>
     <use style="fill:#0000ff;stroke:#0000ff;" x="74.575804" xlink:href="#m8af73951e5" y="172.229732"/>
     <use style="fill:#0000ff;stroke:#0000ff;" x="74.575804" xlink:href="#m8af73951e5" y="172.229732"/>
     <use style="fill:#0000ff;stroke:#0000ff;" x="74.575804" xlink:href="#m8af73951e5" y="155.883125"/>
     <use style="fill:#0000ff;stroke:#0000ff;" x="74.575804" xlink:href="#m8af73951e5" y="172.258532"/>
     <use style="fill:#0000ff;stroke:#0000ff;" x="74.575804" xlink:href="#m8af73951e5" y="169.877689"/>
     <use style="fill:#0000ff;stroke:#0000ff;" x="74.575804" xlink:href="#m8af73951e5" y="172.521846"/>
     <use style="fill:#0000ff;stroke:#0000ff;" x="73.247232" xlink:href="#m8af73951e5" y="172.435446"/>
     <use style="fill:#0000ff;stroke:#0000ff;" x="72.582946" xlink:href="#m8af73951e5" y="173.060818"/>
     <use style="fill:#0000ff;stroke:#0000ff;" x="73.247232" xlink:href="#m8af73951e5" y="173.426989"/>
     <use style="fill:#0000ff;stroke:#0000ff;" x="72.582946" xlink:href="#m8af73951e5" y="173.130761"/>
     <use style="fill:#0000ff;stroke:#0000ff;" x="72.582946" xlink:href="#m8af73951e5" y="169.524502"/>
     <use style="fill:#0000ff;stroke:#0000ff;" x="71.918661" xlink:href="#m8af73951e5" y="174.328018"/>
     <use style="fill:#0000ff;stroke:#0000ff;" x="71.254375" xlink:href="#m8af73951e5" y="173.879561"/>
     <use style="fill:#0000ff;stroke:#0000ff;" x="71.918661" xlink:href="#m8af73951e5" y="174.488475"/>
     <use style="fill:#0000ff;stroke:#0000ff;" x="70.590089" xlink:href="#m8af73951e5" y="174.142875"/>
     <use style="fill:#0000ff;stroke:#0000ff;" x="70.590089" xlink:href="#m8af73951e5" y="174.611904"/>
     <use style="fill:#0000ff;stroke:#0000ff;" x="70.590089" xlink:href="#m8af73951e5" y="174.673618"/>
     <use style="fill:#0000ff;stroke:#0000ff;" x="70.590089" xlink:href="#m8af73951e5" y="174.653046"/>
     <use style="fill:#0000ff;stroke:#0000ff;" x="70.590089" xlink:href="#m8af73951e5" y="175.422418"/>
     <use style="fill:#0000ff;stroke:#0000ff;" x="68.597232" xlink:href="#m8af73951e5" y="175.554075"/>
     <use style="fill:#0000ff;stroke:#0000ff;" x="68.597232" xlink:href="#m8af73951e5" y="175.718646"/>
     <use style="fill:#0000ff;stroke:#0000ff;" x="68.597232" xlink:href="#m8af73951e5" y="175.488246"/>
     <use style="fill:#0000ff;stroke:#0000ff;" x="68.597232" xlink:href="#m8af73951e5" y="175.932589"/>
     <use style="fill:#0000ff;stroke:#0000ff;" x="68.597232" xlink:href="#m8af73951e5" y="175.932589"/>
     <use style="fill:#0000ff;stroke:#0000ff;" x="68.597232" xlink:href="#m8af73951e5" y="175.932589"/>
     <use style="fill:#0000ff;stroke:#0000ff;" x="68.597232" xlink:href="#m8af73951e5" y="175.932589"/>
     <use style="fill:#0000ff;stroke:#0000ff;" x="68.597232" xlink:href="#m8af73951e5" y="175.932589"/>
     <use style="fill:#0000ff;stroke:#0000ff;" x="68.597232" xlink:href="#m8af73951e5" y="175.944932"/>
     <use style="fill:#0000ff;stroke:#0000ff;" x="68.597232" xlink:href="#m8af73951e5" y="175.944932"/>
     <use style="fill:#0000ff;stroke:#0000ff;" x="68.597232" xlink:href="#m8af73951e5" y="175.932589"/>
     <use style="fill:#0000ff;stroke:#0000ff;" x="68.597232" xlink:href="#m8af73951e5" y="175.969618"/>
     <use style="fill:#0000ff;stroke:#0000ff;" x="68.597232" xlink:href="#m8af73951e5" y="176.146532"/>
     <use style="fill:#0000ff;stroke:#0000ff;" x="66.604375" xlink:href="#m8af73951e5" y="177.010532"/>
     <use style="fill:#0000ff;stroke:#0000ff;" x="66.604375" xlink:href="#m8af73951e5" y="176.475675"/>
     <use style="fill:#0000ff;stroke:#0000ff;" x="67.268661" xlink:href="#m8af73951e5" y="177.154532"/>
     <use style="fill:#0000ff;stroke:#0000ff;" x="66.604375" xlink:href="#m8af73951e5" y="177.125732"/>
     <use style="fill:#0000ff;stroke:#0000ff;" x="66.604375" xlink:href="#m8af73951e5" y="177.166875"/>
     <use style="fill:#0000ff;stroke:#0000ff;" x="66.604375" xlink:href="#m8af73951e5" y="177.162761"/>
     <use style="fill:#0000ff;stroke:#0000ff;" x="66.604375" xlink:href="#m8af73951e5" y="177.166875"/>
     <use style="fill:#0000ff;stroke:#0000ff;" x="66.604375" xlink:href="#m8af73951e5" y="177.166875"/>
     <use style="fill:#0000ff;stroke:#0000ff;" x="66.604375" xlink:href="#m8af73951e5" y="177.166875"/>
     <use style="fill:#0000ff;stroke:#0000ff;" x="66.604375" xlink:href="#m8af73951e5" y="177.166875"/>
     <use style="fill:#0000ff;stroke:#0000ff;" x="66.604375" xlink:href="#m8af73951e5" y="177.166875"/>
     <use style="fill:#0000ff;stroke:#0000ff;" x="66.604375" xlink:href="#m8af73951e5" y="177.166875"/>
     <use style="fill:#0000ff;stroke:#0000ff;" x="66.604375" xlink:href="#m8af73951e5" y="177.166875"/>
     <use style="fill:#0000ff;stroke:#0000ff;" x="66.604375" xlink:href="#m8af73951e5" y="177.162761"/>
     <use style="fill:#0000ff;stroke:#0000ff;" x="66.604375" xlink:href="#m8af73951e5" y="177.166875"/>
     <use style="fill:#0000ff;stroke:#0000ff;" x="66.604375" xlink:href="#m8af73951e5" y="177.166875"/>
     <use style="fill:#0000ff;stroke:#0000ff;" x="66.604375" xlink:href="#m8af73951e5" y="177.166875"/>
     <use style="fill:#0000ff;stroke:#0000ff;" x="66.604375" xlink:href="#m8af73951e5" y="177.183332"/>
     <use style="fill:#0000ff;stroke:#0000ff;" x="66.604375" xlink:href="#m8af73951e5" y="177.166875"/>
     <use style="fill:#0000ff;stroke:#0000ff;" x="66.604375" xlink:href="#m8af73951e5" y="177.166875"/>
     <use style="fill:#0000ff;stroke:#0000ff;" x="66.604375" xlink:href="#m8af73951e5" y="177.166875"/>
     <use style="fill:#0000ff;stroke:#0000ff;" x="66.604375" xlink:href="#m8af73951e5" y="177.166875"/>
     <use style="fill:#0000ff;stroke:#0000ff;" x="66.604375" xlink:href="#m8af73951e5" y="177.166875"/>
     <use style="fill:#0000ff;stroke:#0000ff;" x="66.604375" xlink:href="#m8af73951e5" y="177.166875"/>
     <use style="fill:#0000ff;stroke:#0000ff;" x="66.604375" xlink:href="#m8af73951e5" y="177.166875"/>
     <use style="fill:#0000ff;stroke:#0000ff;" x="66.604375" xlink:href="#m8af73951e5" y="77.283576"/>
     <use style="fill:#0000ff;stroke:#0000ff;" x="66.604375" xlink:href="#m8af73951e5" y="177.166875"/>
     <use style="fill:#0000ff;stroke:#0000ff;" x="66.604375" xlink:href="#m8af73951e5" y="177.170989"/>
     <use style="fill:#0000ff;stroke:#0000ff;" x="66.604375" xlink:href="#m8af73951e5" y="177.166875"/>
     <use style="fill:#0000ff;stroke:#0000ff;" x="66.604375" xlink:href="#m8af73951e5" y="177.125732"/>
     <use style="fill:#0000ff;stroke:#0000ff;" x="66.604375" xlink:href="#m8af73951e5" y="177.162761"/>
     <use style="fill:#0000ff;stroke:#0000ff;" x="65.940089" xlink:href="#m8af73951e5" y="174.846418"/>
     <use style="fill:#0000ff;stroke:#0000ff;" x="73.247232" xlink:href="#m8af73951e5" y="177.442532"/>
     <use style="fill:#0000ff;stroke:#0000ff;" x="66.604375" xlink:href="#m8af73951e5" y="175.944932"/>
     <use style="fill:#0000ff;stroke:#0000ff;" x="65.940089" xlink:href="#m8af73951e5" y="177.277961"/>
     <use style="fill:#0000ff;stroke:#0000ff;" x="65.940089" xlink:href="#m8af73951e5" y="177.454875"/>
     <use style="fill:#0000ff;stroke:#0000ff;" x="65.940089" xlink:href="#m8af73951e5" y="177.586532"/>
     <use style="fill:#0000ff;stroke:#0000ff;" x="65.940089" xlink:href="#m8af73951e5" y="177.611218"/>
     <use style="fill:#0000ff;stroke:#0000ff;" x="65.940089" xlink:href="#m8af73951e5" y="178.080246"/>
     <use style="fill:#0000ff;stroke:#0000ff;" x="64.611518" xlink:href="#m8af73951e5" y="177.784018"/>
     <use style="fill:#0000ff;stroke:#0000ff;" x="64.611518" xlink:href="#m8af73951e5" y="178.318875"/>
     <use style="fill:#0000ff;stroke:#0000ff;" x="64.611518" xlink:href="#m8af73951e5" y="178.401161"/>
     <use style="fill:#0000ff;stroke:#0000ff;" x="64.611518" xlink:href="#m8af73951e5" y="178.392932"/>
     <use style="fill:#0000ff;stroke:#0000ff;" x="64.611518" xlink:href="#m8af73951e5" y="178.335332"/>
     <use style="fill:#0000ff;stroke:#0000ff;" x="64.611518" xlink:href="#m8af73951e5" y="178.401161"/>
     <use style="fill:#0000ff;stroke:#0000ff;" x="64.611518" xlink:href="#m8af73951e5" y="178.401161"/>
     <use style="fill:#0000ff;stroke:#0000ff;" x="64.611518" xlink:href="#m8af73951e5" y="178.401161"/>
     <use style="fill:#0000ff;stroke:#0000ff;" x="64.611518" xlink:href="#m8af73951e5" y="178.401161"/>
     <use style="fill:#0000ff;stroke:#0000ff;" x="64.611518" xlink:href="#m8af73951e5" y="178.401161"/>
     <use style="fill:#0000ff;stroke:#0000ff;" x="64.611518" xlink:href="#m8af73951e5" y="178.401161"/>
     <use style="fill:#0000ff;stroke:#0000ff;" x="64.611518" xlink:href="#m8af73951e5" y="178.401161"/>
     <use style="fill:#0000ff;stroke:#0000ff;" x="64.611518" xlink:href="#m8af73951e5" y="178.401161"/>
     <use style="fill:#0000ff;stroke:#0000ff;" x="64.611518" xlink:href="#m8af73951e5" y="178.401161"/>
     <use style="fill:#0000ff;stroke:#0000ff;" x="64.611518" xlink:href="#m8af73951e5" y="178.401161"/>
     <use style="fill:#0000ff;stroke:#0000ff;" x="64.611518" xlink:href="#m8af73951e5" y="178.401161"/>
     <use style="fill:#0000ff;stroke:#0000ff;" x="64.611518" xlink:href="#m8af73951e5" y="178.401161"/>
     <use style="fill:#0000ff;stroke:#0000ff;" x="64.611518" xlink:href="#m8af73951e5" y="178.401161"/>
     <use style="fill:#0000ff;stroke:#0000ff;" x="64.611518" xlink:href="#m8af73951e5" y="178.401161"/>
     <use style="fill:#0000ff;stroke:#0000ff;" x="64.611518" xlink:href="#m8af73951e5" y="178.401161"/>
     <use style="fill:#0000ff;stroke:#0000ff;" x="64.611518" xlink:href="#m8af73951e5" y="178.401161"/>
     <use style="fill:#0000ff;stroke:#0000ff;" x="64.611518" xlink:href="#m8af73951e5" y="178.401161"/>
     <use style="fill:#0000ff;stroke:#0000ff;" x="64.611518" xlink:href="#m8af73951e5" y="178.401161"/>
     <use style="fill:#0000ff;stroke:#0000ff;" x="64.611518" xlink:href="#m8af73951e5" y="178.401161"/>
     <use style="fill:#0000ff;stroke:#0000ff;" x="64.611518" xlink:href="#m8af73951e5" y="178.401161"/>
     <use style="fill:#0000ff;stroke:#0000ff;" x="64.611518" xlink:href="#m8af73951e5" y="178.401161"/>
     <use style="fill:#0000ff;stroke:#0000ff;" x="64.611518" xlink:href="#m8af73951e5" y="178.401161"/>
     <use style="fill:#0000ff;stroke:#0000ff;" x="64.611518" xlink:href="#m8af73951e5" y="178.401161"/>
     <use style="fill:#0000ff;stroke:#0000ff;" x="64.611518" xlink:href="#m8af73951e5" y="178.401161"/>
     <use style="fill:#0000ff;stroke:#0000ff;" x="64.611518" xlink:href="#m8af73951e5" y="178.401161"/>
     <use style="fill:#0000ff;stroke:#0000ff;" x="64.611518" xlink:href="#m8af73951e5" y="178.401161"/>
     <use style="fill:#0000ff;stroke:#0000ff;" x="64.611518" xlink:href="#m8af73951e5" y="178.401161"/>
     <use style="fill:#0000ff;stroke:#0000ff;" x="64.611518" xlink:href="#m8af73951e5" y="178.401161"/>
     <use style="fill:#0000ff;stroke:#0000ff;" x="64.611518" xlink:href="#m8af73951e5" y="178.401161"/>
     <use style="fill:#0000ff;stroke:#0000ff;" x="64.611518" xlink:href="#m8af73951e5" y="178.030875"/>
     <use style="fill:#0000ff;stroke:#0000ff;" x="64.611518" xlink:href="#m8af73951e5" y="178.401161"/>
     <use style="fill:#0000ff;stroke:#0000ff;" x="64.611518" xlink:href="#m8af73951e5" y="178.401161"/>
     <use style="fill:#0000ff;stroke:#0000ff;" x="64.611518" xlink:href="#m8af73951e5" y="178.401161"/>
     <use style="fill:#0000ff;stroke:#0000ff;" x="64.611518" xlink:href="#m8af73951e5" y="178.401161"/>
     <use style="fill:#0000ff;stroke:#0000ff;" x="64.611518" xlink:href="#m8af73951e5" y="178.401161"/>
    </g>
   </g>
   <g id="PathCollection_3">
    <defs>
     <path d="M 0 -1.581139 
L -0.354988 -0.488599 
L -1.503752 -0.488599 
L -0.574382 0.186628 
L -0.92937 1.279168 
L -0 0.603941 
L 0.92937 1.279168 
L 0.574382 0.186628 
L 1.503752 -0.488599 
L 0.354988 -0.488599 
z
" id="me725a970ff" style="stroke:#008000;"/>
    </defs>
    <g clip-path="url(#pccbf954e2f)">
     <use style="fill:#008000;stroke:#008000;" x="304.961582" xlink:href="#me725a970ff" y="29.99232"/>
     <use style="fill:#008000;stroke:#008000;" x="304.004934" xlink:href="#me725a970ff" y="30.199824"/>
     <use style="fill:#008000;stroke:#008000;" x="300.840186" xlink:href="#me725a970ff" y="28.860432"/>
     <use style="fill:#008000;stroke:#008000;" x="308.396089" xlink:href="#me725a970ff" y="30.687695"/>
     <use style="fill:#008000;stroke:#008000;" x="308.112711" xlink:href="#me725a970ff" y="30.235442"/>
     <use style="fill:#008000;stroke:#008000;" x="306.872302" xlink:href="#me725a970ff" y="29.580601"/>
     <use style="fill:#008000;stroke:#008000;" x="297.645405" xlink:href="#me725a970ff" y="31.863949"/>
     <use style="fill:#008000;stroke:#008000;" x="298.842761" xlink:href="#me725a970ff" y="32.930816"/>
     <use style="fill:#008000;stroke:#008000;" x="302.3992" xlink:href="#me725a970ff" y="33.62395"/>
     <use style="fill:#008000;stroke:#008000;" x="300.247849" xlink:href="#me725a970ff" y="31.93823"/>
     <use style="fill:#008000;stroke:#008000;" x="297.4776" xlink:href="#me725a970ff" y="34.091787"/>
     <use style="fill:#008000;stroke:#008000;" x="295.97467" xlink:href="#me725a970ff" y="33.660156"/>
     <use style="fill:#008000;stroke:#008000;" x="294.941549" xlink:href="#me725a970ff" y="34.263099"/>
     <use style="fill:#008000;stroke:#008000;" x="299.586059" xlink:href="#me725a970ff" y="34.582016"/>
     <use style="fill:#008000;stroke:#008000;" x="298.25078" xlink:href="#me725a970ff" y="36.223004"/>
     <use style="fill:#008000;stroke:#008000;" x="294.021777" xlink:href="#me725a970ff" y="34.008891"/>
     <use style="fill:#008000;stroke:#008000;" x="298.137805" xlink:href="#me725a970ff" y="37.80375"/>
     <use style="fill:#008000;stroke:#008000;" x="296.178263" xlink:href="#me725a970ff" y="37.182657"/>
     <use style="fill:#008000;stroke:#008000;" x="294.264724" xlink:href="#me725a970ff" y="36.718487"/>
     <use style="fill:#008000;stroke:#008000;" x="291.933557" xlink:href="#me725a970ff" y="36.664724"/>
     <use style="fill:#008000;stroke:#008000;" x="289.610148" xlink:href="#me725a970ff" y="36.792157"/>
     <use style="fill:#008000;stroke:#008000;" x="287.979418" xlink:href="#me725a970ff" y="37.15899"/>
     <use style="fill:#008000;stroke:#008000;" x="289.799163" xlink:href="#me725a970ff" y="39.360211"/>
     <use style="fill:#008000;stroke:#008000;" x="298.727661" xlink:href="#me725a970ff" y="38.450685"/>
     <use style="fill:#008000;stroke:#008000;" x="288.208503" xlink:href="#me725a970ff" y="39.019441"/>
     <use style="fill:#008000;stroke:#008000;" x="290.655146" xlink:href="#me725a970ff" y="36.671163"/>
     <use style="fill:#008000;stroke:#008000;" x="290.108317" xlink:href="#me725a970ff" y="40.309037"/>
     <use style="fill:#008000;stroke:#008000;" x="285.9703" xlink:href="#me725a970ff" y="39.538707"/>
     <use style="fill:#008000;stroke:#008000;" x="290.121383" xlink:href="#me725a970ff" y="41.068346"/>
     <use style="fill:#008000;stroke:#008000;" x="284.139671" xlink:href="#me725a970ff" y="40.698333"/>
     <use style="fill:#008000;stroke:#008000;" x="294.374806" xlink:href="#me725a970ff" y="37.811922"/>
     <use style="fill:#008000;stroke:#008000;" x="294.746704" xlink:href="#me725a970ff" y="37.456995"/>
     <use style="fill:#008000;stroke:#008000;" x="283.764817" xlink:href="#me725a970ff" y="40.093032"/>
     <use style="fill:#008000;stroke:#008000;" x="281.299315" xlink:href="#me725a970ff" y="39.980525"/>
     <use style="fill:#008000;stroke:#008000;" x="297.730705" xlink:href="#me725a970ff" y="39.025669"/>
     <use style="fill:#008000;stroke:#008000;" x="294.537994" xlink:href="#me725a970ff" y="39.511016"/>
     <use style="fill:#008000;stroke:#008000;" x="285.028882" xlink:href="#me725a970ff" y="42.755566"/>
     <use style="fill:#008000;stroke:#008000;" x="279.974108" xlink:href="#me725a970ff" y="40.399747"/>
     <use style="fill:#008000;stroke:#008000;" x="285.838809" xlink:href="#me725a970ff" y="39.735165"/>
     <use style="fill:#008000;stroke:#008000;" x="283.266714" xlink:href="#me725a970ff" y="42.189908"/>
     <use style="fill:#008000;stroke:#008000;" x="290.704489" xlink:href="#me725a970ff" y="41.16845"/>
     <use style="fill:#008000;stroke:#008000;" x="285.702317" xlink:href="#me725a970ff" y="39.626137"/>
     <use style="fill:#008000;stroke:#008000;" x="288.543412" xlink:href="#me725a970ff" y="39.29236"/>
     <use style="fill:#008000;stroke:#008000;" x="289.025869" xlink:href="#me725a970ff" y="39.290885"/>
     <use style="fill:#008000;stroke:#008000;" x="282.414066" xlink:href="#me725a970ff" y="40.361743"/>
     <use style="fill:#008000;stroke:#008000;" x="297.71972" xlink:href="#me725a970ff" y="40.033279"/>
     <use style="fill:#008000;stroke:#008000;" x="292.731518" xlink:href="#me725a970ff" y="43.235738"/>
     <use style="fill:#008000;stroke:#008000;" x="282.26525" xlink:href="#me725a970ff" y="41.511851"/>
     <use style="fill:#008000;stroke:#008000;" x="288.592242" xlink:href="#me725a970ff" y="38.743873"/>
     <use style="fill:#008000;stroke:#008000;" x="285.197237" xlink:href="#me725a970ff" y="41.763679"/>
     <use style="fill:#008000;stroke:#008000;" x="281.581455" xlink:href="#me725a970ff" y="42.71324"/>
     <use style="fill:#008000;stroke:#008000;" x="280.898681" xlink:href="#me725a970ff" y="42.564396"/>
     <use style="fill:#008000;stroke:#008000;" x="287.615828" xlink:href="#me725a970ff" y="41.682471"/>
     <use style="fill:#008000;stroke:#008000;" x="281.986983" xlink:href="#me725a970ff" y="40.936472"/>
     <use style="fill:#008000;stroke:#008000;" x="285.676638" xlink:href="#me725a970ff" y="35.534525"/>
     <use style="fill:#008000;stroke:#008000;" x="289.644885" xlink:href="#me725a970ff" y="40.427669"/>
     <use style="fill:#008000;stroke:#008000;" x="290.902516" xlink:href="#me725a970ff" y="39.653086"/>
     <use style="fill:#008000;stroke:#008000;" x="287.164433" xlink:href="#me725a970ff" y="40.220229"/>
     <use style="fill:#008000;stroke:#008000;" x="289.417442" xlink:href="#me725a970ff" y="40.529312"/>
     <use style="fill:#008000;stroke:#008000;" x="287.881367" xlink:href="#me725a970ff" y="42.159011"/>
     <use style="fill:#008000;stroke:#008000;" x="284.410037" xlink:href="#me725a970ff" y="40.010447"/>
     <use style="fill:#008000;stroke:#008000;" x="284.076333" xlink:href="#me725a970ff" y="39.997961"/>
     <use style="fill:#008000;stroke:#008000;" x="293.995056" xlink:href="#me725a970ff" y="41.415484"/>
     <use style="fill:#008000;stroke:#008000;" x="285.684749" xlink:href="#me725a970ff" y="39.631475"/>
     <use style="fill:#008000;stroke:#008000;" x="298.312689" xlink:href="#me725a970ff" y="39.590503"/>
     <use style="fill:#008000;stroke:#008000;" x="287.149179" xlink:href="#me725a970ff" y="38.109255"/>
     <use style="fill:#008000;stroke:#008000;" x="290.762762" xlink:href="#me725a970ff" y="40.308412"/>
     <use style="fill:#008000;stroke:#008000;" x="281.730562" xlink:href="#me725a970ff" y="39.169034"/>
     <use style="fill:#008000;stroke:#008000;" x="291.154925" xlink:href="#me725a970ff" y="41.272414"/>
     <use style="fill:#008000;stroke:#008000;" x="290.038051" xlink:href="#me725a970ff" y="41.654442"/>
     <use style="fill:#008000;stroke:#008000;" x="281.802725" xlink:href="#me725a970ff" y="41.540526"/>
     <use style="fill:#008000;stroke:#008000;" x="281.111754" xlink:href="#me725a970ff" y="39.741902"/>
     <use style="fill:#008000;stroke:#008000;" x="284.182655" xlink:href="#me725a970ff" y="40.154561"/>
     <use style="fill:#008000;stroke:#008000;" x="289.279957" xlink:href="#me725a970ff" y="42.694379"/>
     <use style="fill:#008000;stroke:#008000;" x="290.742204" xlink:href="#me725a970ff" y="42.079887"/>
     <use style="fill:#008000;stroke:#008000;" x="281.068905" xlink:href="#me725a970ff" y="40.229358"/>
     <use style="fill:#008000;stroke:#008000;" x="283.686218" xlink:href="#me725a970ff" y="41.333141"/>
     <use style="fill:#008000;stroke:#008000;" x="282.598112" xlink:href="#me725a970ff" y="39.720071"/>
     <use style="fill:#008000;stroke:#008000;" x="286.221441" xlink:href="#me725a970ff" y="40.911584"/>
     <use style="fill:#008000;stroke:#008000;" x="286.421382" xlink:href="#me725a970ff" y="41.908589"/>
     <use style="fill:#008000;stroke:#008000;" x="287.428686" xlink:href="#me725a970ff" y="39.330858"/>
     <use style="fill:#008000;stroke:#008000;" x="294.611533" xlink:href="#me725a970ff" y="42.465627"/>
     <use style="fill:#008000;stroke:#008000;" x="282.494785" xlink:href="#me725a970ff" y="41.301946"/>
     <use style="fill:#008000;stroke:#008000;" x="284.179056" xlink:href="#me725a970ff" y="42.107152"/>
     <use style="fill:#008000;stroke:#008000;" x="284.693829" xlink:href="#me725a970ff" y="42.758922"/>
     <use style="fill:#008000;stroke:#008000;" x="282.929444" xlink:href="#me725a970ff" y="40.974521"/>
     <use style="fill:#008000;stroke:#008000;" x="283.544348" xlink:href="#me725a970ff" y="40.118065"/>
     <use style="fill:#008000;stroke:#008000;" x="282.888512" xlink:href="#me725a970ff" y="42.402652"/>
     <use style="fill:#008000;stroke:#008000;" x="282.21941" xlink:href="#me725a970ff" y="42.195231"/>
     <use style="fill:#008000;stroke:#008000;" x="281.228259" xlink:href="#me725a970ff" y="41.85705"/>
     <use style="fill:#008000;stroke:#008000;" x="281.75545" xlink:href="#me725a970ff" y="42.179899"/>
     <use style="fill:#008000;stroke:#008000;" x="281.611393" xlink:href="#me725a970ff" y="43.280732"/>
     <use style="fill:#008000;stroke:#008000;" x="282.275467" xlink:href="#me725a970ff" y="42.198811"/>
     <use style="fill:#008000;stroke:#008000;" x="284.090616" xlink:href="#me725a970ff" y="42.329519"/>
     <use style="fill:#008000;stroke:#008000;" x="287.10058" xlink:href="#me725a970ff" y="41.17742"/>
     <use style="fill:#008000;stroke:#008000;" x="285.820011" xlink:href="#me725a970ff" y="41.441921"/>
     <use style="fill:#008000;stroke:#008000;" x="287.434705" xlink:href="#me725a970ff" y="41.805311"/>
     <use style="fill:#008000;stroke:#008000;" x="283.153382" xlink:href="#me725a970ff" y="42.463526"/>
     <use style="fill:#008000;stroke:#008000;" x="284.361989" xlink:href="#me725a970ff" y="42.079351"/>
     <use style="fill:#008000;stroke:#008000;" x="284.933713" xlink:href="#me725a970ff" y="42.096591"/>
     <use style="fill:#008000;stroke:#008000;" x="281.576293" xlink:href="#me725a970ff" y="36.929365"/>
     <use style="fill:#008000;stroke:#008000;" x="283.03654" xlink:href="#me725a970ff" y="41.049272"/>
     <use style="fill:#008000;stroke:#008000;" x="289.101409" xlink:href="#me725a970ff" y="41.043482"/>
     <use style="fill:#008000;stroke:#008000;" x="286.345109" xlink:href="#me725a970ff" y="41.180552"/>
     <use style="fill:#008000;stroke:#008000;" x="291.74803" xlink:href="#me725a970ff" y="41.596557"/>
     <use style="fill:#008000;stroke:#008000;" x="292.016706" xlink:href="#me725a970ff" y="41.388118"/>
     <use style="fill:#008000;stroke:#008000;" x="285.819642" xlink:href="#me725a970ff" y="40.042841"/>
     <use style="fill:#008000;stroke:#008000;" x="284.233465" xlink:href="#me725a970ff" y="39.585563"/>
     <use style="fill:#008000;stroke:#008000;" x="298.064342" xlink:href="#me725a970ff" y="38.241269"/>
     <use style="fill:#008000;stroke:#008000;" x="292.678536" xlink:href="#me725a970ff" y="37.132332"/>
     <use style="fill:#008000;stroke:#008000;" x="285.163379" xlink:href="#me725a970ff" y="42.366702"/>
     <use style="fill:#008000;stroke:#008000;" x="282.230933" xlink:href="#me725a970ff" y="39.355236"/>
     <use style="fill:#008000;stroke:#008000;" x="282.536608" xlink:href="#me725a970ff" y="40.702063"/>
     <use style="fill:#008000;stroke:#008000;" x="291.12041" xlink:href="#me725a970ff" y="37.540379"/>
     <use style="fill:#008000;stroke:#008000;" x="293.281832" xlink:href="#me725a970ff" y="41.474092"/>
     <use style="fill:#008000;stroke:#008000;" x="287.274085" xlink:href="#me725a970ff" y="38.693626"/>
     <use style="fill:#008000;stroke:#008000;" x="289.546362" xlink:href="#me725a970ff" y="38.941291"/>
    </g>
   </g>
   <g id="line2d_1">
    <path clip-path="url(#pccbf954e2f)" d="M 64.611518 178.401161 
L 308.396089 28.860432 
" style="fill:none;stroke:#ff0000;stroke-dasharray:6,6;stroke-dashoffset:0;stroke-width:1.5;"/>
   </g>
   <g id="patch_3">
    <path d="M 52.654375 185.806875 
L 52.654375 13.006875 
" style="fill:none;stroke:#000000;stroke-linecap:square;stroke-linejoin:miter;"/>
   </g>
   <g id="patch_4">
    <path d="M 331.654375 185.806875 
L 331.654375 13.006875 
" style="fill:none;stroke:#000000;stroke-linecap:square;stroke-linejoin:miter;"/>
   </g>
   <g id="patch_5">
    <path d="M 52.654375 185.806875 
L 331.654375 185.806875 
" style="fill:none;stroke:#000000;stroke-linecap:square;stroke-linejoin:miter;"/>
   </g>
   <g id="patch_6">
    <path d="M 52.654375 13.006875 
L 331.654375 13.006875 
" style="fill:none;stroke:#000000;stroke-linecap:square;stroke-linejoin:miter;"/>
   </g>
   <g id="matplotlib.axis_1">
    <g id="xtick_1">
     <g id="line2d_2">
      <path clip-path="url(#pccbf954e2f)" d="M 52.654375 185.806875 
L 52.654375 13.006875 
" style="fill:none;stroke:#000000;stroke-dasharray:1,3;stroke-dashoffset:0;stroke-width:0.5;"/>
     </g>
     <g id="line2d_3">
      <defs>
       <path d="M 0 0 
L 0 -4 
" id="m19e4615a18" style="stroke:#000000;stroke-width:0.5;"/>
      </defs>
      <g>
       <use style="stroke:#000000;stroke-width:0.5;" x="52.654375" xlink:href="#m19e4615a18" y="185.806875"/>
      </g>
     </g>
     <g id="line2d_4">
      <defs>
       <path d="M 0 0 
L 0 4 
" id="m704d9bd29f" style="stroke:#000000;stroke-width:0.5;"/>
      </defs>
      <g>
       <use style="stroke:#000000;stroke-width:0.5;" x="52.654375" xlink:href="#m704d9bd29f" y="13.006875"/>
      </g>
     </g>
     <g id="text_1">
      <!-- 0 -->
      <g transform="translate(48.836875 198.925)scale(0.12 -0.12)">
       <defs>
        <path d="M 31.78125 66.40625 
Q 24.171875 66.40625 20.328125 58.90625 
Q 16.5 51.421875 16.5 36.375 
Q 16.5 21.390625 20.328125 13.890625 
Q 24.171875 6.390625 31.78125 6.390625 
Q 39.453125 6.390625 43.28125 13.890625 
Q 47.125 21.390625 47.125 36.375 
Q 47.125 51.421875 43.28125 58.90625 
Q 39.453125 66.40625 31.78125 66.40625 
z
M 31.78125 74.21875 
Q 44.046875 74.21875 50.515625 64.515625 
Q 56.984375 54.828125 56.984375 36.375 
Q 56.984375 17.96875 50.515625 8.265625 
Q 44.046875 -1.421875 31.78125 -1.421875 
Q 19.53125 -1.421875 13.0625 8.265625 
Q 6.59375 17.96875 6.59375 36.375 
Q 6.59375 54.828125 13.0625 64.515625 
Q 19.53125 74.21875 31.78125 74.21875 
z
" id="DejaVuSans-48"/>
       </defs>
       <use xlink:href="#DejaVuSans-48"/>
      </g>
     </g>
    </g>
    <g id="xtick_2">
     <g id="line2d_5">
      <path clip-path="url(#pccbf954e2f)" d="M 92.511518 185.806875 
L 92.511518 13.006875 
" style="fill:none;stroke:#000000;stroke-dasharray:1,3;stroke-dashoffset:0;stroke-width:0.5;"/>
     </g>
     <g id="line2d_6">
      <g>
       <use style="stroke:#000000;stroke-width:0.5;" x="92.511518" xlink:href="#m19e4615a18" y="185.806875"/>
      </g>
     </g>
     <g id="line2d_7">
      <g>
       <use style="stroke:#000000;stroke-width:0.5;" x="92.511518" xlink:href="#m704d9bd29f" y="13.006875"/>
      </g>
     </g>
     <g id="text_2">
      <!-- 20 -->
      <g transform="translate(84.876518 198.925)scale(0.12 -0.12)">
       <defs>
        <path d="M 19.1875 8.296875 
L 53.609375 8.296875 
L 53.609375 0 
L 7.328125 0 
L 7.328125 8.296875 
Q 12.9375 14.109375 22.625 23.890625 
Q 32.328125 33.6875 34.8125 36.53125 
Q 39.546875 41.84375 41.421875 45.53125 
Q 43.3125 49.21875 43.3125 52.78125 
Q 43.3125 58.59375 39.234375 62.25 
Q 35.15625 65.921875 28.609375 65.921875 
Q 23.96875 65.921875 18.8125 64.3125 
Q 13.671875 62.703125 7.8125 59.421875 
L 7.8125 69.390625 
Q 13.765625 71.78125 18.9375 73 
Q 24.125 74.21875 28.421875 74.21875 
Q 39.75 74.21875 46.484375 68.546875 
Q 53.21875 62.890625 53.21875 53.421875 
Q 53.21875 48.921875 51.53125 44.890625 
Q 49.859375 40.875 45.40625 35.40625 
Q 44.1875 33.984375 37.640625 27.21875 
Q 31.109375 20.453125 19.1875 8.296875 
z
" id="DejaVuSans-50"/>
       </defs>
       <use xlink:href="#DejaVuSans-50"/>
       <use x="63.623047" xlink:href="#DejaVuSans-48"/>
      </g>
     </g>
    </g>
    <g id="xtick_3">
     <g id="line2d_8">
      <path clip-path="url(#pccbf954e2f)" d="M 132.368661 185.806875 
L 132.368661 13.006875 
" style="fill:none;stroke:#000000;stroke-dasharray:1,3;stroke-dashoffset:0;stroke-width:0.5;"/>
     </g>
     <g id="line2d_9">
      <g>
       <use style="stroke:#000000;stroke-width:0.5;" x="132.368661" xlink:href="#m19e4615a18" y="185.806875"/>
      </g>
     </g>
     <g id="line2d_10">
      <g>
       <use style="stroke:#000000;stroke-width:0.5;" x="132.368661" xlink:href="#m704d9bd29f" y="13.006875"/>
      </g>
     </g>
     <g id="text_3">
      <!-- 40 -->
      <g transform="translate(124.733661 198.925)scale(0.12 -0.12)">
       <defs>
        <path d="M 37.796875 64.3125 
L 12.890625 25.390625 
L 37.796875 25.390625 
z
M 35.203125 72.90625 
L 47.609375 72.90625 
L 47.609375 25.390625 
L 58.015625 25.390625 
L 58.015625 17.1875 
L 47.609375 17.1875 
L 47.609375 0 
L 37.796875 0 
L 37.796875 17.1875 
L 4.890625 17.1875 
L 4.890625 26.703125 
z
" id="DejaVuSans-52"/>
       </defs>
       <use xlink:href="#DejaVuSans-52"/>
       <use x="63.623047" xlink:href="#DejaVuSans-48"/>
      </g>
     </g>
    </g>
    <g id="xtick_4">
     <g id="line2d_11">
      <path clip-path="url(#pccbf954e2f)" d="M 172.225804 185.806875 
L 172.225804 13.006875 
" style="fill:none;stroke:#000000;stroke-dasharray:1,3;stroke-dashoffset:0;stroke-width:0.5;"/>
     </g>
     <g id="line2d_12">
      <g>
       <use style="stroke:#000000;stroke-width:0.5;" x="172.225804" xlink:href="#m19e4615a18" y="185.806875"/>
      </g>
     </g>
     <g id="line2d_13">
      <g>
       <use style="stroke:#000000;stroke-width:0.5;" x="172.225804" xlink:href="#m704d9bd29f" y="13.006875"/>
      </g>
     </g>
     <g id="text_4">
      <!-- 60 -->
      <g transform="translate(164.590804 198.925)scale(0.12 -0.12)">
       <defs>
        <path d="M 33.015625 40.375 
Q 26.375 40.375 22.484375 35.828125 
Q 18.609375 31.296875 18.609375 23.390625 
Q 18.609375 15.53125 22.484375 10.953125 
Q 26.375 6.390625 33.015625 6.390625 
Q 39.65625 6.390625 43.53125 10.953125 
Q 47.40625 15.53125 47.40625 23.390625 
Q 47.40625 31.296875 43.53125 35.828125 
Q 39.65625 40.375 33.015625 40.375 
z
M 52.59375 71.296875 
L 52.59375 62.3125 
Q 48.875 64.0625 45.09375 64.984375 
Q 41.3125 65.921875 37.59375 65.921875 
Q 27.828125 65.921875 22.671875 59.328125 
Q 17.53125 52.734375 16.796875 39.40625 
Q 19.671875 43.65625 24.015625 45.921875 
Q 28.375 48.1875 33.59375 48.1875 
Q 44.578125 48.1875 50.953125 41.515625 
Q 57.328125 34.859375 57.328125 23.390625 
Q 57.328125 12.15625 50.6875 5.359375 
Q 44.046875 -1.421875 33.015625 -1.421875 
Q 20.359375 -1.421875 13.671875 8.265625 
Q 6.984375 17.96875 6.984375 36.375 
Q 6.984375 53.65625 15.1875 63.9375 
Q 23.390625 74.21875 37.203125 74.21875 
Q 40.921875 74.21875 44.703125 73.484375 
Q 48.484375 72.75 52.59375 71.296875 
z
" id="DejaVuSans-54"/>
       </defs>
       <use xlink:href="#DejaVuSans-54"/>
       <use x="63.623047" xlink:href="#DejaVuSans-48"/>
      </g>
     </g>
    </g>
    <g id="xtick_5">
     <g id="line2d_14">
      <path clip-path="url(#pccbf954e2f)" d="M 212.082946 185.806875 
L 212.082946 13.006875 
" style="fill:none;stroke:#000000;stroke-dasharray:1,3;stroke-dashoffset:0;stroke-width:0.5;"/>
     </g>
     <g id="line2d_15">
      <g>
       <use style="stroke:#000000;stroke-width:0.5;" x="212.082946" xlink:href="#m19e4615a18" y="185.806875"/>
      </g>
     </g>
     <g id="line2d_16">
      <g>
       <use style="stroke:#000000;stroke-width:0.5;" x="212.082946" xlink:href="#m704d9bd29f" y="13.006875"/>
      </g>
     </g>
     <g id="text_5">
      <!-- 80 -->
      <g transform="translate(204.447946 198.925)scale(0.12 -0.12)">
       <defs>
        <path d="M 31.78125 34.625 
Q 24.75 34.625 20.71875 30.859375 
Q 16.703125 27.09375 16.703125 20.515625 
Q 16.703125 13.921875 20.71875 10.15625 
Q 24.75 6.390625 31.78125 6.390625 
Q 38.8125 6.390625 42.859375 10.171875 
Q 46.921875 13.96875 46.921875 20.515625 
Q 46.921875 27.09375 42.890625 30.859375 
Q 38.875 34.625 31.78125 34.625 
z
M 21.921875 38.8125 
Q 15.578125 40.375 12.03125 44.71875 
Q 8.5 49.078125 8.5 55.328125 
Q 8.5 64.0625 14.71875 69.140625 
Q 20.953125 74.21875 31.78125 74.21875 
Q 42.671875 74.21875 48.875 69.140625 
Q 55.078125 64.0625 55.078125 55.328125 
Q 55.078125 49.078125 51.53125 44.71875 
Q 48 40.375 41.703125 38.8125 
Q 48.828125 37.15625 52.796875 32.3125 
Q 56.78125 27.484375 56.78125 20.515625 
Q 56.78125 9.90625 50.3125 4.234375 
Q 43.84375 -1.421875 31.78125 -1.421875 
Q 19.734375 -1.421875 13.25 4.234375 
Q 6.78125 9.90625 6.78125 20.515625 
Q 6.78125 27.484375 10.78125 32.3125 
Q 14.796875 37.15625 21.921875 38.8125 
z
M 18.3125 54.390625 
Q 18.3125 48.734375 21.84375 45.5625 
Q 25.390625 42.390625 31.78125 42.390625 
Q 38.140625 42.390625 41.71875 45.5625 
Q 45.3125 48.734375 45.3125 54.390625 
Q 45.3125 60.0625 41.71875 63.234375 
Q 38.140625 66.40625 31.78125 66.40625 
Q 25.390625 66.40625 21.84375 63.234375 
Q 18.3125 60.0625 18.3125 54.390625 
z
" id="DejaVuSans-56"/>
       </defs>
       <use xlink:href="#DejaVuSans-56"/>
       <use x="63.623047" xlink:href="#DejaVuSans-48"/>
      </g>
     </g>
    </g>
    <g id="xtick_6">
     <g id="line2d_17">
      <path clip-path="url(#pccbf954e2f)" d="M 251.940089 185.806875 
L 251.940089 13.006875 
" style="fill:none;stroke:#000000;stroke-dasharray:1,3;stroke-dashoffset:0;stroke-width:0.5;"/>
     </g>
     <g id="line2d_18">
      <g>
       <use style="stroke:#000000;stroke-width:0.5;" x="251.940089" xlink:href="#m19e4615a18" y="185.806875"/>
      </g>
     </g>
     <g id="line2d_19">
      <g>
       <use style="stroke:#000000;stroke-width:0.5;" x="251.940089" xlink:href="#m704d9bd29f" y="13.006875"/>
      </g>
     </g>
     <g id="text_6">
      <!-- 100 -->
      <g transform="translate(240.487589 198.925)scale(0.12 -0.12)">
       <defs>
        <path d="M 12.40625 8.296875 
L 28.515625 8.296875 
L 28.515625 63.921875 
L 10.984375 60.40625 
L 10.984375 69.390625 
L 28.421875 72.90625 
L 38.28125 72.90625 
L 38.28125 8.296875 
L 54.390625 8.296875 
L 54.390625 0 
L 12.40625 0 
z
" id="DejaVuSans-49"/>
       </defs>
       <use xlink:href="#DejaVuSans-49"/>
       <use x="63.623047" xlink:href="#DejaVuSans-48"/>
       <use x="127.246094" xlink:href="#DejaVuSans-48"/>
      </g>
     </g>
    </g>
    <g id="xtick_7">
     <g id="line2d_20">
      <path clip-path="url(#pccbf954e2f)" d="M 291.797232 185.806875 
L 291.797232 13.006875 
" style="fill:none;stroke:#000000;stroke-dasharray:1,3;stroke-dashoffset:0;stroke-width:0.5;"/>
     </g>
     <g id="line2d_21">
      <g>
       <use style="stroke:#000000;stroke-width:0.5;" x="291.797232" xlink:href="#m19e4615a18" y="185.806875"/>
      </g>
     </g>
     <g id="line2d_22">
      <g>
       <use style="stroke:#000000;stroke-width:0.5;" x="291.797232" xlink:href="#m704d9bd29f" y="13.006875"/>
      </g>
     </g>
     <g id="text_7">
      <!-- 120 -->
      <g transform="translate(280.344732 198.925)scale(0.12 -0.12)">
       <use xlink:href="#DejaVuSans-49"/>
       <use x="63.623047" xlink:href="#DejaVuSans-50"/>
       <use x="127.246094" xlink:href="#DejaVuSans-48"/>
      </g>
     </g>
    </g>
    <g id="xtick_8">
     <g id="line2d_23">
      <path clip-path="url(#pccbf954e2f)" d="M 331.654375 185.806875 
L 331.654375 13.006875 
" style="fill:none;stroke:#000000;stroke-dasharray:1,3;stroke-dashoffset:0;stroke-width:0.5;"/>
     </g>
     <g id="line2d_24">
      <g>
       <use style="stroke:#000000;stroke-width:0.5;" x="331.654375" xlink:href="#m19e4615a18" y="185.806875"/>
      </g>
     </g>
     <g id="line2d_25">
      <g>
       <use style="stroke:#000000;stroke-width:0.5;" x="331.654375" xlink:href="#m704d9bd29f" y="13.006875"/>
      </g>
     </g>
     <g id="text_8">
      <!-- 140 -->
      <g transform="translate(320.201875 198.925)scale(0.12 -0.12)">
       <use xlink:href="#DejaVuSans-49"/>
       <use x="63.623047" xlink:href="#DejaVuSans-52"/>
       <use x="127.246094" xlink:href="#DejaVuSans-48"/>
      </g>
     </g>
    </g>
    <g id="text_9">
     <!-- Measured Run Time (S) -->
     <g transform="translate(100.033281 217.058437)scale(0.14 -0.14)">
      <defs>
       <path d="M 9.1875 72.90625 
L 33.109375 72.90625 
L 49.703125 33.890625 
L 66.40625 72.90625 
L 90.28125 72.90625 
L 90.28125 0 
L 72.515625 0 
L 72.515625 53.328125 
L 55.71875 14.015625 
L 43.796875 14.015625 
L 27 53.328125 
L 27 0 
L 9.1875 0 
z
" id="DejaVuSans-Bold-77"/>
       <path d="M 62.984375 27.484375 
L 62.984375 22.515625 
L 22.125 22.515625 
Q 22.75 16.359375 26.5625 13.28125 
Q 30.375 10.203125 37.203125 10.203125 
Q 42.71875 10.203125 48.5 11.84375 
Q 54.296875 13.484375 60.40625 16.796875 
L 60.40625 3.328125 
Q 54.203125 0.984375 48 -0.21875 
Q 41.796875 -1.421875 35.59375 -1.421875 
Q 20.75 -1.421875 12.515625 6.125 
Q 4.296875 13.671875 4.296875 27.296875 
Q 4.296875 40.671875 12.375 48.328125 
Q 20.453125 56 34.625 56 
Q 47.515625 56 55.25 48.234375 
Q 62.984375 40.484375 62.984375 27.484375 
z
M 45.015625 33.296875 
Q 45.015625 38.28125 42.109375 41.328125 
Q 39.203125 44.390625 34.515625 44.390625 
Q 29.4375 44.390625 26.265625 41.53125 
Q 23.09375 38.671875 22.3125 33.296875 
z
" id="DejaVuSans-Bold-101"/>
       <path d="M 32.90625 24.609375 
Q 27.4375 24.609375 24.671875 22.75 
Q 21.921875 20.90625 21.921875 17.28125 
Q 21.921875 13.96875 24.140625 12.078125 
Q 26.375 10.203125 30.328125 10.203125 
Q 35.25 10.203125 38.625 13.734375 
Q 42 17.28125 42 22.609375 
L 42 24.609375 
z
M 59.625 31.203125 
L 59.625 0 
L 42 0 
L 42 8.109375 
Q 38.484375 3.125 34.078125 0.84375 
Q 29.6875 -1.421875 23.390625 -1.421875 
Q 14.890625 -1.421875 9.59375 3.53125 
Q 4.296875 8.5 4.296875 16.40625 
Q 4.296875 26.03125 10.90625 30.515625 
Q 17.53125 35.015625 31.6875 35.015625 
L 42 35.015625 
L 42 36.375 
Q 42 40.53125 38.71875 42.453125 
Q 35.453125 44.390625 28.515625 44.390625 
Q 22.90625 44.390625 18.0625 43.265625 
Q 13.234375 42.140625 9.078125 39.890625 
L 9.078125 53.21875 
Q 14.703125 54.59375 20.359375 55.296875 
Q 26.03125 56 31.6875 56 
Q 46.484375 56 53.046875 50.171875 
Q 59.625 44.34375 59.625 31.203125 
z
" id="DejaVuSans-Bold-97"/>
       <path d="M 51.125 52.984375 
L 51.125 39.703125 
Q 45.515625 42.046875 40.28125 43.21875 
Q 35.0625 44.390625 30.421875 44.390625 
Q 25.4375 44.390625 23.015625 43.140625 
Q 20.609375 41.890625 20.609375 39.3125 
Q 20.609375 37.203125 22.4375 36.078125 
Q 24.265625 34.96875 29 34.421875 
L 32.078125 33.984375 
Q 45.515625 32.28125 50.140625 28.375 
Q 54.78125 24.46875 54.78125 16.109375 
Q 54.78125 7.375 48.328125 2.96875 
Q 41.890625 -1.421875 29.109375 -1.421875 
Q 23.6875 -1.421875 17.890625 -0.5625 
Q 12.109375 0.296875 6 2 
L 6 15.28125 
Q 11.234375 12.75 16.71875 11.46875 
Q 22.21875 10.203125 27.875 10.203125 
Q 33.015625 10.203125 35.59375 11.609375 
Q 38.1875 13.03125 38.1875 15.828125 
Q 38.1875 18.171875 36.40625 19.3125 
Q 34.625 20.453125 29.296875 21.09375 
L 26.21875 21.484375 
Q 14.546875 22.953125 9.859375 26.90625 
Q 5.171875 30.859375 5.171875 38.921875 
Q 5.171875 47.609375 11.125 51.796875 
Q 17.09375 56 29.390625 56 
Q 34.234375 56 39.546875 55.265625 
Q 44.875 54.546875 51.125 52.984375 
z
" id="DejaVuSans-Bold-115"/>
       <path d="M 7.8125 21.296875 
L 7.8125 54.6875 
L 25.390625 54.6875 
L 25.390625 49.21875 
Q 25.390625 44.78125 25.34375 38.0625 
Q 25.296875 31.34375 25.296875 29.109375 
Q 25.296875 22.515625 25.640625 19.609375 
Q 25.984375 16.703125 26.8125 15.375 
Q 27.875 13.671875 29.609375 12.734375 
Q 31.34375 11.8125 33.59375 11.8125 
Q 39.0625 11.8125 42.1875 16.015625 
Q 45.3125 20.21875 45.3125 27.6875 
L 45.3125 54.6875 
L 62.796875 54.6875 
L 62.796875 0 
L 45.3125 0 
L 45.3125 7.90625 
Q 41.359375 3.125 36.9375 0.84375 
Q 32.515625 -1.421875 27.203125 -1.421875 
Q 17.71875 -1.421875 12.765625 4.390625 
Q 7.8125 10.203125 7.8125 21.296875 
z
" id="DejaVuSans-Bold-117"/>
       <path d="M 49.03125 39.796875 
Q 46.734375 40.875 44.453125 41.375 
Q 42.1875 41.890625 39.890625 41.890625 
Q 33.15625 41.890625 29.515625 37.5625 
Q 25.875 33.25 25.875 25.203125 
L 25.875 0 
L 8.40625 0 
L 8.40625 54.6875 
L 25.875 54.6875 
L 25.875 45.703125 
Q 29.25 51.078125 33.609375 53.53125 
Q 37.984375 56 44.09375 56 
Q 44.96875 56 45.984375 55.921875 
Q 47.015625 55.859375 48.96875 55.609375 
z
" id="DejaVuSans-Bold-114"/>
       <path d="M 45.609375 46.6875 
L 45.609375 75.984375 
L 63.1875 75.984375 
L 63.1875 0 
L 45.609375 0 
L 45.609375 7.90625 
Q 42 3.078125 37.640625 0.828125 
Q 33.296875 -1.421875 27.59375 -1.421875 
Q 17.484375 -1.421875 10.984375 6.609375 
Q 4.5 14.65625 4.5 27.296875 
Q 4.5 39.9375 10.984375 47.96875 
Q 17.484375 56 27.59375 56 
Q 33.25 56 37.625 53.734375 
Q 42 51.46875 45.609375 46.6875 
z
M 34.078125 11.28125 
Q 39.703125 11.28125 42.65625 15.375 
Q 45.609375 19.484375 45.609375 27.296875 
Q 45.609375 35.109375 42.65625 39.203125 
Q 39.703125 43.3125 34.078125 43.3125 
Q 28.515625 43.3125 25.5625 39.203125 
Q 22.609375 35.109375 22.609375 27.296875 
Q 22.609375 19.484375 25.5625 15.375 
Q 28.515625 11.28125 34.078125 11.28125 
z
" id="DejaVuSans-Bold-100"/>
       <path id="DejaVuSans-Bold-32"/>
       <path d="M 35.890625 40.578125 
Q 41.796875 40.578125 44.359375 42.765625 
Q 46.921875 44.96875 46.921875 50 
Q 46.921875 54.984375 44.359375 57.125 
Q 41.796875 59.28125 35.890625 59.28125 
L 27.984375 59.28125 
L 27.984375 40.578125 
z
M 27.984375 27.59375 
L 27.984375 0 
L 9.1875 0 
L 9.1875 72.90625 
L 37.890625 72.90625 
Q 52.296875 72.90625 59 68.0625 
Q 65.71875 63.234375 65.71875 52.78125 
Q 65.71875 45.5625 62.21875 40.921875 
Q 58.734375 36.28125 51.703125 34.078125 
Q 55.5625 33.203125 58.609375 30.09375 
Q 61.671875 27 64.796875 20.703125 
L 75 0 
L 54.984375 0 
L 46.09375 18.109375 
Q 43.40625 23.578125 40.640625 25.578125 
Q 37.890625 27.59375 33.296875 27.59375 
z
" id="DejaVuSans-Bold-82"/>
       <path d="M 63.375 33.296875 
L 63.375 0 
L 45.796875 0 
L 45.796875 5.421875 
L 45.796875 25.484375 
Q 45.796875 32.5625 45.484375 35.25 
Q 45.171875 37.9375 44.390625 39.203125 
Q 43.359375 40.921875 41.59375 41.875 
Q 39.84375 42.828125 37.59375 42.828125 
Q 32.125 42.828125 29 38.59375 
Q 25.875 34.375 25.875 26.90625 
L 25.875 0 
L 8.40625 0 
L 8.40625 54.6875 
L 25.875 54.6875 
L 25.875 46.6875 
Q 29.828125 51.46875 34.265625 53.734375 
Q 38.71875 56 44.09375 56 
Q 53.5625 56 58.46875 50.1875 
Q 63.375 44.390625 63.375 33.296875 
z
" id="DejaVuSans-Bold-110"/>
       <path d="M 0.484375 72.90625 
L 67.671875 72.90625 
L 67.671875 58.6875 
L 43.5 58.6875 
L 43.5 0 
L 24.703125 0 
L 24.703125 58.6875 
L 0.484375 58.6875 
z
" id="DejaVuSans-Bold-84"/>
       <path d="M 8.40625 54.6875 
L 25.875 54.6875 
L 25.875 0 
L 8.40625 0 
z
M 8.40625 75.984375 
L 25.875 75.984375 
L 25.875 61.71875 
L 8.40625 61.71875 
z
" id="DejaVuSans-Bold-105"/>
       <path d="M 59.078125 45.609375 
Q 62.40625 50.6875 66.96875 53.34375 
Q 71.53125 56 77 56 
Q 86.421875 56 91.359375 50.1875 
Q 96.296875 44.390625 96.296875 33.296875 
L 96.296875 0 
L 78.71875 0 
L 78.71875 28.515625 
Q 78.765625 29.15625 78.78125 29.828125 
Q 78.8125 30.515625 78.8125 31.78125 
Q 78.8125 37.59375 77.09375 40.203125 
Q 75.390625 42.828125 71.578125 42.828125 
Q 66.609375 42.828125 63.890625 38.71875 
Q 61.1875 34.625 61.078125 26.859375 
L 61.078125 0 
L 43.5 0 
L 43.5 28.515625 
Q 43.5 37.59375 41.9375 40.203125 
Q 40.375 42.828125 36.375 42.828125 
Q 31.34375 42.828125 28.609375 38.703125 
Q 25.875 34.578125 25.875 26.90625 
L 25.875 0 
L 8.296875 0 
L 8.296875 54.6875 
L 25.875 54.6875 
L 25.875 46.6875 
Q 29.109375 51.3125 33.28125 53.65625 
Q 37.453125 56 42.484375 56 
Q 48.140625 56 52.484375 53.265625 
Q 56.84375 50.53125 59.078125 45.609375 
z
" id="DejaVuSans-Bold-109"/>
       <path d="M 37.703125 -13.1875 
L 23.1875 -13.1875 
Q 15.71875 -1.125 12.15625 9.734375 
Q 8.59375 20.609375 8.59375 31.296875 
Q 8.59375 42 12.171875 52.953125 
Q 15.765625 63.921875 23.1875 75.875 
L 37.703125 75.875 
Q 31.453125 64.3125 28.328125 53.25 
Q 25.203125 42.1875 25.203125 31.390625 
Q 25.203125 20.609375 28.296875 9.515625 
Q 31.390625 -1.5625 37.703125 -13.1875 
z
" id="DejaVuSans-Bold-40"/>
       <path d="M 59.90625 70.609375 
L 59.90625 55.171875 
Q 53.90625 57.859375 48.1875 59.21875 
Q 42.484375 60.59375 37.40625 60.59375 
Q 30.671875 60.59375 27.4375 58.734375 
Q 24.21875 56.890625 24.21875 52.984375 
Q 24.21875 50.046875 26.390625 48.40625 
Q 28.5625 46.78125 34.28125 45.609375 
L 42.28125 44 
Q 54.4375 41.546875 59.5625 36.5625 
Q 64.703125 31.59375 64.703125 22.40625 
Q 64.703125 10.359375 57.546875 4.46875 
Q 50.390625 -1.421875 35.6875 -1.421875 
Q 28.765625 -1.421875 21.78125 -0.09375 
Q 14.796875 1.21875 7.8125 3.8125 
L 7.8125 19.671875 
Q 14.796875 15.96875 21.3125 14.078125 
Q 27.828125 12.203125 33.890625 12.203125 
Q 40.046875 12.203125 43.3125 14.25 
Q 46.578125 16.3125 46.578125 20.125 
Q 46.578125 23.53125 44.359375 25.390625 
Q 42.140625 27.25 35.5 28.71875 
L 28.21875 30.328125 
Q 17.28125 32.671875 12.21875 37.796875 
Q 7.171875 42.921875 7.171875 51.609375 
Q 7.171875 62.5 14.203125 68.359375 
Q 21.234375 74.21875 34.421875 74.21875 
Q 40.4375 74.21875 46.78125 73.3125 
Q 53.125 72.40625 59.90625 70.609375 
z
" id="DejaVuSans-Bold-83"/>
       <path d="M 8.015625 -13.1875 
Q 14.265625 -1.5625 17.390625 9.515625 
Q 20.515625 20.609375 20.515625 31.390625 
Q 20.515625 42.1875 17.390625 53.25 
Q 14.265625 64.3125 8.015625 75.875 
L 22.515625 75.875 
Q 29.9375 63.921875 33.515625 52.953125 
Q 37.109375 42 37.109375 31.296875 
Q 37.109375 20.609375 33.546875 9.734375 
Q 29.984375 -1.125 22.515625 -13.1875 
z
" id="DejaVuSans-Bold-41"/>
      </defs>
      <use xlink:href="#DejaVuSans-Bold-77"/>
      <use x="99.511719" xlink:href="#DejaVuSans-Bold-101"/>
      <use x="167.333984" xlink:href="#DejaVuSans-Bold-97"/>
      <use x="234.814453" xlink:href="#DejaVuSans-Bold-115"/>
      <use x="294.335938" xlink:href="#DejaVuSans-Bold-117"/>
      <use x="365.527344" xlink:href="#DejaVuSans-Bold-114"/>
      <use x="414.84375" xlink:href="#DejaVuSans-Bold-101"/>
      <use x="482.666016" xlink:href="#DejaVuSans-Bold-100"/>
      <use x="554.248047" xlink:href="#DejaVuSans-Bold-32"/>
      <use x="589.0625" xlink:href="#DejaVuSans-Bold-82"/>
      <use x="666.064453" xlink:href="#DejaVuSans-Bold-117"/>
      <use x="737.255859" xlink:href="#DejaVuSans-Bold-110"/>
      <use x="808.447266" xlink:href="#DejaVuSans-Bold-32"/>
      <use x="843.261719" xlink:href="#DejaVuSans-Bold-84"/>
      <use x="911.474609" xlink:href="#DejaVuSans-Bold-105"/>
      <use x="945.751953" xlink:href="#DejaVuSans-Bold-109"/>
      <use x="1049.951172" xlink:href="#DejaVuSans-Bold-101"/>
      <use x="1117.773438" xlink:href="#DejaVuSans-Bold-32"/>
      <use x="1152.587891" xlink:href="#DejaVuSans-Bold-40"/>
      <use x="1198.291016" xlink:href="#DejaVuSans-Bold-83"/>
      <use x="1270.3125" xlink:href="#DejaVuSans-Bold-41"/>
     </g>
    </g>
   </g>
   <g id="matplotlib.axis_2">
    <g id="ytick_1">
     <g id="line2d_26">
      <path clip-path="url(#pccbf954e2f)" d="M 52.654375 185.806875 
L 331.654375 185.806875 
" style="fill:none;stroke:#000000;stroke-dasharray:1,3;stroke-dashoffset:0;stroke-width:0.5;"/>
     </g>
     <g id="line2d_27">
      <defs>
       <path d="M 0 0 
L 4 0 
" id="mcceeaff670" style="stroke:#000000;stroke-width:0.5;"/>
      </defs>
      <g>
       <use style="stroke:#000000;stroke-width:0.5;" x="52.654375" xlink:href="#mcceeaff670" y="185.806875"/>
      </g>
     </g>
     <g id="line2d_28">
      <defs>
       <path d="M 0 0 
L -4 0 
" id="ma02cc847f5" style="stroke:#000000;stroke-width:0.5;"/>
      </defs>
      <g>
       <use style="stroke:#000000;stroke-width:0.5;" x="331.654375" xlink:href="#ma02cc847f5" y="185.806875"/>
      </g>
     </g>
     <g id="text_10">
      <!-- 0 -->
      <g transform="translate(41.019375 189.118125)scale(0.12 -0.12)">
       <use xlink:href="#DejaVuSans-48"/>
      </g>
     </g>
    </g>
    <g id="ytick_2">
     <g id="line2d_29">
      <path clip-path="url(#pccbf954e2f)" d="M 52.654375 161.121161 
L 331.654375 161.121161 
" style="fill:none;stroke:#000000;stroke-dasharray:1,3;stroke-dashoffset:0;stroke-width:0.5;"/>
     </g>
     <g id="line2d_30">
      <g>
       <use style="stroke:#000000;stroke-width:0.5;" x="52.654375" xlink:href="#mcceeaff670" y="161.121161"/>
      </g>
     </g>
     <g id="line2d_31">
      <g>
       <use style="stroke:#000000;stroke-width:0.5;" x="331.654375" xlink:href="#ma02cc847f5" y="161.121161"/>
      </g>
     </g>
     <g id="text_11">
      <!-- 20 -->
      <g transform="translate(33.384375 164.432411)scale(0.12 -0.12)">
       <use xlink:href="#DejaVuSans-50"/>
       <use x="63.623047" xlink:href="#DejaVuSans-48"/>
      </g>
     </g>
    </g>
    <g id="ytick_3">
     <g id="line2d_32">
      <path clip-path="url(#pccbf954e2f)" d="M 52.654375 136.435446 
L 331.654375 136.435446 
" style="fill:none;stroke:#000000;stroke-dasharray:1,3;stroke-dashoffset:0;stroke-width:0.5;"/>
     </g>
     <g id="line2d_33">
      <g>
       <use style="stroke:#000000;stroke-width:0.5;" x="52.654375" xlink:href="#mcceeaff670" y="136.435446"/>
      </g>
     </g>
     <g id="line2d_34">
      <g>
       <use style="stroke:#000000;stroke-width:0.5;" x="331.654375" xlink:href="#ma02cc847f5" y="136.435446"/>
      </g>
     </g>
     <g id="text_12">
      <!-- 40 -->
      <g transform="translate(33.384375 139.746696)scale(0.12 -0.12)">
       <use xlink:href="#DejaVuSans-52"/>
       <use x="63.623047" xlink:href="#DejaVuSans-48"/>
      </g>
     </g>
    </g>
    <g id="ytick_4">
     <g id="line2d_35">
      <path clip-path="url(#pccbf954e2f)" d="M 52.654375 111.749732 
L 331.654375 111.749732 
" style="fill:none;stroke:#000000;stroke-dasharray:1,3;stroke-dashoffset:0;stroke-width:0.5;"/>
     </g>
     <g id="line2d_36">
      <g>
       <use style="stroke:#000000;stroke-width:0.5;" x="52.654375" xlink:href="#mcceeaff670" y="111.749732"/>
      </g>
     </g>
     <g id="line2d_37">
      <g>
       <use style="stroke:#000000;stroke-width:0.5;" x="331.654375" xlink:href="#ma02cc847f5" y="111.749732"/>
      </g>
     </g>
     <g id="text_13">
      <!-- 60 -->
      <g transform="translate(33.384375 115.060982)scale(0.12 -0.12)">
       <use xlink:href="#DejaVuSans-54"/>
       <use x="63.623047" xlink:href="#DejaVuSans-48"/>
      </g>
     </g>
    </g>
    <g id="ytick_5">
     <g id="line2d_38">
      <path clip-path="url(#pccbf954e2f)" d="M 52.654375 87.064018 
L 331.654375 87.064018 
" style="fill:none;stroke:#000000;stroke-dasharray:1,3;stroke-dashoffset:0;stroke-width:0.5;"/>
     </g>
     <g id="line2d_39">
      <g>
       <use style="stroke:#000000;stroke-width:0.5;" x="52.654375" xlink:href="#mcceeaff670" y="87.064018"/>
      </g>
     </g>
     <g id="line2d_40">
      <g>
       <use style="stroke:#000000;stroke-width:0.5;" x="331.654375" xlink:href="#ma02cc847f5" y="87.064018"/>
      </g>
     </g>
     <g id="text_14">
      <!-- 80 -->
      <g transform="translate(33.384375 90.375268)scale(0.12 -0.12)">
       <use xlink:href="#DejaVuSans-56"/>
       <use x="63.623047" xlink:href="#DejaVuSans-48"/>
      </g>
     </g>
    </g>
    <g id="ytick_6">
     <g id="line2d_41">
      <path clip-path="url(#pccbf954e2f)" d="M 52.654375 62.378304 
L 331.654375 62.378304 
" style="fill:none;stroke:#000000;stroke-dasharray:1,3;stroke-dashoffset:0;stroke-width:0.5;"/>
     </g>
     <g id="line2d_42">
      <g>
       <use style="stroke:#000000;stroke-width:0.5;" x="52.654375" xlink:href="#mcceeaff670" y="62.378304"/>
      </g>
     </g>
     <g id="line2d_43">
      <g>
       <use style="stroke:#000000;stroke-width:0.5;" x="331.654375" xlink:href="#ma02cc847f5" y="62.378304"/>
      </g>
     </g>
     <g id="text_15">
      <!-- 100 -->
      <g transform="translate(25.749375 65.689554)scale(0.12 -0.12)">
       <use xlink:href="#DejaVuSans-49"/>
       <use x="63.623047" xlink:href="#DejaVuSans-48"/>
       <use x="127.246094" xlink:href="#DejaVuSans-48"/>
      </g>
     </g>
    </g>
    <g id="ytick_7">
     <g id="line2d_44">
      <path clip-path="url(#pccbf954e2f)" d="M 52.654375 37.692589 
L 331.654375 37.692589 
" style="fill:none;stroke:#000000;stroke-dasharray:1,3;stroke-dashoffset:0;stroke-width:0.5;"/>
     </g>
     <g id="line2d_45">
      <g>
       <use style="stroke:#000000;stroke-width:0.5;" x="52.654375" xlink:href="#mcceeaff670" y="37.692589"/>
      </g>
     </g>
     <g id="line2d_46">
      <g>
       <use style="stroke:#000000;stroke-width:0.5;" x="331.654375" xlink:href="#ma02cc847f5" y="37.692589"/>
      </g>
     </g>
     <g id="text_16">
      <!-- 120 -->
      <g transform="translate(25.749375 41.003839)scale(0.12 -0.12)">
       <use xlink:href="#DejaVuSans-49"/>
       <use x="63.623047" xlink:href="#DejaVuSans-50"/>
       <use x="127.246094" xlink:href="#DejaVuSans-48"/>
      </g>
     </g>
    </g>
    <g id="ytick_8">
     <g id="line2d_47">
      <path clip-path="url(#pccbf954e2f)" d="M 52.654375 13.006875 
L 331.654375 13.006875 
" style="fill:none;stroke:#000000;stroke-dasharray:1,3;stroke-dashoffset:0;stroke-width:0.5;"/>
     </g>
     <g id="line2d_48">
      <g>
       <use style="stroke:#000000;stroke-width:0.5;" x="52.654375" xlink:href="#mcceeaff670" y="13.006875"/>
      </g>
     </g>
     <g id="line2d_49">
      <g>
       <use style="stroke:#000000;stroke-width:0.5;" x="331.654375" xlink:href="#ma02cc847f5" y="13.006875"/>
      </g>
     </g>
     <g id="text_17">
      <!-- 140 -->
      <g transform="translate(25.749375 16.318125)scale(0.12 -0.12)">
       <use xlink:href="#DejaVuSans-49"/>
       <use x="63.623047" xlink:href="#DejaVuSans-52"/>
       <use x="127.246094" xlink:href="#DejaVuSans-48"/>
      </g>
     </g>
    </g>
    <g id="text_18">
     <!-- Predicted Run Time (S) -->
     <g transform="translate(17.837812 190.725156)rotate(-90)scale(0.14 -0.14)">
      <defs>
       <path d="M 9.1875 72.90625 
L 40.375 72.90625 
Q 54.296875 72.90625 61.734375 66.71875 
Q 69.1875 60.546875 69.1875 49.125 
Q 69.1875 37.640625 61.734375 31.46875 
Q 54.296875 25.296875 40.375 25.296875 
L 27.984375 25.296875 
L 27.984375 0 
L 9.1875 0 
z
M 27.984375 59.28125 
L 27.984375 38.921875 
L 38.375 38.921875 
Q 43.84375 38.921875 46.828125 41.578125 
Q 49.8125 44.234375 49.8125 49.125 
Q 49.8125 54 46.828125 56.640625 
Q 43.84375 59.28125 38.375 59.28125 
z
" id="DejaVuSans-Bold-80"/>
       <path d="M 52.59375 52.984375 
L 52.59375 38.71875 
Q 49.03125 41.15625 45.4375 42.328125 
Q 41.84375 43.5 37.984375 43.5 
Q 30.671875 43.5 26.59375 39.234375 
Q 22.515625 34.96875 22.515625 27.296875 
Q 22.515625 19.625 26.59375 15.34375 
Q 30.671875 11.078125 37.984375 11.078125 
Q 42.09375 11.078125 45.78125 12.296875 
Q 49.46875 13.53125 52.59375 15.921875 
L 52.59375 1.609375 
Q 48.484375 0.09375 44.265625 -0.65625 
Q 40.046875 -1.421875 35.796875 -1.421875 
Q 21 -1.421875 12.640625 6.171875 
Q 4.296875 13.765625 4.296875 27.296875 
Q 4.296875 40.828125 12.640625 48.40625 
Q 21 56 35.796875 56 
Q 40.09375 56 44.265625 55.25 
Q 48.4375 54.5 52.59375 52.984375 
z
" id="DejaVuSans-Bold-99"/>
       <path d="M 27.484375 70.21875 
L 27.484375 54.6875 
L 45.515625 54.6875 
L 45.515625 42.1875 
L 27.484375 42.1875 
L 27.484375 19 
Q 27.484375 15.1875 29 13.84375 
Q 30.515625 12.5 35.015625 12.5 
L 44 12.5 
L 44 0 
L 29 0 
Q 18.65625 0 14.328125 4.3125 
Q 10.015625 8.640625 10.015625 19 
L 10.015625 42.1875 
L 1.3125 42.1875 
L 1.3125 54.6875 
L 10.015625 54.6875 
L 10.015625 70.21875 
z
" id="DejaVuSans-Bold-116"/>
      </defs>
      <use xlink:href="#DejaVuSans-Bold-80"/>
      <use x="73.291016" xlink:href="#DejaVuSans-Bold-114"/>
      <use x="122.607422" xlink:href="#DejaVuSans-Bold-101"/>
      <use x="190.429688" xlink:href="#DejaVuSans-Bold-100"/>
      <use x="262.011719" xlink:href="#DejaVuSans-Bold-105"/>
      <use x="296.289062" xlink:href="#DejaVuSans-Bold-99"/>
      <use x="355.566406" xlink:href="#DejaVuSans-Bold-116"/>
      <use x="403.369141" xlink:href="#DejaVuSans-Bold-101"/>
      <use x="471.191406" xlink:href="#DejaVuSans-Bold-100"/>
      <use x="542.773438" xlink:href="#DejaVuSans-Bold-32"/>
      <use x="577.587891" xlink:href="#DejaVuSans-Bold-82"/>
      <use x="654.589844" xlink:href="#DejaVuSans-Bold-117"/>
      <use x="725.78125" xlink:href="#DejaVuSans-Bold-110"/>
      <use x="796.972656" xlink:href="#DejaVuSans-Bold-32"/>
      <use x="831.787109" xlink:href="#DejaVuSans-Bold-84"/>
      <use x="900" xlink:href="#DejaVuSans-Bold-105"/>
      <use x="934.277344" xlink:href="#DejaVuSans-Bold-109"/>
      <use x="1038.476562" xlink:href="#DejaVuSans-Bold-101"/>
      <use x="1106.298828" xlink:href="#DejaVuSans-Bold-32"/>
      <use x="1141.113281" xlink:href="#DejaVuSans-Bold-40"/>
      <use x="1186.816406" xlink:href="#DejaVuSans-Bold-83"/>
      <use x="1258.837891" xlink:href="#DejaVuSans-Bold-41"/>
     </g>
    </g>
   </g>
   <g id="legend_1">
    <g id="patch_7">
     <path d="M 57.654375 65.04125 
L 148.818438 65.04125 
L 148.818438 18.006875 
L 57.654375 18.006875 
z
" style="fill:#ffffff;stroke:#000000;stroke-linejoin:miter;"/>
    </g>
    <g id="PathCollection_4">
     <g>
      <use style="fill:#bf00bf;stroke:#bf00bf;" x="71.654375" xlink:href="#m31c1dbebad" y="26.980312"/>
     </g>
    </g>
    <g id="text_19">
     <!-- NAMD -->
     <g transform="translate(89.654375 29.605312)scale(0.1 -0.1)">
      <defs>
       <path d="M 9.8125 72.90625 
L 23.09375 72.90625 
L 55.421875 11.921875 
L 55.421875 72.90625 
L 64.984375 72.90625 
L 64.984375 0 
L 51.703125 0 
L 19.390625 60.984375 
L 19.390625 0 
L 9.8125 0 
z
" id="DejaVuSans-78"/>
       <path d="M 34.1875 63.1875 
L 20.796875 26.90625 
L 47.609375 26.90625 
z
M 28.609375 72.90625 
L 39.796875 72.90625 
L 67.578125 0 
L 57.328125 0 
L 50.6875 18.703125 
L 17.828125 18.703125 
L 11.1875 0 
L 0.78125 0 
z
" id="DejaVuSans-65"/>
       <path d="M 9.8125 72.90625 
L 24.515625 72.90625 
L 43.109375 23.296875 
L 61.8125 72.90625 
L 76.515625 72.90625 
L 76.515625 0 
L 66.890625 0 
L 66.890625 64.015625 
L 48.09375 14.015625 
L 38.1875 14.015625 
L 19.390625 64.015625 
L 19.390625 0 
L 9.8125 0 
z
" id="DejaVuSans-77"/>
       <path d="M 19.671875 64.796875 
L 19.671875 8.109375 
L 31.59375 8.109375 
Q 46.6875 8.109375 53.6875 14.9375 
Q 60.6875 21.78125 60.6875 36.53125 
Q 60.6875 51.171875 53.6875 57.984375 
Q 46.6875 64.796875 31.59375 64.796875 
z
M 9.8125 72.90625 
L 30.078125 72.90625 
Q 51.265625 72.90625 61.171875 64.09375 
Q 71.09375 55.28125 71.09375 36.53125 
Q 71.09375 17.671875 61.125 8.828125 
Q 51.171875 0 30.078125 0 
L 9.8125 0 
z
" id="DejaVuSans-68"/>
      </defs>
      <use xlink:href="#DejaVuSans-78"/>
      <use x="74.804688" xlink:href="#DejaVuSans-65"/>
      <use x="143.212891" xlink:href="#DejaVuSans-77"/>
      <use x="229.492188" xlink:href="#DejaVuSans-68"/>
     </g>
    </g>
    <g id="PathCollection_5">
     <g>
      <use style="fill:#0000ff;stroke:#0000ff;" x="71.654375" xlink:href="#m8af73951e5" y="41.658437"/>
     </g>
    </g>
    <g id="text_20">
     <!-- LAMMPS -->
     <g transform="translate(89.654375 44.283437)scale(0.1 -0.1)">
      <defs>
       <path d="M 9.8125 72.90625 
L 19.671875 72.90625 
L 19.671875 8.296875 
L 55.171875 8.296875 
L 55.171875 0 
L 9.8125 0 
z
" id="DejaVuSans-76"/>
       <path d="M 19.671875 64.796875 
L 19.671875 37.40625 
L 32.078125 37.40625 
Q 38.96875 37.40625 42.71875 40.96875 
Q 46.484375 44.53125 46.484375 51.125 
Q 46.484375 57.671875 42.71875 61.234375 
Q 38.96875 64.796875 32.078125 64.796875 
z
M 9.8125 72.90625 
L 32.078125 72.90625 
Q 44.34375 72.90625 50.609375 67.359375 
Q 56.890625 61.8125 56.890625 51.125 
Q 56.890625 40.328125 50.609375 34.8125 
Q 44.34375 29.296875 32.078125 29.296875 
L 19.671875 29.296875 
L 19.671875 0 
L 9.8125 0 
z
" id="DejaVuSans-80"/>
       <path d="M 53.515625 70.515625 
L 53.515625 60.890625 
Q 47.90625 63.578125 42.921875 64.890625 
Q 37.9375 66.21875 33.296875 66.21875 
Q 25.25 66.21875 20.875 63.09375 
Q 16.5 59.96875 16.5 54.203125 
Q 16.5 49.359375 19.40625 46.890625 
Q 22.3125 44.4375 30.421875 42.921875 
L 36.375 41.703125 
Q 47.40625 39.59375 52.65625 34.296875 
Q 57.90625 29 57.90625 20.125 
Q 57.90625 9.515625 50.796875 4.046875 
Q 43.703125 -1.421875 29.984375 -1.421875 
Q 24.8125 -1.421875 18.96875 -0.25 
Q 13.140625 0.921875 6.890625 3.21875 
L 6.890625 13.375 
Q 12.890625 10.015625 18.65625 8.296875 
Q 24.421875 6.59375 29.984375 6.59375 
Q 38.421875 6.59375 43.015625 9.90625 
Q 47.609375 13.234375 47.609375 19.390625 
Q 47.609375 24.75 44.3125 27.78125 
Q 41.015625 30.8125 33.5 32.328125 
L 27.484375 33.5 
Q 16.453125 35.6875 11.515625 40.375 
Q 6.59375 45.0625 6.59375 53.421875 
Q 6.59375 63.09375 13.40625 68.65625 
Q 20.21875 74.21875 32.171875 74.21875 
Q 37.3125 74.21875 42.625 73.28125 
Q 47.953125 72.359375 53.515625 70.515625 
z
" id="DejaVuSans-83"/>
      </defs>
      <use xlink:href="#DejaVuSans-76"/>
      <use x="57.962891" xlink:href="#DejaVuSans-65"/>
      <use x="126.371094" xlink:href="#DejaVuSans-77"/>
      <use x="212.650391" xlink:href="#DejaVuSans-77"/>
      <use x="298.929688" xlink:href="#DejaVuSans-80"/>
      <use x="359.232422" xlink:href="#DejaVuSans-83"/>
     </g>
    </g>
    <g id="PathCollection_6">
     <g>
      <use style="fill:#008000;stroke:#008000;" x="71.654375" xlink:href="#me725a970ff" y="56.336562"/>
     </g>
    </g>
    <g id="text_21">
     <!-- TensorFlow -->
     <g transform="translate(89.654375 58.961562)scale(0.1 -0.1)">
      <defs>
       <path d="M -0.296875 72.90625 
L 61.375 72.90625 
L 61.375 64.59375 
L 35.5 64.59375 
L 35.5 0 
L 25.59375 0 
L 25.59375 64.59375 
L -0.296875 64.59375 
z
" id="DejaVuSans-84"/>
       <path d="M 56.203125 29.59375 
L 56.203125 25.203125 
L 14.890625 25.203125 
Q 15.484375 15.921875 20.484375 11.0625 
Q 25.484375 6.203125 34.421875 6.203125 
Q 39.59375 6.203125 44.453125 7.46875 
Q 49.3125 8.734375 54.109375 11.28125 
L 54.109375 2.78125 
Q 49.265625 0.734375 44.1875 -0.34375 
Q 39.109375 -1.421875 33.890625 -1.421875 
Q 20.796875 -1.421875 13.15625 6.1875 
Q 5.515625 13.8125 5.515625 26.8125 
Q 5.515625 40.234375 12.765625 48.109375 
Q 20.015625 56 32.328125 56 
Q 43.359375 56 49.78125 48.890625 
Q 56.203125 41.796875 56.203125 29.59375 
z
M 47.21875 32.234375 
Q 47.125 39.59375 43.09375 43.984375 
Q 39.0625 48.390625 32.421875 48.390625 
Q 24.90625 48.390625 20.390625 44.140625 
Q 15.875 39.890625 15.1875 32.171875 
z
" id="DejaVuSans-101"/>
       <path d="M 54.890625 33.015625 
L 54.890625 0 
L 45.90625 0 
L 45.90625 32.71875 
Q 45.90625 40.484375 42.875 44.328125 
Q 39.84375 48.1875 33.796875 48.1875 
Q 26.515625 48.1875 22.3125 43.546875 
Q 18.109375 38.921875 18.109375 30.90625 
L 18.109375 0 
L 9.078125 0 
L 9.078125 54.6875 
L 18.109375 54.6875 
L 18.109375 46.1875 
Q 21.34375 51.125 25.703125 53.5625 
Q 30.078125 56 35.796875 56 
Q 45.21875 56 50.046875 50.171875 
Q 54.890625 44.34375 54.890625 33.015625 
z
" id="DejaVuSans-110"/>
       <path d="M 44.28125 53.078125 
L 44.28125 44.578125 
Q 40.484375 46.53125 36.375 47.5 
Q 32.28125 48.484375 27.875 48.484375 
Q 21.1875 48.484375 17.84375 46.4375 
Q 14.5 44.390625 14.5 40.28125 
Q 14.5 37.15625 16.890625 35.375 
Q 19.28125 33.59375 26.515625 31.984375 
L 29.59375 31.296875 
Q 39.15625 29.25 43.1875 25.515625 
Q 47.21875 21.78125 47.21875 15.09375 
Q 47.21875 7.46875 41.1875 3.015625 
Q 35.15625 -1.421875 24.609375 -1.421875 
Q 20.21875 -1.421875 15.453125 -0.5625 
Q 10.6875 0.296875 5.421875 2 
L 5.421875 11.28125 
Q 10.40625 8.6875 15.234375 7.390625 
Q 20.0625 6.109375 24.8125 6.109375 
Q 31.15625 6.109375 34.5625 8.28125 
Q 37.984375 10.453125 37.984375 14.40625 
Q 37.984375 18.0625 35.515625 20.015625 
Q 33.0625 21.96875 24.703125 23.78125 
L 21.578125 24.515625 
Q 13.234375 26.265625 9.515625 29.90625 
Q 5.8125 33.546875 5.8125 39.890625 
Q 5.8125 47.609375 11.28125 51.796875 
Q 16.75 56 26.8125 56 
Q 31.78125 56 36.171875 55.265625 
Q 40.578125 54.546875 44.28125 53.078125 
z
" id="DejaVuSans-115"/>
       <path d="M 30.609375 48.390625 
Q 23.390625 48.390625 19.1875 42.75 
Q 14.984375 37.109375 14.984375 27.296875 
Q 14.984375 17.484375 19.15625 11.84375 
Q 23.34375 6.203125 30.609375 6.203125 
Q 37.796875 6.203125 41.984375 11.859375 
Q 46.1875 17.53125 46.1875 27.296875 
Q 46.1875 37.015625 41.984375 42.703125 
Q 37.796875 48.390625 30.609375 48.390625 
z
M 30.609375 56 
Q 42.328125 56 49.015625 48.375 
Q 55.71875 40.765625 55.71875 27.296875 
Q 55.71875 13.875 49.015625 6.21875 
Q 42.328125 -1.421875 30.609375 -1.421875 
Q 18.84375 -1.421875 12.171875 6.21875 
Q 5.515625 13.875 5.515625 27.296875 
Q 5.515625 40.765625 12.171875 48.375 
Q 18.84375 56 30.609375 56 
z
" id="DejaVuSans-111"/>
       <path d="M 41.109375 46.296875 
Q 39.59375 47.171875 37.8125 47.578125 
Q 36.03125 48 33.890625 48 
Q 26.265625 48 22.1875 43.046875 
Q 18.109375 38.09375 18.109375 28.8125 
L 18.109375 0 
L 9.078125 0 
L 9.078125 54.6875 
L 18.109375 54.6875 
L 18.109375 46.1875 
Q 20.953125 51.171875 25.484375 53.578125 
Q 30.03125 56 36.53125 56 
Q 37.453125 56 38.578125 55.875 
Q 39.703125 55.765625 41.0625 55.515625 
z
" id="DejaVuSans-114"/>
       <path d="M 9.8125 72.90625 
L 51.703125 72.90625 
L 51.703125 64.59375 
L 19.671875 64.59375 
L 19.671875 43.109375 
L 48.578125 43.109375 
L 48.578125 34.8125 
L 19.671875 34.8125 
L 19.671875 0 
L 9.8125 0 
z
" id="DejaVuSans-70"/>
       <path d="M 9.421875 75.984375 
L 18.40625 75.984375 
L 18.40625 0 
L 9.421875 0 
z
" id="DejaVuSans-108"/>
       <path d="M 4.203125 54.6875 
L 13.1875 54.6875 
L 24.421875 12.015625 
L 35.59375 54.6875 
L 46.1875 54.6875 
L 57.421875 12.015625 
L 68.609375 54.6875 
L 77.59375 54.6875 
L 63.28125 0 
L 52.6875 0 
L 40.921875 44.828125 
L 29.109375 0 
L 18.5 0 
z
" id="DejaVuSans-119"/>
      </defs>
      <use xlink:href="#DejaVuSans-84"/>
      <use x="44.083984" xlink:href="#DejaVuSans-101"/>
      <use x="105.607422" xlink:href="#DejaVuSans-110"/>
      <use x="168.986328" xlink:href="#DejaVuSans-115"/>
      <use x="221.085938" xlink:href="#DejaVuSans-111"/>
      <use x="282.267578" xlink:href="#DejaVuSans-114"/>
      <use x="323.380859" xlink:href="#DejaVuSans-70"/>
      <use x="380.900391" xlink:href="#DejaVuSans-108"/>
      <use x="408.683594" xlink:href="#DejaVuSans-111"/>
      <use x="469.865234" xlink:href="#DejaVuSans-119"/>
     </g>
    </g>
   </g>
  </g>
 </g>
 <defs>
  <clipPath id="pccbf954e2f">
   <rect height="172.8" width="279" x="52.654375" y="13.006875"/>
  </clipPath>
 </defs>
</svg>
