<?xml version="1.0" encoding="utf-8" standalone="no"?>
<!DOCTYPE svg PUBLIC "-//W3C//DTD SVG 1.1//EN"
  "http://www.w3.org/Graphics/SVG/1.1/DTD/svg11.dtd">
<!-- Created with matplotlib (https://matplotlib.org/) -->
<svg height="195.902607pt" version="1.1" viewBox="0 0 272.946875 195.902607" width="272.946875pt" xmlns="http://www.w3.org/2000/svg" xmlns:xlink="http://www.w3.org/1999/xlink">
 <metadata>
  <rdf:RDF xmlns:cc="http://creativecommons.org/ns#" xmlns:dc="http://purl.org/dc/elements/1.1/" xmlns:rdf="http://www.w3.org/1999/02/22-rdf-syntax-ns#">
   <cc:Work>
    <dc:type rdf:resource="http://purl.org/dc/dcmitype/StillImage"/>
    <dc:date>2021-10-22T16:12:53.390329</dc:date>
    <dc:format>image/svg+xml</dc:format>
    <dc:creator>
     <cc:Agent>
      <dc:title>Matplotlib v3.3.4, https://matplotlib.org/</dc:title>
     </cc:Agent>
    </dc:creator>
   </cc:Work>
  </rdf:RDF>
 </metadata>
 <defs>
  <style type="text/css">*{stroke-linecap:butt;stroke-linejoin:round;}</style>
 </defs>
 <g id="figure_1">
  <g id="patch_1">
   <path d="M 0 195.902607 
L 272.946875 195.902607 
L 272.946875 0 
L 0 0 
z
" style="fill:none;"/>
  </g>
  <g id="axes_1">
   <g id="patch_2">
    <path d="M 42.546875 142.088375 
L 265.746875 142.088375 
L 265.746875 26.888375 
L 42.546875 26.888375 
z
" style="fill:none;"/>
   </g>
   <g id="patch_3">
    <path clip-path="url(#p88f31a486a)" d="M 53.706875 119.048375 
L 76.026875 119.048375 
L 76.026875 67.991735 
L 53.706875 67.991735 
z
" style="fill:url(#h6f202d6b18);stroke:#ff0000;stroke-linejoin:miter;stroke-width:0.8;"/>
   </g>
   <g id="patch_4">
    <path clip-path="url(#p88f31a486a)" d="M 128.106875 119.048375 
L 150.426875 119.048375 
L 150.426875 108.473015 
L 128.106875 108.473015 
z
" style="fill:url(#h6f202d6b18);stroke:#ff0000;stroke-linejoin:miter;stroke-width:0.8;"/>
   </g>
   <g id="patch_5">
    <path clip-path="url(#p88f31a486a)" d="M 202.506875 119.048375 
L 224.826875 119.048375 
L 224.826875 43.914935 
L 202.506875 43.914935 
z
" style="fill:url(#h6f202d6b18);stroke:#ff0000;stroke-linejoin:miter;stroke-width:0.8;"/>
   </g>
   <g id="patch_6">
    <path clip-path="url(#p88f31a486a)" d="M 83.466875 119.048375 
L 105.786875 119.048375 
L 105.786875 138.079415 
L 83.466875 138.079415 
z
" style="fill:url(#ha32afae266);stroke:#008000;stroke-linejoin:miter;stroke-width:0.8;"/>
   </g>
   <g id="patch_7">
    <path clip-path="url(#p88f31a486a)" d="M 157.866875 119.048375 
L 180.186875 119.048375 
L 180.186875 119.048375 
L 157.866875 119.048375 
z
" style="fill:url(#ha32afae266);stroke:#008000;stroke-linejoin:miter;stroke-width:0.8;"/>
   </g>
   <g id="patch_8">
    <path clip-path="url(#p88f31a486a)" d="M 232.266875 119.048375 
L 254.586875 119.048375 
L 254.586875 119.601335 
L 232.266875 119.601335 
z
" style="fill:url(#ha32afae266);stroke:#008000;stroke-linejoin:miter;stroke-width:0.8;"/>
   </g>
   <g id="line2d_1">
    <path clip-path="url(#p88f31a486a)" d="M -0 0 
" style="fill:none;stroke:#424242;stroke-linecap:round;stroke-width:2.16;"/>
   </g>
   <g id="line2d_2">
    <path clip-path="url(#p88f31a486a)" d="M -0 0 
" style="fill:none;stroke:#424242;stroke-linecap:round;stroke-width:2.16;"/>
   </g>
   <g id="line2d_3">
    <path clip-path="url(#p88f31a486a)" d="M -0 0 
" style="fill:none;stroke:#424242;stroke-linecap:round;stroke-width:2.16;"/>
   </g>
   <g id="line2d_4">
    <path clip-path="url(#p88f31a486a)" d="M -0 0 
" style="fill:none;stroke:#424242;stroke-linecap:round;stroke-width:2.16;"/>
   </g>
   <g id="line2d_5">
    <path clip-path="url(#p88f31a486a)" d="M -0 0 
" style="fill:none;stroke:#424242;stroke-linecap:round;stroke-width:2.16;"/>
   </g>
   <g id="line2d_6">
    <path clip-path="url(#p88f31a486a)" d="M -0 0 
" style="fill:none;stroke:#424242;stroke-linecap:round;stroke-width:2.16;"/>
   </g>
   <g id="patch_9">
    <path d="M 42.546875 142.088375 
L 42.546875 26.888375 
" style="fill:none;stroke:#000000;stroke-linecap:square;stroke-linejoin:miter;"/>
   </g>
   <g id="patch_10">
    <path d="M 265.746875 142.088375 
L 265.746875 26.888375 
" style="fill:none;stroke:#000000;stroke-linecap:square;stroke-linejoin:miter;"/>
   </g>
   <g id="patch_11">
    <path d="M 42.546875 142.088375 
L 265.746875 142.088375 
" style="fill:none;stroke:#000000;stroke-linecap:square;stroke-linejoin:miter;"/>
   </g>
   <g id="patch_12">
    <path d="M 42.546875 26.888375 
L 265.746875 26.888375 
" style="fill:none;stroke:#000000;stroke-linecap:square;stroke-linejoin:miter;"/>
   </g>
   <g id="matplotlib.axis_1">
    <g id="xtick_1">
     <g id="line2d_7">
      <defs>
       <path d="M 0 0 
L 0 -4.8 
" id="me06fc56654" style="stroke:#000000;"/>
      </defs>
      <g>
       <use style="stroke:#000000;" x="79.746875" xlink:href="#me06fc56654" y="142.088375"/>
      </g>
     </g>
     <g id="line2d_8">
      <defs>
       <path d="M 0 0 
L 0 4.8 
" id="m002b6e7fe3" style="stroke:#000000;"/>
      </defs>
      <g>
       <use style="stroke:#000000;" x="79.746875" xlink:href="#m002b6e7fe3" y="26.888375"/>
      </g>
     </g>
     <g id="text_1">
      <!-- NAMD -->
      <g transform="translate(71.164919 171.969588)rotate(-45)scale(0.1 -0.1)">
       <defs>
        <path d="M 7.625 0 
L 7.625 71.578125 
L 17.328125 71.578125 
L 54.9375 15.375 
L 54.9375 71.578125 
L 64.015625 71.578125 
L 64.015625 0 
L 54.296875 0 
L 16.703125 56.25 
L 16.703125 0 
z
" id="ArialMT-78"/>
        <path d="M -0.140625 0 
L 27.34375 71.578125 
L 37.546875 71.578125 
L 66.84375 0 
L 56.0625 0 
L 47.703125 21.6875 
L 17.78125 21.6875 
L 9.90625 0 
z
M 20.515625 29.390625 
L 44.78125 29.390625 
L 37.3125 49.21875 
Q 33.890625 58.25 32.234375 64.0625 
Q 30.859375 57.171875 28.375 50.390625 
z
" id="ArialMT-65"/>
        <path d="M 7.421875 0 
L 7.421875 71.578125 
L 21.6875 71.578125 
L 38.625 20.90625 
Q 40.96875 13.8125 42.046875 10.296875 
Q 43.265625 14.203125 45.84375 21.78125 
L 62.984375 71.578125 
L 75.734375 71.578125 
L 75.734375 0 
L 66.609375 0 
L 66.609375 59.90625 
L 45.796875 0 
L 37.25 0 
L 16.546875 60.9375 
L 16.546875 0 
z
" id="ArialMT-77"/>
        <path d="M 7.71875 0 
L 7.71875 71.578125 
L 32.375 71.578125 
Q 40.71875 71.578125 45.125 70.5625 
Q 51.265625 69.140625 55.609375 65.4375 
Q 61.28125 60.640625 64.078125 53.1875 
Q 66.890625 45.75 66.890625 36.1875 
Q 66.890625 28.03125 64.984375 21.734375 
Q 63.09375 15.4375 60.109375 11.296875 
Q 57.125 7.171875 53.578125 4.796875 
Q 50.046875 2.4375 45.046875 1.21875 
Q 40.046875 0 33.546875 0 
z
M 17.1875 8.453125 
L 32.46875 8.453125 
Q 39.546875 8.453125 43.578125 9.765625 
Q 47.609375 11.078125 50 13.484375 
Q 53.375 16.84375 55.25 22.53125 
Q 57.125 28.21875 57.125 36.328125 
Q 57.125 47.5625 53.4375 53.59375 
Q 49.75 59.625 44.484375 61.671875 
Q 40.671875 63.140625 32.234375 63.140625 
L 17.1875 63.140625 
z
" id="ArialMT-68"/>
       </defs>
       <use xlink:href="#ArialMT-78"/>
       <use x="72.216797" xlink:href="#ArialMT-65"/>
       <use x="138.916016" xlink:href="#ArialMT-77"/>
       <use x="222.216797" xlink:href="#ArialMT-68"/>
      </g>
     </g>
    </g>
    <g id="xtick_2">
     <g id="line2d_9">
      <g>
       <use style="stroke:#000000;" x="154.146875" xlink:href="#me06fc56654" y="142.088375"/>
      </g>
     </g>
     <g id="line2d_10">
      <g>
       <use style="stroke:#000000;" x="154.146875" xlink:href="#m002b6e7fe3" y="26.888375"/>
      </g>
     </g>
     <g id="text_2">
      <!-- LAMMPS -->
      <g transform="translate(141.043855 181.011716)rotate(-45)scale(0.1 -0.1)">
       <defs>
        <path d="M 7.328125 0 
L 7.328125 71.578125 
L 16.796875 71.578125 
L 16.796875 8.453125 
L 52.046875 8.453125 
L 52.046875 0 
z
" id="ArialMT-76"/>
        <path d="M 7.71875 0 
L 7.71875 71.578125 
L 34.71875 71.578125 
Q 41.84375 71.578125 45.609375 70.90625 
Q 50.875 70.015625 54.4375 67.546875 
Q 58.015625 65.09375 60.1875 60.640625 
Q 62.359375 56.203125 62.359375 50.875 
Q 62.359375 41.75 56.546875 35.421875 
Q 50.734375 29.109375 35.546875 29.109375 
L 17.1875 29.109375 
L 17.1875 0 
z
M 17.1875 37.546875 
L 35.6875 37.546875 
Q 44.875 37.546875 48.734375 40.96875 
Q 52.59375 44.390625 52.59375 50.59375 
Q 52.59375 55.078125 50.3125 58.265625 
Q 48.046875 61.46875 44.34375 62.5 
Q 41.9375 63.140625 35.5 63.140625 
L 17.1875 63.140625 
z
" id="ArialMT-80"/>
        <path d="M 4.5 23 
L 13.421875 23.78125 
Q 14.0625 18.40625 16.375 14.96875 
Q 18.703125 11.53125 23.578125 9.40625 
Q 28.46875 7.28125 34.578125 7.28125 
Q 39.984375 7.28125 44.140625 8.890625 
Q 48.296875 10.5 50.3125 13.296875 
Q 52.34375 16.109375 52.34375 19.4375 
Q 52.34375 22.796875 50.390625 25.3125 
Q 48.4375 27.828125 43.953125 29.546875 
Q 41.0625 30.671875 31.203125 33.03125 
Q 21.34375 35.40625 17.390625 37.5 
Q 12.25 40.1875 9.734375 44.15625 
Q 7.234375 48.140625 7.234375 53.078125 
Q 7.234375 58.5 10.296875 63.203125 
Q 13.375 67.921875 19.28125 70.359375 
Q 25.203125 72.796875 32.421875 72.796875 
Q 40.375 72.796875 46.453125 70.234375 
Q 52.546875 67.671875 55.8125 62.6875 
Q 59.078125 57.71875 59.328125 51.421875 
L 50.25 50.734375 
Q 49.515625 57.515625 45.28125 60.984375 
Q 41.0625 64.453125 32.8125 64.453125 
Q 24.21875 64.453125 20.28125 61.296875 
Q 16.359375 58.15625 16.359375 53.71875 
Q 16.359375 49.859375 19.140625 47.359375 
Q 21.875 44.875 33.421875 42.265625 
Q 44.96875 39.65625 49.265625 37.703125 
Q 55.515625 34.8125 58.484375 30.390625 
Q 61.46875 25.984375 61.46875 20.21875 
Q 61.46875 14.5 58.203125 9.4375 
Q 54.9375 4.390625 48.796875 1.578125 
Q 42.671875 -1.21875 35.015625 -1.21875 
Q 25.296875 -1.21875 18.71875 1.609375 
Q 12.15625 4.4375 8.421875 10.125 
Q 4.6875 15.828125 4.5 23 
z
" id="ArialMT-83"/>
       </defs>
       <use xlink:href="#ArialMT-76"/>
       <use x="55.615234" xlink:href="#ArialMT-65"/>
       <use x="122.314453" xlink:href="#ArialMT-77"/>
       <use x="205.615234" xlink:href="#ArialMT-77"/>
       <use x="288.916016" xlink:href="#ArialMT-80"/>
       <use x="355.615234" xlink:href="#ArialMT-83"/>
      </g>
     </g>
    </g>
    <g id="xtick_3">
     <g id="line2d_11">
      <g>
       <use style="stroke:#000000;" x="228.546875" xlink:href="#me06fc56654" y="142.088375"/>
      </g>
     </g>
     <g id="line2d_12">
      <g>
       <use style="stroke:#000000;" x="228.546875" xlink:href="#m002b6e7fe3" y="26.888375"/>
      </g>
     </g>
     <g id="text_3">
      <!-- TensorFlow -->
      <g transform="translate(212.301097 187.297232)rotate(-45)scale(0.1 -0.1)">
       <defs>
        <path d="M 25.921875 0 
L 25.921875 63.140625 
L 2.34375 63.140625 
L 2.34375 71.578125 
L 59.078125 71.578125 
L 59.078125 63.140625 
L 35.40625 63.140625 
L 35.40625 0 
z
" id="ArialMT-84"/>
        <path d="M 42.09375 16.703125 
L 51.171875 15.578125 
Q 49.03125 7.625 43.21875 3.21875 
Q 37.40625 -1.171875 28.375 -1.171875 
Q 17 -1.171875 10.328125 5.828125 
Q 3.65625 12.84375 3.65625 25.484375 
Q 3.65625 38.578125 10.390625 45.796875 
Q 17.140625 53.03125 27.875 53.03125 
Q 38.28125 53.03125 44.875 45.953125 
Q 51.46875 38.875 51.46875 26.03125 
Q 51.46875 25.25 51.421875 23.6875 
L 12.75 23.6875 
Q 13.234375 15.140625 17.578125 10.59375 
Q 21.921875 6.0625 28.421875 6.0625 
Q 33.25 6.0625 36.671875 8.59375 
Q 40.09375 11.140625 42.09375 16.703125 
z
M 13.234375 30.90625 
L 42.1875 30.90625 
Q 41.609375 37.453125 38.875 40.71875 
Q 34.671875 45.796875 27.984375 45.796875 
Q 21.921875 45.796875 17.796875 41.75 
Q 13.671875 37.703125 13.234375 30.90625 
z
" id="ArialMT-101"/>
        <path d="M 6.59375 0 
L 6.59375 51.859375 
L 14.5 51.859375 
L 14.5 44.484375 
Q 20.21875 53.03125 31 53.03125 
Q 35.6875 53.03125 39.625 51.34375 
Q 43.5625 49.65625 45.515625 46.921875 
Q 47.46875 44.1875 48.25 40.4375 
Q 48.734375 37.984375 48.734375 31.890625 
L 48.734375 0 
L 39.9375 0 
L 39.9375 31.546875 
Q 39.9375 36.921875 38.90625 39.578125 
Q 37.890625 42.234375 35.28125 43.8125 
Q 32.671875 45.40625 29.15625 45.40625 
Q 23.53125 45.40625 19.453125 41.84375 
Q 15.375 38.28125 15.375 28.328125 
L 15.375 0 
z
" id="ArialMT-110"/>
        <path d="M 3.078125 15.484375 
L 11.765625 16.84375 
Q 12.5 11.625 15.84375 8.84375 
Q 19.1875 6.0625 25.203125 6.0625 
Q 31.25 6.0625 34.171875 8.515625 
Q 37.109375 10.984375 37.109375 14.3125 
Q 37.109375 17.28125 34.515625 19 
Q 32.71875 20.171875 25.53125 21.96875 
Q 15.875 24.421875 12.140625 26.203125 
Q 8.40625 27.984375 6.46875 31.125 
Q 4.546875 34.28125 4.546875 38.09375 
Q 4.546875 41.546875 6.125 44.5 
Q 7.71875 47.46875 10.453125 49.421875 
Q 12.5 50.921875 16.03125 51.96875 
Q 19.578125 53.03125 23.640625 53.03125 
Q 29.734375 53.03125 34.34375 51.265625 
Q 38.96875 49.515625 41.15625 46.5 
Q 43.359375 43.5 44.1875 38.484375 
L 35.59375 37.3125 
Q 35.015625 41.3125 32.203125 43.546875 
Q 29.390625 45.796875 24.265625 45.796875 
Q 18.21875 45.796875 15.625 43.796875 
Q 13.03125 41.796875 13.03125 39.109375 
Q 13.03125 37.40625 14.109375 36.03125 
Q 15.1875 34.625 17.484375 33.6875 
Q 18.796875 33.203125 25.25 31.453125 
Q 34.578125 28.953125 38.25 27.359375 
Q 41.9375 25.78125 44.03125 22.75 
Q 46.140625 19.734375 46.140625 15.234375 
Q 46.140625 10.84375 43.578125 6.953125 
Q 41.015625 3.078125 36.171875 0.953125 
Q 31.34375 -1.171875 25.25 -1.171875 
Q 15.140625 -1.171875 9.84375 3.03125 
Q 4.546875 7.234375 3.078125 15.484375 
z
" id="ArialMT-115"/>
        <path d="M 3.328125 25.921875 
Q 3.328125 40.328125 11.328125 47.265625 
Q 18.015625 53.03125 27.640625 53.03125 
Q 38.328125 53.03125 45.109375 46.015625 
Q 51.90625 39.015625 51.90625 26.65625 
Q 51.90625 16.65625 48.90625 10.90625 
Q 45.90625 5.171875 40.15625 2 
Q 34.421875 -1.171875 27.640625 -1.171875 
Q 16.75 -1.171875 10.03125 5.8125 
Q 3.328125 12.796875 3.328125 25.921875 
z
M 12.359375 25.921875 
Q 12.359375 15.96875 16.703125 11.015625 
Q 21.046875 6.0625 27.640625 6.0625 
Q 34.1875 6.0625 38.53125 11.03125 
Q 42.875 16.015625 42.875 26.21875 
Q 42.875 35.84375 38.5 40.796875 
Q 34.125 45.75 27.640625 45.75 
Q 21.046875 45.75 16.703125 40.8125 
Q 12.359375 35.890625 12.359375 25.921875 
z
" id="ArialMT-111"/>
        <path d="M 6.5 0 
L 6.5 51.859375 
L 14.40625 51.859375 
L 14.40625 44 
Q 17.4375 49.515625 20 51.265625 
Q 22.5625 53.03125 25.640625 53.03125 
Q 30.078125 53.03125 34.671875 50.203125 
L 31.640625 42.046875 
Q 28.421875 43.953125 25.203125 43.953125 
Q 22.3125 43.953125 20.015625 42.21875 
Q 17.71875 40.484375 16.75 37.40625 
Q 15.28125 32.71875 15.28125 27.15625 
L 15.28125 0 
z
" id="ArialMT-114"/>
        <path d="M 8.203125 0 
L 8.203125 71.578125 
L 56.5 71.578125 
L 56.5 63.140625 
L 17.671875 63.140625 
L 17.671875 40.96875 
L 51.265625 40.96875 
L 51.265625 32.515625 
L 17.671875 32.515625 
L 17.671875 0 
z
" id="ArialMT-70"/>
        <path d="M 6.390625 0 
L 6.390625 71.578125 
L 15.1875 71.578125 
L 15.1875 0 
z
" id="ArialMT-108"/>
        <path d="M 16.15625 0 
L 0.296875 51.859375 
L 9.375 51.859375 
L 17.625 21.921875 
L 20.703125 10.796875 
Q 20.90625 11.625 23.390625 21.484375 
L 31.640625 51.859375 
L 40.671875 51.859375 
L 48.4375 21.78125 
L 51.03125 11.859375 
L 54 21.875 
L 62.890625 51.859375 
L 71.4375 51.859375 
L 55.21875 0 
L 46.09375 0 
L 37.84375 31.0625 
L 35.84375 39.890625 
L 25.34375 0 
z
" id="ArialMT-119"/>
       </defs>
       <use xlink:href="#ArialMT-84"/>
       <use x="49.958984" xlink:href="#ArialMT-101"/>
       <use x="105.574219" xlink:href="#ArialMT-110"/>
       <use x="161.189453" xlink:href="#ArialMT-115"/>
       <use x="211.189453" xlink:href="#ArialMT-111"/>
       <use x="266.804688" xlink:href="#ArialMT-114"/>
       <use x="300.105469" xlink:href="#ArialMT-70"/>
       <use x="361.189453" xlink:href="#ArialMT-108"/>
       <use x="383.40625" xlink:href="#ArialMT-111"/>
       <use x="439.021484" xlink:href="#ArialMT-119"/>
      </g>
     </g>
    </g>
   </g>
   <g id="matplotlib.axis_2">
    <g id="ytick_1">
     <g id="line2d_13">
      <defs>
       <path d="M 0 0 
L 4.8 0 
" id="mb6f6048eb9" style="stroke:#000000;"/>
      </defs>
      <g>
       <use style="stroke:#000000;" x="42.546875" xlink:href="#mb6f6048eb9" y="142.088375"/>
      </g>
     </g>
     <g id="line2d_14">
      <defs>
       <path d="M 0 0 
L -4.8 0 
" id="m00ca7e7b4e" style="stroke:#000000;"/>
      </defs>
      <g>
       <use style="stroke:#000000;" x="265.746875" xlink:href="#m00ca7e7b4e" y="142.088375"/>
      </g>
     </g>
     <g id="text_4">
      <!-- −10 -->
      <g transform="translate(21.584375 144.673531)scale(0.1 -0.1)">
       <defs>
        <path d="M 52.828125 31.203125 
L 5.5625 31.203125 
L 5.5625 39.40625 
L 52.828125 39.40625 
z
" id="ArialMT-8722"/>
        <path d="M 37.25 0 
L 28.46875 0 
L 28.46875 56 
Q 25.296875 52.984375 20.140625 49.953125 
Q 14.984375 46.921875 10.890625 45.40625 
L 10.890625 53.90625 
Q 18.265625 57.375 23.78125 62.296875 
Q 29.296875 67.234375 31.59375 71.875 
L 37.25 71.875 
z
" id="ArialMT-49"/>
        <path d="M 4.15625 35.296875 
Q 4.15625 48 6.765625 55.734375 
Q 9.375 63.484375 14.515625 67.671875 
Q 19.671875 71.875 27.484375 71.875 
Q 33.25 71.875 37.59375 69.546875 
Q 41.9375 67.234375 44.765625 62.859375 
Q 47.609375 58.5 49.21875 52.21875 
Q 50.828125 45.953125 50.828125 35.296875 
Q 50.828125 22.703125 48.234375 14.96875 
Q 45.65625 7.234375 40.5 3 
Q 35.359375 -1.21875 27.484375 -1.21875 
Q 17.140625 -1.21875 11.234375 6.203125 
Q 4.15625 15.140625 4.15625 35.296875 
z
M 13.1875 35.296875 
Q 13.1875 17.671875 17.3125 11.828125 
Q 21.4375 6 27.484375 6 
Q 33.546875 6 37.671875 11.859375 
Q 41.796875 17.71875 41.796875 35.296875 
Q 41.796875 52.984375 37.671875 58.78125 
Q 33.546875 64.59375 27.390625 64.59375 
Q 21.34375 64.59375 17.71875 59.46875 
Q 13.1875 52.9375 13.1875 35.296875 
z
" id="ArialMT-48"/>
       </defs>
       <use xlink:href="#ArialMT-8722"/>
       <use x="58.398438" xlink:href="#ArialMT-49"/>
       <use x="114.013672" xlink:href="#ArialMT-48"/>
      </g>
     </g>
    </g>
    <g id="ytick_2">
     <g id="line2d_15">
      <g>
       <use style="stroke:#000000;" x="42.546875" xlink:href="#mb6f6048eb9" y="119.048375"/>
      </g>
     </g>
     <g id="line2d_16">
      <g>
       <use style="stroke:#000000;" x="265.746875" xlink:href="#m00ca7e7b4e" y="119.048375"/>
      </g>
     </g>
     <g id="text_5">
      <!-- 0 -->
      <g transform="translate(32.985938 121.633531)scale(0.1 -0.1)">
       <use xlink:href="#ArialMT-48"/>
      </g>
     </g>
    </g>
    <g id="ytick_3">
     <g id="line2d_17">
      <g>
       <use style="stroke:#000000;" x="42.546875" xlink:href="#mb6f6048eb9" y="96.008375"/>
      </g>
     </g>
     <g id="line2d_18">
      <g>
       <use style="stroke:#000000;" x="265.746875" xlink:href="#m00ca7e7b4e" y="96.008375"/>
      </g>
     </g>
     <g id="text_6">
      <!-- 10 -->
      <g transform="translate(27.425 98.593531)scale(0.1 -0.1)">
       <use xlink:href="#ArialMT-49"/>
       <use x="55.615234" xlink:href="#ArialMT-48"/>
      </g>
     </g>
    </g>
    <g id="ytick_4">
     <g id="line2d_19">
      <g>
       <use style="stroke:#000000;" x="42.546875" xlink:href="#mb6f6048eb9" y="72.968375"/>
      </g>
     </g>
     <g id="line2d_20">
      <g>
       <use style="stroke:#000000;" x="265.746875" xlink:href="#m00ca7e7b4e" y="72.968375"/>
      </g>
     </g>
     <g id="text_7">
      <!-- 20 -->
      <g transform="translate(27.425 75.553531)scale(0.1 -0.1)">
       <defs>
        <path d="M 50.34375 8.453125 
L 50.34375 0 
L 3.03125 0 
Q 2.9375 3.171875 4.046875 6.109375 
Q 5.859375 10.9375 9.828125 15.625 
Q 13.8125 20.3125 21.34375 26.46875 
Q 33.015625 36.03125 37.109375 41.625 
Q 41.21875 47.21875 41.21875 52.203125 
Q 41.21875 57.421875 37.46875 61 
Q 33.734375 64.59375 27.734375 64.59375 
Q 21.390625 64.59375 17.578125 60.78125 
Q 13.765625 56.984375 13.71875 50.25 
L 4.6875 51.171875 
Q 5.609375 61.28125 11.65625 66.578125 
Q 17.71875 71.875 27.9375 71.875 
Q 38.234375 71.875 44.234375 66.15625 
Q 50.25 60.453125 50.25 52 
Q 50.25 47.703125 48.484375 43.546875 
Q 46.734375 39.40625 42.65625 34.8125 
Q 38.578125 30.21875 29.109375 22.21875 
Q 21.1875 15.578125 18.9375 13.203125 
Q 16.703125 10.84375 15.234375 8.453125 
z
" id="ArialMT-50"/>
       </defs>
       <use xlink:href="#ArialMT-50"/>
       <use x="55.615234" xlink:href="#ArialMT-48"/>
      </g>
     </g>
    </g>
    <g id="ytick_5">
     <g id="line2d_21">
      <g>
       <use style="stroke:#000000;" x="42.546875" xlink:href="#mb6f6048eb9" y="49.928375"/>
      </g>
     </g>
     <g id="line2d_22">
      <g>
       <use style="stroke:#000000;" x="265.746875" xlink:href="#m00ca7e7b4e" y="49.928375"/>
      </g>
     </g>
     <g id="text_8">
      <!-- 30 -->
      <g transform="translate(27.425 52.513531)scale(0.1 -0.1)">
       <defs>
        <path d="M 4.203125 18.890625 
L 12.984375 20.0625 
Q 14.5 12.59375 18.140625 9.296875 
Q 21.78125 6 27 6 
Q 33.203125 6 37.46875 10.296875 
Q 41.75 14.59375 41.75 20.953125 
Q 41.75 27 37.796875 30.921875 
Q 33.84375 34.859375 27.734375 34.859375 
Q 25.25 34.859375 21.53125 33.890625 
L 22.515625 41.609375 
Q 23.390625 41.5 23.921875 41.5 
Q 29.546875 41.5 34.03125 44.421875 
Q 38.53125 47.359375 38.53125 53.46875 
Q 38.53125 58.296875 35.25 61.46875 
Q 31.984375 64.65625 26.8125 64.65625 
Q 21.6875 64.65625 18.265625 61.421875 
Q 14.84375 58.203125 13.875 51.765625 
L 5.078125 53.328125 
Q 6.6875 62.15625 12.390625 67.015625 
Q 18.109375 71.875 26.609375 71.875 
Q 32.46875 71.875 37.390625 69.359375 
Q 42.328125 66.84375 44.9375 62.5 
Q 47.5625 58.15625 47.5625 53.265625 
Q 47.5625 48.640625 45.0625 44.828125 
Q 42.578125 41.015625 37.703125 38.765625 
Q 44.046875 37.3125 47.5625 32.6875 
Q 51.078125 28.078125 51.078125 21.140625 
Q 51.078125 11.765625 44.234375 5.25 
Q 37.40625 -1.265625 26.953125 -1.265625 
Q 17.53125 -1.265625 11.296875 4.34375 
Q 5.078125 9.96875 4.203125 18.890625 
z
" id="ArialMT-51"/>
       </defs>
       <use xlink:href="#ArialMT-51"/>
       <use x="55.615234" xlink:href="#ArialMT-48"/>
      </g>
     </g>
    </g>
    <g id="ytick_6">
     <g id="line2d_23">
      <g>
       <use style="stroke:#000000;" x="42.546875" xlink:href="#mb6f6048eb9" y="26.888375"/>
      </g>
     </g>
     <g id="line2d_24">
      <g>
       <use style="stroke:#000000;" x="265.746875" xlink:href="#m00ca7e7b4e" y="26.888375"/>
      </g>
     </g>
     <g id="text_9">
      <!-- 40 -->
      <g transform="translate(27.425 29.473531)scale(0.1 -0.1)">
       <defs>
        <path d="M 32.328125 0 
L 32.328125 17.140625 
L 1.265625 17.140625 
L 1.265625 25.203125 
L 33.9375 71.578125 
L 41.109375 71.578125 
L 41.109375 25.203125 
L 50.78125 25.203125 
L 50.78125 17.140625 
L 41.109375 17.140625 
L 41.109375 0 
z
M 32.328125 25.203125 
L 32.328125 57.46875 
L 9.90625 25.203125 
z
" id="ArialMT-52"/>
       </defs>
       <use xlink:href="#ArialMT-52"/>
       <use x="55.615234" xlink:href="#ArialMT-48"/>
      </g>
     </g>
    </g>
    <g id="text_10">
     <!-- Energy (%) / Run Time (%) -->
     <g transform="translate(14.479688 146.625094)rotate(-90)scale(0.1 -0.1)">
      <defs>
       <path d="M 7.28125 0 
L 7.28125 71.578125 
L 60.359375 71.578125 
L 60.359375 59.46875 
L 21.734375 59.46875 
L 21.734375 43.609375 
L 57.671875 43.609375 
L 57.671875 31.546875 
L 21.734375 31.546875 
L 21.734375 12.0625 
L 61.71875 12.0625 
L 61.71875 0 
z
" id="Arial-BoldMT-69"/>
       <path d="M 54.34375 0 
L 40.625 0 
L 40.625 26.46875 
Q 40.625 34.859375 39.75 37.328125 
Q 38.875 39.796875 36.890625 41.15625 
Q 34.90625 42.53125 32.125 42.53125 
Q 28.5625 42.53125 25.734375 40.578125 
Q 22.90625 38.625 21.84375 35.390625 
Q 20.796875 32.171875 20.796875 23.484375 
L 20.796875 0 
L 7.078125 0 
L 7.078125 51.859375 
L 19.828125 51.859375 
L 19.828125 44.234375 
Q 26.609375 53.03125 36.921875 53.03125 
Q 41.453125 53.03125 45.203125 51.390625 
Q 48.96875 49.75 50.890625 47.203125 
Q 52.828125 44.671875 53.578125 41.453125 
Q 54.34375 38.234375 54.34375 32.234375 
z
" id="Arial-BoldMT-110"/>
       <path d="M 37.203125 16.5 
L 50.875 14.203125 
Q 48.25 6.6875 42.546875 2.75 
Q 36.859375 -1.171875 28.328125 -1.171875 
Q 14.796875 -1.171875 8.296875 7.671875 
Q 3.171875 14.75 3.171875 25.53125 
Q 3.171875 38.421875 9.90625 45.71875 
Q 16.65625 53.03125 26.953125 53.03125 
Q 38.53125 53.03125 45.21875 45.390625 
Q 51.90625 37.75 51.609375 21.96875 
L 17.234375 21.96875 
Q 17.390625 15.875 20.5625 12.46875 
Q 23.734375 9.078125 28.46875 9.078125 
Q 31.6875 9.078125 33.875 10.828125 
Q 36.078125 12.59375 37.203125 16.5 
z
M 37.984375 30.375 
Q 37.84375 36.328125 34.90625 39.421875 
Q 31.984375 42.53125 27.78125 42.53125 
Q 23.296875 42.53125 20.359375 39.265625 
Q 17.4375 35.984375 17.484375 30.375 
z
" id="Arial-BoldMT-101"/>
       <path d="M 20.3125 0 
L 6.59375 0 
L 6.59375 51.859375 
L 19.34375 51.859375 
L 19.34375 44.484375 
Q 22.609375 49.703125 25.21875 51.359375 
Q 27.828125 53.03125 31.15625 53.03125 
Q 35.84375 53.03125 40.1875 50.4375 
L 35.9375 38.484375 
Q 32.46875 40.71875 29.5 40.71875 
Q 26.609375 40.71875 24.609375 39.125 
Q 22.609375 37.546875 21.453125 33.390625 
Q 20.3125 29.25 20.3125 16.015625 
z
" id="Arial-BoldMT-114"/>
       <path d="M 5.90625 -3.421875 
L 21.578125 -5.328125 
Q 21.96875 -8.0625 23.390625 -9.078125 
Q 25.34375 -10.546875 29.546875 -10.546875 
Q 34.90625 -10.546875 37.59375 -8.9375 
Q 39.40625 -7.859375 40.328125 -5.46875 
Q 40.96875 -3.765625 40.96875 0.828125 
L 40.96875 8.40625 
Q 34.8125 0 25.4375 0 
Q 14.984375 0 8.890625 8.84375 
Q 4.109375 15.828125 4.109375 26.21875 
Q 4.109375 39.265625 10.375 46.140625 
Q 16.65625 53.03125 25.984375 53.03125 
Q 35.59375 53.03125 41.84375 44.578125 
L 41.84375 51.859375 
L 54.6875 51.859375 
L 54.6875 5.328125 
Q 54.6875 -3.859375 53.171875 -8.390625 
Q 51.65625 -12.9375 48.921875 -15.515625 
Q 46.1875 -18.109375 41.625 -19.578125 
Q 37.0625 -21.046875 30.078125 -21.046875 
Q 16.890625 -21.046875 11.375 -16.53125 
Q 5.859375 -12.015625 5.859375 -5.078125 
Q 5.859375 -4.390625 5.90625 -3.421875 
z
M 18.171875 27 
Q 18.171875 18.75 21.359375 14.90625 
Q 24.5625 11.078125 29.25 11.078125 
Q 34.28125 11.078125 37.75 15.015625 
Q 41.21875 18.953125 41.21875 26.65625 
Q 41.21875 34.71875 37.890625 38.625 
Q 34.578125 42.53125 29.5 42.53125 
Q 24.5625 42.53125 21.359375 38.6875 
Q 18.171875 34.859375 18.171875 27 
z
" id="Arial-BoldMT-103"/>
       <path d="M 0.6875 51.859375 
L 15.28125 51.859375 
L 27.6875 15.046875 
L 39.796875 51.859375 
L 54 51.859375 
L 35.6875 1.953125 
L 32.421875 -7.078125 
Q 30.609375 -11.625 28.96875 -14.015625 
Q 27.34375 -16.40625 25.21875 -17.890625 
Q 23.09375 -19.390625 19.984375 -20.21875 
Q 16.890625 -21.046875 12.984375 -21.046875 
Q 9.03125 -21.046875 5.21875 -20.21875 
L 4 -9.46875 
Q 7.234375 -10.109375 9.8125 -10.109375 
Q 14.59375 -10.109375 16.890625 -7.296875 
Q 19.1875 -4.5 20.40625 -0.140625 
z
" id="Arial-BoldMT-121"/>
       <path id="Arial-BoldMT-32"/>
       <path d="M 29.9375 -21.046875 
L 20.515625 -21.046875 
Q 13.03125 -9.765625 9.125 2.390625 
Q 5.21875 14.546875 5.21875 25.921875 
Q 5.21875 40.046875 10.0625 52.640625 
Q 14.265625 63.578125 20.703125 72.796875 
L 30.078125 72.796875 
Q 23.390625 58.015625 20.875 47.625 
Q 18.359375 37.25 18.359375 25.640625 
Q 18.359375 17.625 19.84375 9.21875 
Q 21.34375 0.828125 23.921875 -6.734375 
Q 25.640625 -11.71875 29.9375 -21.046875 
z
" id="Arial-BoldMT-40"/>
       <path d="M 4.34375 53.90625 
Q 4.34375 63.53125 8.5625 68.15625 
Q 12.796875 72.796875 20.015625 72.796875 
Q 27.484375 72.796875 31.703125 68.1875 
Q 35.9375 63.578125 35.9375 53.90625 
Q 35.9375 44.28125 31.703125 39.640625 
Q 27.484375 35.015625 20.265625 35.015625 
Q 12.796875 35.015625 8.5625 39.625 
Q 4.34375 44.234375 4.34375 53.90625 
z
M 15.046875 54 
Q 15.046875 47.015625 16.65625 44.625 
Q 17.875 42.875 20.015625 42.875 
Q 22.21875 42.875 23.4375 44.625 
Q 25 47.015625 25 54 
Q 25 60.984375 23.4375 63.328125 
Q 22.21875 65.140625 20.015625 65.140625 
Q 17.875 65.140625 16.65625 63.375 
Q 15.046875 60.984375 15.046875 54 
z
M 30.46875 -2.734375 
L 20.3125 -2.734375 
L 58.453125 72.796875 
L 68.3125 72.796875 
z
M 52.640625 16.0625 
Q 52.640625 25.6875 56.859375 30.328125 
Q 61.078125 34.96875 68.40625 34.96875 
Q 75.78125 34.96875 80 30.328125 
Q 84.234375 25.6875 84.234375 16.0625 
Q 84.234375 6.390625 80 1.75 
Q 75.78125 -2.875 68.5625 -2.875 
Q 61.078125 -2.875 56.859375 1.75 
Q 52.640625 6.390625 52.640625 16.0625 
z
M 63.328125 16.109375 
Q 63.328125 9.125 64.9375 6.78125 
Q 66.15625 4.984375 68.3125 4.984375 
Q 70.515625 4.984375 71.6875 6.734375 
Q 73.296875 9.125 73.296875 16.109375 
Q 73.296875 23.09375 71.734375 25.484375 
Q 70.515625 27.25 68.3125 27.25 
Q 66.109375 27.25 64.9375 25.484375 
Q 63.328125 23.09375 63.328125 16.109375 
z
" id="Arial-BoldMT-37"/>
       <path d="M 3.375 -21.046875 
Q 7.421875 -12.359375 9.078125 -7.71875 
Q 10.75 -3.078125 12.15625 2.96875 
Q 13.578125 9.03125 14.25 14.46875 
Q 14.9375 19.921875 14.9375 25.640625 
Q 14.9375 37.25 12.453125 47.625 
Q 9.96875 58.015625 3.265625 72.796875 
L 12.59375 72.796875 
Q 19.96875 62.3125 24.046875 50.53125 
Q 28.125 38.765625 28.125 26.65625 
Q 28.125 16.453125 24.90625 4.78125 
Q 21.234375 -8.296875 12.84375 -21.046875 
z
" id="Arial-BoldMT-41"/>
       <path d="M -0.140625 -1.21875 
L 17.578125 72.796875 
L 27.875 72.796875 
L 9.96875 -1.21875 
z
" id="Arial-BoldMT-47"/>
       <path d="M 7.328125 0 
L 7.328125 71.578125 
L 37.75 71.578125 
Q 49.21875 71.578125 54.421875 69.640625 
Q 59.625 67.71875 62.75 62.78125 
Q 65.875 57.859375 65.875 51.515625 
Q 65.875 43.453125 61.125 38.203125 
Q 56.390625 32.953125 46.96875 31.59375 
Q 51.65625 28.859375 54.703125 25.578125 
Q 57.765625 22.3125 62.9375 13.96875 
L 71.6875 0 
L 54.390625 0 
L 43.953125 15.578125 
Q 38.375 23.921875 36.328125 26.09375 
Q 34.28125 28.265625 31.984375 29.078125 
Q 29.6875 29.890625 24.703125 29.890625 
L 21.78125 29.890625 
L 21.78125 0 
z
M 21.78125 41.3125 
L 32.46875 41.3125 
Q 42.875 41.3125 45.453125 42.1875 
Q 48.046875 43.0625 49.515625 45.203125 
Q 50.984375 47.359375 50.984375 50.59375 
Q 50.984375 54.203125 49.046875 56.421875 
Q 47.125 58.640625 43.609375 59.234375 
Q 41.84375 59.46875 33.0625 59.46875 
L 21.78125 59.46875 
z
" id="Arial-BoldMT-82"/>
       <path d="M 41.3125 0 
L 41.3125 7.765625 
Q 38.484375 3.609375 33.859375 1.21875 
Q 29.25 -1.171875 24.125 -1.171875 
Q 18.890625 -1.171875 14.734375 1.125 
Q 10.59375 3.421875 8.734375 7.5625 
Q 6.890625 11.71875 6.890625 19.046875 
L 6.890625 51.859375 
L 20.609375 51.859375 
L 20.609375 28.03125 
Q 20.609375 17.09375 21.359375 14.625 
Q 22.125 12.15625 24.125 10.71875 
Q 26.125 9.28125 29.203125 9.28125 
Q 32.71875 9.28125 35.5 11.203125 
Q 38.28125 13.140625 39.296875 15.984375 
Q 40.328125 18.84375 40.328125 29.984375 
L 40.328125 51.859375 
L 54.046875 51.859375 
L 54.046875 0 
z
" id="Arial-BoldMT-117"/>
       <path d="M 23.390625 0 
L 23.390625 59.46875 
L 2.15625 59.46875 
L 2.15625 71.578125 
L 59.03125 71.578125 
L 59.03125 59.46875 
L 37.84375 59.46875 
L 37.84375 0 
z
" id="Arial-BoldMT-84"/>
       <path d="M 7.171875 58.890625 
L 7.171875 71.578125 
L 20.90625 71.578125 
L 20.90625 58.890625 
z
M 7.171875 0 
L 7.171875 51.859375 
L 20.90625 51.859375 
L 20.90625 0 
z
" id="Arial-BoldMT-105"/>
       <path d="M 6.15625 51.859375 
L 18.796875 51.859375 
L 18.796875 44.78125 
Q 25.59375 53.03125 34.96875 53.03125 
Q 39.9375 53.03125 43.59375 50.96875 
Q 47.265625 48.921875 49.609375 44.78125 
Q 53.03125 48.921875 56.984375 50.96875 
Q 60.9375 53.03125 65.4375 53.03125 
Q 71.140625 53.03125 75.09375 50.703125 
Q 79.046875 48.390625 81 43.890625 
Q 82.421875 40.578125 82.421875 33.15625 
L 82.421875 0 
L 68.703125 0 
L 68.703125 29.640625 
Q 68.703125 37.359375 67.28125 39.59375 
Q 65.375 42.53125 61.421875 42.53125 
Q 58.546875 42.53125 56 40.765625 
Q 53.46875 39.015625 52.34375 35.625 
Q 51.21875 32.234375 51.21875 24.90625 
L 51.21875 0 
L 37.5 0 
L 37.5 28.421875 
Q 37.5 35.984375 36.765625 38.171875 
Q 36.03125 40.375 34.484375 41.453125 
Q 32.953125 42.53125 30.328125 42.53125 
Q 27.15625 42.53125 24.609375 40.8125 
Q 22.078125 39.109375 20.96875 35.890625 
Q 19.875 32.671875 19.875 25.203125 
L 19.875 0 
L 6.15625 0 
z
" id="Arial-BoldMT-109"/>
      </defs>
      <use xlink:href="#Arial-BoldMT-69"/>
      <use x="66.699219" xlink:href="#Arial-BoldMT-110"/>
      <use x="127.783203" xlink:href="#Arial-BoldMT-101"/>
      <use x="183.398438" xlink:href="#Arial-BoldMT-114"/>
      <use x="222.314453" xlink:href="#Arial-BoldMT-103"/>
      <use x="283.398438" xlink:href="#Arial-BoldMT-121"/>
      <use x="339.013672" xlink:href="#Arial-BoldMT-32"/>
      <use x="366.796875" xlink:href="#Arial-BoldMT-40"/>
      <use x="400.097656" xlink:href="#Arial-BoldMT-37"/>
      <use x="489.013672" xlink:href="#Arial-BoldMT-41"/>
      <use x="522.314453" xlink:href="#Arial-BoldMT-32"/>
      <use x="550.097656" xlink:href="#Arial-BoldMT-47"/>
      <use x="577.880859" xlink:href="#Arial-BoldMT-32"/>
      <use x="605.664062" xlink:href="#Arial-BoldMT-82"/>
      <use x="677.880859" xlink:href="#Arial-BoldMT-117"/>
      <use x="738.964844" xlink:href="#Arial-BoldMT-110"/>
      <use x="800.048828" xlink:href="#Arial-BoldMT-32"/>
      <use x="827.832031" xlink:href="#Arial-BoldMT-84"/>
      <use x="887.166016" xlink:href="#Arial-BoldMT-105"/>
      <use x="914.949219" xlink:href="#Arial-BoldMT-109"/>
      <use x="1003.865234" xlink:href="#Arial-BoldMT-101"/>
      <use x="1059.480469" xlink:href="#Arial-BoldMT-32"/>
      <use x="1087.263672" xlink:href="#Arial-BoldMT-40"/>
      <use x="1120.564453" xlink:href="#Arial-BoldMT-37"/>
      <use x="1209.480469" xlink:href="#Arial-BoldMT-41"/>
     </g>
    </g>
   </g>
   <g id="text_11">
    <!-- 22.2 -->
    <g style="fill:#262626;" transform="translate(53.190313 67.10236)scale(0.12 -0.12)">
     <defs>
      <path d="M 50.59375 12.75 
L 50.59375 0 
L 2.484375 0 
Q 3.265625 7.234375 7.171875 13.703125 
Q 11.078125 20.171875 22.609375 30.859375 
Q 31.890625 39.5 33.984375 42.578125 
Q 36.8125 46.828125 36.8125 50.984375 
Q 36.8125 55.5625 34.34375 58.03125 
Q 31.890625 60.5 27.546875 60.5 
Q 23.25 60.5 20.703125 57.90625 
Q 18.171875 55.328125 17.78125 49.3125 
L 4.109375 50.6875 
Q 5.328125 62.015625 11.765625 66.9375 
Q 18.21875 71.875 27.875 71.875 
Q 38.484375 71.875 44.53125 66.15625 
Q 50.59375 60.453125 50.59375 51.953125 
Q 50.59375 47.125 48.859375 42.75 
Q 47.125 38.375 43.359375 33.59375 
Q 40.875 30.421875 34.375 24.453125 
Q 27.875 18.5 26.140625 16.546875 
Q 24.421875 14.59375 23.34375 12.75 
z
" id="Arial-BoldMT-50"/>
      <path d="M 7.171875 0 
L 7.171875 13.71875 
L 20.90625 13.71875 
L 20.90625 0 
z
" id="Arial-BoldMT-46"/>
     </defs>
     <use xlink:href="#Arial-BoldMT-50"/>
     <use x="55.615234" xlink:href="#Arial-BoldMT-50"/>
     <use x="111.230469" xlink:href="#Arial-BoldMT-46"/>
     <use x="139.013672" xlink:href="#Arial-BoldMT-50"/>
    </g>
   </g>
   <g id="text_12">
    <!-- 4.6 -->
    <g style="fill:#262626;" transform="translate(130.926875 107.58364)scale(0.12 -0.12)">
     <defs>
      <path d="M 31.15625 0 
L 31.15625 14.40625 
L 1.859375 14.40625 
L 1.859375 26.421875 
L 32.90625 71.875 
L 44.4375 71.875 
L 44.4375 26.46875 
L 53.328125 26.46875 
L 53.328125 14.40625 
L 44.4375 14.40625 
L 44.4375 0 
z
M 31.15625 26.46875 
L 31.15625 50.921875 
L 14.703125 26.46875 
z
" id="Arial-BoldMT-52"/>
      <path d="M 50.734375 54.046875 
L 37.453125 52.59375 
Q 36.96875 56.6875 34.90625 58.640625 
Q 32.859375 60.59375 29.59375 60.59375 
Q 25.25 60.59375 22.234375 56.6875 
Q 19.234375 52.78125 18.453125 40.4375 
Q 23.578125 46.484375 31.203125 46.484375 
Q 39.796875 46.484375 45.921875 39.9375 
Q 52.046875 33.40625 52.046875 23.046875 
Q 52.046875 12.0625 45.59375 5.421875 
Q 39.15625 -1.21875 29.046875 -1.21875 
Q 18.21875 -1.21875 11.234375 7.203125 
Q 4.25 15.625 4.25 34.8125 
Q 4.25 54.5 11.515625 63.1875 
Q 18.796875 71.875 30.421875 71.875 
Q 38.578125 71.875 43.921875 67.3125 
Q 49.265625 62.75 50.734375 54.046875 
z
M 19.625 24.125 
Q 19.625 17.4375 22.703125 13.796875 
Q 25.78125 10.15625 29.734375 10.15625 
Q 33.546875 10.15625 36.078125 13.125 
Q 38.625 16.109375 38.625 22.90625 
Q 38.625 29.890625 35.890625 33.125 
Q 33.15625 36.375 29.046875 36.375 
Q 25.09375 36.375 22.359375 33.265625 
Q 19.625 30.171875 19.625 24.125 
z
" id="Arial-BoldMT-54"/>
     </defs>
     <use xlink:href="#Arial-BoldMT-52"/>
     <use x="55.615234" xlink:href="#Arial-BoldMT-46"/>
     <use x="83.398438" xlink:href="#Arial-BoldMT-54"/>
    </g>
   </g>
   <g id="text_13">
    <!-- 32.6 -->
    <g style="fill:#262626;" transform="translate(201.990313 43.02556)scale(0.12 -0.12)">
     <defs>
      <path d="M 3.765625 19 
L 17.046875 20.609375 
Q 17.671875 15.53125 20.453125 12.84375 
Q 23.25 10.15625 27.203125 10.15625 
Q 31.453125 10.15625 34.34375 13.375 
Q 37.25 16.609375 37.25 22.078125 
Q 37.25 27.25 34.46875 30.265625 
Q 31.6875 33.296875 27.6875 33.296875 
Q 25.046875 33.296875 21.390625 32.28125 
L 22.90625 43.453125 
Q 28.46875 43.3125 31.390625 45.875 
Q 34.328125 48.4375 34.328125 52.6875 
Q 34.328125 56.296875 32.171875 58.4375 
Q 30.03125 60.59375 26.46875 60.59375 
Q 22.953125 60.59375 20.453125 58.15625 
Q 17.96875 55.71875 17.4375 51.03125 
L 4.78125 53.171875 
Q 6.109375 59.671875 8.765625 63.546875 
Q 11.421875 67.4375 16.1875 69.65625 
Q 20.953125 71.875 26.859375 71.875 
Q 36.96875 71.875 43.0625 65.4375 
Q 48.09375 60.15625 48.09375 53.515625 
Q 48.09375 44.09375 37.796875 38.484375 
Q 43.953125 37.15625 47.625 32.5625 
Q 51.3125 27.984375 51.3125 21.484375 
Q 51.3125 12.0625 44.421875 5.421875 
Q 37.546875 -1.21875 27.296875 -1.21875 
Q 17.578125 -1.21875 11.171875 4.375 
Q 4.78125 9.96875 3.765625 19 
z
" id="Arial-BoldMT-51"/>
     </defs>
     <use xlink:href="#Arial-BoldMT-51"/>
     <use x="55.615234" xlink:href="#Arial-BoldMT-50"/>
     <use x="111.230469" xlink:href="#Arial-BoldMT-46"/>
     <use x="139.013672" xlink:href="#Arial-BoldMT-54"/>
    </g>
   </g>
   <g id="text_14">
    <!-- -8.3 -->
    <g style="fill:#262626;" transform="translate(84.289062 137.19004)scale(0.12 -0.12)">
     <defs>
      <path d="M 5.609375 19.09375 
L 5.609375 32.8125 
L 32.5625 32.8125 
L 32.5625 19.09375 
z
" id="Arial-BoldMT-45"/>
      <path d="M 16.015625 38.625 
Q 10.6875 40.875 8.265625 44.796875 
Q 5.859375 48.734375 5.859375 53.421875 
Q 5.859375 61.421875 11.453125 66.640625 
Q 17.046875 71.875 27.34375 71.875 
Q 37.546875 71.875 43.1875 66.640625 
Q 48.828125 61.421875 48.828125 53.421875 
Q 48.828125 48.4375 46.234375 44.546875 
Q 43.65625 40.671875 38.96875 38.625 
Q 44.921875 36.234375 48.015625 31.640625 
Q 51.125 27.046875 51.125 21.046875 
Q 51.125 11.140625 44.796875 4.9375 
Q 38.484375 -1.265625 27.984375 -1.265625 
Q 18.21875 -1.265625 11.71875 3.859375 
Q 4.046875 9.90625 4.046875 20.453125 
Q 4.046875 26.265625 6.921875 31.125 
Q 9.8125 35.984375 16.015625 38.625 
z
M 18.84375 52.4375 
Q 18.84375 48.34375 21.15625 46.046875 
Q 23.484375 43.75 27.34375 43.75 
Q 31.25 43.75 33.59375 46.0625 
Q 35.9375 48.390625 35.9375 52.484375 
Q 35.9375 56.34375 33.609375 58.65625 
Q 31.296875 60.984375 27.484375 60.984375 
Q 23.53125 60.984375 21.1875 58.640625 
Q 18.84375 56.296875 18.84375 52.4375 
z
M 17.578125 21.78125 
Q 17.578125 16.109375 20.484375 12.9375 
Q 23.390625 9.765625 27.734375 9.765625 
Q 31.984375 9.765625 34.765625 12.8125 
Q 37.546875 15.875 37.546875 21.625 
Q 37.546875 26.65625 34.71875 29.703125 
Q 31.890625 32.765625 27.546875 32.765625 
Q 22.515625 32.765625 20.046875 29.296875 
Q 17.578125 25.828125 17.578125 21.78125 
z
" id="Arial-BoldMT-56"/>
     </defs>
     <use xlink:href="#Arial-BoldMT-45"/>
     <use x="33.300781" xlink:href="#Arial-BoldMT-56"/>
     <use x="88.916016" xlink:href="#Arial-BoldMT-46"/>
     <use x="116.699219" xlink:href="#Arial-BoldMT-51"/>
    </g>
   </g>
   <g id="text_15">
    <!-- 0.0 -->
    <g style="fill:#262626;" transform="translate(160.686875 118.159)scale(0.12 -0.12)">
     <defs>
      <path d="M 27.4375 71.875 
Q 37.84375 71.875 43.703125 64.453125 
Q 50.6875 55.671875 50.6875 35.296875 
Q 50.6875 14.984375 43.65625 6.109375 
Q 37.84375 -1.21875 27.4375 -1.21875 
Q 17 -1.21875 10.59375 6.8125 
Q 4.203125 14.84375 4.203125 35.453125 
Q 4.203125 55.671875 11.234375 64.546875 
Q 17.046875 71.875 27.4375 71.875 
z
M 27.4375 60.5 
Q 24.953125 60.5 23 58.90625 
Q 21.046875 57.328125 19.96875 53.21875 
Q 18.5625 47.90625 18.5625 35.296875 
Q 18.5625 22.703125 19.828125 17.984375 
Q 21.09375 13.28125 23.015625 11.71875 
Q 24.953125 10.15625 27.4375 10.15625 
Q 29.9375 10.15625 31.890625 11.734375 
Q 33.84375 13.328125 34.90625 17.4375 
Q 36.328125 22.703125 36.328125 35.296875 
Q 36.328125 47.90625 35.0625 52.609375 
Q 33.796875 57.328125 31.859375 58.90625 
Q 29.9375 60.5 27.4375 60.5 
z
" id="Arial-BoldMT-48"/>
     </defs>
     <use xlink:href="#Arial-BoldMT-48"/>
     <use x="55.615234" xlink:href="#Arial-BoldMT-46"/>
     <use x="83.398438" xlink:href="#Arial-BoldMT-48"/>
    </g>
   </g>
   <g id="text_16">
    <!-- -0.2 -->
    <g style="fill:#262626;" transform="translate(233.089062 118.71196)scale(0.12 -0.12)">
     <use xlink:href="#Arial-BoldMT-45"/>
     <use x="33.300781" xlink:href="#Arial-BoldMT-48"/>
     <use x="88.916016" xlink:href="#Arial-BoldMT-46"/>
     <use x="116.699219" xlink:href="#Arial-BoldMT-50"/>
    </g>
   </g>
   <g id="legend_1">
    <g id="patch_13">
     <path d="M 42.546875 24.584375 
L 265.746875 24.584375 
L 265.746875 7.2 
L 42.546875 7.2 
z
" style="fill:#ffffff;stroke:#000000;stroke-linejoin:miter;stroke-width:0.8;"/>
    </g>
    <g id="patch_14">
     <path d="M 46.546875 18.479687 
L 66.546875 18.479687 
L 66.546875 11.479687 
L 46.546875 11.479687 
z
" style="fill:url(#h6f202d6b18);stroke:#ff0000;stroke-linejoin:miter;stroke-width:0.8;"/>
    </g>
    <g id="text_17">
     <!-- Energy (%) -->
     <g style="fill:#262626;" transform="translate(74.546875 18.479687)scale(0.1 -0.1)">
      <defs>
       <path d="M 7.90625 0 
L 7.90625 71.578125 
L 59.671875 71.578125 
L 59.671875 63.140625 
L 17.390625 63.140625 
L 17.390625 41.21875 
L 56.984375 41.21875 
L 56.984375 32.8125 
L 17.390625 32.8125 
L 17.390625 8.453125 
L 61.328125 8.453125 
L 61.328125 0 
z
" id="ArialMT-69"/>
       <path d="M 4.984375 -4.296875 
L 13.53125 -5.5625 
Q 14.0625 -9.515625 16.5 -11.328125 
Q 19.78125 -13.765625 25.4375 -13.765625 
Q 31.546875 -13.765625 34.859375 -11.328125 
Q 38.1875 -8.890625 39.359375 -4.5 
Q 40.046875 -1.8125 39.984375 6.78125 
Q 34.234375 0 25.640625 0 
Q 14.9375 0 9.078125 7.71875 
Q 3.21875 15.4375 3.21875 26.21875 
Q 3.21875 33.640625 5.90625 39.90625 
Q 8.59375 46.1875 13.6875 49.609375 
Q 18.796875 53.03125 25.6875 53.03125 
Q 34.859375 53.03125 40.828125 45.609375 
L 40.828125 51.859375 
L 48.921875 51.859375 
L 48.921875 7.03125 
Q 48.921875 -5.078125 46.453125 -10.125 
Q 44 -15.1875 38.640625 -18.109375 
Q 33.296875 -21.046875 25.484375 -21.046875 
Q 16.21875 -21.046875 10.5 -16.875 
Q 4.78125 -12.703125 4.984375 -4.296875 
z
M 12.25 26.859375 
Q 12.25 16.65625 16.296875 11.96875 
Q 20.359375 7.28125 26.46875 7.28125 
Q 32.515625 7.28125 36.609375 11.9375 
Q 40.71875 16.609375 40.71875 26.5625 
Q 40.71875 36.078125 36.5 40.90625 
Q 32.28125 45.75 26.3125 45.75 
Q 20.453125 45.75 16.34375 40.984375 
Q 12.25 36.234375 12.25 26.859375 
z
" id="ArialMT-103"/>
       <path d="M 6.203125 -19.96875 
L 5.21875 -11.71875 
Q 8.109375 -12.5 10.25 -12.5 
Q 13.1875 -12.5 14.9375 -11.515625 
Q 16.703125 -10.546875 17.828125 -8.796875 
Q 18.65625 -7.46875 20.515625 -2.25 
Q 20.75 -1.515625 21.296875 -0.09375 
L 1.609375 51.859375 
L 11.078125 51.859375 
L 21.875 21.828125 
Q 23.96875 16.109375 25.640625 9.8125 
Q 27.15625 15.875 29.25 21.625 
L 40.328125 51.859375 
L 49.125 51.859375 
L 29.390625 -0.875 
Q 26.21875 -9.421875 24.46875 -12.640625 
Q 22.125 -17 19.09375 -19.015625 
Q 16.0625 -21.046875 11.859375 -21.046875 
Q 9.328125 -21.046875 6.203125 -19.96875 
z
" id="ArialMT-121"/>
       <path id="ArialMT-32"/>
       <path d="M 23.390625 -21.046875 
Q 16.109375 -11.859375 11.078125 0.4375 
Q 6.0625 12.75 6.0625 25.921875 
Q 6.0625 37.546875 9.8125 48.1875 
Q 14.203125 60.546875 23.390625 72.796875 
L 29.6875 72.796875 
Q 23.78125 62.640625 21.875 58.296875 
Q 18.890625 51.5625 17.1875 44.234375 
Q 15.09375 35.109375 15.09375 25.875 
Q 15.09375 2.390625 29.6875 -21.046875 
z
" id="ArialMT-40"/>
       <path d="M 5.8125 54.390625 
Q 5.8125 62.0625 9.671875 67.421875 
Q 13.53125 72.796875 20.84375 72.796875 
Q 27.59375 72.796875 32 67.984375 
Q 36.421875 63.1875 36.421875 53.859375 
Q 36.421875 44.78125 31.953125 39.875 
Q 27.484375 34.96875 20.953125 34.96875 
Q 14.453125 34.96875 10.125 39.796875 
Q 5.8125 44.625 5.8125 54.390625 
z
M 21.09375 66.75 
Q 17.828125 66.75 15.65625 63.90625 
Q 13.484375 61.078125 13.484375 53.515625 
Q 13.484375 46.625 15.671875 43.8125 
Q 17.875 41.015625 21.09375 41.015625 
Q 24.421875 41.015625 26.59375 43.84375 
Q 28.765625 46.6875 28.765625 54.203125 
Q 28.765625 61.140625 26.5625 63.9375 
Q 24.359375 66.75 21.09375 66.75 
z
M 21.140625 -2.640625 
L 60.296875 72.796875 
L 67.4375 72.796875 
L 28.421875 -2.640625 
z
M 52.09375 16.796875 
Q 52.09375 24.515625 55.953125 29.859375 
Q 59.8125 35.203125 67.1875 35.203125 
Q 73.921875 35.203125 78.34375 30.390625 
Q 82.765625 25.59375 82.765625 16.265625 
Q 82.765625 7.171875 78.296875 2.265625 
Q 73.828125 -2.640625 67.234375 -2.640625 
Q 60.75 -2.640625 56.421875 2.21875 
Q 52.09375 7.078125 52.09375 16.796875 
z
M 67.4375 29.15625 
Q 64.109375 29.15625 61.9375 26.3125 
Q 59.765625 23.484375 59.765625 15.921875 
Q 59.765625 9.078125 61.953125 6.25 
Q 64.15625 3.421875 67.390625 3.421875 
Q 70.75 3.421875 72.921875 6.25 
Q 75.09375 9.078125 75.09375 16.609375 
Q 75.09375 23.53125 72.890625 26.34375 
Q 70.703125 29.15625 67.4375 29.15625 
z
" id="ArialMT-37"/>
       <path d="M 12.359375 -21.046875 
L 6.0625 -21.046875 
Q 20.65625 2.390625 20.65625 25.875 
Q 20.65625 35.0625 18.5625 44.09375 
Q 16.890625 51.421875 13.921875 58.15625 
Q 12.015625 62.546875 6.0625 72.796875 
L 12.359375 72.796875 
Q 21.53125 60.546875 25.921875 48.1875 
Q 29.6875 37.546875 29.6875 25.921875 
Q 29.6875 12.75 24.625 0.4375 
Q 19.578125 -11.859375 12.359375 -21.046875 
z
" id="ArialMT-41"/>
      </defs>
      <use xlink:href="#ArialMT-69"/>
      <use x="66.699219" xlink:href="#ArialMT-110"/>
      <use x="122.314453" xlink:href="#ArialMT-101"/>
      <use x="177.929688" xlink:href="#ArialMT-114"/>
      <use x="211.230469" xlink:href="#ArialMT-103"/>
      <use x="266.845703" xlink:href="#ArialMT-121"/>
      <use x="316.845703" xlink:href="#ArialMT-32"/>
      <use x="344.628906" xlink:href="#ArialMT-40"/>
      <use x="377.929688" xlink:href="#ArialMT-37"/>
      <use x="466.845703" xlink:href="#ArialMT-41"/>
     </g>
    </g>
    <g id="patch_15">
     <path d="M 172.625 18.479687 
L 192.625 18.479687 
L 192.625 11.479687 
L 172.625 11.479687 
z
" style="fill:url(#ha32afae266);stroke:#008000;stroke-linejoin:miter;stroke-width:0.8;"/>
    </g>
    <g id="text_18">
     <!-- Run Time (%) -->
     <g style="fill:#262626;" transform="translate(200.625 18.479687)scale(0.1 -0.1)">
      <defs>
       <path d="M 7.859375 0 
L 7.859375 71.578125 
L 39.59375 71.578125 
Q 49.171875 71.578125 54.140625 69.640625 
Q 59.125 67.71875 62.109375 62.828125 
Q 65.09375 57.953125 65.09375 52.046875 
Q 65.09375 44.4375 60.15625 39.203125 
Q 55.21875 33.984375 44.921875 32.5625 
Q 48.6875 30.765625 50.640625 29 
Q 54.78125 25.203125 58.5 19.484375 
L 70.953125 0 
L 59.03125 0 
L 49.5625 14.890625 
Q 45.40625 21.34375 42.71875 24.75 
Q 40.046875 28.171875 37.921875 29.53125 
Q 35.796875 30.90625 33.59375 31.453125 
Q 31.984375 31.78125 28.328125 31.78125 
L 17.328125 31.78125 
L 17.328125 0 
z
M 17.328125 39.984375 
L 37.703125 39.984375 
Q 44.1875 39.984375 47.84375 41.328125 
Q 51.515625 42.671875 53.421875 45.625 
Q 55.328125 48.578125 55.328125 52.046875 
Q 55.328125 57.125 51.640625 60.390625 
Q 47.953125 63.671875 39.984375 63.671875 
L 17.328125 63.671875 
z
" id="ArialMT-82"/>
       <path d="M 40.578125 0 
L 40.578125 7.625 
Q 34.515625 -1.171875 24.125 -1.171875 
Q 19.53125 -1.171875 15.546875 0.578125 
Q 11.578125 2.34375 9.640625 5 
Q 7.71875 7.671875 6.9375 11.53125 
Q 6.390625 14.109375 6.390625 19.734375 
L 6.390625 51.859375 
L 15.1875 51.859375 
L 15.1875 23.09375 
Q 15.1875 16.21875 15.71875 13.8125 
Q 16.546875 10.359375 19.234375 8.375 
Q 21.921875 6.390625 25.875 6.390625 
Q 29.828125 6.390625 33.296875 8.421875 
Q 36.765625 10.453125 38.203125 13.9375 
Q 39.65625 17.4375 39.65625 24.078125 
L 39.65625 51.859375 
L 48.4375 51.859375 
L 48.4375 0 
z
" id="ArialMT-117"/>
       <path d="M 6.640625 61.46875 
L 6.640625 71.578125 
L 15.4375 71.578125 
L 15.4375 61.46875 
z
M 6.640625 0 
L 6.640625 51.859375 
L 15.4375 51.859375 
L 15.4375 0 
z
" id="ArialMT-105"/>
       <path d="M 6.59375 0 
L 6.59375 51.859375 
L 14.453125 51.859375 
L 14.453125 44.578125 
Q 16.890625 48.390625 20.9375 50.703125 
Q 25 53.03125 30.171875 53.03125 
Q 35.9375 53.03125 39.625 50.640625 
Q 43.3125 48.25 44.828125 43.953125 
Q 50.984375 53.03125 60.84375 53.03125 
Q 68.5625 53.03125 72.703125 48.75 
Q 76.859375 44.484375 76.859375 35.59375 
L 76.859375 0 
L 68.109375 0 
L 68.109375 32.671875 
Q 68.109375 37.9375 67.25 40.25 
Q 66.40625 42.578125 64.15625 43.984375 
Q 61.921875 45.40625 58.890625 45.40625 
Q 53.421875 45.40625 49.796875 41.765625 
Q 46.1875 38.140625 46.1875 30.125 
L 46.1875 0 
L 37.40625 0 
L 37.40625 33.6875 
Q 37.40625 39.546875 35.25 42.46875 
Q 33.109375 45.40625 28.21875 45.40625 
Q 24.515625 45.40625 21.359375 43.453125 
Q 18.21875 41.5 16.796875 37.734375 
Q 15.375 33.984375 15.375 26.90625 
L 15.375 0 
z
" id="ArialMT-109"/>
      </defs>
      <use xlink:href="#ArialMT-82"/>
      <use x="72.216797" xlink:href="#ArialMT-117"/>
      <use x="127.832031" xlink:href="#ArialMT-110"/>
      <use x="183.447266" xlink:href="#ArialMT-32"/>
      <use x="209.480469" xlink:href="#ArialMT-84"/>
      <use x="266.814453" xlink:href="#ArialMT-105"/>
      <use x="289.03125" xlink:href="#ArialMT-109"/>
      <use x="372.332031" xlink:href="#ArialMT-101"/>
      <use x="427.947266" xlink:href="#ArialMT-32"/>
      <use x="455.730469" xlink:href="#ArialMT-40"/>
      <use x="489.03125" xlink:href="#ArialMT-37"/>
      <use x="577.947266" xlink:href="#ArialMT-41"/>
     </g>
    </g>
   </g>
  </g>
 </g>
 <defs>
  <clipPath id="p88f31a486a">
   <rect height="115.2" width="223.2" x="42.546875" y="26.888375"/>
  </clipPath>
 </defs>
 <defs>
  <pattern height="72" id="h6f202d6b18" patternUnits="userSpaceOnUse" width="72" x="0" y="0">
   <rect fill="none" height="73" width="73" x="0" y="0"/>
   <path d="M 0 74.4 
C 0.636487 74.4 1.246992 74.147121 1.697056 73.697056 
C 2.147121 73.246992 2.4 72.636487 2.4 72 
C 2.4 71.363513 2.147121 70.753008 1.697056 70.302944 
C 1.246992 69.852879 0.636487 69.6 0 69.6 
C -0.636487 69.6 -1.246992 69.852879 -1.697056 70.302944 
C -2.147121 70.753008 -2.4 71.363513 -2.4 72 
C -2.4 72.636487 -2.147121 73.246992 -1.697056 73.697056 
C -1.246992 74.147121 -0.636487 74.4 0 74.4 
z
M 0 74.16 
C 0 74.16 -0.572839 74.16 -1.122293 73.932409 
C -1.527351 73.527351 -1.932409 73.122293 -2.16 72.572839 
C -2.16 72 -2.16 71.427161 -1.932409 70.877707 
C -1.527351 70.472649 -1.122293 70.067591 -0.572839 69.84 
C 0 69.84 0.572839 69.84 1.122293 70.067591 
C 1.527351 70.472649 1.932409 70.877707 2.16 71.427161 
C 2.16 72 2.16 72.572839 1.932409 73.122293 
C 1.527351 73.527351 1.122293 73.932409 0.572839 74.16 
z
M 12 74.4 
C 12.636487 74.4 13.246992 74.147121 13.697056 73.697056 
C 14.147121 73.246992 14.4 72.636487 14.4 72 
C 14.4 71.363513 14.147121 70.753008 13.697056 70.302944 
C 13.246992 69.852879 12.636487 69.6 12 69.6 
C 11.363513 69.6 10.753008 69.852879 10.302944 70.302944 
C 9.852879 70.753008 9.6 71.363513 9.6 72 
C 9.6 72.636487 9.852879 73.246992 10.302944 73.697056 
C 10.753008 74.147121 11.363513 74.4 12 74.4 
z
M 12 74.16 
C 12 74.16 11.427161 74.16 10.877707 73.932409 
C 10.472649 73.527351 10.067591 73.122293 9.84 72.572839 
C 9.84 72 9.84 71.427161 10.067591 70.877707 
C 10.472649 70.472649 10.877707 70.067591 11.427161 69.84 
C 12 69.84 12.572839 69.84 13.122293 70.067591 
C 13.527351 70.472649 13.932409 70.877707 14.16 71.427161 
C 14.16 72 14.16 72.572839 13.932409 73.122293 
C 13.527351 73.527351 13.122293 73.932409 12.572839 74.16 
z
M 24 74.4 
C 24.636487 74.4 25.246992 74.147121 25.697056 73.697056 
C 26.147121 73.246992 26.4 72.636487 26.4 72 
C 26.4 71.363513 26.147121 70.753008 25.697056 70.302944 
C 25.246992 69.852879 24.636487 69.6 24 69.6 
C 23.363513 69.6 22.753008 69.852879 22.302944 70.302944 
C 21.852879 70.753008 21.6 71.363513 21.6 72 
C 21.6 72.636487 21.852879 73.246992 22.302944 73.697056 
C 22.753008 74.147121 23.363513 74.4 24 74.4 
z
M 24 74.16 
C 24 74.16 23.427161 74.16 22.877707 73.932409 
C 22.472649 73.527351 22.067591 73.122293 21.84 72.572839 
C 21.84 72 21.84 71.427161 22.067591 70.877707 
C 22.472649 70.472649 22.877707 70.067591 23.427161 69.84 
C 24 69.84 24.572839 69.84 25.122293 70.067591 
C 25.527351 70.472649 25.932409 70.877707 26.16 71.427161 
C 26.16 72 26.16 72.572839 25.932409 73.122293 
C 25.527351 73.527351 25.122293 73.932409 24.572839 74.16 
z
M 36 74.4 
C 36.636487 74.4 37.246992 74.147121 37.697056 73.697056 
C 38.147121 73.246992 38.4 72.636487 38.4 72 
C 38.4 71.363513 38.147121 70.753008 37.697056 70.302944 
C 37.246992 69.852879 36.636487 69.6 36 69.6 
C 35.363513 69.6 34.753008 69.852879 34.302944 70.302944 
C 33.852879 70.753008 33.6 71.363513 33.6 72 
C 33.6 72.636487 33.852879 73.246992 34.302944 73.697056 
C 34.753008 74.147121 35.363513 74.4 36 74.4 
z
M 36 74.16 
C 36 74.16 35.427161 74.16 34.877707 73.932409 
C 34.472649 73.527351 34.067591 73.122293 33.84 72.572839 
C 33.84 72 33.84 71.427161 34.067591 70.877707 
C 34.472649 70.472649 34.877707 70.067591 35.427161 69.84 
C 36 69.84 36.572839 69.84 37.122293 70.067591 
C 37.527351 70.472649 37.932409 70.877707 38.16 71.427161 
C 38.16 72 38.16 72.572839 37.932409 73.122293 
C 37.527351 73.527351 37.122293 73.932409 36.572839 74.16 
z
M 48 74.4 
C 48.636487 74.4 49.246992 74.147121 49.697056 73.697056 
C 50.147121 73.246992 50.4 72.636487 50.4 72 
C 50.4 71.363513 50.147121 70.753008 49.697056 70.302944 
C 49.246992 69.852879 48.636487 69.6 48 69.6 
C 47.363513 69.6 46.753008 69.852879 46.302944 70.302944 
C 45.852879 70.753008 45.6 71.363513 45.6 72 
C 45.6 72.636487 45.852879 73.246992 46.302944 73.697056 
C 46.753008 74.147121 47.363513 74.4 48 74.4 
z
M 48 74.16 
C 48 74.16 47.427161 74.16 46.877707 73.932409 
C 46.472649 73.527351 46.067591 73.122293 45.84 72.572839 
C 45.84 72 45.84 71.427161 46.067591 70.877707 
C 46.472649 70.472649 46.877707 70.067591 47.427161 69.84 
C 48 69.84 48.572839 69.84 49.122293 70.067591 
C 49.527351 70.472649 49.932409 70.877707 50.16 71.427161 
C 50.16 72 50.16 72.572839 49.932409 73.122293 
C 49.527351 73.527351 49.122293 73.932409 48.572839 74.16 
z
M 60 74.4 
C 60.636487 74.4 61.246992 74.147121 61.697056 73.697056 
C 62.147121 73.246992 62.4 72.636487 62.4 72 
C 62.4 71.363513 62.147121 70.753008 61.697056 70.302944 
C 61.246992 69.852879 60.636487 69.6 60 69.6 
C 59.363513 69.6 58.753008 69.852879 58.302944 70.302944 
C 57.852879 70.753008 57.6 71.363513 57.6 72 
C 57.6 72.636487 57.852879 73.246992 58.302944 73.697056 
C 58.753008 74.147121 59.363513 74.4 60 74.4 
z
M 60 74.16 
C 60 74.16 59.427161 74.16 58.877707 73.932409 
C 58.472649 73.527351 58.067591 73.122293 57.84 72.572839 
C 57.84 72 57.84 71.427161 58.067591 70.877707 
C 58.472649 70.472649 58.877707 70.067591 59.427161 69.84 
C 60 69.84 60.572839 69.84 61.122293 70.067591 
C 61.527351 70.472649 61.932409 70.877707 62.16 71.427161 
C 62.16 72 62.16 72.572839 61.932409 73.122293 
C 61.527351 73.527351 61.122293 73.932409 60.572839 74.16 
z
M 72 74.4 
C 72.636487 74.4 73.246992 74.147121 73.697056 73.697056 
C 74.147121 73.246992 74.4 72.636487 74.4 72 
C 74.4 71.363513 74.147121 70.753008 73.697056 70.302944 
C 73.246992 69.852879 72.636487 69.6 72 69.6 
C 71.363513 69.6 70.753008 69.852879 70.302944 70.302944 
C 69.852879 70.753008 69.6 71.363513 69.6 72 
C 69.6 72.636487 69.852879 73.246992 70.302944 73.697056 
C 70.753008 74.147121 71.363513 74.4 72 74.4 
z
M 72 74.16 
C 72 74.16 71.427161 74.16 70.877707 73.932409 
C 70.472649 73.527351 70.067591 73.122293 69.84 72.572839 
C 69.84 72 69.84 71.427161 70.067591 70.877707 
C 70.472649 70.472649 70.877707 70.067591 71.427161 69.84 
C 72 69.84 72.572839 69.84 73.122293 70.067591 
C 73.527351 70.472649 73.932409 70.877707 74.16 71.427161 
C 74.16 72 74.16 72.572839 73.932409 73.122293 
C 73.527351 73.527351 73.122293 73.932409 72.572839 74.16 
z
M 6 62.4 
C 6.636487 62.4 7.246992 62.147121 7.697056 61.697056 
C 8.147121 61.246992 8.4 60.636487 8.4 60 
C 8.4 59.363513 8.147121 58.753008 7.697056 58.302944 
C 7.246992 57.852879 6.636487 57.6 6 57.6 
C 5.363513 57.6 4.753008 57.852879 4.302944 58.302944 
C 3.852879 58.753008 3.6 59.363513 3.6 60 
C 3.6 60.636487 3.852879 61.246992 4.302944 61.697056 
C 4.753008 62.147121 5.363513 62.4 6 62.4 
z
M 6 62.16 
C 6 62.16 5.427161 62.16 4.877707 61.932409 
C 4.472649 61.527351 4.067591 61.122293 3.84 60.572839 
C 3.84 60 3.84 59.427161 4.067591 58.877707 
C 4.472649 58.472649 4.877707 58.067591 5.427161 57.84 
C 6 57.84 6.572839 57.84 7.122293 58.067591 
C 7.527351 58.472649 7.932409 58.877707 8.16 59.427161 
C 8.16 60 8.16 60.572839 7.932409 61.122293 
C 7.527351 61.527351 7.122293 61.932409 6.572839 62.16 
z
M 18 62.4 
C 18.636487 62.4 19.246992 62.147121 19.697056 61.697056 
C 20.147121 61.246992 20.4 60.636487 20.4 60 
C 20.4 59.363513 20.147121 58.753008 19.697056 58.302944 
C 19.246992 57.852879 18.636487 57.6 18 57.6 
C 17.363513 57.6 16.753008 57.852879 16.302944 58.302944 
C 15.852879 58.753008 15.6 59.363513 15.6 60 
C 15.6 60.636487 15.852879 61.246992 16.302944 61.697056 
C 16.753008 62.147121 17.363513 62.4 18 62.4 
z
M 18 62.16 
C 18 62.16 17.427161 62.16 16.877707 61.932409 
C 16.472649 61.527351 16.067591 61.122293 15.84 60.572839 
C 15.84 60 15.84 59.427161 16.067591 58.877707 
C 16.472649 58.472649 16.877707 58.067591 17.427161 57.84 
C 18 57.84 18.572839 57.84 19.122293 58.067591 
C 19.527351 58.472649 19.932409 58.877707 20.16 59.427161 
C 20.16 60 20.16 60.572839 19.932409 61.122293 
C 19.527351 61.527351 19.122293 61.932409 18.572839 62.16 
z
M 30 62.4 
C 30.636487 62.4 31.246992 62.147121 31.697056 61.697056 
C 32.147121 61.246992 32.4 60.636487 32.4 60 
C 32.4 59.363513 32.147121 58.753008 31.697056 58.302944 
C 31.246992 57.852879 30.636487 57.6 30 57.6 
C 29.363513 57.6 28.753008 57.852879 28.302944 58.302944 
C 27.852879 58.753008 27.6 59.363513 27.6 60 
C 27.6 60.636487 27.852879 61.246992 28.302944 61.697056 
C 28.753008 62.147121 29.363513 62.4 30 62.4 
z
M 30 62.16 
C 30 62.16 29.427161 62.16 28.877707 61.932409 
C 28.472649 61.527351 28.067591 61.122293 27.84 60.572839 
C 27.84 60 27.84 59.427161 28.067591 58.877707 
C 28.472649 58.472649 28.877707 58.067591 29.427161 57.84 
C 30 57.84 30.572839 57.84 31.122293 58.067591 
C 31.527351 58.472649 31.932409 58.877707 32.16 59.427161 
C 32.16 60 32.16 60.572839 31.932409 61.122293 
C 31.527351 61.527351 31.122293 61.932409 30.572839 62.16 
z
M 42 62.4 
C 42.636487 62.4 43.246992 62.147121 43.697056 61.697056 
C 44.147121 61.246992 44.4 60.636487 44.4 60 
C 44.4 59.363513 44.147121 58.753008 43.697056 58.302944 
C 43.246992 57.852879 42.636487 57.6 42 57.6 
C 41.363513 57.6 40.753008 57.852879 40.302944 58.302944 
C 39.852879 58.753008 39.6 59.363513 39.6 60 
C 39.6 60.636487 39.852879 61.246992 40.302944 61.697056 
C 40.753008 62.147121 41.363513 62.4 42 62.4 
z
M 42 62.16 
C 42 62.16 41.427161 62.16 40.877707 61.932409 
C 40.472649 61.527351 40.067591 61.122293 39.84 60.572839 
C 39.84 60 39.84 59.427161 40.067591 58.877707 
C 40.472649 58.472649 40.877707 58.067591 41.427161 57.84 
C 42 57.84 42.572839 57.84 43.122293 58.067591 
C 43.527351 58.472649 43.932409 58.877707 44.16 59.427161 
C 44.16 60 44.16 60.572839 43.932409 61.122293 
C 43.527351 61.527351 43.122293 61.932409 42.572839 62.16 
z
M 54 62.4 
C 54.636487 62.4 55.246992 62.147121 55.697056 61.697056 
C 56.147121 61.246992 56.4 60.636487 56.4 60 
C 56.4 59.363513 56.147121 58.753008 55.697056 58.302944 
C 55.246992 57.852879 54.636487 57.6 54 57.6 
C 53.363513 57.6 52.753008 57.852879 52.302944 58.302944 
C 51.852879 58.753008 51.6 59.363513 51.6 60 
C 51.6 60.636487 51.852879 61.246992 52.302944 61.697056 
C 52.753008 62.147121 53.363513 62.4 54 62.4 
z
M 54 62.16 
C 54 62.16 53.427161 62.16 52.877707 61.932409 
C 52.472649 61.527351 52.067591 61.122293 51.84 60.572839 
C 51.84 60 51.84 59.427161 52.067591 58.877707 
C 52.472649 58.472649 52.877707 58.067591 53.427161 57.84 
C 54 57.84 54.572839 57.84 55.122293 58.067591 
C 55.527351 58.472649 55.932409 58.877707 56.16 59.427161 
C 56.16 60 56.16 60.572839 55.932409 61.122293 
C 55.527351 61.527351 55.122293 61.932409 54.572839 62.16 
z
M 66 62.4 
C 66.636487 62.4 67.246992 62.147121 67.697056 61.697056 
C 68.147121 61.246992 68.4 60.636487 68.4 60 
C 68.4 59.363513 68.147121 58.753008 67.697056 58.302944 
C 67.246992 57.852879 66.636487 57.6 66 57.6 
C 65.363513 57.6 64.753008 57.852879 64.302944 58.302944 
C 63.852879 58.753008 63.6 59.363513 63.6 60 
C 63.6 60.636487 63.852879 61.246992 64.302944 61.697056 
C 64.753008 62.147121 65.363513 62.4 66 62.4 
z
M 66 62.16 
C 66 62.16 65.427161 62.16 64.877707 61.932409 
C 64.472649 61.527351 64.067591 61.122293 63.84 60.572839 
C 63.84 60 63.84 59.427161 64.067591 58.877707 
C 64.472649 58.472649 64.877707 58.067591 65.427161 57.84 
C 66 57.84 66.572839 57.84 67.122293 58.067591 
C 67.527351 58.472649 67.932409 58.877707 68.16 59.427161 
C 68.16 60 68.16 60.572839 67.932409 61.122293 
C 67.527351 61.527351 67.122293 61.932409 66.572839 62.16 
z
M 0 50.4 
C 0.636487 50.4 1.246992 50.147121 1.697056 49.697056 
C 2.147121 49.246992 2.4 48.636487 2.4 48 
C 2.4 47.363513 2.147121 46.753008 1.697056 46.302944 
C 1.246992 45.852879 0.636487 45.6 0 45.6 
C -0.636487 45.6 -1.246992 45.852879 -1.697056 46.302944 
C -2.147121 46.753008 -2.4 47.363513 -2.4 48 
C -2.4 48.636487 -2.147121 49.246992 -1.697056 49.697056 
C -1.246992 50.147121 -0.636487 50.4 0 50.4 
z
M 0 50.16 
C 0 50.16 -0.572839 50.16 -1.122293 49.932409 
C -1.527351 49.527351 -1.932409 49.122293 -2.16 48.572839 
C -2.16 48 -2.16 47.427161 -1.932409 46.877707 
C -1.527351 46.472649 -1.122293 46.067591 -0.572839 45.84 
C 0 45.84 0.572839 45.84 1.122293 46.067591 
C 1.527351 46.472649 1.932409 46.877707 2.16 47.427161 
C 2.16 48 2.16 48.572839 1.932409 49.122293 
C 1.527351 49.527351 1.122293 49.932409 0.572839 50.16 
z
M 12 50.4 
C 12.636487 50.4 13.246992 50.147121 13.697056 49.697056 
C 14.147121 49.246992 14.4 48.636487 14.4 48 
C 14.4 47.363513 14.147121 46.753008 13.697056 46.302944 
C 13.246992 45.852879 12.636487 45.6 12 45.6 
C 11.363513 45.6 10.753008 45.852879 10.302944 46.302944 
C 9.852879 46.753008 9.6 47.363513 9.6 48 
C 9.6 48.636487 9.852879 49.246992 10.302944 49.697056 
C 10.753008 50.147121 11.363513 50.4 12 50.4 
z
M 12 50.16 
C 12 50.16 11.427161 50.16 10.877707 49.932409 
C 10.472649 49.527351 10.067591 49.122293 9.84 48.572839 
C 9.84 48 9.84 47.427161 10.067591 46.877707 
C 10.472649 46.472649 10.877707 46.067591 11.427161 45.84 
C 12 45.84 12.572839 45.84 13.122293 46.067591 
C 13.527351 46.472649 13.932409 46.877707 14.16 47.427161 
C 14.16 48 14.16 48.572839 13.932409 49.122293 
C 13.527351 49.527351 13.122293 49.932409 12.572839 50.16 
z
M 24 50.4 
C 24.636487 50.4 25.246992 50.147121 25.697056 49.697056 
C 26.147121 49.246992 26.4 48.636487 26.4 48 
C 26.4 47.363513 26.147121 46.753008 25.697056 46.302944 
C 25.246992 45.852879 24.636487 45.6 24 45.6 
C 23.363513 45.6 22.753008 45.852879 22.302944 46.302944 
C 21.852879 46.753008 21.6 47.363513 21.6 48 
C 21.6 48.636487 21.852879 49.246992 22.302944 49.697056 
C 22.753008 50.147121 23.363513 50.4 24 50.4 
z
M 24 50.16 
C 24 50.16 23.427161 50.16 22.877707 49.932409 
C 22.472649 49.527351 22.067591 49.122293 21.84 48.572839 
C 21.84 48 21.84 47.427161 22.067591 46.877707 
C 22.472649 46.472649 22.877707 46.067591 23.427161 45.84 
C 24 45.84 24.572839 45.84 25.122293 46.067591 
C 25.527351 46.472649 25.932409 46.877707 26.16 47.427161 
C 26.16 48 26.16 48.572839 25.932409 49.122293 
C 25.527351 49.527351 25.122293 49.932409 24.572839 50.16 
z
M 36 50.4 
C 36.636487 50.4 37.246992 50.147121 37.697056 49.697056 
C 38.147121 49.246992 38.4 48.636487 38.4 48 
C 38.4 47.363513 38.147121 46.753008 37.697056 46.302944 
C 37.246992 45.852879 36.636487 45.6 36 45.6 
C 35.363513 45.6 34.753008 45.852879 34.302944 46.302944 
C 33.852879 46.753008 33.6 47.363513 33.6 48 
C 33.6 48.636487 33.852879 49.246992 34.302944 49.697056 
C 34.753008 50.147121 35.363513 50.4 36 50.4 
z
M 36 50.16 
C 36 50.16 35.427161 50.16 34.877707 49.932409 
C 34.472649 49.527351 34.067591 49.122293 33.84 48.572839 
C 33.84 48 33.84 47.427161 34.067591 46.877707 
C 34.472649 46.472649 34.877707 46.067591 35.427161 45.84 
C 36 45.84 36.572839 45.84 37.122293 46.067591 
C 37.527351 46.472649 37.932409 46.877707 38.16 47.427161 
C 38.16 48 38.16 48.572839 37.932409 49.122293 
C 37.527351 49.527351 37.122293 49.932409 36.572839 50.16 
z
M 48 50.4 
C 48.636487 50.4 49.246992 50.147121 49.697056 49.697056 
C 50.147121 49.246992 50.4 48.636487 50.4 48 
C 50.4 47.363513 50.147121 46.753008 49.697056 46.302944 
C 49.246992 45.852879 48.636487 45.6 48 45.6 
C 47.363513 45.6 46.753008 45.852879 46.302944 46.302944 
C 45.852879 46.753008 45.6 47.363513 45.6 48 
C 45.6 48.636487 45.852879 49.246992 46.302944 49.697056 
C 46.753008 50.147121 47.363513 50.4 48 50.4 
z
M 48 50.16 
C 48 50.16 47.427161 50.16 46.877707 49.932409 
C 46.472649 49.527351 46.067591 49.122293 45.84 48.572839 
C 45.84 48 45.84 47.427161 46.067591 46.877707 
C 46.472649 46.472649 46.877707 46.067591 47.427161 45.84 
C 48 45.84 48.572839 45.84 49.122293 46.067591 
C 49.527351 46.472649 49.932409 46.877707 50.16 47.427161 
C 50.16 48 50.16 48.572839 49.932409 49.122293 
C 49.527351 49.527351 49.122293 49.932409 48.572839 50.16 
z
M 60 50.4 
C 60.636487 50.4 61.246992 50.147121 61.697056 49.697056 
C 62.147121 49.246992 62.4 48.636487 62.4 48 
C 62.4 47.363513 62.147121 46.753008 61.697056 46.302944 
C 61.246992 45.852879 60.636487 45.6 60 45.6 
C 59.363513 45.6 58.753008 45.852879 58.302944 46.302944 
C 57.852879 46.753008 57.6 47.363513 57.6 48 
C 57.6 48.636487 57.852879 49.246992 58.302944 49.697056 
C 58.753008 50.147121 59.363513 50.4 60 50.4 
z
M 60 50.16 
C 60 50.16 59.427161 50.16 58.877707 49.932409 
C 58.472649 49.527351 58.067591 49.122293 57.84 48.572839 
C 57.84 48 57.84 47.427161 58.067591 46.877707 
C 58.472649 46.472649 58.877707 46.067591 59.427161 45.84 
C 60 45.84 60.572839 45.84 61.122293 46.067591 
C 61.527351 46.472649 61.932409 46.877707 62.16 47.427161 
C 62.16 48 62.16 48.572839 61.932409 49.122293 
C 61.527351 49.527351 61.122293 49.932409 60.572839 50.16 
z
M 72 50.4 
C 72.636487 50.4 73.246992 50.147121 73.697056 49.697056 
C 74.147121 49.246992 74.4 48.636487 74.4 48 
C 74.4 47.363513 74.147121 46.753008 73.697056 46.302944 
C 73.246992 45.852879 72.636487 45.6 72 45.6 
C 71.363513 45.6 70.753008 45.852879 70.302944 46.302944 
C 69.852879 46.753008 69.6 47.363513 69.6 48 
C 69.6 48.636487 69.852879 49.246992 70.302944 49.697056 
C 70.753008 50.147121 71.363513 50.4 72 50.4 
z
M 72 50.16 
C 72 50.16 71.427161 50.16 70.877707 49.932409 
C 70.472649 49.527351 70.067591 49.122293 69.84 48.572839 
C 69.84 48 69.84 47.427161 70.067591 46.877707 
C 70.472649 46.472649 70.877707 46.067591 71.427161 45.84 
C 72 45.84 72.572839 45.84 73.122293 46.067591 
C 73.527351 46.472649 73.932409 46.877707 74.16 47.427161 
C 74.16 48 74.16 48.572839 73.932409 49.122293 
C 73.527351 49.527351 73.122293 49.932409 72.572839 50.16 
z
M 6 38.4 
C 6.636487 38.4 7.246992 38.147121 7.697056 37.697056 
C 8.147121 37.246992 8.4 36.636487 8.4 36 
C 8.4 35.363513 8.147121 34.753008 7.697056 34.302944 
C 7.246992 33.852879 6.636487 33.6 6 33.6 
C 5.363513 33.6 4.753008 33.852879 4.302944 34.302944 
C 3.852879 34.753008 3.6 35.363513 3.6 36 
C 3.6 36.636487 3.852879 37.246992 4.302944 37.697056 
C 4.753008 38.147121 5.363513 38.4 6 38.4 
z
M 6 38.16 
C 6 38.16 5.427161 38.16 4.877707 37.932409 
C 4.472649 37.527351 4.067591 37.122293 3.84 36.572839 
C 3.84 36 3.84 35.427161 4.067591 34.877707 
C 4.472649 34.472649 4.877707 34.067591 5.427161 33.84 
C 6 33.84 6.572839 33.84 7.122293 34.067591 
C 7.527351 34.472649 7.932409 34.877707 8.16 35.427161 
C 8.16 36 8.16 36.572839 7.932409 37.122293 
C 7.527351 37.527351 7.122293 37.932409 6.572839 38.16 
z
M 18 38.4 
C 18.636487 38.4 19.246992 38.147121 19.697056 37.697056 
C 20.147121 37.246992 20.4 36.636487 20.4 36 
C 20.4 35.363513 20.147121 34.753008 19.697056 34.302944 
C 19.246992 33.852879 18.636487 33.6 18 33.6 
C 17.363513 33.6 16.753008 33.852879 16.302944 34.302944 
C 15.852879 34.753008 15.6 35.363513 15.6 36 
C 15.6 36.636487 15.852879 37.246992 16.302944 37.697056 
C 16.753008 38.147121 17.363513 38.4 18 38.4 
z
M 18 38.16 
C 18 38.16 17.427161 38.16 16.877707 37.932409 
C 16.472649 37.527351 16.067591 37.122293 15.84 36.572839 
C 15.84 36 15.84 35.427161 16.067591 34.877707 
C 16.472649 34.472649 16.877707 34.067591 17.427161 33.84 
C 18 33.84 18.572839 33.84 19.122293 34.067591 
C 19.527351 34.472649 19.932409 34.877707 20.16 35.427161 
C 20.16 36 20.16 36.572839 19.932409 37.122293 
C 19.527351 37.527351 19.122293 37.932409 18.572839 38.16 
z
M 30 38.4 
C 30.636487 38.4 31.246992 38.147121 31.697056 37.697056 
C 32.147121 37.246992 32.4 36.636487 32.4 36 
C 32.4 35.363513 32.147121 34.753008 31.697056 34.302944 
C 31.246992 33.852879 30.636487 33.6 30 33.6 
C 29.363513 33.6 28.753008 33.852879 28.302944 34.302944 
C 27.852879 34.753008 27.6 35.363513 27.6 36 
C 27.6 36.636487 27.852879 37.246992 28.302944 37.697056 
C 28.753008 38.147121 29.363513 38.4 30 38.4 
z
M 30 38.16 
C 30 38.16 29.427161 38.16 28.877707 37.932409 
C 28.472649 37.527351 28.067591 37.122293 27.84 36.572839 
C 27.84 36 27.84 35.427161 28.067591 34.877707 
C 28.472649 34.472649 28.877707 34.067591 29.427161 33.84 
C 30 33.84 30.572839 33.84 31.122293 34.067591 
C 31.527351 34.472649 31.932409 34.877707 32.16 35.427161 
C 32.16 36 32.16 36.572839 31.932409 37.122293 
C 31.527351 37.527351 31.122293 37.932409 30.572839 38.16 
z
M 42 38.4 
C 42.636487 38.4 43.246992 38.147121 43.697056 37.697056 
C 44.147121 37.246992 44.4 36.636487 44.4 36 
C 44.4 35.363513 44.147121 34.753008 43.697056 34.302944 
C 43.246992 33.852879 42.636487 33.6 42 33.6 
C 41.363513 33.6 40.753008 33.852879 40.302944 34.302944 
C 39.852879 34.753008 39.6 35.363513 39.6 36 
C 39.6 36.636487 39.852879 37.246992 40.302944 37.697056 
C 40.753008 38.147121 41.363513 38.4 42 38.4 
z
M 42 38.16 
C 42 38.16 41.427161 38.16 40.877707 37.932409 
C 40.472649 37.527351 40.067591 37.122293 39.84 36.572839 
C 39.84 36 39.84 35.427161 40.067591 34.877707 
C 40.472649 34.472649 40.877707 34.067591 41.427161 33.84 
C 42 33.84 42.572839 33.84 43.122293 34.067591 
C 43.527351 34.472649 43.932409 34.877707 44.16 35.427161 
C 44.16 36 44.16 36.572839 43.932409 37.122293 
C 43.527351 37.527351 43.122293 37.932409 42.572839 38.16 
z
M 54 38.4 
C 54.636487 38.4 55.246992 38.147121 55.697056 37.697056 
C 56.147121 37.246992 56.4 36.636487 56.4 36 
C 56.4 35.363513 56.147121 34.753008 55.697056 34.302944 
C 55.246992 33.852879 54.636487 33.6 54 33.6 
C 53.363513 33.6 52.753008 33.852879 52.302944 34.302944 
C 51.852879 34.753008 51.6 35.363513 51.6 36 
C 51.6 36.636487 51.852879 37.246992 52.302944 37.697056 
C 52.753008 38.147121 53.363513 38.4 54 38.4 
z
M 54 38.16 
C 54 38.16 53.427161 38.16 52.877707 37.932409 
C 52.472649 37.527351 52.067591 37.122293 51.84 36.572839 
C 51.84 36 51.84 35.427161 52.067591 34.877707 
C 52.472649 34.472649 52.877707 34.067591 53.427161 33.84 
C 54 33.84 54.572839 33.84 55.122293 34.067591 
C 55.527351 34.472649 55.932409 34.877707 56.16 35.427161 
C 56.16 36 56.16 36.572839 55.932409 37.122293 
C 55.527351 37.527351 55.122293 37.932409 54.572839 38.16 
z
M 66 38.4 
C 66.636487 38.4 67.246992 38.147121 67.697056 37.697056 
C 68.147121 37.246992 68.4 36.636487 68.4 36 
C 68.4 35.363513 68.147121 34.753008 67.697056 34.302944 
C 67.246992 33.852879 66.636487 33.6 66 33.6 
C 65.363513 33.6 64.753008 33.852879 64.302944 34.302944 
C 63.852879 34.753008 63.6 35.363513 63.6 36 
C 63.6 36.636487 63.852879 37.246992 64.302944 37.697056 
C 64.753008 38.147121 65.363513 38.4 66 38.4 
z
M 66 38.16 
C 66 38.16 65.427161 38.16 64.877707 37.932409 
C 64.472649 37.527351 64.067591 37.122293 63.84 36.572839 
C 63.84 36 63.84 35.427161 64.067591 34.877707 
C 64.472649 34.472649 64.877707 34.067591 65.427161 33.84 
C 66 33.84 66.572839 33.84 67.122293 34.067591 
C 67.527351 34.472649 67.932409 34.877707 68.16 35.427161 
C 68.16 36 68.16 36.572839 67.932409 37.122293 
C 67.527351 37.527351 67.122293 37.932409 66.572839 38.16 
z
M 0 26.4 
C 0.636487 26.4 1.246992 26.147121 1.697056 25.697056 
C 2.147121 25.246992 2.4 24.636487 2.4 24 
C 2.4 23.363513 2.147121 22.753008 1.697056 22.302944 
C 1.246992 21.852879 0.636487 21.6 0 21.6 
C -0.636487 21.6 -1.246992 21.852879 -1.697056 22.302944 
C -2.147121 22.753008 -2.4 23.363513 -2.4 24 
C -2.4 24.636487 -2.147121 25.246992 -1.697056 25.697056 
C -1.246992 26.147121 -0.636487 26.4 0 26.4 
z
M 0 26.16 
C 0 26.16 -0.572839 26.16 -1.122293 25.932409 
C -1.527351 25.527351 -1.932409 25.122293 -2.16 24.572839 
C -2.16 24 -2.16 23.427161 -1.932409 22.877707 
C -1.527351 22.472649 -1.122293 22.067591 -0.572839 21.84 
C 0 21.84 0.572839 21.84 1.122293 22.067591 
C 1.527351 22.472649 1.932409 22.877707 2.16 23.427161 
C 2.16 24 2.16 24.572839 1.932409 25.122293 
C 1.527351 25.527351 1.122293 25.932409 0.572839 26.16 
z
M 12 26.4 
C 12.636487 26.4 13.246992 26.147121 13.697056 25.697056 
C 14.147121 25.246992 14.4 24.636487 14.4 24 
C 14.4 23.363513 14.147121 22.753008 13.697056 22.302944 
C 13.246992 21.852879 12.636487 21.6 12 21.6 
C 11.363513 21.6 10.753008 21.852879 10.302944 22.302944 
C 9.852879 22.753008 9.6 23.363513 9.6 24 
C 9.6 24.636487 9.852879 25.246992 10.302944 25.697056 
C 10.753008 26.147121 11.363513 26.4 12 26.4 
z
M 12 26.16 
C 12 26.16 11.427161 26.16 10.877707 25.932409 
C 10.472649 25.527351 10.067591 25.122293 9.84 24.572839 
C 9.84 24 9.84 23.427161 10.067591 22.877707 
C 10.472649 22.472649 10.877707 22.067591 11.427161 21.84 
C 12 21.84 12.572839 21.84 13.122293 22.067591 
C 13.527351 22.472649 13.932409 22.877707 14.16 23.427161 
C 14.16 24 14.16 24.572839 13.932409 25.122293 
C 13.527351 25.527351 13.122293 25.932409 12.572839 26.16 
z
M 24 26.4 
C 24.636487 26.4 25.246992 26.147121 25.697056 25.697056 
C 26.147121 25.246992 26.4 24.636487 26.4 24 
C 26.4 23.363513 26.147121 22.753008 25.697056 22.302944 
C 25.246992 21.852879 24.636487 21.6 24 21.6 
C 23.363513 21.6 22.753008 21.852879 22.302944 22.302944 
C 21.852879 22.753008 21.6 23.363513 21.6 24 
C 21.6 24.636487 21.852879 25.246992 22.302944 25.697056 
C 22.753008 26.147121 23.363513 26.4 24 26.4 
z
M 24 26.16 
C 24 26.16 23.427161 26.16 22.877707 25.932409 
C 22.472649 25.527351 22.067591 25.122293 21.84 24.572839 
C 21.84 24 21.84 23.427161 22.067591 22.877707 
C 22.472649 22.472649 22.877707 22.067591 23.427161 21.84 
C 24 21.84 24.572839 21.84 25.122293 22.067591 
C 25.527351 22.472649 25.932409 22.877707 26.16 23.427161 
C 26.16 24 26.16 24.572839 25.932409 25.122293 
C 25.527351 25.527351 25.122293 25.932409 24.572839 26.16 
z
M 36 26.4 
C 36.636487 26.4 37.246992 26.147121 37.697056 25.697056 
C 38.147121 25.246992 38.4 24.636487 38.4 24 
C 38.4 23.363513 38.147121 22.753008 37.697056 22.302944 
C 37.246992 21.852879 36.636487 21.6 36 21.6 
C 35.363513 21.6 34.753008 21.852879 34.302944 22.302944 
C 33.852879 22.753008 33.6 23.363513 33.6 24 
C 33.6 24.636487 33.852879 25.246992 34.302944 25.697056 
C 34.753008 26.147121 35.363513 26.4 36 26.4 
z
M 36 26.16 
C 36 26.16 35.427161 26.16 34.877707 25.932409 
C 34.472649 25.527351 34.067591 25.122293 33.84 24.572839 
C 33.84 24 33.84 23.427161 34.067591 22.877707 
C 34.472649 22.472649 34.877707 22.067591 35.427161 21.84 
C 36 21.84 36.572839 21.84 37.122293 22.067591 
C 37.527351 22.472649 37.932409 22.877707 38.16 23.427161 
C 38.16 24 38.16 24.572839 37.932409 25.122293 
C 37.527351 25.527351 37.122293 25.932409 36.572839 26.16 
z
M 48 26.4 
C 48.636487 26.4 49.246992 26.147121 49.697056 25.697056 
C 50.147121 25.246992 50.4 24.636487 50.4 24 
C 50.4 23.363513 50.147121 22.753008 49.697056 22.302944 
C 49.246992 21.852879 48.636487 21.6 48 21.6 
C 47.363513 21.6 46.753008 21.852879 46.302944 22.302944 
C 45.852879 22.753008 45.6 23.363513 45.6 24 
C 45.6 24.636487 45.852879 25.246992 46.302944 25.697056 
C 46.753008 26.147121 47.363513 26.4 48 26.4 
z
M 48 26.16 
C 48 26.16 47.427161 26.16 46.877707 25.932409 
C 46.472649 25.527351 46.067591 25.122293 45.84 24.572839 
C 45.84 24 45.84 23.427161 46.067591 22.877707 
C 46.472649 22.472649 46.877707 22.067591 47.427161 21.84 
C 48 21.84 48.572839 21.84 49.122293 22.067591 
C 49.527351 22.472649 49.932409 22.877707 50.16 23.427161 
C 50.16 24 50.16 24.572839 49.932409 25.122293 
C 49.527351 25.527351 49.122293 25.932409 48.572839 26.16 
z
M 60 26.4 
C 60.636487 26.4 61.246992 26.147121 61.697056 25.697056 
C 62.147121 25.246992 62.4 24.636487 62.4 24 
C 62.4 23.363513 62.147121 22.753008 61.697056 22.302944 
C 61.246992 21.852879 60.636487 21.6 60 21.6 
C 59.363513 21.6 58.753008 21.852879 58.302944 22.302944 
C 57.852879 22.753008 57.6 23.363513 57.6 24 
C 57.6 24.636487 57.852879 25.246992 58.302944 25.697056 
C 58.753008 26.147121 59.363513 26.4 60 26.4 
z
M 60 26.16 
C 60 26.16 59.427161 26.16 58.877707 25.932409 
C 58.472649 25.527351 58.067591 25.122293 57.84 24.572839 
C 57.84 24 57.84 23.427161 58.067591 22.877707 
C 58.472649 22.472649 58.877707 22.067591 59.427161 21.84 
C 60 21.84 60.572839 21.84 61.122293 22.067591 
C 61.527351 22.472649 61.932409 22.877707 62.16 23.427161 
C 62.16 24 62.16 24.572839 61.932409 25.122293 
C 61.527351 25.527351 61.122293 25.932409 60.572839 26.16 
z
M 72 26.4 
C 72.636487 26.4 73.246992 26.147121 73.697056 25.697056 
C 74.147121 25.246992 74.4 24.636487 74.4 24 
C 74.4 23.363513 74.147121 22.753008 73.697056 22.302944 
C 73.246992 21.852879 72.636487 21.6 72 21.6 
C 71.363513 21.6 70.753008 21.852879 70.302944 22.302944 
C 69.852879 22.753008 69.6 23.363513 69.6 24 
C 69.6 24.636487 69.852879 25.246992 70.302944 25.697056 
C 70.753008 26.147121 71.363513 26.4 72 26.4 
z
M 72 26.16 
C 72 26.16 71.427161 26.16 70.877707 25.932409 
C 70.472649 25.527351 70.067591 25.122293 69.84 24.572839 
C 69.84 24 69.84 23.427161 70.067591 22.877707 
C 70.472649 22.472649 70.877707 22.067591 71.427161 21.84 
C 72 21.84 72.572839 21.84 73.122293 22.067591 
C 73.527351 22.472649 73.932409 22.877707 74.16 23.427161 
C 74.16 24 74.16 24.572839 73.932409 25.122293 
C 73.527351 25.527351 73.122293 25.932409 72.572839 26.16 
z
M 6 14.4 
C 6.636487 14.4 7.246992 14.147121 7.697056 13.697056 
C 8.147121 13.246992 8.4 12.636487 8.4 12 
C 8.4 11.363513 8.147121 10.753008 7.697056 10.302944 
C 7.246992 9.852879 6.636487 9.6 6 9.6 
C 5.363513 9.6 4.753008 9.852879 4.302944 10.302944 
C 3.852879 10.753008 3.6 11.363513 3.6 12 
C 3.6 12.636487 3.852879 13.246992 4.302944 13.697056 
C 4.753008 14.147121 5.363513 14.4 6 14.4 
z
M 6 14.16 
C 6 14.16 5.427161 14.16 4.877707 13.932409 
C 4.472649 13.527351 4.067591 13.122293 3.84 12.572839 
C 3.84 12 3.84 11.427161 4.067591 10.877707 
C 4.472649 10.472649 4.877707 10.067591 5.427161 9.84 
C 6 9.84 6.572839 9.84 7.122293 10.067591 
C 7.527351 10.472649 7.932409 10.877707 8.16 11.427161 
C 8.16 12 8.16 12.572839 7.932409 13.122293 
C 7.527351 13.527351 7.122293 13.932409 6.572839 14.16 
z
M 18 14.4 
C 18.636487 14.4 19.246992 14.147121 19.697056 13.697056 
C 20.147121 13.246992 20.4 12.636487 20.4 12 
C 20.4 11.363513 20.147121 10.753008 19.697056 10.302944 
C 19.246992 9.852879 18.636487 9.6 18 9.6 
C 17.363513 9.6 16.753008 9.852879 16.302944 10.302944 
C 15.852879 10.753008 15.6 11.363513 15.6 12 
C 15.6 12.636487 15.852879 13.246992 16.302944 13.697056 
C 16.753008 14.147121 17.363513 14.4 18 14.4 
z
M 18 14.16 
C 18 14.16 17.427161 14.16 16.877707 13.932409 
C 16.472649 13.527351 16.067591 13.122293 15.84 12.572839 
C 15.84 12 15.84 11.427161 16.067591 10.877707 
C 16.472649 10.472649 16.877707 10.067591 17.427161 9.84 
C 18 9.84 18.572839 9.84 19.122293 10.067591 
C 19.527351 10.472649 19.932409 10.877707 20.16 11.427161 
C 20.16 12 20.16 12.572839 19.932409 13.122293 
C 19.527351 13.527351 19.122293 13.932409 18.572839 14.16 
z
M 30 14.4 
C 30.636487 14.4 31.246992 14.147121 31.697056 13.697056 
C 32.147121 13.246992 32.4 12.636487 32.4 12 
C 32.4 11.363513 32.147121 10.753008 31.697056 10.302944 
C 31.246992 9.852879 30.636487 9.6 30 9.6 
C 29.363513 9.6 28.753008 9.852879 28.302944 10.302944 
C 27.852879 10.753008 27.6 11.363513 27.6 12 
C 27.6 12.636487 27.852879 13.246992 28.302944 13.697056 
C 28.753008 14.147121 29.363513 14.4 30 14.4 
z
M 30 14.16 
C 30 14.16 29.427161 14.16 28.877707 13.932409 
C 28.472649 13.527351 28.067591 13.122293 27.84 12.572839 
C 27.84 12 27.84 11.427161 28.067591 10.877707 
C 28.472649 10.472649 28.877707 10.067591 29.427161 9.84 
C 30 9.84 30.572839 9.84 31.122293 10.067591 
C 31.527351 10.472649 31.932409 10.877707 32.16 11.427161 
C 32.16 12 32.16 12.572839 31.932409 13.122293 
C 31.527351 13.527351 31.122293 13.932409 30.572839 14.16 
z
M 42 14.4 
C 42.636487 14.4 43.246992 14.147121 43.697056 13.697056 
C 44.147121 13.246992 44.4 12.636487 44.4 12 
C 44.4 11.363513 44.147121 10.753008 43.697056 10.302944 
C 43.246992 9.852879 42.636487 9.6 42 9.6 
C 41.363513 9.6 40.753008 9.852879 40.302944 10.302944 
C 39.852879 10.753008 39.6 11.363513 39.6 12 
C 39.6 12.636487 39.852879 13.246992 40.302944 13.697056 
C 40.753008 14.147121 41.363513 14.4 42 14.4 
z
M 42 14.16 
C 42 14.16 41.427161 14.16 40.877707 13.932409 
C 40.472649 13.527351 40.067591 13.122293 39.84 12.572839 
C 39.84 12 39.84 11.427161 40.067591 10.877707 
C 40.472649 10.472649 40.877707 10.067591 41.427161 9.84 
C 42 9.84 42.572839 9.84 43.122293 10.067591 
C 43.527351 10.472649 43.932409 10.877707 44.16 11.427161 
C 44.16 12 44.16 12.572839 43.932409 13.122293 
C 43.527351 13.527351 43.122293 13.932409 42.572839 14.16 
z
M 54 14.4 
C 54.636487 14.4 55.246992 14.147121 55.697056 13.697056 
C 56.147121 13.246992 56.4 12.636487 56.4 12 
C 56.4 11.363513 56.147121 10.753008 55.697056 10.302944 
C 55.246992 9.852879 54.636487 9.6 54 9.6 
C 53.363513 9.6 52.753008 9.852879 52.302944 10.302944 
C 51.852879 10.753008 51.6 11.363513 51.6 12 
C 51.6 12.636487 51.852879 13.246992 52.302944 13.697056 
C 52.753008 14.147121 53.363513 14.4 54 14.4 
z
M 54 14.16 
C 54 14.16 53.427161 14.16 52.877707 13.932409 
C 52.472649 13.527351 52.067591 13.122293 51.84 12.572839 
C 51.84 12 51.84 11.427161 52.067591 10.877707 
C 52.472649 10.472649 52.877707 10.067591 53.427161 9.84 
C 54 9.84 54.572839 9.84 55.122293 10.067591 
C 55.527351 10.472649 55.932409 10.877707 56.16 11.427161 
C 56.16 12 56.16 12.572839 55.932409 13.122293 
C 55.527351 13.527351 55.122293 13.932409 54.572839 14.16 
z
M 66 14.4 
C 66.636487 14.4 67.246992 14.147121 67.697056 13.697056 
C 68.147121 13.246992 68.4 12.636487 68.4 12 
C 68.4 11.363513 68.147121 10.753008 67.697056 10.302944 
C 67.246992 9.852879 66.636487 9.6 66 9.6 
C 65.363513 9.6 64.753008 9.852879 64.302944 10.302944 
C 63.852879 10.753008 63.6 11.363513 63.6 12 
C 63.6 12.636487 63.852879 13.246992 64.302944 13.697056 
C 64.753008 14.147121 65.363513 14.4 66 14.4 
z
M 66 14.16 
C 66 14.16 65.427161 14.16 64.877707 13.932409 
C 64.472649 13.527351 64.067591 13.122293 63.84 12.572839 
C 63.84 12 63.84 11.427161 64.067591 10.877707 
C 64.472649 10.472649 64.877707 10.067591 65.427161 9.84 
C 66 9.84 66.572839 9.84 67.122293 10.067591 
C 67.527351 10.472649 67.932409 10.877707 68.16 11.427161 
C 68.16 12 68.16 12.572839 67.932409 13.122293 
C 67.527351 13.527351 67.122293 13.932409 66.572839 14.16 
z
M 0 2.4 
C 0.636487 2.4 1.246992 2.147121 1.697056 1.697056 
C 2.147121 1.246992 2.4 0.636487 2.4 0 
C 2.4 -0.636487 2.147121 -1.246992 1.697056 -1.697056 
C 1.246992 -2.147121 0.636487 -2.4 0 -2.4 
C -0.636487 -2.4 -1.246992 -2.147121 -1.697056 -1.697056 
C -2.147121 -1.246992 -2.4 -0.636487 -2.4 0 
C -2.4 0.636487 -2.147121 1.246992 -1.697056 1.697056 
C -1.246992 2.147121 -0.636487 2.4 0 2.4 
z
M 0 2.16 
C 0 2.16 -0.572839 2.16 -1.122293 1.932409 
C -1.527351 1.527351 -1.932409 1.122293 -2.16 0.572839 
C -2.16 0 -2.16 -0.572839 -1.932409 -1.122293 
C -1.527351 -1.527351 -1.122293 -1.932409 -0.572839 -2.16 
C 0 -2.16 0.572839 -2.16 1.122293 -1.932409 
C 1.527351 -1.527351 1.932409 -1.122293 2.16 -0.572839 
C 2.16 0 2.16 0.572839 1.932409 1.122293 
C 1.527351 1.527351 1.122293 1.932409 0.572839 2.16 
z
M 12 2.4 
C 12.636487 2.4 13.246992 2.147121 13.697056 1.697056 
C 14.147121 1.246992 14.4 0.636487 14.4 0 
C 14.4 -0.636487 14.147121 -1.246992 13.697056 -1.697056 
C 13.246992 -2.147121 12.636487 -2.4 12 -2.4 
C 11.363513 -2.4 10.753008 -2.147121 10.302944 -1.697056 
C 9.852879 -1.246992 9.6 -0.636487 9.6 0 
C 9.6 0.636487 9.852879 1.246992 10.302944 1.697056 
C 10.753008 2.147121 11.363513 2.4 12 2.4 
z
M 12 2.16 
C 12 2.16 11.427161 2.16 10.877707 1.932409 
C 10.472649 1.527351 10.067591 1.122293 9.84 0.572839 
C 9.84 0 9.84 -0.572839 10.067591 -1.122293 
C 10.472649 -1.527351 10.877707 -1.932409 11.427161 -2.16 
C 12 -2.16 12.572839 -2.16 13.122293 -1.932409 
C 13.527351 -1.527351 13.932409 -1.122293 14.16 -0.572839 
C 14.16 0 14.16 0.572839 13.932409 1.122293 
C 13.527351 1.527351 13.122293 1.932409 12.572839 2.16 
z
M 24 2.4 
C 24.636487 2.4 25.246992 2.147121 25.697056 1.697056 
C 26.147121 1.246992 26.4 0.636487 26.4 0 
C 26.4 -0.636487 26.147121 -1.246992 25.697056 -1.697056 
C 25.246992 -2.147121 24.636487 -2.4 24 -2.4 
C 23.363513 -2.4 22.753008 -2.147121 22.302944 -1.697056 
C 21.852879 -1.246992 21.6 -0.636487 21.6 0 
C 21.6 0.636487 21.852879 1.246992 22.302944 1.697056 
C 22.753008 2.147121 23.363513 2.4 24 2.4 
z
M 24 2.16 
C 24 2.16 23.427161 2.16 22.877707 1.932409 
C 22.472649 1.527351 22.067591 1.122293 21.84 0.572839 
C 21.84 0 21.84 -0.572839 22.067591 -1.122293 
C 22.472649 -1.527351 22.877707 -1.932409 23.427161 -2.16 
C 24 -2.16 24.572839 -2.16 25.122293 -1.932409 
C 25.527351 -1.527351 25.932409 -1.122293 26.16 -0.572839 
C 26.16 0 26.16 0.572839 25.932409 1.122293 
C 25.527351 1.527351 25.122293 1.932409 24.572839 2.16 
z
M 36 2.4 
C 36.636487 2.4 37.246992 2.147121 37.697056 1.697056 
C 38.147121 1.246992 38.4 0.636487 38.4 0 
C 38.4 -0.636487 38.147121 -1.246992 37.697056 -1.697056 
C 37.246992 -2.147121 36.636487 -2.4 36 -2.4 
C 35.363513 -2.4 34.753008 -2.147121 34.302944 -1.697056 
C 33.852879 -1.246992 33.6 -0.636487 33.6 0 
C 33.6 0.636487 33.852879 1.246992 34.302944 1.697056 
C 34.753008 2.147121 35.363513 2.4 36 2.4 
z
M 36 2.16 
C 36 2.16 35.427161 2.16 34.877707 1.932409 
C 34.472649 1.527351 34.067591 1.122293 33.84 0.572839 
C 33.84 0 33.84 -0.572839 34.067591 -1.122293 
C 34.472649 -1.527351 34.877707 -1.932409 35.427161 -2.16 
C 36 -2.16 36.572839 -2.16 37.122293 -1.932409 
C 37.527351 -1.527351 37.932409 -1.122293 38.16 -0.572839 
C 38.16 0 38.16 0.572839 37.932409 1.122293 
C 37.527351 1.527351 37.122293 1.932409 36.572839 2.16 
z
M 48 2.4 
C 48.636487 2.4 49.246992 2.147121 49.697056 1.697056 
C 50.147121 1.246992 50.4 0.636487 50.4 0 
C 50.4 -0.636487 50.147121 -1.246992 49.697056 -1.697056 
C 49.246992 -2.147121 48.636487 -2.4 48 -2.4 
C 47.363513 -2.4 46.753008 -2.147121 46.302944 -1.697056 
C 45.852879 -1.246992 45.6 -0.636487 45.6 0 
C 45.6 0.636487 45.852879 1.246992 46.302944 1.697056 
C 46.753008 2.147121 47.363513 2.4 48 2.4 
z
M 48 2.16 
C 48 2.16 47.427161 2.16 46.877707 1.932409 
C 46.472649 1.527351 46.067591 1.122293 45.84 0.572839 
C 45.84 0 45.84 -0.572839 46.067591 -1.122293 
C 46.472649 -1.527351 46.877707 -1.932409 47.427161 -2.16 
C 48 -2.16 48.572839 -2.16 49.122293 -1.932409 
C 49.527351 -1.527351 49.932409 -1.122293 50.16 -0.572839 
C 50.16 0 50.16 0.572839 49.932409 1.122293 
C 49.527351 1.527351 49.122293 1.932409 48.572839 2.16 
z
M 60 2.4 
C 60.636487 2.4 61.246992 2.147121 61.697056 1.697056 
C 62.147121 1.246992 62.4 0.636487 62.4 0 
C 62.4 -0.636487 62.147121 -1.246992 61.697056 -1.697056 
C 61.246992 -2.147121 60.636487 -2.4 60 -2.4 
C 59.363513 -2.4 58.753008 -2.147121 58.302944 -1.697056 
C 57.852879 -1.246992 57.6 -0.636487 57.6 0 
C 57.6 0.636487 57.852879 1.246992 58.302944 1.697056 
C 58.753008 2.147121 59.363513 2.4 60 2.4 
z
M 60 2.16 
C 60 2.16 59.427161 2.16 58.877707 1.932409 
C 58.472649 1.527351 58.067591 1.122293 57.84 0.572839 
C 57.84 0 57.84 -0.572839 58.067591 -1.122293 
C 58.472649 -1.527351 58.877707 -1.932409 59.427161 -2.16 
C 60 -2.16 60.572839 -2.16 61.122293 -1.932409 
C 61.527351 -1.527351 61.932409 -1.122293 62.16 -0.572839 
C 62.16 0 62.16 0.572839 61.932409 1.122293 
C 61.527351 1.527351 61.122293 1.932409 60.572839 2.16 
z
M 72 2.4 
C 72.636487 2.4 73.246992 2.147121 73.697056 1.697056 
C 74.147121 1.246992 74.4 0.636487 74.4 0 
C 74.4 -0.636487 74.147121 -1.246992 73.697056 -1.697056 
C 73.246992 -2.147121 72.636487 -2.4 72 -2.4 
C 71.363513 -2.4 70.753008 -2.147121 70.302944 -1.697056 
C 69.852879 -1.246992 69.6 -0.636487 69.6 0 
C 69.6 0.636487 69.852879 1.246992 70.302944 1.697056 
C 70.753008 2.147121 71.363513 2.4 72 2.4 
z
M 72 2.16 
C 72 2.16 71.427161 2.16 70.877707 1.932409 
C 70.472649 1.527351 70.067591 1.122293 69.84 0.572839 
C 69.84 0 69.84 -0.572839 70.067591 -1.122293 
C 70.472649 -1.527351 70.877707 -1.932409 71.427161 -2.16 
C 72 -2.16 72.572839 -2.16 73.122293 -1.932409 
C 73.527351 -1.527351 73.932409 -1.122293 74.16 -0.572839 
C 74.16 0 74.16 0.572839 73.932409 1.122293 
C 73.527351 1.527351 73.122293 1.932409 72.572839 2.16 
z
" style="fill:#ff0000;stroke:#ff0000;stroke-linecap:butt;stroke-linejoin:miter;stroke-width:1.0;"/>
  </pattern>
  <pattern height="72" id="ha32afae266" patternUnits="userSpaceOnUse" width="72" x="0" y="0">
   <rect fill="none" height="73" width="73" x="0" y="0"/>
   <path d="M -36 36 
L 36 -36 
M -24 48 
L 48 -24 
M -12 60 
L 60 -12 
M 0 72 
L 72 0 
M 12 84 
L 84 12 
M 24 96 
L 96 24 
M 36 108 
L 108 36 
M -36 36 
L 36 108 
M -24 24 
L 48 96 
M -12 12 
L 60 84 
M 0 0 
L 72 72 
M 12 -12 
L 84 60 
M 24 -24 
L 96 48 
M 36 -36 
L 108 36 
" style="fill:#008000;stroke:#008000;stroke-linecap:butt;stroke-linejoin:miter;stroke-width:1.0;"/>
  </pattern>
 </defs>
</svg>
