<?xml version="1.0" encoding="utf-8" standalone="no"?>
<!DOCTYPE svg PUBLIC "-//W3C//DTD SVG 1.1//EN"
  "http://www.w3.org/Graphics/SVG/1.1/DTD/svg11.dtd">
<!-- Created with matplotlib (https://matplotlib.org/) -->
<svg height="137.839388pt" version="1.1" viewBox="0 0 282.155769 137.839388" width="282.155769pt" xmlns="http://www.w3.org/2000/svg" xmlns:xlink="http://www.w3.org/1999/xlink">
 <metadata>
  <rdf:RDF xmlns:cc="http://creativecommons.org/ns#" xmlns:dc="http://purl.org/dc/elements/1.1/" xmlns:rdf="http://www.w3.org/1999/02/22-rdf-syntax-ns#">
   <cc:Work>
    <dc:type rdf:resource="http://purl.org/dc/dcmitype/StillImage"/>
    <dc:date>2021-10-22T16:12:41.646470</dc:date>
    <dc:format>image/svg+xml</dc:format>
    <dc:creator>
     <cc:Agent>
      <dc:title>Matplotlib v3.3.4, https://matplotlib.org/</dc:title>
     </cc:Agent>
    </dc:creator>
   </cc:Work>
  </rdf:RDF>
 </metadata>
 <defs>
  <style type="text/css">*{stroke-linecap:butt;stroke-linejoin:round;}</style>
 </defs>
 <g id="figure_1">
  <g id="patch_1">
   <path d="M 0 137.839388 
L 282.155769 137.839388 
L 282.155769 0 
L 0 0 
z
" style="fill:none;"/>
  </g>
  <g id="axes_1">
   <g id="patch_2">
    <path d="M 42.675125 103.377325 
L 268.537935 103.377325 
L 268.537935 26.417325 
L 42.675125 26.417325 
z
" style="fill:none;"/>
   </g>
   <g id="line2d_1">
    <path clip-path="url(#pa6b43db8f6)" d="M 42.675125 33.413689 
L 268.537935 33.413689 
" style="fill:none;stroke:#008000;stroke-dasharray:6,6;stroke-dashoffset:0;"/>
   </g>
   <g id="PathCollection_1">
    <defs>
     <path d="M -0 3.162278 
L 1.897367 0 
L 0 -3.162278 
L -1.897367 -0 
z
" id="m3a61715616" style="stroke:#ffffff;stroke-width:0.357771;"/>
    </defs>
    <g clip-path="url(#pa6b43db8f6)">
     <use style="fill:#ff0000;stroke:#ffffff;stroke-width:0.357771;" x="51.040414" xlink:href="#m3a61715616" y="78.825966"/>
     <use style="fill:#ff0000;stroke:#ffffff;stroke-width:0.357771;" x="52.713472" xlink:href="#m3a61715616" y="78.658613"/>
     <use style="fill:#ff0000;stroke:#ffffff;stroke-width:0.357771;" x="54.625538" xlink:href="#m3a61715616" y="78.50973"/>
     <use style="fill:#ff0000;stroke:#ffffff;stroke-width:0.357771;" x="56.298596" xlink:href="#m3a61715616" y="78.365045"/>
     <use style="fill:#ff0000;stroke:#ffffff;stroke-width:0.357771;" x="58.210662" xlink:href="#m3a61715616" y="78.217002"/>
     <use style="fill:#ff0000;stroke:#ffffff;stroke-width:0.357771;" x="59.88372" xlink:href="#m3a61715616" y="78.098344"/>
     <use style="fill:#ff0000;stroke:#ffffff;stroke-width:0.357771;" x="61.795786" xlink:href="#m3a61715616" y="77.949181"/>
     <use style="fill:#ff0000;stroke:#ffffff;stroke-width:0.357771;" x="63.468844" xlink:href="#m3a61715616" y="77.838919"/>
     <use style="fill:#ff0000;stroke:#ffffff;stroke-width:0.357771;" x="65.38091" xlink:href="#m3a61715616" y="77.688077"/>
     <use style="fill:#ff0000;stroke:#ffffff;stroke-width:0.357771;" x="67.053968" xlink:href="#m3a61715616" y="77.570538"/>
     <use style="fill:#ff0000;stroke:#ffffff;stroke-width:0.357771;" x="68.966034" xlink:href="#m3a61715616" y="76.940586"/>
     <use style="fill:#ff0000;stroke:#ffffff;stroke-width:0.357771;" x="70.639092" xlink:href="#m3a61715616" y="76.814371"/>
     <use style="fill:#ff0000;stroke:#ffffff;stroke-width:0.357771;" x="72.551158" xlink:href="#m3a61715616" y="76.650096"/>
     <use style="fill:#ff0000;stroke:#ffffff;stroke-width:0.357771;" x="74.224216" xlink:href="#m3a61715616" y="76.520244"/>
     <use style="fill:#ff0000;stroke:#ffffff;stroke-width:0.357771;" x="76.136282" xlink:href="#m3a61715616" y="75.439166"/>
     <use style="fill:#ff0000;stroke:#ffffff;stroke-width:0.357771;" x="77.80934" xlink:href="#m3a61715616" y="75.243827"/>
     <use style="fill:#ff0000;stroke:#ffffff;stroke-width:0.357771;" x="79.721406" xlink:href="#m3a61715616" y="75.036735"/>
     <use style="fill:#ff0000;stroke:#ffffff;stroke-width:0.357771;" x="81.394464" xlink:href="#m3a61715616" y="74.904924"/>
     <use style="fill:#ff0000;stroke:#ffffff;stroke-width:0.357771;" x="83.30653" xlink:href="#m3a61715616" y="74.640181"/>
     <use style="fill:#ff0000;stroke:#ffffff;stroke-width:0.357771;" x="84.979588" xlink:href="#m3a61715616" y="73.330462"/>
     <use style="fill:#ff0000;stroke:#ffffff;stroke-width:0.357771;" x="86.891654" xlink:href="#m3a61715616" y="73.195012"/>
     <use style="fill:#ff0000;stroke:#ffffff;stroke-width:0.357771;" x="88.564712" xlink:href="#m3a61715616" y="73.037454"/>
     <use style="fill:#ff0000;stroke:#ffffff;stroke-width:0.357771;" x="90.476778" xlink:href="#m3a61715616" y="72.880176"/>
     <use style="fill:#ff0000;stroke:#ffffff;stroke-width:0.357771;" x="92.149836" xlink:href="#m3a61715616" y="71.258419"/>
     <use style="fill:#ff0000;stroke:#ffffff;stroke-width:0.357771;" x="94.061902" xlink:href="#m3a61715616" y="71.156832"/>
     <use style="fill:#ff0000;stroke:#ffffff;stroke-width:0.357771;" x="95.73496" xlink:href="#m3a61715616" y="70.91028"/>
     <use style="fill:#ff0000;stroke:#ffffff;stroke-width:0.357771;" x="97.647026" xlink:href="#m3a61715616" y="70.732572"/>
     <use style="fill:#ff0000;stroke:#ffffff;stroke-width:0.357771;" x="99.320084" xlink:href="#m3a61715616" y="69.979484"/>
     <use style="fill:#ff0000;stroke:#ffffff;stroke-width:0.357771;" x="101.23215" xlink:href="#m3a61715616" y="69.128446"/>
     <use style="fill:#ff0000;stroke:#ffffff;stroke-width:0.357771;" x="102.905208" xlink:href="#m3a61715616" y="68.944022"/>
     <use style="fill:#ff0000;stroke:#ffffff;stroke-width:0.357771;" x="104.817274" xlink:href="#m3a61715616" y="68.763795"/>
     <use style="fill:#ff0000;stroke:#ffffff;stroke-width:0.357771;" x="106.490332" xlink:href="#m3a61715616" y="68.378716"/>
     <use style="fill:#ff0000;stroke:#ffffff;stroke-width:0.357771;" x="108.402398" xlink:href="#m3a61715616" y="67.025339"/>
     <use style="fill:#ff0000;stroke:#ffffff;stroke-width:0.357771;" x="110.075455" xlink:href="#m3a61715616" y="66.802015"/>
     <use style="fill:#ff0000;stroke:#ffffff;stroke-width:0.357771;" x="111.987522" xlink:href="#m3a61715616" y="66.626546"/>
     <use style="fill:#ff0000;stroke:#ffffff;stroke-width:0.357771;" x="113.660579" xlink:href="#m3a61715616" y="66.213481"/>
     <use style="fill:#ff0000;stroke:#ffffff;stroke-width:0.357771;" x="115.572646" xlink:href="#m3a61715616" y="65.119809"/>
     <use style="fill:#ff0000;stroke:#ffffff;stroke-width:0.357771;" x="117.245703" xlink:href="#m3a61715616" y="64.960572"/>
     <use style="fill:#ff0000;stroke:#ffffff;stroke-width:0.357771;" x="119.157769" xlink:href="#m3a61715616" y="64.700587"/>
     <use style="fill:#ff0000;stroke:#ffffff;stroke-width:0.357771;" x="120.830827" xlink:href="#m3a61715616" y="64.227913"/>
     <use style="fill:#ff0000;stroke:#ffffff;stroke-width:0.357771;" x="122.742893" xlink:href="#m3a61715616" y="63.304953"/>
     <use style="fill:#ff0000;stroke:#ffffff;stroke-width:0.357771;" x="124.415951" xlink:href="#m3a61715616" y="63.045527"/>
     <use style="fill:#ff0000;stroke:#ffffff;stroke-width:0.357771;" x="126.328017" xlink:href="#m3a61715616" y="62.804573"/>
     <use style="fill:#ff0000;stroke:#ffffff;stroke-width:0.357771;" x="128.001075" xlink:href="#m3a61715616" y="62.410817"/>
     <use style="fill:#ff0000;stroke:#ffffff;stroke-width:0.357771;" x="129.913141" xlink:href="#m3a61715616" y="62.02154"/>
     <use style="fill:#ff0000;stroke:#ffffff;stroke-width:0.357771;" x="131.586199" xlink:href="#m3a61715616" y="61.78954"/>
     <use style="fill:#ff0000;stroke:#ffffff;stroke-width:0.357771;" x="133.498265" xlink:href="#m3a61715616" y="61.633661"/>
     <use style="fill:#ff0000;stroke:#ffffff;stroke-width:0.357771;" x="135.171323" xlink:href="#m3a61715616" y="61.126565"/>
     <use style="fill:#ff0000;stroke:#ffffff;stroke-width:0.357771;" x="137.083389" xlink:href="#m3a61715616" y="60.839154"/>
     <use style="fill:#ff0000;stroke:#ffffff;stroke-width:0.357771;" x="138.756447" xlink:href="#m3a61715616" y="60.459112"/>
     <use style="fill:#ff0000;stroke:#ffffff;stroke-width:0.357771;" x="140.668513" xlink:href="#m3a61715616" y="60.374596"/>
     <use style="fill:#ff0000;stroke:#ffffff;stroke-width:0.357771;" x="142.341571" xlink:href="#m3a61715616" y="60.144835"/>
     <use style="fill:#ff0000;stroke:#ffffff;stroke-width:0.357771;" x="144.253637" xlink:href="#m3a61715616" y="59.720576"/>
     <use style="fill:#ff0000;stroke:#ffffff;stroke-width:0.357771;" x="145.926695" xlink:href="#m3a61715616" y="59.320943"/>
     <use style="fill:#ff0000;stroke:#ffffff;stroke-width:0.357771;" x="147.838761" xlink:href="#m3a61715616" y="59.031854"/>
     <use style="fill:#ff0000;stroke:#ffffff;stroke-width:0.357771;" x="149.511819" xlink:href="#m3a61715616" y="58.889687"/>
     <use style="fill:#ff0000;stroke:#ffffff;stroke-width:0.357771;" x="151.423885" xlink:href="#m3a61715616" y="58.563657"/>
     <use style="fill:#ff0000;stroke:#ffffff;stroke-width:0.357771;" x="153.096943" xlink:href="#m3a61715616" y="58.1352"/>
     <use style="fill:#ff0000;stroke:#ffffff;stroke-width:0.357771;" x="155.009009" xlink:href="#m3a61715616" y="57.794337"/>
     <use style="fill:#ff0000;stroke:#ffffff;stroke-width:0.357771;" x="156.682067" xlink:href="#m3a61715616" y="57.444519"/>
     <use style="fill:#ff0000;stroke:#ffffff;stroke-width:0.357771;" x="158.594133" xlink:href="#m3a61715616" y="57.187332"/>
     <use style="fill:#ff0000;stroke:#ffffff;stroke-width:0.357771;" x="160.267191" xlink:href="#m3a61715616" y="57.033692"/>
     <use style="fill:#ff0000;stroke:#ffffff;stroke-width:0.357771;" x="162.179257" xlink:href="#m3a61715616" y="56.840592"/>
     <use style="fill:#ff0000;stroke:#ffffff;stroke-width:0.357771;" x="163.852315" xlink:href="#m3a61715616" y="56.410736"/>
     <use style="fill:#ff0000;stroke:#ffffff;stroke-width:0.357771;" x="165.764381" xlink:href="#m3a61715616" y="56.166143"/>
     <use style="fill:#ff0000;stroke:#ffffff;stroke-width:0.357771;" x="167.437439" xlink:href="#m3a61715616" y="55.721734"/>
     <use style="fill:#ff0000;stroke:#ffffff;stroke-width:0.357771;" x="169.349505" xlink:href="#m3a61715616" y="55.437122"/>
     <use style="fill:#ff0000;stroke:#ffffff;stroke-width:0.357771;" x="171.022563" xlink:href="#m3a61715616" y="55.186372"/>
     <use style="fill:#ff0000;stroke:#ffffff;stroke-width:0.357771;" x="172.934629" xlink:href="#m3a61715616" y="54.817524"/>
     <use style="fill:#ff0000;stroke:#ffffff;stroke-width:0.357771;" x="174.607687" xlink:href="#m3a61715616" y="54.616029"/>
     <use style="fill:#ff0000;stroke:#ffffff;stroke-width:0.357771;" x="176.519753" xlink:href="#m3a61715616" y="54.379831"/>
     <use style="fill:#ff0000;stroke:#ffffff;stroke-width:0.357771;" x="178.192811" xlink:href="#m3a61715616" y="54.105294"/>
     <use style="fill:#ff0000;stroke:#ffffff;stroke-width:0.357771;" x="180.104877" xlink:href="#m3a61715616" y="53.880851"/>
     <use style="fill:#ff0000;stroke:#ffffff;stroke-width:0.357771;" x="181.777935" xlink:href="#m3a61715616" y="53.557899"/>
     <use style="fill:#ff0000;stroke:#ffffff;stroke-width:0.357771;" x="183.690001" xlink:href="#m3a61715616" y="53.237465"/>
     <use style="fill:#ff0000;stroke:#ffffff;stroke-width:0.357771;" x="185.363059" xlink:href="#m3a61715616" y="52.934383"/>
     <use style="fill:#ff0000;stroke:#ffffff;stroke-width:0.357771;" x="187.275125" xlink:href="#m3a61715616" y="52.637737"/>
     <use style="fill:#ff0000;stroke:#ffffff;stroke-width:0.357771;" x="188.948183" xlink:href="#m3a61715616" y="52.388946"/>
     <use style="fill:#ff0000;stroke:#ffffff;stroke-width:0.357771;" x="190.860249" xlink:href="#m3a61715616" y="52.091741"/>
     <use style="fill:#ff0000;stroke:#ffffff;stroke-width:0.357771;" x="192.533307" xlink:href="#m3a61715616" y="51.757035"/>
     <use style="fill:#ff0000;stroke:#ffffff;stroke-width:0.357771;" x="194.445373" xlink:href="#m3a61715616" y="51.214677"/>
     <use style="fill:#ff0000;stroke:#ffffff;stroke-width:0.357771;" x="196.118431" xlink:href="#m3a61715616" y="50.756275"/>
     <use style="fill:#ff0000;stroke:#ffffff;stroke-width:0.357771;" x="198.030497" xlink:href="#m3a61715616" y="49.797493"/>
     <use style="fill:#ff0000;stroke:#ffffff;stroke-width:0.357771;" x="199.703554" xlink:href="#m3a61715616" y="49.561856"/>
     <use style="fill:#ff0000;stroke:#ffffff;stroke-width:0.357771;" x="201.615621" xlink:href="#m3a61715616" y="48.45755"/>
     <use style="fill:#ff0000;stroke:#ffffff;stroke-width:0.357771;" x="203.288678" xlink:href="#m3a61715616" y="48.07247"/>
     <use style="fill:#ff0000;stroke:#ffffff;stroke-width:0.357771;" x="205.200745" xlink:href="#m3a61715616" y="46.779822"/>
     <use style="fill:#ff0000;stroke:#ffffff;stroke-width:0.357771;" x="206.873802" xlink:href="#m3a61715616" y="46.811165"/>
     <use style="fill:#ff0000;stroke:#ffffff;stroke-width:0.357771;" x="208.785869" xlink:href="#m3a61715616" y="46.020016"/>
     <use style="fill:#ff0000;stroke:#ffffff;stroke-width:0.357771;" x="210.458926" xlink:href="#m3a61715616" y="45.751636"/>
     <use style="fill:#ff0000;stroke:#ffffff;stroke-width:0.357771;" x="212.370992" xlink:href="#m3a61715616" y="44.53119"/>
     <use style="fill:#ff0000;stroke:#ffffff;stroke-width:0.357771;" x="214.04405" xlink:href="#m3a61715616" y="44.524194"/>
     <use style="fill:#ff0000;stroke:#ffffff;stroke-width:0.357771;" x="215.956116" xlink:href="#m3a61715616" y="43.562614"/>
     <use style="fill:#ff0000;stroke:#ffffff;stroke-width:0.357771;" x="217.629174" xlink:href="#m3a61715616" y="42.89712"/>
     <use style="fill:#ff0000;stroke:#ffffff;stroke-width:0.357771;" x="219.54124" xlink:href="#m3a61715616" y="42.105691"/>
     <use style="fill:#ff0000;stroke:#ffffff;stroke-width:0.357771;" x="221.214298" xlink:href="#m3a61715616" y="41.234504"/>
     <use style="fill:#ff0000;stroke:#ffffff;stroke-width:0.357771;" x="223.126364" xlink:href="#m3a61715616" y="40.459866"/>
     <use style="fill:#ff0000;stroke:#ffffff;stroke-width:0.357771;" x="224.799422" xlink:href="#m3a61715616" y="39.553977"/>
     <use style="fill:#ff0000;stroke:#ffffff;stroke-width:0.357771;" x="226.711488" xlink:href="#m3a61715616" y="38.838669"/>
     <use style="fill:#ff0000;stroke:#ffffff;stroke-width:0.357771;" x="228.384546" xlink:href="#m3a61715616" y="38.641651"/>
     <use style="fill:#ff0000;stroke:#ffffff;stroke-width:0.357771;" x="230.296612" xlink:href="#m3a61715616" y="37.12428"/>
     <use style="fill:#ff0000;stroke:#ffffff;stroke-width:0.357771;" x="231.96967" xlink:href="#m3a61715616" y="37.054316"/>
     <use style="fill:#ff0000;stroke:#ffffff;stroke-width:0.357771;" x="233.881736" xlink:href="#m3a61715616" y="35.583401"/>
     <use style="fill:#ff0000;stroke:#ffffff;stroke-width:0.357771;" x="235.554794" xlink:href="#m3a61715616" y="35.411011"/>
     <use style="fill:#ff0000;stroke:#ffffff;stroke-width:0.357771;" x="237.46686" xlink:href="#m3a61715616" y="34.254372"/>
     <use style="fill:#ff0000;stroke:#ffffff;stroke-width:0.357771;" x="239.139918" xlink:href="#m3a61715616" y="34.287954"/>
     <use style="fill:#ff0000;stroke:#ffffff;stroke-width:0.357771;" x="241.051984" xlink:href="#m3a61715616" y="34.228905"/>
     <use style="fill:#ff0000;stroke:#ffffff;stroke-width:0.357771;" x="242.725042" xlink:href="#m3a61715616" y="34.242898"/>
     <use style="fill:#ff0000;stroke:#ffffff;stroke-width:0.357771;" x="244.637108" xlink:href="#m3a61715616" y="34.322656"/>
     <use style="fill:#ff0000;stroke:#ffffff;stroke-width:0.357771;" x="246.310166" xlink:href="#m3a61715616" y="34.156982"/>
     <use style="fill:#ff0000;stroke:#ffffff;stroke-width:0.357771;" x="248.222232" xlink:href="#m3a61715616" y="34.221069"/>
     <use style="fill:#ff0000;stroke:#ffffff;stroke-width:0.357771;" x="249.89529" xlink:href="#m3a61715616" y="34.191404"/>
     <use style="fill:#ff0000;stroke:#ffffff;stroke-width:0.357771;" x="251.807356" xlink:href="#m3a61715616" y="34.186927"/>
     <use style="fill:#ff0000;stroke:#ffffff;stroke-width:0.357771;" x="253.480414" xlink:href="#m3a61715616" y="34.259409"/>
     <use style="fill:#ff0000;stroke:#ffffff;stroke-width:0.357771;" x="255.39248" xlink:href="#m3a61715616" y="34.123959"/>
     <use style="fill:#ff0000;stroke:#ffffff;stroke-width:0.357771;" x="257.065538" xlink:href="#m3a61715616" y="34.158941"/>
     <use style="fill:#ff0000;stroke:#ffffff;stroke-width:0.357771;" x="258.977604" xlink:href="#m3a61715616" y="34.154743"/>
    </g>
   </g>
   <g id="PathCollection_2">
    <defs>
     <path d="M 0 1.118034 
C 0.296506 1.118034 0.580908 1.000231 0.790569 0.790569 
C 1.000231 0.580908 1.118034 0.296506 1.118034 0 
C 1.118034 -0.296506 1.000231 -0.580908 0.790569 -0.790569 
C 0.580908 -1.000231 0.296506 -1.118034 0 -1.118034 
C -0.296506 -1.118034 -0.580908 -1.000231 -0.790569 -0.790569 
C -1.000231 -0.580908 -1.118034 -0.296506 -1.118034 0 
C -1.118034 0.296506 -1.000231 0.580908 -0.790569 0.790569 
C -0.580908 1.000231 -0.296506 1.118034 0 1.118034 
z
" id="m3065412490" style="stroke:#ffffff;stroke-width:0.357771;"/>
    </defs>
    <g clip-path="url(#pa6b43db8f6)">
     <use style="fill:#0000ff;stroke:#ffffff;stroke-width:0.357771;" x="51.040414" xlink:href="#m3065412490" y="89.023306"/>
     <use style="fill:#0000ff;stroke:#ffffff;stroke-width:0.357771;" x="52.713472" xlink:href="#m3065412490" y="89.004835"/>
     <use style="fill:#0000ff;stroke:#ffffff;stroke-width:0.357771;" x="54.625538" xlink:href="#m3065412490" y="89.008753"/>
     <use style="fill:#0000ff;stroke:#ffffff;stroke-width:0.357771;" x="56.298596" xlink:href="#m3065412490" y="88.972092"/>
     <use style="fill:#0000ff;stroke:#ffffff;stroke-width:0.357771;" x="58.210662" xlink:href="#m3065412490" y="89.597007"/>
     <use style="fill:#0000ff;stroke:#ffffff;stroke-width:0.357771;" x="59.88372" xlink:href="#m3065412490" y="88.890654"/>
     <use style="fill:#0000ff;stroke:#ffffff;stroke-width:0.357771;" x="61.795786" xlink:href="#m3065412490" y="88.874423"/>
     <use style="fill:#0000ff;stroke:#ffffff;stroke-width:0.357771;" x="63.468844" xlink:href="#m3065412490" y="88.852594"/>
     <use style="fill:#0000ff;stroke:#ffffff;stroke-width:0.357771;" x="65.38091" xlink:href="#m3065412490" y="88.834404"/>
     <use style="fill:#0000ff;stroke:#ffffff;stroke-width:0.357771;" x="67.053968" xlink:href="#m3065412490" y="88.501657"/>
     <use style="fill:#0000ff;stroke:#ffffff;stroke-width:0.357771;" x="68.966034" xlink:href="#m3065412490" y="88.47535"/>
     <use style="fill:#0000ff;stroke:#ffffff;stroke-width:0.357771;" x="70.639092" xlink:href="#m3065412490" y="88.454921"/>
     <use style="fill:#0000ff;stroke:#ffffff;stroke-width:0.357771;" x="72.551158" xlink:href="#m3065412490" y="88.416301"/>
     <use style="fill:#0000ff;stroke:#ffffff;stroke-width:0.357771;" x="74.224216" xlink:href="#m3065412490" y="88.413782"/>
     <use style="fill:#0000ff;stroke:#ffffff;stroke-width:0.357771;" x="76.136282" xlink:href="#m3065412490" y="87.797543"/>
     <use style="fill:#0000ff;stroke:#ffffff;stroke-width:0.357771;" x="77.80934" xlink:href="#m3065412490" y="87.765359"/>
     <use style="fill:#0000ff;stroke:#ffffff;stroke-width:0.357771;" x="79.721406" xlink:href="#m3065412490" y="87.753046"/>
     <use style="fill:#0000ff;stroke:#ffffff;stroke-width:0.357771;" x="81.394464" xlink:href="#m3065412490" y="87.727859"/>
     <use style="fill:#0000ff;stroke:#ffffff;stroke-width:0.357771;" x="83.30653" xlink:href="#m3065412490" y="87.132328"/>
     <use style="fill:#0000ff;stroke:#ffffff;stroke-width:0.357771;" x="84.979588" xlink:href="#m3065412490" y="87.131489"/>
     <use style="fill:#0000ff;stroke:#ffffff;stroke-width:0.357771;" x="86.891654" xlink:href="#m3065412490" y="87.08979"/>
     <use style="fill:#0000ff;stroke:#ffffff;stroke-width:0.357771;" x="88.564712" xlink:href="#m3065412490" y="87.07188"/>
     <use style="fill:#0000ff;stroke:#ffffff;stroke-width:0.357771;" x="90.476778" xlink:href="#m3065412490" y="86.506853"/>
     <use style="fill:#0000ff;stroke:#ffffff;stroke-width:0.357771;" x="92.149836" xlink:href="#m3065412490" y="86.467674"/>
     <use style="fill:#0000ff;stroke:#ffffff;stroke-width:0.357771;" x="94.061902" xlink:href="#m3065412490" y="86.450603"/>
     <use style="fill:#0000ff;stroke:#ffffff;stroke-width:0.357771;" x="95.73496" xlink:href="#m3065412490" y="86.440248"/>
     <use style="fill:#0000ff;stroke:#ffffff;stroke-width:0.357771;" x="97.647026" xlink:href="#m3065412490" y="85.829605"/>
     <use style="fill:#0000ff;stroke:#ffffff;stroke-width:0.357771;" x="99.320084" xlink:href="#m3065412490" y="85.815893"/>
     <use style="fill:#0000ff;stroke:#ffffff;stroke-width:0.357771;" x="101.23215" xlink:href="#m3065412490" y="85.795463"/>
     <use style="fill:#0000ff;stroke:#ffffff;stroke-width:0.357771;" x="102.905208" xlink:href="#m3065412490" y="85.746209"/>
     <use style="fill:#0000ff;stroke:#ffffff;stroke-width:0.357771;" x="104.817274" xlink:href="#m3065412490" y="85.355532"/>
     <use style="fill:#0000ff;stroke:#ffffff;stroke-width:0.357771;" x="106.490332" xlink:href="#m3065412490" y="85.329785"/>
     <use style="fill:#0000ff;stroke:#ffffff;stroke-width:0.357771;" x="108.402398" xlink:href="#m3065412490" y="85.295643"/>
     <use style="fill:#0000ff;stroke:#ffffff;stroke-width:0.357771;" x="110.075455" xlink:href="#m3065412490" y="85.273534"/>
     <use style="fill:#0000ff;stroke:#ffffff;stroke-width:0.357771;" x="111.987522" xlink:href="#m3065412490" y="84.720262"/>
     <use style="fill:#0000ff;stroke:#ffffff;stroke-width:0.357771;" x="113.660579" xlink:href="#m3065412490" y="84.70571"/>
     <use style="fill:#0000ff;stroke:#ffffff;stroke-width:0.357771;" x="115.572646" xlink:href="#m3065412490" y="84.707948"/>
     <use style="fill:#0000ff;stroke:#ffffff;stroke-width:0.357771;" x="117.245703" xlink:href="#m3065412490" y="84.696754"/>
     <use style="fill:#0000ff;stroke:#ffffff;stroke-width:0.357771;" x="119.157769" xlink:href="#m3065412490" y="84.175945"/>
     <use style="fill:#0000ff;stroke:#ffffff;stroke-width:0.357771;" x="120.830827" xlink:href="#m3065412490" y="84.115216"/>
     <use style="fill:#0000ff;stroke:#ffffff;stroke-width:0.357771;" x="122.742893" xlink:href="#m3065412490" y="84.088071"/>
     <use style="fill:#0000ff;stroke:#ffffff;stroke-width:0.357771;" x="124.415951" xlink:href="#m3065412490" y="84.076876"/>
     <use style="fill:#0000ff;stroke:#ffffff;stroke-width:0.357771;" x="126.328017" xlink:href="#m3065412490" y="83.510451"/>
     <use style="fill:#0000ff;stroke:#ffffff;stroke-width:0.357771;" x="128.001075" xlink:href="#m3065412490" y="83.491141"/>
     <use style="fill:#0000ff;stroke:#ffffff;stroke-width:0.357771;" x="129.913141" xlink:href="#m3065412490" y="83.45504"/>
     <use style="fill:#0000ff;stroke:#ffffff;stroke-width:0.357771;" x="131.586199" xlink:href="#m3065412490" y="83.429293"/>
     <use style="fill:#0000ff;stroke:#ffffff;stroke-width:0.357771;" x="133.498265" xlink:href="#m3065412490" y="82.81893"/>
     <use style="fill:#0000ff;stroke:#ffffff;stroke-width:0.357771;" x="135.171323" xlink:href="#m3065412490" y="82.83936"/>
     <use style="fill:#0000ff;stroke:#ffffff;stroke-width:0.357771;" x="137.083389" xlink:href="#m3065412490" y="82.765478"/>
     <use style="fill:#0000ff;stroke:#ffffff;stroke-width:0.357771;" x="138.756447" xlink:href="#m3065412490" y="82.721261"/>
     <use style="fill:#0000ff;stroke:#ffffff;stroke-width:0.357771;" x="140.668513" xlink:href="#m3065412490" y="82.361368"/>
     <use style="fill:#0000ff;stroke:#ffffff;stroke-width:0.357771;" x="142.341571" xlink:href="#m3065412490" y="82.330304"/>
     <use style="fill:#0000ff;stroke:#ffffff;stroke-width:0.357771;" x="144.253637" xlink:href="#m3065412490" y="82.302599"/>
     <use style="fill:#0000ff;stroke:#ffffff;stroke-width:0.357771;" x="145.926695" xlink:href="#m3065412490" y="82.308755"/>
     <use style="fill:#0000ff;stroke:#ffffff;stroke-width:0.357771;" x="147.838761" xlink:href="#m3065412490" y="82.03058"/>
     <use style="fill:#0000ff;stroke:#ffffff;stroke-width:0.357771;" x="149.511819" xlink:href="#m3065412490" y="81.970971"/>
     <use style="fill:#0000ff;stroke:#ffffff;stroke-width:0.357771;" x="151.423885" xlink:href="#m3065412490" y="81.941866"/>
     <use style="fill:#0000ff;stroke:#ffffff;stroke-width:0.357771;" x="153.096943" xlink:href="#m3065412490" y="81.688598"/>
     <use style="fill:#0000ff;stroke:#ffffff;stroke-width:0.357771;" x="155.009009" xlink:href="#m3065412490" y="81.663971"/>
     <use style="fill:#0000ff;stroke:#ffffff;stroke-width:0.357771;" x="156.682067" xlink:href="#m3065412490" y="81.701751"/>
     <use style="fill:#0000ff;stroke:#ffffff;stroke-width:0.357771;" x="158.594133" xlink:href="#m3065412490" y="81.609679"/>
     <use style="fill:#0000ff;stroke:#ffffff;stroke-width:0.357771;" x="160.267191" xlink:href="#m3065412490" y="81.430012"/>
     <use style="fill:#0000ff;stroke:#ffffff;stroke-width:0.357771;" x="162.179257" xlink:href="#m3065412490" y="81.442885"/>
     <use style="fill:#0000ff;stroke:#ffffff;stroke-width:0.357771;" x="163.852315" xlink:href="#m3065412490" y="81.449882"/>
     <use style="fill:#0000ff;stroke:#ffffff;stroke-width:0.357771;" x="165.764381" xlink:href="#m3065412490" y="81.367045"/>
     <use style="fill:#0000ff;stroke:#ffffff;stroke-width:0.357771;" x="167.437439" xlink:href="#m3065412490" y="81.259581"/>
     <use style="fill:#0000ff;stroke:#ffffff;stroke-width:0.357771;" x="169.349505" xlink:href="#m3065412490" y="81.273294"/>
     <use style="fill:#0000ff;stroke:#ffffff;stroke-width:0.357771;" x="171.022563" xlink:href="#m3065412490" y="81.216763"/>
     <use style="fill:#0000ff;stroke:#ffffff;stroke-width:0.357771;" x="172.934629" xlink:href="#m3065412490" y="81.225998"/>
     <use style="fill:#0000ff;stroke:#ffffff;stroke-width:0.357771;" x="174.607687" xlink:href="#m3065412490" y="81.216203"/>
     <use style="fill:#0000ff;stroke:#ffffff;stroke-width:0.357771;" x="176.519753" xlink:href="#m3065412490" y="81.138963"/>
     <use style="fill:#0000ff;stroke:#ffffff;stroke-width:0.357771;" x="178.192811" xlink:href="#m3065412490" y="81.053328"/>
     <use style="fill:#0000ff;stroke:#ffffff;stroke-width:0.357771;" x="180.104877" xlink:href="#m3065412490" y="81.032619"/>
     <use style="fill:#0000ff;stroke:#ffffff;stroke-width:0.357771;" x="181.777935" xlink:href="#m3065412490" y="80.945024"/>
     <use style="fill:#0000ff;stroke:#ffffff;stroke-width:0.357771;" x="183.690001" xlink:href="#m3065412490" y="80.930192"/>
     <use style="fill:#0000ff;stroke:#ffffff;stroke-width:0.357771;" x="185.363059" xlink:href="#m3065412490" y="80.954539"/>
     <use style="fill:#0000ff;stroke:#ffffff;stroke-width:0.357771;" x="187.275125" xlink:href="#m3065412490" y="80.849314"/>
     <use style="fill:#0000ff;stroke:#ffffff;stroke-width:0.357771;" x="188.948183" xlink:href="#m3065412490" y="80.884576"/>
     <use style="fill:#0000ff;stroke:#ffffff;stroke-width:0.357771;" x="190.860249" xlink:href="#m3065412490" y="80.888214"/>
     <use style="fill:#0000ff;stroke:#ffffff;stroke-width:0.357771;" x="192.533307" xlink:href="#m3065412490" y="80.815452"/>
     <use style="fill:#0000ff;stroke:#ffffff;stroke-width:0.357771;" x="194.445373" xlink:href="#m3065412490" y="80.834762"/>
     <use style="fill:#0000ff;stroke:#ffffff;stroke-width:0.357771;" x="196.118431" xlink:href="#m3065412490" y="80.538675"/>
     <use style="fill:#0000ff;stroke:#ffffff;stroke-width:0.357771;" x="198.030497" xlink:href="#m3065412490" y="80.500615"/>
     <use style="fill:#0000ff;stroke:#ffffff;stroke-width:0.357771;" x="199.703554" xlink:href="#m3065412490" y="80.551829"/>
     <use style="fill:#0000ff;stroke:#ffffff;stroke-width:0.357771;" x="201.615621" xlink:href="#m3065412490" y="80.254343"/>
     <use style="fill:#0000ff;stroke:#ffffff;stroke-width:0.357771;" x="203.288678" xlink:href="#m3065412490" y="80.205089"/>
     <use style="fill:#0000ff;stroke:#ffffff;stroke-width:0.357771;" x="205.200745" xlink:href="#m3065412490" y="79.883536"/>
     <use style="fill:#0000ff;stroke:#ffffff;stroke-width:0.357771;" x="206.873802" xlink:href="#m3065412490" y="79.829804"/>
     <use style="fill:#0000ff;stroke:#ffffff;stroke-width:0.357771;" x="208.785869" xlink:href="#m3065412490" y="79.769075"/>
     <use style="fill:#0000ff;stroke:#ffffff;stroke-width:0.357771;" x="210.458926" xlink:href="#m3065412490" y="79.540434"/>
     <use style="fill:#0000ff;stroke:#ffffff;stroke-width:0.357771;" x="212.370992" xlink:href="#m3065412490" y="79.468512"/>
     <use style="fill:#0000ff;stroke:#ffffff;stroke-width:0.357771;" x="214.04405" xlink:href="#m3065412490" y="79.47103"/>
     <use style="fill:#0000ff;stroke:#ffffff;stroke-width:0.357771;" x="215.956116" xlink:href="#m3065412490" y="79.128488"/>
     <use style="fill:#0000ff;stroke:#ffffff;stroke-width:0.357771;" x="217.629174" xlink:href="#m3065412490" y="79.124011"/>
     <use style="fill:#0000ff;stroke:#ffffff;stroke-width:0.357771;" x="219.54124" xlink:href="#m3065412490" y="79.040054"/>
     <use style="fill:#0000ff;stroke:#ffffff;stroke-width:0.357771;" x="221.214298" xlink:href="#m3065412490" y="81.201091"/>
     <use style="fill:#0000ff;stroke:#ffffff;stroke-width:0.357771;" x="223.126364" xlink:href="#m3065412490" y="78.709546"/>
     <use style="fill:#0000ff;stroke:#ffffff;stroke-width:0.357771;" x="224.799422" xlink:href="#m3065412490" y="78.409822"/>
     <use style="fill:#0000ff;stroke:#ffffff;stroke-width:0.357771;" x="226.711488" xlink:href="#m3065412490" y="78.387154"/>
     <use style="fill:#0000ff;stroke:#ffffff;stroke-width:0.357771;" x="228.384546" xlink:href="#m3065412490" y="78.425214"/>
     <use style="fill:#0000ff;stroke:#ffffff;stroke-width:0.357771;" x="230.296612" xlink:href="#m3065412490" y="78.097504"/>
     <use style="fill:#0000ff;stroke:#ffffff;stroke-width:0.357771;" x="231.96967" xlink:href="#m3065412490" y="77.914759"/>
     <use style="fill:#0000ff;stroke:#ffffff;stroke-width:0.357771;" x="233.881736" xlink:href="#m3065412490" y="77.748805"/>
     <use style="fill:#0000ff;stroke:#ffffff;stroke-width:0.357771;" x="235.554794" xlink:href="#m3065412490" y="77.645539"/>
     <use style="fill:#0000ff;stroke:#ffffff;stroke-width:0.357771;" x="237.46686" xlink:href="#m3065412490" y="77.387233"/>
     <use style="fill:#0000ff;stroke:#ffffff;stroke-width:0.357771;" x="239.139918" xlink:href="#m3065412490" y="77.414379"/>
     <use style="fill:#0000ff;stroke:#ffffff;stroke-width:0.357771;" x="241.051984" xlink:href="#m3065412490" y="77.365405"/>
     <use style="fill:#0000ff;stroke:#ffffff;stroke-width:0.357771;" x="242.725042" xlink:href="#m3065412490" y="77.128368"/>
     <use style="fill:#0000ff;stroke:#ffffff;stroke-width:0.357771;" x="244.637108" xlink:href="#m3065412490" y="77.00859"/>
     <use style="fill:#0000ff;stroke:#ffffff;stroke-width:0.357771;" x="246.310166" xlink:href="#m3065412490" y="76.688716"/>
     <use style="fill:#0000ff;stroke:#ffffff;stroke-width:0.357771;" x="248.222232" xlink:href="#m3065412490" y="76.684519"/>
     <use style="fill:#0000ff;stroke:#ffffff;stroke-width:0.357771;" x="249.89529" xlink:href="#m3065412490" y="76.419496"/>
     <use style="fill:#0000ff;stroke:#ffffff;stroke-width:0.357771;" x="251.807356" xlink:href="#m3065412490" y="76.347854"/>
     <use style="fill:#0000ff;stroke:#ffffff;stroke-width:0.357771;" x="253.480414" xlink:href="#m3065412490" y="75.977046"/>
     <use style="fill:#0000ff;stroke:#ffffff;stroke-width:0.357771;" x="255.39248" xlink:href="#m3065412490" y="76.017345"/>
     <use style="fill:#0000ff;stroke:#ffffff;stroke-width:0.357771;" x="257.065538" xlink:href="#m3065412490" y="75.598683"/>
     <use style="fill:#0000ff;stroke:#ffffff;stroke-width:0.357771;" x="258.977604" xlink:href="#m3065412490" y="75.547749"/>
    </g>
   </g>
   <g id="patch_3">
    <path d="M 42.675125 103.377325 
L 42.675125 26.417325 
" style="fill:none;stroke:#000000;stroke-linecap:square;stroke-linejoin:miter;"/>
   </g>
   <g id="patch_4">
    <path d="M 268.537935 103.377325 
L 268.537935 26.417325 
" style="fill:none;stroke:#000000;stroke-linecap:square;stroke-linejoin:miter;"/>
   </g>
   <g id="patch_5">
    <path d="M 42.675125 103.377325 
L 268.537935 103.377325 
" style="fill:none;stroke:#000000;stroke-linecap:square;stroke-linejoin:miter;"/>
   </g>
   <g id="patch_6">
    <path d="M 42.675125 26.417325 
L 268.537935 26.417325 
" style="fill:none;stroke:#000000;stroke-linecap:square;stroke-linejoin:miter;"/>
   </g>
   <g id="matplotlib.axis_1">
    <g id="xtick_1">
     <g id="line2d_2">
      <defs>
       <path d="M 0 0 
L 0 -4.8 
" id="m52764b692e" style="stroke:#000000;"/>
      </defs>
      <g>
       <use style="stroke:#000000;" x="72.551158" xlink:href="#m52764b692e" y="103.377325"/>
      </g>
     </g>
     <g id="line2d_3">
      <defs>
       <path d="M 0 0 
L 0 4.8 
" id="m31737287c4" style="stroke:#000000;"/>
      </defs>
      <g>
       <use style="stroke:#000000;" x="72.551158" xlink:href="#m31737287c4" y="26.417325"/>
      </g>
     </g>
     <g id="text_1">
      <!-- 600 -->
      <g transform="translate(64.152658 114.06395)scale(0.088 -0.088)">
       <defs>
        <path d="M 33.015625 40.375 
Q 26.375 40.375 22.484375 35.828125 
Q 18.609375 31.296875 18.609375 23.390625 
Q 18.609375 15.53125 22.484375 10.953125 
Q 26.375 6.390625 33.015625 6.390625 
Q 39.65625 6.390625 43.53125 10.953125 
Q 47.40625 15.53125 47.40625 23.390625 
Q 47.40625 31.296875 43.53125 35.828125 
Q 39.65625 40.375 33.015625 40.375 
z
M 52.59375 71.296875 
L 52.59375 62.3125 
Q 48.875 64.0625 45.09375 64.984375 
Q 41.3125 65.921875 37.59375 65.921875 
Q 27.828125 65.921875 22.671875 59.328125 
Q 17.53125 52.734375 16.796875 39.40625 
Q 19.671875 43.65625 24.015625 45.921875 
Q 28.375 48.1875 33.59375 48.1875 
Q 44.578125 48.1875 50.953125 41.515625 
Q 57.328125 34.859375 57.328125 23.390625 
Q 57.328125 12.15625 50.6875 5.359375 
Q 44.046875 -1.421875 33.015625 -1.421875 
Q 20.359375 -1.421875 13.671875 8.265625 
Q 6.984375 17.96875 6.984375 36.375 
Q 6.984375 53.65625 15.1875 63.9375 
Q 23.390625 74.21875 37.203125 74.21875 
Q 40.921875 74.21875 44.703125 73.484375 
Q 48.484375 72.75 52.59375 71.296875 
z
" id="DejaVuSans-54"/>
        <path d="M 31.78125 66.40625 
Q 24.171875 66.40625 20.328125 58.90625 
Q 16.5 51.421875 16.5 36.375 
Q 16.5 21.390625 20.328125 13.890625 
Q 24.171875 6.390625 31.78125 6.390625 
Q 39.453125 6.390625 43.28125 13.890625 
Q 47.125 21.390625 47.125 36.375 
Q 47.125 51.421875 43.28125 58.90625 
Q 39.453125 66.40625 31.78125 66.40625 
z
M 31.78125 74.21875 
Q 44.046875 74.21875 50.515625 64.515625 
Q 56.984375 54.828125 56.984375 36.375 
Q 56.984375 17.96875 50.515625 8.265625 
Q 44.046875 -1.421875 31.78125 -1.421875 
Q 19.53125 -1.421875 13.0625 8.265625 
Q 6.59375 17.96875 6.59375 36.375 
Q 6.59375 54.828125 13.0625 64.515625 
Q 19.53125 74.21875 31.78125 74.21875 
z
" id="DejaVuSans-48"/>
       </defs>
       <use xlink:href="#DejaVuSans-54"/>
       <use x="63.623047" xlink:href="#DejaVuSans-48"/>
       <use x="127.246094" xlink:href="#DejaVuSans-48"/>
      </g>
     </g>
    </g>
    <g id="xtick_2">
     <g id="line2d_4">
      <g>
       <use style="stroke:#000000;" x="120.352811" xlink:href="#m52764b692e" y="103.377325"/>
      </g>
     </g>
     <g id="line2d_5">
      <g>
       <use style="stroke:#000000;" x="120.352811" xlink:href="#m31737287c4" y="26.417325"/>
      </g>
     </g>
     <g id="text_2">
      <!-- 800 -->
      <g transform="translate(111.954311 114.06395)scale(0.088 -0.088)">
       <defs>
        <path d="M 31.78125 34.625 
Q 24.75 34.625 20.71875 30.859375 
Q 16.703125 27.09375 16.703125 20.515625 
Q 16.703125 13.921875 20.71875 10.15625 
Q 24.75 6.390625 31.78125 6.390625 
Q 38.8125 6.390625 42.859375 10.171875 
Q 46.921875 13.96875 46.921875 20.515625 
Q 46.921875 27.09375 42.890625 30.859375 
Q 38.875 34.625 31.78125 34.625 
z
M 21.921875 38.8125 
Q 15.578125 40.375 12.03125 44.71875 
Q 8.5 49.078125 8.5 55.328125 
Q 8.5 64.0625 14.71875 69.140625 
Q 20.953125 74.21875 31.78125 74.21875 
Q 42.671875 74.21875 48.875 69.140625 
Q 55.078125 64.0625 55.078125 55.328125 
Q 55.078125 49.078125 51.53125 44.71875 
Q 48 40.375 41.703125 38.8125 
Q 48.828125 37.15625 52.796875 32.3125 
Q 56.78125 27.484375 56.78125 20.515625 
Q 56.78125 9.90625 50.3125 4.234375 
Q 43.84375 -1.421875 31.78125 -1.421875 
Q 19.734375 -1.421875 13.25 4.234375 
Q 6.78125 9.90625 6.78125 20.515625 
Q 6.78125 27.484375 10.78125 32.3125 
Q 14.796875 37.15625 21.921875 38.8125 
z
M 18.3125 54.390625 
Q 18.3125 48.734375 21.84375 45.5625 
Q 25.390625 42.390625 31.78125 42.390625 
Q 38.140625 42.390625 41.71875 45.5625 
Q 45.3125 48.734375 45.3125 54.390625 
Q 45.3125 60.0625 41.71875 63.234375 
Q 38.140625 66.40625 31.78125 66.40625 
Q 25.390625 66.40625 21.84375 63.234375 
Q 18.3125 60.0625 18.3125 54.390625 
z
" id="DejaVuSans-56"/>
       </defs>
       <use xlink:href="#DejaVuSans-56"/>
       <use x="63.623047" xlink:href="#DejaVuSans-48"/>
       <use x="127.246094" xlink:href="#DejaVuSans-48"/>
      </g>
     </g>
    </g>
    <g id="xtick_3">
     <g id="line2d_6">
      <g>
       <use style="stroke:#000000;" x="168.154464" xlink:href="#m52764b692e" y="103.377325"/>
      </g>
     </g>
     <g id="line2d_7">
      <g>
       <use style="stroke:#000000;" x="168.154464" xlink:href="#m31737287c4" y="26.417325"/>
      </g>
     </g>
     <g id="text_3">
      <!-- 1000 -->
      <g transform="translate(156.956464 114.06395)scale(0.088 -0.088)">
       <defs>
        <path d="M 12.40625 8.296875 
L 28.515625 8.296875 
L 28.515625 63.921875 
L 10.984375 60.40625 
L 10.984375 69.390625 
L 28.421875 72.90625 
L 38.28125 72.90625 
L 38.28125 8.296875 
L 54.390625 8.296875 
L 54.390625 0 
L 12.40625 0 
z
" id="DejaVuSans-49"/>
       </defs>
       <use xlink:href="#DejaVuSans-49"/>
       <use x="63.623047" xlink:href="#DejaVuSans-48"/>
       <use x="127.246094" xlink:href="#DejaVuSans-48"/>
       <use x="190.869141" xlink:href="#DejaVuSans-48"/>
      </g>
     </g>
    </g>
    <g id="xtick_4">
     <g id="line2d_8">
      <g>
       <use style="stroke:#000000;" x="215.956116" xlink:href="#m52764b692e" y="103.377325"/>
      </g>
     </g>
     <g id="line2d_9">
      <g>
       <use style="stroke:#000000;" x="215.956116" xlink:href="#m31737287c4" y="26.417325"/>
      </g>
     </g>
     <g id="text_4">
      <!-- 1200 -->
      <g transform="translate(204.758116 114.06395)scale(0.088 -0.088)">
       <defs>
        <path d="M 19.1875 8.296875 
L 53.609375 8.296875 
L 53.609375 0 
L 7.328125 0 
L 7.328125 8.296875 
Q 12.9375 14.109375 22.625 23.890625 
Q 32.328125 33.6875 34.8125 36.53125 
Q 39.546875 41.84375 41.421875 45.53125 
Q 43.3125 49.21875 43.3125 52.78125 
Q 43.3125 58.59375 39.234375 62.25 
Q 35.15625 65.921875 28.609375 65.921875 
Q 23.96875 65.921875 18.8125 64.3125 
Q 13.671875 62.703125 7.8125 59.421875 
L 7.8125 69.390625 
Q 13.765625 71.78125 18.9375 73 
Q 24.125 74.21875 28.421875 74.21875 
Q 39.75 74.21875 46.484375 68.546875 
Q 53.21875 62.890625 53.21875 53.421875 
Q 53.21875 48.921875 51.53125 44.890625 
Q 49.859375 40.875 45.40625 35.40625 
Q 44.1875 33.984375 37.640625 27.21875 
Q 31.109375 20.453125 19.1875 8.296875 
z
" id="DejaVuSans-50"/>
       </defs>
       <use xlink:href="#DejaVuSans-49"/>
       <use x="63.623047" xlink:href="#DejaVuSans-50"/>
       <use x="127.246094" xlink:href="#DejaVuSans-48"/>
       <use x="190.869141" xlink:href="#DejaVuSans-48"/>
      </g>
     </g>
    </g>
    <g id="xtick_5">
     <g id="line2d_10">
      <g>
       <use style="stroke:#000000;" x="263.757769" xlink:href="#m52764b692e" y="103.377325"/>
      </g>
     </g>
     <g id="line2d_11">
      <g>
       <use style="stroke:#000000;" x="263.757769" xlink:href="#m31737287c4" y="26.417325"/>
      </g>
     </g>
     <g id="text_5">
      <!-- 1400 -->
      <g transform="translate(252.559769 114.06395)scale(0.088 -0.088)">
       <defs>
        <path d="M 37.796875 64.3125 
L 12.890625 25.390625 
L 37.796875 25.390625 
z
M 35.203125 72.90625 
L 47.609375 72.90625 
L 47.609375 25.390625 
L 58.015625 25.390625 
L 58.015625 17.1875 
L 47.609375 17.1875 
L 47.609375 0 
L 37.796875 0 
L 37.796875 17.1875 
L 4.890625 17.1875 
L 4.890625 26.703125 
z
" id="DejaVuSans-52"/>
       </defs>
       <use xlink:href="#DejaVuSans-49"/>
       <use x="63.623047" xlink:href="#DejaVuSans-52"/>
       <use x="127.246094" xlink:href="#DejaVuSans-48"/>
       <use x="190.869141" xlink:href="#DejaVuSans-48"/>
      </g>
     </g>
    </g>
    <g id="text_6">
     <!-- Core Frequency (MHz) -->
     <g transform="translate(93.25653 128.481575)scale(0.1 -0.1)">
      <defs>
       <path d="M 67 4 
Q 61.8125 1.3125 56.203125 -0.046875 
Q 50.59375 -1.421875 44.484375 -1.421875 
Q 26.265625 -1.421875 15.625 8.765625 
Q 4.984375 18.953125 4.984375 36.375 
Q 4.984375 53.859375 15.625 64.03125 
Q 26.265625 74.21875 44.484375 74.21875 
Q 50.59375 74.21875 56.203125 72.84375 
Q 61.8125 71.484375 67 68.796875 
L 67 53.71875 
Q 61.765625 57.28125 56.6875 58.9375 
Q 51.609375 60.59375 46 60.59375 
Q 35.9375 60.59375 30.171875 54.140625 
Q 24.421875 47.703125 24.421875 36.375 
Q 24.421875 25.09375 30.171875 18.640625 
Q 35.9375 12.203125 46 12.203125 
Q 51.609375 12.203125 56.6875 13.859375 
Q 61.765625 15.53125 67 19.09375 
z
" id="DejaVuSans-Bold-67"/>
       <path d="M 34.421875 43.5 
Q 28.609375 43.5 25.5625 39.328125 
Q 22.515625 35.15625 22.515625 27.296875 
Q 22.515625 19.4375 25.5625 15.25 
Q 28.609375 11.078125 34.421875 11.078125 
Q 40.140625 11.078125 43.15625 15.25 
Q 46.1875 19.4375 46.1875 27.296875 
Q 46.1875 35.15625 43.15625 39.328125 
Q 40.140625 43.5 34.421875 43.5 
z
M 34.421875 56 
Q 48.53125 56 56.46875 48.375 
Q 64.40625 40.765625 64.40625 27.296875 
Q 64.40625 13.8125 56.46875 6.1875 
Q 48.53125 -1.421875 34.421875 -1.421875 
Q 20.265625 -1.421875 12.28125 6.1875 
Q 4.296875 13.8125 4.296875 27.296875 
Q 4.296875 40.765625 12.28125 48.375 
Q 20.265625 56 34.421875 56 
z
" id="DejaVuSans-Bold-111"/>
       <path d="M 49.03125 39.796875 
Q 46.734375 40.875 44.453125 41.375 
Q 42.1875 41.890625 39.890625 41.890625 
Q 33.15625 41.890625 29.515625 37.5625 
Q 25.875 33.25 25.875 25.203125 
L 25.875 0 
L 8.40625 0 
L 8.40625 54.6875 
L 25.875 54.6875 
L 25.875 45.703125 
Q 29.25 51.078125 33.609375 53.53125 
Q 37.984375 56 44.09375 56 
Q 44.96875 56 45.984375 55.921875 
Q 47.015625 55.859375 48.96875 55.609375 
z
" id="DejaVuSans-Bold-114"/>
       <path d="M 62.984375 27.484375 
L 62.984375 22.515625 
L 22.125 22.515625 
Q 22.75 16.359375 26.5625 13.28125 
Q 30.375 10.203125 37.203125 10.203125 
Q 42.71875 10.203125 48.5 11.84375 
Q 54.296875 13.484375 60.40625 16.796875 
L 60.40625 3.328125 
Q 54.203125 0.984375 48 -0.21875 
Q 41.796875 -1.421875 35.59375 -1.421875 
Q 20.75 -1.421875 12.515625 6.125 
Q 4.296875 13.671875 4.296875 27.296875 
Q 4.296875 40.671875 12.375 48.328125 
Q 20.453125 56 34.625 56 
Q 47.515625 56 55.25 48.234375 
Q 62.984375 40.484375 62.984375 27.484375 
z
M 45.015625 33.296875 
Q 45.015625 38.28125 42.109375 41.328125 
Q 39.203125 44.390625 34.515625 44.390625 
Q 29.4375 44.390625 26.265625 41.53125 
Q 23.09375 38.671875 22.3125 33.296875 
z
" id="DejaVuSans-Bold-101"/>
       <path id="DejaVuSans-Bold-32"/>
       <path d="M 9.1875 72.90625 
L 59.90625 72.90625 
L 59.90625 58.6875 
L 27.984375 58.6875 
L 27.984375 45.125 
L 58.015625 45.125 
L 58.015625 30.90625 
L 27.984375 30.90625 
L 27.984375 0 
L 9.1875 0 
z
" id="DejaVuSans-Bold-70"/>
       <path d="M 34.078125 43.3125 
Q 28.515625 43.3125 25.5625 39.203125 
Q 22.609375 35.109375 22.609375 27.296875 
Q 22.609375 19.484375 25.5625 15.375 
Q 28.515625 11.28125 34.078125 11.28125 
Q 39.703125 11.28125 42.65625 15.375 
Q 45.609375 19.484375 45.609375 27.296875 
Q 45.609375 35.109375 42.65625 39.203125 
Q 39.703125 43.3125 34.078125 43.3125 
z
M 45.609375 7.90625 
Q 42 3.078125 37.640625 0.828125 
Q 33.296875 -1.421875 27.59375 -1.421875 
Q 17.484375 -1.421875 10.984375 6.609375 
Q 4.5 14.65625 4.5 27.296875 
Q 4.5 39.9375 10.984375 47.921875 
Q 17.484375 55.90625 27.59375 55.90625 
Q 33.296875 55.90625 37.640625 53.65625 
Q 42 51.421875 45.609375 46.578125 
L 45.609375 54.6875 
L 63.1875 54.6875 
L 63.1875 -20.796875 
L 45.609375 -20.796875 
z
" id="DejaVuSans-Bold-113"/>
       <path d="M 7.8125 21.296875 
L 7.8125 54.6875 
L 25.390625 54.6875 
L 25.390625 49.21875 
Q 25.390625 44.78125 25.34375 38.0625 
Q 25.296875 31.34375 25.296875 29.109375 
Q 25.296875 22.515625 25.640625 19.609375 
Q 25.984375 16.703125 26.8125 15.375 
Q 27.875 13.671875 29.609375 12.734375 
Q 31.34375 11.8125 33.59375 11.8125 
Q 39.0625 11.8125 42.1875 16.015625 
Q 45.3125 20.21875 45.3125 27.6875 
L 45.3125 54.6875 
L 62.796875 54.6875 
L 62.796875 0 
L 45.3125 0 
L 45.3125 7.90625 
Q 41.359375 3.125 36.9375 0.84375 
Q 32.515625 -1.421875 27.203125 -1.421875 
Q 17.71875 -1.421875 12.765625 4.390625 
Q 7.8125 10.203125 7.8125 21.296875 
z
" id="DejaVuSans-Bold-117"/>
       <path d="M 63.375 33.296875 
L 63.375 0 
L 45.796875 0 
L 45.796875 5.421875 
L 45.796875 25.484375 
Q 45.796875 32.5625 45.484375 35.25 
Q 45.171875 37.9375 44.390625 39.203125 
Q 43.359375 40.921875 41.59375 41.875 
Q 39.84375 42.828125 37.59375 42.828125 
Q 32.125 42.828125 29 38.59375 
Q 25.875 34.375 25.875 26.90625 
L 25.875 0 
L 8.40625 0 
L 8.40625 54.6875 
L 25.875 54.6875 
L 25.875 46.6875 
Q 29.828125 51.46875 34.265625 53.734375 
Q 38.71875 56 44.09375 56 
Q 53.5625 56 58.46875 50.1875 
Q 63.375 44.390625 63.375 33.296875 
z
" id="DejaVuSans-Bold-110"/>
       <path d="M 52.59375 52.984375 
L 52.59375 38.71875 
Q 49.03125 41.15625 45.4375 42.328125 
Q 41.84375 43.5 37.984375 43.5 
Q 30.671875 43.5 26.59375 39.234375 
Q 22.515625 34.96875 22.515625 27.296875 
Q 22.515625 19.625 26.59375 15.34375 
Q 30.671875 11.078125 37.984375 11.078125 
Q 42.09375 11.078125 45.78125 12.296875 
Q 49.46875 13.53125 52.59375 15.921875 
L 52.59375 1.609375 
Q 48.484375 0.09375 44.265625 -0.65625 
Q 40.046875 -1.421875 35.796875 -1.421875 
Q 21 -1.421875 12.640625 6.171875 
Q 4.296875 13.765625 4.296875 27.296875 
Q 4.296875 40.828125 12.640625 48.40625 
Q 21 56 35.796875 56 
Q 40.09375 56 44.265625 55.25 
Q 48.4375 54.5 52.59375 52.984375 
z
" id="DejaVuSans-Bold-99"/>
       <path d="M 1.21875 54.6875 
L 18.703125 54.6875 
L 33.40625 17.578125 
L 45.90625 54.6875 
L 63.375 54.6875 
L 40.375 -5.171875 
Q 36.921875 -14.3125 32.296875 -17.9375 
Q 27.6875 -21.578125 20.125 -21.578125 
L 10.015625 -21.578125 
L 10.015625 -10.109375 
L 15.484375 -10.109375 
Q 19.921875 -10.109375 21.9375 -8.6875 
Q 23.96875 -7.28125 25.09375 -3.609375 
L 25.59375 -2.09375 
z
" id="DejaVuSans-Bold-121"/>
       <path d="M 37.703125 -13.1875 
L 23.1875 -13.1875 
Q 15.71875 -1.125 12.15625 9.734375 
Q 8.59375 20.609375 8.59375 31.296875 
Q 8.59375 42 12.171875 52.953125 
Q 15.765625 63.921875 23.1875 75.875 
L 37.703125 75.875 
Q 31.453125 64.3125 28.328125 53.25 
Q 25.203125 42.1875 25.203125 31.390625 
Q 25.203125 20.609375 28.296875 9.515625 
Q 31.390625 -1.5625 37.703125 -13.1875 
z
" id="DejaVuSans-Bold-40"/>
       <path d="M 9.1875 72.90625 
L 33.109375 72.90625 
L 49.703125 33.890625 
L 66.40625 72.90625 
L 90.28125 72.90625 
L 90.28125 0 
L 72.515625 0 
L 72.515625 53.328125 
L 55.71875 14.015625 
L 43.796875 14.015625 
L 27 53.328125 
L 27 0 
L 9.1875 0 
z
" id="DejaVuSans-Bold-77"/>
       <path d="M 9.1875 72.90625 
L 27.984375 72.90625 
L 27.984375 45.125 
L 55.71875 45.125 
L 55.71875 72.90625 
L 74.515625 72.90625 
L 74.515625 0 
L 55.71875 0 
L 55.71875 30.90625 
L 27.984375 30.90625 
L 27.984375 0 
L 9.1875 0 
z
" id="DejaVuSans-Bold-72"/>
       <path d="M 5.71875 54.6875 
L 53.421875 54.6875 
L 53.421875 42.484375 
L 24.609375 12.5 
L 53.421875 12.5 
L 53.421875 0 
L 4.5 0 
L 4.5 12.203125 
L 33.296875 42.1875 
L 5.71875 42.1875 
z
" id="DejaVuSans-Bold-122"/>
       <path d="M 8.015625 -13.1875 
Q 14.265625 -1.5625 17.390625 9.515625 
Q 20.515625 20.609375 20.515625 31.390625 
Q 20.515625 42.1875 17.390625 53.25 
Q 14.265625 64.3125 8.015625 75.875 
L 22.515625 75.875 
Q 29.9375 63.921875 33.515625 52.953125 
Q 37.109375 42 37.109375 31.296875 
Q 37.109375 20.609375 33.546875 9.734375 
Q 29.984375 -1.125 22.515625 -13.1875 
z
" id="DejaVuSans-Bold-41"/>
      </defs>
      <use xlink:href="#DejaVuSans-Bold-67"/>
      <use x="73.388672" xlink:href="#DejaVuSans-Bold-111"/>
      <use x="142.089844" xlink:href="#DejaVuSans-Bold-114"/>
      <use x="191.40625" xlink:href="#DejaVuSans-Bold-101"/>
      <use x="259.228516" xlink:href="#DejaVuSans-Bold-32"/>
      <use x="294.042969" xlink:href="#DejaVuSans-Bold-70"/>
      <use x="355.978516" xlink:href="#DejaVuSans-Bold-114"/>
      <use x="405.294922" xlink:href="#DejaVuSans-Bold-101"/>
      <use x="473.117188" xlink:href="#DejaVuSans-Bold-113"/>
      <use x="544.699219" xlink:href="#DejaVuSans-Bold-117"/>
      <use x="615.890625" xlink:href="#DejaVuSans-Bold-101"/>
      <use x="683.712891" xlink:href="#DejaVuSans-Bold-110"/>
      <use x="754.904297" xlink:href="#DejaVuSans-Bold-99"/>
      <use x="814.181641" xlink:href="#DejaVuSans-Bold-121"/>
      <use x="879.367188" xlink:href="#DejaVuSans-Bold-32"/>
      <use x="914.181641" xlink:href="#DejaVuSans-Bold-40"/>
      <use x="959.884766" xlink:href="#DejaVuSans-Bold-77"/>
      <use x="1059.396484" xlink:href="#DejaVuSans-Bold-72"/>
      <use x="1143.087891" xlink:href="#DejaVuSans-Bold-122"/>
      <use x="1201.291016" xlink:href="#DejaVuSans-Bold-41"/>
     </g>
    </g>
   </g>
   <g id="matplotlib.axis_2">
    <g id="ytick_1">
     <g id="line2d_12">
      <defs>
       <path d="M 0 0 
L 4.8 0 
" id="m8062ff8887" style="stroke:#000000;"/>
      </defs>
      <g>
       <use style="stroke:#000000;" x="42.675125" xlink:href="#m8062ff8887" y="103.377325"/>
      </g>
     </g>
     <g id="line2d_13">
      <defs>
       <path d="M 0 0 
L -4.8 0 
" id="m57a29fa2b0" style="stroke:#000000;"/>
      </defs>
      <g>
       <use style="stroke:#000000;" x="268.537935" xlink:href="#m57a29fa2b0" y="103.377325"/>
      </g>
     </g>
     <g id="text_7">
      <!-- 0 -->
      <g transform="translate(33.076125 105.805575)scale(0.088 -0.088)">
       <use xlink:href="#DejaVuSans-48"/>
      </g>
     </g>
    </g>
    <g id="ytick_2">
     <g id="line2d_14">
      <g>
       <use style="stroke:#000000;" x="42.675125" xlink:href="#m8062ff8887" y="89.384598"/>
      </g>
     </g>
     <g id="line2d_15">
      <g>
       <use style="stroke:#000000;" x="268.537935" xlink:href="#m57a29fa2b0" y="89.384598"/>
      </g>
     </g>
     <g id="text_8">
      <!-- 50 -->
      <g transform="translate(27.477125 91.812848)scale(0.088 -0.088)">
       <defs>
        <path d="M 10.796875 72.90625 
L 49.515625 72.90625 
L 49.515625 64.59375 
L 19.828125 64.59375 
L 19.828125 46.734375 
Q 21.96875 47.46875 24.109375 47.828125 
Q 26.265625 48.1875 28.421875 48.1875 
Q 40.625 48.1875 47.75 41.5 
Q 54.890625 34.8125 54.890625 23.390625 
Q 54.890625 11.625 47.5625 5.09375 
Q 40.234375 -1.421875 26.90625 -1.421875 
Q 22.3125 -1.421875 17.546875 -0.640625 
Q 12.796875 0.140625 7.71875 1.703125 
L 7.71875 11.625 
Q 12.109375 9.234375 16.796875 8.0625 
Q 21.484375 6.890625 26.703125 6.890625 
Q 35.15625 6.890625 40.078125 11.328125 
Q 45.015625 15.765625 45.015625 23.390625 
Q 45.015625 31 40.078125 35.4375 
Q 35.15625 39.890625 26.703125 39.890625 
Q 22.75 39.890625 18.8125 39.015625 
Q 14.890625 38.140625 10.796875 36.28125 
z
" id="DejaVuSans-53"/>
       </defs>
       <use xlink:href="#DejaVuSans-53"/>
       <use x="63.623047" xlink:href="#DejaVuSans-48"/>
      </g>
     </g>
    </g>
    <g id="ytick_3">
     <g id="line2d_16">
      <g>
       <use style="stroke:#000000;" x="42.675125" xlink:href="#m8062ff8887" y="75.39187"/>
      </g>
     </g>
     <g id="line2d_17">
      <g>
       <use style="stroke:#000000;" x="268.537935" xlink:href="#m57a29fa2b0" y="75.39187"/>
      </g>
     </g>
     <g id="text_9">
      <!-- 100 -->
      <g transform="translate(21.878125 77.82012)scale(0.088 -0.088)">
       <use xlink:href="#DejaVuSans-49"/>
       <use x="63.623047" xlink:href="#DejaVuSans-48"/>
       <use x="127.246094" xlink:href="#DejaVuSans-48"/>
      </g>
     </g>
    </g>
    <g id="ytick_4">
     <g id="line2d_18">
      <g>
       <use style="stroke:#000000;" x="42.675125" xlink:href="#m8062ff8887" y="61.399143"/>
      </g>
     </g>
     <g id="line2d_19">
      <g>
       <use style="stroke:#000000;" x="268.537935" xlink:href="#m57a29fa2b0" y="61.399143"/>
      </g>
     </g>
     <g id="text_10">
      <!-- 150 -->
      <g transform="translate(21.878125 63.827393)scale(0.088 -0.088)">
       <use xlink:href="#DejaVuSans-49"/>
       <use x="63.623047" xlink:href="#DejaVuSans-53"/>
       <use x="127.246094" xlink:href="#DejaVuSans-48"/>
      </g>
     </g>
    </g>
    <g id="ytick_5">
     <g id="line2d_20">
      <g>
       <use style="stroke:#000000;" x="42.675125" xlink:href="#m8062ff8887" y="47.406416"/>
      </g>
     </g>
     <g id="line2d_21">
      <g>
       <use style="stroke:#000000;" x="268.537935" xlink:href="#m57a29fa2b0" y="47.406416"/>
      </g>
     </g>
     <g id="text_11">
      <!-- 200 -->
      <g transform="translate(21.878125 49.834666)scale(0.088 -0.088)">
       <use xlink:href="#DejaVuSans-50"/>
       <use x="63.623047" xlink:href="#DejaVuSans-48"/>
       <use x="127.246094" xlink:href="#DejaVuSans-48"/>
      </g>
     </g>
    </g>
    <g id="ytick_6">
     <g id="line2d_22">
      <g>
       <use style="stroke:#000000;" x="42.675125" xlink:href="#m8062ff8887" y="33.413689"/>
      </g>
     </g>
     <g id="line2d_23">
      <g>
       <use style="stroke:#000000;" x="268.537935" xlink:href="#m57a29fa2b0" y="33.413689"/>
      </g>
     </g>
     <g id="text_12">
      <!-- 250 -->
      <g transform="translate(21.878125 35.841939)scale(0.088 -0.088)">
       <use xlink:href="#DejaVuSans-50"/>
       <use x="63.623047" xlink:href="#DejaVuSans-53"/>
       <use x="127.246094" xlink:href="#DejaVuSans-48"/>
      </g>
     </g>
    </g>
    <g id="text_13">
     <!-- Power (W) -->
     <g transform="translate(14.798437 94.299669)rotate(-90)scale(0.1 -0.1)">
      <defs>
       <path d="M 9.1875 72.90625 
L 40.375 72.90625 
Q 54.296875 72.90625 61.734375 66.71875 
Q 69.1875 60.546875 69.1875 49.125 
Q 69.1875 37.640625 61.734375 31.46875 
Q 54.296875 25.296875 40.375 25.296875 
L 27.984375 25.296875 
L 27.984375 0 
L 9.1875 0 
z
M 27.984375 59.28125 
L 27.984375 38.921875 
L 38.375 38.921875 
Q 43.84375 38.921875 46.828125 41.578125 
Q 49.8125 44.234375 49.8125 49.125 
Q 49.8125 54 46.828125 56.640625 
Q 43.84375 59.28125 38.375 59.28125 
z
" id="DejaVuSans-Bold-80"/>
       <path d="M 3.515625 54.6875 
L 20.515625 54.6875 
L 29.6875 17 
L 38.921875 54.6875 
L 53.515625 54.6875 
L 62.703125 17.390625 
L 71.921875 54.6875 
L 88.921875 54.6875 
L 74.515625 0 
L 55.421875 0 
L 46.1875 37.59375 
L 37.015625 0 
L 17.921875 0 
z
" id="DejaVuSans-Bold-119"/>
       <path d="M 2.984375 72.90625 
L 21 72.90625 
L 33.59375 19.921875 
L 46.09375 72.90625 
L 64.203125 72.90625 
L 76.703125 19.921875 
L 89.3125 72.90625 
L 107.171875 72.90625 
L 89.984375 0 
L 68.3125 0 
L 55.078125 55.421875 
L 42 0 
L 20.3125 0 
z
" id="DejaVuSans-Bold-87"/>
      </defs>
      <use xlink:href="#DejaVuSans-Bold-80"/>
      <use x="73.291016" xlink:href="#DejaVuSans-Bold-111"/>
      <use x="141.992188" xlink:href="#DejaVuSans-Bold-119"/>
      <use x="234.375" xlink:href="#DejaVuSans-Bold-101"/>
      <use x="302.197266" xlink:href="#DejaVuSans-Bold-114"/>
      <use x="351.513672" xlink:href="#DejaVuSans-Bold-32"/>
      <use x="386.328125" xlink:href="#DejaVuSans-Bold-40"/>
      <use x="432.03125" xlink:href="#DejaVuSans-Bold-87"/>
      <use x="542.333984" xlink:href="#DejaVuSans-Bold-41"/>
     </g>
    </g>
   </g>
   <g id="legend_1">
    <g id="patch_7">
     <path d="M 42.675125 24.878125 
L 268.537935 24.878125 
L 268.537935 7.2 
L 42.675125 7.2 
z
" style="fill:#ffffff;stroke:#000000;stroke-linejoin:miter;stroke-width:0.8;"/>
    </g>
    <g id="line2d_24">
     <path d="M 49.675125 15.298437 
L 63.675125 15.298437 
" style="fill:none;stroke:#008000;stroke-dasharray:6,6;stroke-dashoffset:0;"/>
    </g>
    <g id="line2d_25"/>
    <g id="text_14">
     <!-- TDP -->
     <g transform="translate(74.675125 18.798437)scale(0.1 -0.1)">
      <defs>
       <path d="M -0.296875 72.90625 
L 61.375 72.90625 
L 61.375 64.59375 
L 35.5 64.59375 
L 35.5 0 
L 25.59375 0 
L 25.59375 64.59375 
L -0.296875 64.59375 
z
" id="DejaVuSans-84"/>
       <path d="M 19.671875 64.796875 
L 19.671875 8.109375 
L 31.59375 8.109375 
Q 46.6875 8.109375 53.6875 14.9375 
Q 60.6875 21.78125 60.6875 36.53125 
Q 60.6875 51.171875 53.6875 57.984375 
Q 46.6875 64.796875 31.59375 64.796875 
z
M 9.8125 72.90625 
L 30.078125 72.90625 
Q 51.265625 72.90625 61.171875 64.09375 
Q 71.09375 55.28125 71.09375 36.53125 
Q 71.09375 17.671875 61.125 8.828125 
Q 51.171875 0 30.078125 0 
L 9.8125 0 
z
" id="DejaVuSans-68"/>
       <path d="M 19.671875 64.796875 
L 19.671875 37.40625 
L 32.078125 37.40625 
Q 38.96875 37.40625 42.71875 40.96875 
Q 46.484375 44.53125 46.484375 51.125 
Q 46.484375 57.671875 42.71875 61.234375 
Q 38.96875 64.796875 32.078125 64.796875 
z
M 9.8125 72.90625 
L 32.078125 72.90625 
Q 44.34375 72.90625 50.609375 67.359375 
Q 56.890625 61.8125 56.890625 51.125 
Q 56.890625 40.328125 50.609375 34.8125 
Q 44.34375 29.296875 32.078125 29.296875 
L 19.671875 29.296875 
L 19.671875 0 
L 9.8125 0 
z
" id="DejaVuSans-80"/>
      </defs>
      <use xlink:href="#DejaVuSans-84"/>
      <use x="61.083984" xlink:href="#DejaVuSans-68"/>
      <use x="138.085938" xlink:href="#DejaVuSans-80"/>
     </g>
    </g>
    <g id="PathCollection_3">
     <path d="M 114.417467 19.335715 
L 116.314834 16.173437 
L 114.417467 13.01116 
L 112.520101 16.173437 
z
" style="fill:#ff0000;stroke:#ffffff;stroke-width:0.357771;"/>
     <path d="M 121.417467 18.460715 
L 123.314834 15.298437 
L 121.417467 12.13616 
L 119.520101 15.298437 
z
" style="fill:#ff0000;stroke:#ffffff;stroke-width:0.357771;"/>
     <path d="M 128.417467 19.773215 
L 130.314834 16.610937 
L 128.417467 13.44866 
L 126.520101 16.610937 
z
" style="fill:#ff0000;stroke:#ffffff;stroke-width:0.357771;"/>
    </g>
    <g id="text_15">
     <!-- DGEMM -->
     <g transform="translate(139.417467 18.798437)scale(0.1 -0.1)">
      <defs>
       <path d="M 59.515625 10.40625 
L 59.515625 29.984375 
L 43.40625 29.984375 
L 43.40625 38.09375 
L 69.28125 38.09375 
L 69.28125 6.78125 
Q 63.578125 2.734375 56.6875 0.65625 
Q 49.8125 -1.421875 42 -1.421875 
Q 24.90625 -1.421875 15.25 8.5625 
Q 5.609375 18.5625 5.609375 36.375 
Q 5.609375 54.25 15.25 64.234375 
Q 24.90625 74.21875 42 74.21875 
Q 49.125 74.21875 55.546875 72.453125 
Q 61.96875 70.703125 67.390625 67.28125 
L 67.390625 56.78125 
Q 61.921875 61.421875 55.765625 63.765625 
Q 49.609375 66.109375 42.828125 66.109375 
Q 29.4375 66.109375 22.71875 58.640625 
Q 16.015625 51.171875 16.015625 36.375 
Q 16.015625 21.625 22.71875 14.15625 
Q 29.4375 6.6875 42.828125 6.6875 
Q 48.046875 6.6875 52.140625 7.59375 
Q 56.25 8.5 59.515625 10.40625 
z
" id="DejaVuSans-71"/>
       <path d="M 9.8125 72.90625 
L 55.90625 72.90625 
L 55.90625 64.59375 
L 19.671875 64.59375 
L 19.671875 43.015625 
L 54.390625 43.015625 
L 54.390625 34.71875 
L 19.671875 34.71875 
L 19.671875 8.296875 
L 56.78125 8.296875 
L 56.78125 0 
L 9.8125 0 
z
" id="DejaVuSans-69"/>
       <path d="M 9.8125 72.90625 
L 24.515625 72.90625 
L 43.109375 23.296875 
L 61.8125 72.90625 
L 76.515625 72.90625 
L 76.515625 0 
L 66.890625 0 
L 66.890625 64.015625 
L 48.09375 14.015625 
L 38.1875 14.015625 
L 19.390625 64.015625 
L 19.390625 0 
L 9.8125 0 
z
" id="DejaVuSans-77"/>
      </defs>
      <use xlink:href="#DejaVuSans-68"/>
      <use x="77.001953" xlink:href="#DejaVuSans-71"/>
      <use x="154.492188" xlink:href="#DejaVuSans-69"/>
      <use x="217.675781" xlink:href="#DejaVuSans-77"/>
      <use x="303.955078" xlink:href="#DejaVuSans-77"/>
     </g>
    </g>
    <g id="PathCollection_4">
     <path d="M 198.345747 17.291471 
C 198.642253 17.291471 198.926655 17.173668 199.136316 16.964007 
C 199.345978 16.754345 199.463781 16.469944 199.463781 16.173437 
C 199.463781 15.876931 199.345978 15.59253 199.136316 15.382868 
C 198.926655 15.173207 198.642253 15.055404 198.345747 15.055404 
C 198.049241 15.055404 197.764839 15.173207 197.555178 15.382868 
C 197.345516 15.59253 197.227713 15.876931 197.227713 16.173437 
C 197.227713 16.469944 197.345516 16.754345 197.555178 16.964007 
C 197.764839 17.173668 198.049241 17.291471 198.345747 17.291471 
z
" style="fill:#0000ff;stroke:#ffffff;stroke-width:0.357771;"/>
     <path d="M 205.345747 16.416471 
C 205.642253 16.416471 205.926655 16.298668 206.136316 16.089007 
C 206.345978 15.879345 206.463781 15.594944 206.463781 15.298437 
C 206.463781 15.001931 206.345978 14.71753 206.136316 14.507868 
C 205.926655 14.298207 205.642253 14.180404 205.345747 14.180404 
C 205.049241 14.180404 204.764839 14.298207 204.555178 14.507868 
C 204.345516 14.71753 204.227713 15.001931 204.227713 15.298437 
C 204.227713 15.594944 204.345516 15.879345 204.555178 16.089007 
C 204.764839 16.298668 205.049241 16.416471 205.345747 16.416471 
z
" style="fill:#0000ff;stroke:#ffffff;stroke-width:0.357771;"/>
     <path d="M 212.345747 17.728971 
C 212.642253 17.728971 212.926655 17.611168 213.136316 17.401507 
C 213.345978 17.191845 213.463781 16.907444 213.463781 16.610937 
C 213.463781 16.314431 213.345978 16.03003 213.136316 15.820368 
C 212.926655 15.610707 212.642253 15.492904 212.345747 15.492904 
C 212.049241 15.492904 211.764839 15.610707 211.555178 15.820368 
C 211.345516 16.03003 211.227713 16.314431 211.227713 16.610937 
C 211.227713 16.907444 211.345516 17.191845 211.555178 17.401507 
C 211.764839 17.611168 212.049241 17.728971 212.345747 17.728971 
z
" style="fill:#0000ff;stroke:#ffffff;stroke-width:0.357771;"/>
    </g>
    <g id="text_16">
     <!-- STREAM -->
     <g transform="translate(223.345747 18.798437)scale(0.1 -0.1)">
      <defs>
       <path d="M 53.515625 70.515625 
L 53.515625 60.890625 
Q 47.90625 63.578125 42.921875 64.890625 
Q 37.9375 66.21875 33.296875 66.21875 
Q 25.25 66.21875 20.875 63.09375 
Q 16.5 59.96875 16.5 54.203125 
Q 16.5 49.359375 19.40625 46.890625 
Q 22.3125 44.4375 30.421875 42.921875 
L 36.375 41.703125 
Q 47.40625 39.59375 52.65625 34.296875 
Q 57.90625 29 57.90625 20.125 
Q 57.90625 9.515625 50.796875 4.046875 
Q 43.703125 -1.421875 29.984375 -1.421875 
Q 24.8125 -1.421875 18.96875 -0.25 
Q 13.140625 0.921875 6.890625 3.21875 
L 6.890625 13.375 
Q 12.890625 10.015625 18.65625 8.296875 
Q 24.421875 6.59375 29.984375 6.59375 
Q 38.421875 6.59375 43.015625 9.90625 
Q 47.609375 13.234375 47.609375 19.390625 
Q 47.609375 24.75 44.3125 27.78125 
Q 41.015625 30.8125 33.5 32.328125 
L 27.484375 33.5 
Q 16.453125 35.6875 11.515625 40.375 
Q 6.59375 45.0625 6.59375 53.421875 
Q 6.59375 63.09375 13.40625 68.65625 
Q 20.21875 74.21875 32.171875 74.21875 
Q 37.3125 74.21875 42.625 73.28125 
Q 47.953125 72.359375 53.515625 70.515625 
z
" id="DejaVuSans-83"/>
       <path d="M 44.390625 34.1875 
Q 47.5625 33.109375 50.5625 29.59375 
Q 53.5625 26.078125 56.59375 19.921875 
L 66.609375 0 
L 56 0 
L 46.6875 18.703125 
Q 43.0625 26.03125 39.671875 28.421875 
Q 36.28125 30.8125 30.421875 30.8125 
L 19.671875 30.8125 
L 19.671875 0 
L 9.8125 0 
L 9.8125 72.90625 
L 32.078125 72.90625 
Q 44.578125 72.90625 50.734375 67.671875 
Q 56.890625 62.453125 56.890625 51.90625 
Q 56.890625 45.015625 53.6875 40.46875 
Q 50.484375 35.9375 44.390625 34.1875 
z
M 19.671875 64.796875 
L 19.671875 38.921875 
L 32.078125 38.921875 
Q 39.203125 38.921875 42.84375 42.21875 
Q 46.484375 45.515625 46.484375 51.90625 
Q 46.484375 58.296875 42.84375 61.546875 
Q 39.203125 64.796875 32.078125 64.796875 
z
" id="DejaVuSans-82"/>
       <path d="M 34.1875 63.1875 
L 20.796875 26.90625 
L 47.609375 26.90625 
z
M 28.609375 72.90625 
L 39.796875 72.90625 
L 67.578125 0 
L 57.328125 0 
L 50.6875 18.703125 
L 17.828125 18.703125 
L 11.1875 0 
L 0.78125 0 
z
" id="DejaVuSans-65"/>
      </defs>
      <use xlink:href="#DejaVuSans-83"/>
      <use x="63.476562" xlink:href="#DejaVuSans-84"/>
      <use x="124.560547" xlink:href="#DejaVuSans-82"/>
      <use x="194.042969" xlink:href="#DejaVuSans-69"/>
      <use x="257.226562" xlink:href="#DejaVuSans-65"/>
      <use x="325.634766" xlink:href="#DejaVuSans-77"/>
     </g>
    </g>
   </g>
  </g>
 </g>
 <defs>
  <clipPath id="pa6b43db8f6">
   <rect height="76.96" width="225.86281" x="42.675125" y="26.417325"/>
  </clipPath>
 </defs>
</svg>
