<?xml version="1.0" encoding="utf-8" standalone="no"?>
<!DOCTYPE svg PUBLIC "-//W3C//DTD SVG 1.1//EN"
  "http://www.w3.org/Graphics/SVG/1.1/DTD/svg11.dtd">
<!-- Created with matplotlib (https://matplotlib.org/) -->
<svg height="208.920688pt" version="1.1" viewBox="0 0 244.57375 208.920688" width="244.57375pt" xmlns="http://www.w3.org/2000/svg" xmlns:xlink="http://www.w3.org/1999/xlink">
 <metadata>
  <rdf:RDF xmlns:cc="http://creativecommons.org/ns#" xmlns:dc="http://purl.org/dc/elements/1.1/" xmlns:rdf="http://www.w3.org/1999/02/22-rdf-syntax-ns#">
   <cc:Work>
    <dc:type rdf:resource="http://purl.org/dc/dcmitype/StillImage"/>
    <dc:date>2021-10-22T16:12:53.849355</dc:date>
    <dc:format>image/svg+xml</dc:format>
    <dc:creator>
     <cc:Agent>
      <dc:title>Matplotlib v3.3.4, https://matplotlib.org/</dc:title>
     </cc:Agent>
    </dc:creator>
   </cc:Work>
  </rdf:RDF>
 </metadata>
 <defs>
  <style type="text/css">*{stroke-linecap:butt;stroke-linejoin:round;}</style>
 </defs>
 <g id="figure_1">
  <g id="patch_1">
   <path d="M 0 208.920688 
L 244.57375 208.920688 
L 244.57375 0 
L 0 0 
z
" style="fill:none;"/>
  </g>
  <g id="axes_1">
   <g id="patch_2">
    <path d="M 44.61075 171.622375 
L 231.77475 171.622375 
L 231.77475 11.458375 
L 44.61075 11.458375 
z
" style="fill:none;"/>
   </g>
   <g id="PathCollection_1">
    <defs>
     <path d="M -0 3.162278 
L 1.897367 0 
L 0 -3.162278 
L -1.897367 -0 
z
" id="m5d008bfa69" style="stroke:#ffffff;stroke-width:0.357771;"/>
    </defs>
    <g clip-path="url(#p9798ba8b71)">
     <use style="fill:#0000ff;stroke:#ffffff;stroke-width:0.357771;" x="200.58075" xlink:href="#m5d008bfa69" y="161.218106"/>
     <use style="fill:#0000ff;stroke:#ffffff;stroke-width:0.357771;" x="138.19275" xlink:href="#m5d008bfa69" y="146.13193"/>
     <use style="fill:#0000ff;stroke:#ffffff;stroke-width:0.357771;" x="138.19275" xlink:href="#m5d008bfa69" y="145.508372"/>
     <use style="fill:#0000ff;stroke:#ffffff;stroke-width:0.357771;" x="138.19275" xlink:href="#m5d008bfa69" y="145.610446"/>
     <use style="fill:#0000ff;stroke:#ffffff;stroke-width:0.357771;" x="138.19275" xlink:href="#m5d008bfa69" y="144.968339"/>
     <use style="fill:#0000ff;stroke:#ffffff;stroke-width:0.357771;" x="138.19275" xlink:href="#m5d008bfa69" y="144.436608"/>
     <use style="fill:#0000ff;stroke:#ffffff;stroke-width:0.357771;" x="138.19275" xlink:href="#m5d008bfa69" y="144.763561"/>
     <use style="fill:#0000ff;stroke:#ffffff;stroke-width:0.357771;" x="138.19275" xlink:href="#m5d008bfa69" y="144.249743"/>
     <use style="fill:#0000ff;stroke:#ffffff;stroke-width:0.357771;" x="138.19275" xlink:href="#m5d008bfa69" y="144.333873"/>
     <use style="fill:#0000ff;stroke:#ffffff;stroke-width:0.357771;" x="138.19275" xlink:href="#m5d008bfa69" y="142.104703"/>
     <use style="fill:#0000ff;stroke:#ffffff;stroke-width:0.357771;" x="138.19275" xlink:href="#m5d008bfa69" y="142.061488"/>
     <use style="fill:#0000ff;stroke:#ffffff;stroke-width:0.357771;" x="138.19275" xlink:href="#m5d008bfa69" y="141.942705"/>
     <use style="fill:#0000ff;stroke:#ffffff;stroke-width:0.357771;" x="129.280179" xlink:href="#m5d008bfa69" y="141.238139"/>
     <use style="fill:#0000ff;stroke:#ffffff;stroke-width:0.357771;" x="124.823893" xlink:href="#m5d008bfa69" y="138.634277"/>
     <use style="fill:#0000ff;stroke:#ffffff;stroke-width:0.357771;" x="129.280179" xlink:href="#m5d008bfa69" y="138.493557"/>
     <use style="fill:#0000ff;stroke:#ffffff;stroke-width:0.357771;" x="124.823893" xlink:href="#m5d008bfa69" y="137.905997"/>
     <use style="fill:#0000ff;stroke:#ffffff;stroke-width:0.357771;" x="124.823893" xlink:href="#m5d008bfa69" y="138.462933"/>
     <use style="fill:#0000ff;stroke:#ffffff;stroke-width:0.357771;" x="120.367607" xlink:href="#m5d008bfa69" y="134.025107"/>
     <use style="fill:#0000ff;stroke:#ffffff;stroke-width:0.357771;" x="115.911321" xlink:href="#m5d008bfa69" y="134.279743"/>
     <use style="fill:#0000ff;stroke:#ffffff;stroke-width:0.357771;" x="120.367607" xlink:href="#m5d008bfa69" y="133.212515"/>
     <use style="fill:#0000ff;stroke:#ffffff;stroke-width:0.357771;" x="111.455036" xlink:href="#m5d008bfa69" y="133.326357"/>
     <use style="fill:#0000ff;stroke:#ffffff;stroke-width:0.357771;" x="111.455036" xlink:href="#m5d008bfa69" y="130.098801"/>
     <use style="fill:#0000ff;stroke:#ffffff;stroke-width:0.357771;" x="111.455036" xlink:href="#m5d008bfa69" y="129.500264"/>
     <use style="fill:#0000ff;stroke:#ffffff;stroke-width:0.357771;" x="111.455036" xlink:href="#m5d008bfa69" y="128.95829"/>
     <use style="fill:#0000ff;stroke:#ffffff;stroke-width:0.357771;" x="111.455036" xlink:href="#m5d008bfa69" y="129.197479"/>
     <use style="fill:#0000ff;stroke:#ffffff;stroke-width:0.357771;" x="98.086179" xlink:href="#m5d008bfa69" y="122.456356"/>
     <use style="fill:#0000ff;stroke:#ffffff;stroke-width:0.357771;" x="98.086179" xlink:href="#m5d008bfa69" y="120.994009"/>
     <use style="fill:#0000ff;stroke:#ffffff;stroke-width:0.357771;" x="98.086179" xlink:href="#m5d008bfa69" y="123.930353"/>
     <use style="fill:#0000ff;stroke:#ffffff;stroke-width:0.357771;" x="98.086179" xlink:href="#m5d008bfa69" y="120.703745"/>
     <use style="fill:#0000ff;stroke:#ffffff;stroke-width:0.357771;" x="98.086179" xlink:href="#m5d008bfa69" y="122.145315"/>
     <use style="fill:#0000ff;stroke:#ffffff;stroke-width:0.357771;" x="98.086179" xlink:href="#m5d008bfa69" y="119.677328"/>
     <use style="fill:#0000ff;stroke:#ffffff;stroke-width:0.357771;" x="98.086179" xlink:href="#m5d008bfa69" y="118.746267"/>
     <use style="fill:#0000ff;stroke:#ffffff;stroke-width:0.357771;" x="98.086179" xlink:href="#m5d008bfa69" y="115.876125"/>
     <use style="fill:#0000ff;stroke:#ffffff;stroke-width:0.357771;" x="98.086179" xlink:href="#m5d008bfa69" y="117.959984"/>
     <use style="fill:#0000ff;stroke:#ffffff;stroke-width:0.357771;" x="98.086179" xlink:href="#m5d008bfa69" y="112.175932"/>
     <use style="fill:#0000ff;stroke:#ffffff;stroke-width:0.357771;" x="98.086179" xlink:href="#m5d008bfa69" y="113.658567"/>
     <use style="fill:#0000ff;stroke:#ffffff;stroke-width:0.357771;" x="98.086179" xlink:href="#m5d008bfa69" y="112.596154"/>
     <use style="fill:#0000ff;stroke:#ffffff;stroke-width:0.357771;" x="98.086179" xlink:href="#m5d008bfa69" y="112.523102"/>
     <use style="fill:#0000ff;stroke:#ffffff;stroke-width:0.357771;" x="84.717321" xlink:href="#m5d008bfa69" y="108.245684"/>
     <use style="fill:#0000ff;stroke:#ffffff;stroke-width:0.357771;" x="84.717321" xlink:href="#m5d008bfa69" y="108.240638"/>
     <use style="fill:#0000ff;stroke:#ffffff;stroke-width:0.357771;" x="89.173607" xlink:href="#m5d008bfa69" y="106.24706"/>
     <use style="fill:#0000ff;stroke:#ffffff;stroke-width:0.357771;" x="84.717321" xlink:href="#m5d008bfa69" y="107.454438"/>
     <use style="fill:#0000ff;stroke:#ffffff;stroke-width:0.357771;" x="84.717321" xlink:href="#m5d008bfa69" y="103.651861"/>
     <use style="fill:#0000ff;stroke:#ffffff;stroke-width:0.357771;" x="84.717321" xlink:href="#m5d008bfa69" y="104.634482"/>
     <use style="fill:#0000ff;stroke:#ffffff;stroke-width:0.357771;" x="84.717321" xlink:href="#m5d008bfa69" y="100.861802"/>
     <use style="fill:#0000ff;stroke:#ffffff;stroke-width:0.357771;" x="84.717321" xlink:href="#m5d008bfa69" y="102.300513"/>
     <use style="fill:#0000ff;stroke:#ffffff;stroke-width:0.357771;" x="84.717321" xlink:href="#m5d008bfa69" y="102.754258"/>
     <use style="fill:#0000ff;stroke:#ffffff;stroke-width:0.357771;" x="84.717321" xlink:href="#m5d008bfa69" y="100.823114"/>
     <use style="fill:#0000ff;stroke:#ffffff;stroke-width:0.357771;" x="84.717321" xlink:href="#m5d008bfa69" y="99.199797"/>
     <use style="fill:#0000ff;stroke:#ffffff;stroke-width:0.357771;" x="84.717321" xlink:href="#m5d008bfa69" y="103.072034"/>
     <use style="fill:#0000ff;stroke:#ffffff;stroke-width:0.357771;" x="84.717321" xlink:href="#m5d008bfa69" y="102.151788"/>
     <use style="fill:#0000ff;stroke:#ffffff;stroke-width:0.357771;" x="84.717321" xlink:href="#m5d008bfa69" y="98.5708"/>
     <use style="fill:#0000ff;stroke:#ffffff;stroke-width:0.357771;" x="84.717321" xlink:href="#m5d008bfa69" y="99.741667"/>
     <use style="fill:#0000ff;stroke:#ffffff;stroke-width:0.357771;" x="84.717321" xlink:href="#m5d008bfa69" y="96.117507"/>
     <use style="fill:#0000ff;stroke:#ffffff;stroke-width:0.357771;" x="84.717321" xlink:href="#m5d008bfa69" y="98.011467"/>
     <use style="fill:#0000ff;stroke:#ffffff;stroke-width:0.357771;" x="84.717321" xlink:href="#m5d008bfa69" y="97.394371"/>
     <use style="fill:#0000ff;stroke:#ffffff;stroke-width:0.357771;" x="84.717321" xlink:href="#m5d008bfa69" y="93.375931"/>
     <use style="fill:#0000ff;stroke:#ffffff;stroke-width:0.357771;" x="84.717321" xlink:href="#m5d008bfa69" y="96.442153"/>
     <use style="fill:#0000ff;stroke:#ffffff;stroke-width:0.357771;" x="84.717321" xlink:href="#m5d008bfa69" y="92.335717"/>
     <use style="fill:#0000ff;stroke:#ffffff;stroke-width:0.357771;" x="84.717321" xlink:href="#m5d008bfa69" y="94.030497"/>
     <use style="fill:#0000ff;stroke:#ffffff;stroke-width:0.357771;" x="84.717321" xlink:href="#m5d008bfa69" y="92.640517"/>
     <use style="fill:#0000ff;stroke:#ffffff;stroke-width:0.357771;" x="84.717321" xlink:href="#m5d008bfa69" y="91.11753"/>
     <use style="fill:#0000ff;stroke:#ffffff;stroke-width:0.357771;" x="84.717321" xlink:href="#m5d008bfa69" y="93.605523"/>
     <use style="fill:#0000ff;stroke:#ffffff;stroke-width:0.357771;" x="84.717321" xlink:href="#m5d008bfa69" y="84.730402"/>
     <use style="fill:#0000ff;stroke:#ffffff;stroke-width:0.357771;" x="84.717321" xlink:href="#m5d008bfa69" y="90.727759"/>
     <use style="fill:#0000ff;stroke:#ffffff;stroke-width:0.357771;" x="84.717321" xlink:href="#m5d008bfa69" y="88.176771"/>
     <use style="fill:#0000ff;stroke:#ffffff;stroke-width:0.357771;" x="84.717321" xlink:href="#m5d008bfa69" y="90.214971"/>
     <use style="fill:#0000ff;stroke:#ffffff;stroke-width:0.357771;" x="84.717321" xlink:href="#m5d008bfa69" y="88.74905"/>
     <use style="fill:#0000ff;stroke:#ffffff;stroke-width:0.357771;" x="84.717321" xlink:href="#m5d008bfa69" y="86.883995"/>
     <use style="fill:#0000ff;stroke:#ffffff;stroke-width:0.357771;" x="80.261036" xlink:href="#m5d008bfa69" y="87.468626"/>
     <use style="fill:#0000ff;stroke:#ffffff;stroke-width:0.357771;" x="129.280179" xlink:href="#m5d008bfa69" y="84.988811"/>
     <use style="fill:#0000ff;stroke:#ffffff;stroke-width:0.357771;" x="84.717321" xlink:href="#m5d008bfa69" y="88.052183"/>
     <use style="fill:#0000ff;stroke:#ffffff;stroke-width:0.357771;" x="80.261036" xlink:href="#m5d008bfa69" y="83.768174"/>
     <use style="fill:#0000ff;stroke:#ffffff;stroke-width:0.357771;" x="80.261036" xlink:href="#m5d008bfa69" y="88.272978"/>
     <use style="fill:#0000ff;stroke:#ffffff;stroke-width:0.357771;" x="80.261036" xlink:href="#m5d008bfa69" y="82.588936"/>
     <use style="fill:#0000ff;stroke:#ffffff;stroke-width:0.357771;" x="80.261036" xlink:href="#m5d008bfa69" y="78.294218"/>
     <use style="fill:#0000ff;stroke:#ffffff;stroke-width:0.357771;" x="80.261036" xlink:href="#m5d008bfa69" y="83.253572"/>
     <use style="fill:#0000ff;stroke:#ffffff;stroke-width:0.357771;" x="71.348464" xlink:href="#m5d008bfa69" y="78.046259"/>
     <use style="fill:#0000ff;stroke:#ffffff;stroke-width:0.357771;" x="71.348464" xlink:href="#m5d008bfa69" y="84.294386"/>
     <use style="fill:#0000ff;stroke:#ffffff;stroke-width:0.357771;" x="71.348464" xlink:href="#m5d008bfa69" y="82.826664"/>
     <use style="fill:#0000ff;stroke:#ffffff;stroke-width:0.357771;" x="71.348464" xlink:href="#m5d008bfa69" y="79.05638"/>
     <use style="fill:#0000ff;stroke:#ffffff;stroke-width:0.357771;" x="71.348464" xlink:href="#m5d008bfa69" y="84.725931"/>
     <use style="fill:#0000ff;stroke:#ffffff;stroke-width:0.357771;" x="71.348464" xlink:href="#m5d008bfa69" y="79.32506"/>
     <use style="fill:#0000ff;stroke:#ffffff;stroke-width:0.357771;" x="71.348464" xlink:href="#m5d008bfa69" y="82.136683"/>
     <use style="fill:#0000ff;stroke:#ffffff;stroke-width:0.357771;" x="71.348464" xlink:href="#m5d008bfa69" y="79.368554"/>
     <use style="fill:#0000ff;stroke:#ffffff;stroke-width:0.357771;" x="71.348464" xlink:href="#m5d008bfa69" y="79.650834"/>
     <use style="fill:#0000ff;stroke:#ffffff;stroke-width:0.357771;" x="71.348464" xlink:href="#m5d008bfa69" y="79.253441"/>
     <use style="fill:#0000ff;stroke:#ffffff;stroke-width:0.357771;" x="71.348464" xlink:href="#m5d008bfa69" y="76.711318"/>
     <use style="fill:#0000ff;stroke:#ffffff;stroke-width:0.357771;" x="71.348464" xlink:href="#m5d008bfa69" y="75.169676"/>
     <use style="fill:#0000ff;stroke:#ffffff;stroke-width:0.357771;" x="71.348464" xlink:href="#m5d008bfa69" y="71.449125"/>
     <use style="fill:#0000ff;stroke:#ffffff;stroke-width:0.357771;" x="71.348464" xlink:href="#m5d008bfa69" y="70.284645"/>
     <use style="fill:#0000ff;stroke:#ffffff;stroke-width:0.357771;" x="71.348464" xlink:href="#m5d008bfa69" y="68.133687"/>
     <use style="fill:#0000ff;stroke:#ffffff;stroke-width:0.357771;" x="71.348464" xlink:href="#m5d008bfa69" y="63.751148"/>
     <use style="fill:#0000ff;stroke:#ffffff;stroke-width:0.357771;" x="71.348464" xlink:href="#m5d008bfa69" y="66.374989"/>
     <use style="fill:#0000ff;stroke:#ffffff;stroke-width:0.357771;" x="71.348464" xlink:href="#m5d008bfa69" y="70.179329"/>
     <use style="fill:#0000ff;stroke:#ffffff;stroke-width:0.357771;" x="71.348464" xlink:href="#m5d008bfa69" y="63.012387"/>
     <use style="fill:#0000ff;stroke:#ffffff;stroke-width:0.357771;" x="71.348464" xlink:href="#m5d008bfa69" y="62.822567"/>
     <use style="fill:#0000ff;stroke:#ffffff;stroke-width:0.357771;" x="71.348464" xlink:href="#m5d008bfa69" y="57.339571"/>
     <use style="fill:#0000ff;stroke:#ffffff;stroke-width:0.357771;" x="71.348464" xlink:href="#m5d008bfa69" y="60.0628"/>
     <use style="fill:#0000ff;stroke:#ffffff;stroke-width:0.357771;" x="71.348464" xlink:href="#m5d008bfa69" y="54.272521"/>
     <use style="fill:#0000ff;stroke:#ffffff;stroke-width:0.357771;" x="71.348464" xlink:href="#m5d008bfa69" y="58.584015"/>
     <use style="fill:#0000ff;stroke:#ffffff;stroke-width:0.357771;" x="71.348464" xlink:href="#m5d008bfa69" y="55.763177"/>
     <use style="fill:#0000ff;stroke:#ffffff;stroke-width:0.357771;" x="71.348464" xlink:href="#m5d008bfa69" y="53.595321"/>
     <use style="fill:#0000ff;stroke:#ffffff;stroke-width:0.357771;" x="71.348464" xlink:href="#m5d008bfa69" y="54.679151"/>
     <use style="fill:#0000ff;stroke:#ffffff;stroke-width:0.357771;" x="71.348464" xlink:href="#m5d008bfa69" y="48.322885"/>
     <use style="fill:#0000ff;stroke:#ffffff;stroke-width:0.357771;" x="71.348464" xlink:href="#m5d008bfa69" y="50.9071"/>
     <use style="fill:#0000ff;stroke:#ffffff;stroke-width:0.357771;" x="71.348464" xlink:href="#m5d008bfa69" y="46.823492"/>
     <use style="fill:#0000ff;stroke:#ffffff;stroke-width:0.357771;" x="71.348464" xlink:href="#m5d008bfa69" y="47.959024"/>
     <use style="fill:#0000ff;stroke:#ffffff;stroke-width:0.357771;" x="71.348464" xlink:href="#m5d008bfa69" y="40.467233"/>
     <use style="fill:#0000ff;stroke:#ffffff;stroke-width:0.357771;" x="71.348464" xlink:href="#m5d008bfa69" y="36.675303"/>
     <use style="fill:#0000ff;stroke:#ffffff;stroke-width:0.357771;" x="71.348464" xlink:href="#m5d008bfa69" y="41.038977"/>
     <use style="fill:#0000ff;stroke:#ffffff;stroke-width:0.357771;" x="71.348464" xlink:href="#m5d008bfa69" y="40.694986"/>
     <use style="fill:#0000ff;stroke:#ffffff;stroke-width:0.357771;" x="71.348464" xlink:href="#m5d008bfa69" y="35.596944"/>
     <use style="fill:#0000ff;stroke:#ffffff;stroke-width:0.357771;" x="71.348464" xlink:href="#m5d008bfa69" y="31.750297"/>
     <use style="fill:#0000ff;stroke:#ffffff;stroke-width:0.357771;" x="71.348464" xlink:href="#m5d008bfa69" y="30.272447"/>
     <use style="fill:#0000ff;stroke:#ffffff;stroke-width:0.357771;" x="71.348464" xlink:href="#m5d008bfa69" y="27.729211"/>
     <use style="fill:#0000ff;stroke:#ffffff;stroke-width:0.357771;" x="71.348464" xlink:href="#m5d008bfa69" y="32.46284"/>
    </g>
   </g>
   <g id="patch_3">
    <path d="M 44.61075 171.622375 
L 44.61075 11.458375 
" style="fill:none;stroke:#000000;stroke-linecap:square;stroke-linejoin:miter;"/>
   </g>
   <g id="patch_4">
    <path d="M 231.77475 171.622375 
L 231.77475 11.458375 
" style="fill:none;stroke:#000000;stroke-linecap:square;stroke-linejoin:miter;"/>
   </g>
   <g id="patch_5">
    <path d="M 44.61075 171.622375 
L 231.77475 171.622375 
" style="fill:none;stroke:#000000;stroke-linecap:square;stroke-linejoin:miter;"/>
   </g>
   <g id="patch_6">
    <path d="M 44.61075 11.458375 
L 231.77475 11.458375 
" style="fill:none;stroke:#000000;stroke-linecap:square;stroke-linejoin:miter;"/>
   </g>
   <g id="matplotlib.axis_1">
    <g id="xtick_1">
     <g id="line2d_1">
      <defs>
       <path d="M 0 0 
L 0 -4.8 
" id="mfb45fc0149" style="stroke:#000000;"/>
      </defs>
      <g>
       <use style="stroke:#000000;" x="44.61075" xlink:href="#mfb45fc0149" y="171.622375"/>
      </g>
     </g>
     <g id="line2d_2">
      <defs>
       <path d="M 0 0 
L 0 4.8 
" id="mf48a013ca8" style="stroke:#000000;"/>
      </defs>
      <g>
       <use style="stroke:#000000;" x="44.61075" xlink:href="#mf48a013ca8" y="11.458375"/>
      </g>
     </g>
     <g id="text_1">
      <!-- 4 -->
      <g transform="translate(41.81125 182.309)scale(0.088 -0.088)">
       <defs>
        <path d="M 37.796875 64.3125 
L 12.890625 25.390625 
L 37.796875 25.390625 
z
M 35.203125 72.90625 
L 47.609375 72.90625 
L 47.609375 25.390625 
L 58.015625 25.390625 
L 58.015625 17.1875 
L 47.609375 17.1875 
L 47.609375 0 
L 37.796875 0 
L 37.796875 17.1875 
L 4.890625 17.1875 
L 4.890625 26.703125 
z
" id="DejaVuSans-52"/>
       </defs>
       <use xlink:href="#DejaVuSans-52"/>
      </g>
     </g>
    </g>
    <g id="xtick_2">
     <g id="line2d_3">
      <g>
       <use style="stroke:#000000;" x="71.348464" xlink:href="#mfb45fc0149" y="171.622375"/>
      </g>
     </g>
     <g id="line2d_4">
      <g>
       <use style="stroke:#000000;" x="71.348464" xlink:href="#mf48a013ca8" y="11.458375"/>
      </g>
     </g>
     <g id="text_2">
      <!-- 6 -->
      <g transform="translate(68.548964 182.309)scale(0.088 -0.088)">
       <defs>
        <path d="M 33.015625 40.375 
Q 26.375 40.375 22.484375 35.828125 
Q 18.609375 31.296875 18.609375 23.390625 
Q 18.609375 15.53125 22.484375 10.953125 
Q 26.375 6.390625 33.015625 6.390625 
Q 39.65625 6.390625 43.53125 10.953125 
Q 47.40625 15.53125 47.40625 23.390625 
Q 47.40625 31.296875 43.53125 35.828125 
Q 39.65625 40.375 33.015625 40.375 
z
M 52.59375 71.296875 
L 52.59375 62.3125 
Q 48.875 64.0625 45.09375 64.984375 
Q 41.3125 65.921875 37.59375 65.921875 
Q 27.828125 65.921875 22.671875 59.328125 
Q 17.53125 52.734375 16.796875 39.40625 
Q 19.671875 43.65625 24.015625 45.921875 
Q 28.375 48.1875 33.59375 48.1875 
Q 44.578125 48.1875 50.953125 41.515625 
Q 57.328125 34.859375 57.328125 23.390625 
Q 57.328125 12.15625 50.6875 5.359375 
Q 44.046875 -1.421875 33.015625 -1.421875 
Q 20.359375 -1.421875 13.671875 8.265625 
Q 6.984375 17.96875 6.984375 36.375 
Q 6.984375 53.65625 15.1875 63.9375 
Q 23.390625 74.21875 37.203125 74.21875 
Q 40.921875 74.21875 44.703125 73.484375 
Q 48.484375 72.75 52.59375 71.296875 
z
" id="DejaVuSans-54"/>
       </defs>
       <use xlink:href="#DejaVuSans-54"/>
      </g>
     </g>
    </g>
    <g id="xtick_3">
     <g id="line2d_5">
      <g>
       <use style="stroke:#000000;" x="98.086179" xlink:href="#mfb45fc0149" y="171.622375"/>
      </g>
     </g>
     <g id="line2d_6">
      <g>
       <use style="stroke:#000000;" x="98.086179" xlink:href="#mf48a013ca8" y="11.458375"/>
      </g>
     </g>
     <g id="text_3">
      <!-- 8 -->
      <g transform="translate(95.286679 182.309)scale(0.088 -0.088)">
       <defs>
        <path d="M 31.78125 34.625 
Q 24.75 34.625 20.71875 30.859375 
Q 16.703125 27.09375 16.703125 20.515625 
Q 16.703125 13.921875 20.71875 10.15625 
Q 24.75 6.390625 31.78125 6.390625 
Q 38.8125 6.390625 42.859375 10.171875 
Q 46.921875 13.96875 46.921875 20.515625 
Q 46.921875 27.09375 42.890625 30.859375 
Q 38.875 34.625 31.78125 34.625 
z
M 21.921875 38.8125 
Q 15.578125 40.375 12.03125 44.71875 
Q 8.5 49.078125 8.5 55.328125 
Q 8.5 64.0625 14.71875 69.140625 
Q 20.953125 74.21875 31.78125 74.21875 
Q 42.671875 74.21875 48.875 69.140625 
Q 55.078125 64.0625 55.078125 55.328125 
Q 55.078125 49.078125 51.53125 44.71875 
Q 48 40.375 41.703125 38.8125 
Q 48.828125 37.15625 52.796875 32.3125 
Q 56.78125 27.484375 56.78125 20.515625 
Q 56.78125 9.90625 50.3125 4.234375 
Q 43.84375 -1.421875 31.78125 -1.421875 
Q 19.734375 -1.421875 13.25 4.234375 
Q 6.78125 9.90625 6.78125 20.515625 
Q 6.78125 27.484375 10.78125 32.3125 
Q 14.796875 37.15625 21.921875 38.8125 
z
M 18.3125 54.390625 
Q 18.3125 48.734375 21.84375 45.5625 
Q 25.390625 42.390625 31.78125 42.390625 
Q 38.140625 42.390625 41.71875 45.5625 
Q 45.3125 48.734375 45.3125 54.390625 
Q 45.3125 60.0625 41.71875 63.234375 
Q 38.140625 66.40625 31.78125 66.40625 
Q 25.390625 66.40625 21.84375 63.234375 
Q 18.3125 60.0625 18.3125 54.390625 
z
" id="DejaVuSans-56"/>
       </defs>
       <use xlink:href="#DejaVuSans-56"/>
      </g>
     </g>
    </g>
    <g id="xtick_4">
     <g id="line2d_7">
      <g>
       <use style="stroke:#000000;" x="124.823893" xlink:href="#mfb45fc0149" y="171.622375"/>
      </g>
     </g>
     <g id="line2d_8">
      <g>
       <use style="stroke:#000000;" x="124.823893" xlink:href="#mf48a013ca8" y="11.458375"/>
      </g>
     </g>
     <g id="text_4">
      <!-- 10 -->
      <g transform="translate(119.224893 182.309)scale(0.088 -0.088)">
       <defs>
        <path d="M 12.40625 8.296875 
L 28.515625 8.296875 
L 28.515625 63.921875 
L 10.984375 60.40625 
L 10.984375 69.390625 
L 28.421875 72.90625 
L 38.28125 72.90625 
L 38.28125 8.296875 
L 54.390625 8.296875 
L 54.390625 0 
L 12.40625 0 
z
" id="DejaVuSans-49"/>
        <path d="M 31.78125 66.40625 
Q 24.171875 66.40625 20.328125 58.90625 
Q 16.5 51.421875 16.5 36.375 
Q 16.5 21.390625 20.328125 13.890625 
Q 24.171875 6.390625 31.78125 6.390625 
Q 39.453125 6.390625 43.28125 13.890625 
Q 47.125 21.390625 47.125 36.375 
Q 47.125 51.421875 43.28125 58.90625 
Q 39.453125 66.40625 31.78125 66.40625 
z
M 31.78125 74.21875 
Q 44.046875 74.21875 50.515625 64.515625 
Q 56.984375 54.828125 56.984375 36.375 
Q 56.984375 17.96875 50.515625 8.265625 
Q 44.046875 -1.421875 31.78125 -1.421875 
Q 19.53125 -1.421875 13.0625 8.265625 
Q 6.59375 17.96875 6.59375 36.375 
Q 6.59375 54.828125 13.0625 64.515625 
Q 19.53125 74.21875 31.78125 74.21875 
z
" id="DejaVuSans-48"/>
       </defs>
       <use xlink:href="#DejaVuSans-49"/>
       <use x="63.623047" xlink:href="#DejaVuSans-48"/>
      </g>
     </g>
    </g>
    <g id="xtick_5">
     <g id="line2d_9">
      <g>
       <use style="stroke:#000000;" x="151.561607" xlink:href="#mfb45fc0149" y="171.622375"/>
      </g>
     </g>
     <g id="line2d_10">
      <g>
       <use style="stroke:#000000;" x="151.561607" xlink:href="#mf48a013ca8" y="11.458375"/>
      </g>
     </g>
     <g id="text_5">
      <!-- 12 -->
      <g transform="translate(145.962607 182.309)scale(0.088 -0.088)">
       <defs>
        <path d="M 19.1875 8.296875 
L 53.609375 8.296875 
L 53.609375 0 
L 7.328125 0 
L 7.328125 8.296875 
Q 12.9375 14.109375 22.625 23.890625 
Q 32.328125 33.6875 34.8125 36.53125 
Q 39.546875 41.84375 41.421875 45.53125 
Q 43.3125 49.21875 43.3125 52.78125 
Q 43.3125 58.59375 39.234375 62.25 
Q 35.15625 65.921875 28.609375 65.921875 
Q 23.96875 65.921875 18.8125 64.3125 
Q 13.671875 62.703125 7.8125 59.421875 
L 7.8125 69.390625 
Q 13.765625 71.78125 18.9375 73 
Q 24.125 74.21875 28.421875 74.21875 
Q 39.75 74.21875 46.484375 68.546875 
Q 53.21875 62.890625 53.21875 53.421875 
Q 53.21875 48.921875 51.53125 44.890625 
Q 49.859375 40.875 45.40625 35.40625 
Q 44.1875 33.984375 37.640625 27.21875 
Q 31.109375 20.453125 19.1875 8.296875 
z
" id="DejaVuSans-50"/>
       </defs>
       <use xlink:href="#DejaVuSans-49"/>
       <use x="63.623047" xlink:href="#DejaVuSans-50"/>
      </g>
     </g>
    </g>
    <g id="xtick_6">
     <g id="line2d_11">
      <g>
       <use style="stroke:#000000;" x="178.299321" xlink:href="#mfb45fc0149" y="171.622375"/>
      </g>
     </g>
     <g id="line2d_12">
      <g>
       <use style="stroke:#000000;" x="178.299321" xlink:href="#mf48a013ca8" y="11.458375"/>
      </g>
     </g>
     <g id="text_6">
      <!-- 14 -->
      <g transform="translate(172.700321 182.309)scale(0.088 -0.088)">
       <use xlink:href="#DejaVuSans-49"/>
       <use x="63.623047" xlink:href="#DejaVuSans-52"/>
      </g>
     </g>
    </g>
    <g id="xtick_7">
     <g id="line2d_13">
      <g>
       <use style="stroke:#000000;" x="205.037036" xlink:href="#mfb45fc0149" y="171.622375"/>
      </g>
     </g>
     <g id="line2d_14">
      <g>
       <use style="stroke:#000000;" x="205.037036" xlink:href="#mf48a013ca8" y="11.458375"/>
      </g>
     </g>
     <g id="text_7">
      <!-- 16 -->
      <g transform="translate(199.438036 182.309)scale(0.088 -0.088)">
       <use xlink:href="#DejaVuSans-49"/>
       <use x="63.623047" xlink:href="#DejaVuSans-54"/>
      </g>
     </g>
    </g>
    <g id="xtick_8">
     <g id="line2d_15">
      <g>
       <use style="stroke:#000000;" x="231.77475" xlink:href="#mfb45fc0149" y="171.622375"/>
      </g>
     </g>
     <g id="line2d_16">
      <g>
       <use style="stroke:#000000;" x="231.77475" xlink:href="#mf48a013ca8" y="11.458375"/>
      </g>
     </g>
     <g id="text_8">
      <!-- 18 -->
      <g transform="translate(226.17575 182.309)scale(0.088 -0.088)">
       <use xlink:href="#DejaVuSans-49"/>
       <use x="63.623047" xlink:href="#DejaVuSans-56"/>
      </g>
     </g>
    </g>
    <g id="text_9">
     <!-- Run Time (S) -->
     <g transform="translate(90.940797 199.017094)scale(0.13 -0.13)">
      <defs>
       <path d="M 35.890625 40.578125 
Q 41.796875 40.578125 44.359375 42.765625 
Q 46.921875 44.96875 46.921875 50 
Q 46.921875 54.984375 44.359375 57.125 
Q 41.796875 59.28125 35.890625 59.28125 
L 27.984375 59.28125 
L 27.984375 40.578125 
z
M 27.984375 27.59375 
L 27.984375 0 
L 9.1875 0 
L 9.1875 72.90625 
L 37.890625 72.90625 
Q 52.296875 72.90625 59 68.0625 
Q 65.71875 63.234375 65.71875 52.78125 
Q 65.71875 45.5625 62.21875 40.921875 
Q 58.734375 36.28125 51.703125 34.078125 
Q 55.5625 33.203125 58.609375 30.09375 
Q 61.671875 27 64.796875 20.703125 
L 75 0 
L 54.984375 0 
L 46.09375 18.109375 
Q 43.40625 23.578125 40.640625 25.578125 
Q 37.890625 27.59375 33.296875 27.59375 
z
" id="DejaVuSans-Bold-82"/>
       <path d="M 7.8125 21.296875 
L 7.8125 54.6875 
L 25.390625 54.6875 
L 25.390625 49.21875 
Q 25.390625 44.78125 25.34375 38.0625 
Q 25.296875 31.34375 25.296875 29.109375 
Q 25.296875 22.515625 25.640625 19.609375 
Q 25.984375 16.703125 26.8125 15.375 
Q 27.875 13.671875 29.609375 12.734375 
Q 31.34375 11.8125 33.59375 11.8125 
Q 39.0625 11.8125 42.1875 16.015625 
Q 45.3125 20.21875 45.3125 27.6875 
L 45.3125 54.6875 
L 62.796875 54.6875 
L 62.796875 0 
L 45.3125 0 
L 45.3125 7.90625 
Q 41.359375 3.125 36.9375 0.84375 
Q 32.515625 -1.421875 27.203125 -1.421875 
Q 17.71875 -1.421875 12.765625 4.390625 
Q 7.8125 10.203125 7.8125 21.296875 
z
" id="DejaVuSans-Bold-117"/>
       <path d="M 63.375 33.296875 
L 63.375 0 
L 45.796875 0 
L 45.796875 5.421875 
L 45.796875 25.484375 
Q 45.796875 32.5625 45.484375 35.25 
Q 45.171875 37.9375 44.390625 39.203125 
Q 43.359375 40.921875 41.59375 41.875 
Q 39.84375 42.828125 37.59375 42.828125 
Q 32.125 42.828125 29 38.59375 
Q 25.875 34.375 25.875 26.90625 
L 25.875 0 
L 8.40625 0 
L 8.40625 54.6875 
L 25.875 54.6875 
L 25.875 46.6875 
Q 29.828125 51.46875 34.265625 53.734375 
Q 38.71875 56 44.09375 56 
Q 53.5625 56 58.46875 50.1875 
Q 63.375 44.390625 63.375 33.296875 
z
" id="DejaVuSans-Bold-110"/>
       <path id="DejaVuSans-Bold-32"/>
       <path d="M 0.484375 72.90625 
L 67.671875 72.90625 
L 67.671875 58.6875 
L 43.5 58.6875 
L 43.5 0 
L 24.703125 0 
L 24.703125 58.6875 
L 0.484375 58.6875 
z
" id="DejaVuSans-Bold-84"/>
       <path d="M 8.40625 54.6875 
L 25.875 54.6875 
L 25.875 0 
L 8.40625 0 
z
M 8.40625 75.984375 
L 25.875 75.984375 
L 25.875 61.71875 
L 8.40625 61.71875 
z
" id="DejaVuSans-Bold-105"/>
       <path d="M 59.078125 45.609375 
Q 62.40625 50.6875 66.96875 53.34375 
Q 71.53125 56 77 56 
Q 86.421875 56 91.359375 50.1875 
Q 96.296875 44.390625 96.296875 33.296875 
L 96.296875 0 
L 78.71875 0 
L 78.71875 28.515625 
Q 78.765625 29.15625 78.78125 29.828125 
Q 78.8125 30.515625 78.8125 31.78125 
Q 78.8125 37.59375 77.09375 40.203125 
Q 75.390625 42.828125 71.578125 42.828125 
Q 66.609375 42.828125 63.890625 38.71875 
Q 61.1875 34.625 61.078125 26.859375 
L 61.078125 0 
L 43.5 0 
L 43.5 28.515625 
Q 43.5 37.59375 41.9375 40.203125 
Q 40.375 42.828125 36.375 42.828125 
Q 31.34375 42.828125 28.609375 38.703125 
Q 25.875 34.578125 25.875 26.90625 
L 25.875 0 
L 8.296875 0 
L 8.296875 54.6875 
L 25.875 54.6875 
L 25.875 46.6875 
Q 29.109375 51.3125 33.28125 53.65625 
Q 37.453125 56 42.484375 56 
Q 48.140625 56 52.484375 53.265625 
Q 56.84375 50.53125 59.078125 45.609375 
z
" id="DejaVuSans-Bold-109"/>
       <path d="M 62.984375 27.484375 
L 62.984375 22.515625 
L 22.125 22.515625 
Q 22.75 16.359375 26.5625 13.28125 
Q 30.375 10.203125 37.203125 10.203125 
Q 42.71875 10.203125 48.5 11.84375 
Q 54.296875 13.484375 60.40625 16.796875 
L 60.40625 3.328125 
Q 54.203125 0.984375 48 -0.21875 
Q 41.796875 -1.421875 35.59375 -1.421875 
Q 20.75 -1.421875 12.515625 6.125 
Q 4.296875 13.671875 4.296875 27.296875 
Q 4.296875 40.671875 12.375 48.328125 
Q 20.453125 56 34.625 56 
Q 47.515625 56 55.25 48.234375 
Q 62.984375 40.484375 62.984375 27.484375 
z
M 45.015625 33.296875 
Q 45.015625 38.28125 42.109375 41.328125 
Q 39.203125 44.390625 34.515625 44.390625 
Q 29.4375 44.390625 26.265625 41.53125 
Q 23.09375 38.671875 22.3125 33.296875 
z
" id="DejaVuSans-Bold-101"/>
       <path d="M 37.703125 -13.1875 
L 23.1875 -13.1875 
Q 15.71875 -1.125 12.15625 9.734375 
Q 8.59375 20.609375 8.59375 31.296875 
Q 8.59375 42 12.171875 52.953125 
Q 15.765625 63.921875 23.1875 75.875 
L 37.703125 75.875 
Q 31.453125 64.3125 28.328125 53.25 
Q 25.203125 42.1875 25.203125 31.390625 
Q 25.203125 20.609375 28.296875 9.515625 
Q 31.390625 -1.5625 37.703125 -13.1875 
z
" id="DejaVuSans-Bold-40"/>
       <path d="M 59.90625 70.609375 
L 59.90625 55.171875 
Q 53.90625 57.859375 48.1875 59.21875 
Q 42.484375 60.59375 37.40625 60.59375 
Q 30.671875 60.59375 27.4375 58.734375 
Q 24.21875 56.890625 24.21875 52.984375 
Q 24.21875 50.046875 26.390625 48.40625 
Q 28.5625 46.78125 34.28125 45.609375 
L 42.28125 44 
Q 54.4375 41.546875 59.5625 36.5625 
Q 64.703125 31.59375 64.703125 22.40625 
Q 64.703125 10.359375 57.546875 4.46875 
Q 50.390625 -1.421875 35.6875 -1.421875 
Q 28.765625 -1.421875 21.78125 -0.09375 
Q 14.796875 1.21875 7.8125 3.8125 
L 7.8125 19.671875 
Q 14.796875 15.96875 21.3125 14.078125 
Q 27.828125 12.203125 33.890625 12.203125 
Q 40.046875 12.203125 43.3125 14.25 
Q 46.578125 16.3125 46.578125 20.125 
Q 46.578125 23.53125 44.359375 25.390625 
Q 42.140625 27.25 35.5 28.71875 
L 28.21875 30.328125 
Q 17.28125 32.671875 12.21875 37.796875 
Q 7.171875 42.921875 7.171875 51.609375 
Q 7.171875 62.5 14.203125 68.359375 
Q 21.234375 74.21875 34.421875 74.21875 
Q 40.4375 74.21875 46.78125 73.3125 
Q 53.125 72.40625 59.90625 70.609375 
z
" id="DejaVuSans-Bold-83"/>
       <path d="M 8.015625 -13.1875 
Q 14.265625 -1.5625 17.390625 9.515625 
Q 20.515625 20.609375 20.515625 31.390625 
Q 20.515625 42.1875 17.390625 53.25 
Q 14.265625 64.3125 8.015625 75.875 
L 22.515625 75.875 
Q 29.9375 63.921875 33.515625 52.953125 
Q 37.109375 42 37.109375 31.296875 
Q 37.109375 20.609375 33.546875 9.734375 
Q 29.984375 -1.125 22.515625 -13.1875 
z
" id="DejaVuSans-Bold-41"/>
      </defs>
      <use xlink:href="#DejaVuSans-Bold-82"/>
      <use x="77.001953" xlink:href="#DejaVuSans-Bold-117"/>
      <use x="148.193359" xlink:href="#DejaVuSans-Bold-110"/>
      <use x="219.384766" xlink:href="#DejaVuSans-Bold-32"/>
      <use x="254.199219" xlink:href="#DejaVuSans-Bold-84"/>
      <use x="322.412109" xlink:href="#DejaVuSans-Bold-105"/>
      <use x="356.689453" xlink:href="#DejaVuSans-Bold-109"/>
      <use x="460.888672" xlink:href="#DejaVuSans-Bold-101"/>
      <use x="528.710938" xlink:href="#DejaVuSans-Bold-32"/>
      <use x="563.525391" xlink:href="#DejaVuSans-Bold-40"/>
      <use x="609.228516" xlink:href="#DejaVuSans-Bold-83"/>
      <use x="681.25" xlink:href="#DejaVuSans-Bold-41"/>
     </g>
    </g>
   </g>
   <g id="matplotlib.axis_2">
    <g id="ytick_1">
     <g id="line2d_17">
      <defs>
       <path d="M 0 0 
L 4.8 0 
" id="mce5d1deb4b" style="stroke:#000000;"/>
      </defs>
      <g>
       <use style="stroke:#000000;" x="44.61075" xlink:href="#mce5d1deb4b" y="171.622375"/>
      </g>
     </g>
     <g id="line2d_18">
      <defs>
       <path d="M 0 0 
L -4.8 0 
" id="me8c6d60213" style="stroke:#000000;"/>
      </defs>
      <g>
       <use style="stroke:#000000;" x="231.77475" xlink:href="#me8c6d60213" y="171.622375"/>
      </g>
     </g>
     <g id="text_10">
      <!-- 40 -->
      <g transform="translate(29.41275 174.050625)scale(0.088 -0.088)">
       <use xlink:href="#DejaVuSans-52"/>
       <use x="63.623047" xlink:href="#DejaVuSans-48"/>
      </g>
     </g>
    </g>
    <g id="ytick_2">
     <g id="line2d_19">
      <g>
       <use style="stroke:#000000;" x="44.61075" xlink:href="#mce5d1deb4b" y="151.601875"/>
      </g>
     </g>
     <g id="line2d_20">
      <g>
       <use style="stroke:#000000;" x="231.77475" xlink:href="#me8c6d60213" y="151.601875"/>
      </g>
     </g>
     <g id="text_11">
      <!-- 60 -->
      <g transform="translate(29.41275 154.030125)scale(0.088 -0.088)">
       <use xlink:href="#DejaVuSans-54"/>
       <use x="63.623047" xlink:href="#DejaVuSans-48"/>
      </g>
     </g>
    </g>
    <g id="ytick_3">
     <g id="line2d_21">
      <g>
       <use style="stroke:#000000;" x="44.61075" xlink:href="#mce5d1deb4b" y="131.581375"/>
      </g>
     </g>
     <g id="line2d_22">
      <g>
       <use style="stroke:#000000;" x="231.77475" xlink:href="#me8c6d60213" y="131.581375"/>
      </g>
     </g>
     <g id="text_12">
      <!-- 80 -->
      <g transform="translate(29.41275 134.009625)scale(0.088 -0.088)">
       <use xlink:href="#DejaVuSans-56"/>
       <use x="63.623047" xlink:href="#DejaVuSans-48"/>
      </g>
     </g>
    </g>
    <g id="ytick_4">
     <g id="line2d_23">
      <g>
       <use style="stroke:#000000;" x="44.61075" xlink:href="#mce5d1deb4b" y="111.560875"/>
      </g>
     </g>
     <g id="line2d_24">
      <g>
       <use style="stroke:#000000;" x="231.77475" xlink:href="#me8c6d60213" y="111.560875"/>
      </g>
     </g>
     <g id="text_13">
      <!-- 100 -->
      <g transform="translate(23.81375 113.989125)scale(0.088 -0.088)">
       <use xlink:href="#DejaVuSans-49"/>
       <use x="63.623047" xlink:href="#DejaVuSans-48"/>
       <use x="127.246094" xlink:href="#DejaVuSans-48"/>
      </g>
     </g>
    </g>
    <g id="ytick_5">
     <g id="line2d_25">
      <g>
       <use style="stroke:#000000;" x="44.61075" xlink:href="#mce5d1deb4b" y="91.540375"/>
      </g>
     </g>
     <g id="line2d_26">
      <g>
       <use style="stroke:#000000;" x="231.77475" xlink:href="#me8c6d60213" y="91.540375"/>
      </g>
     </g>
     <g id="text_14">
      <!-- 120 -->
      <g transform="translate(23.81375 93.968625)scale(0.088 -0.088)">
       <use xlink:href="#DejaVuSans-49"/>
       <use x="63.623047" xlink:href="#DejaVuSans-50"/>
       <use x="127.246094" xlink:href="#DejaVuSans-48"/>
      </g>
     </g>
    </g>
    <g id="ytick_6">
     <g id="line2d_27">
      <g>
       <use style="stroke:#000000;" x="44.61075" xlink:href="#mce5d1deb4b" y="71.519875"/>
      </g>
     </g>
     <g id="line2d_28">
      <g>
       <use style="stroke:#000000;" x="231.77475" xlink:href="#me8c6d60213" y="71.519875"/>
      </g>
     </g>
     <g id="text_15">
      <!-- 140 -->
      <g transform="translate(23.81375 73.948125)scale(0.088 -0.088)">
       <use xlink:href="#DejaVuSans-49"/>
       <use x="63.623047" xlink:href="#DejaVuSans-52"/>
       <use x="127.246094" xlink:href="#DejaVuSans-48"/>
      </g>
     </g>
    </g>
    <g id="ytick_7">
     <g id="line2d_29">
      <g>
       <use style="stroke:#000000;" x="44.61075" xlink:href="#mce5d1deb4b" y="51.499375"/>
      </g>
     </g>
     <g id="line2d_30">
      <g>
       <use style="stroke:#000000;" x="231.77475" xlink:href="#me8c6d60213" y="51.499375"/>
      </g>
     </g>
     <g id="text_16">
      <!-- 160 -->
      <g transform="translate(23.81375 53.927625)scale(0.088 -0.088)">
       <use xlink:href="#DejaVuSans-49"/>
       <use x="63.623047" xlink:href="#DejaVuSans-54"/>
       <use x="127.246094" xlink:href="#DejaVuSans-48"/>
      </g>
     </g>
    </g>
    <g id="ytick_8">
     <g id="line2d_31">
      <g>
       <use style="stroke:#000000;" x="44.61075" xlink:href="#mce5d1deb4b" y="31.478875"/>
      </g>
     </g>
     <g id="line2d_32">
      <g>
       <use style="stroke:#000000;" x="231.77475" xlink:href="#me8c6d60213" y="31.478875"/>
      </g>
     </g>
     <g id="text_17">
      <!-- 180 -->
      <g transform="translate(23.81375 33.907125)scale(0.088 -0.088)">
       <use xlink:href="#DejaVuSans-49"/>
       <use x="63.623047" xlink:href="#DejaVuSans-56"/>
       <use x="127.246094" xlink:href="#DejaVuSans-48"/>
      </g>
     </g>
    </g>
    <g id="ytick_9">
     <g id="line2d_33">
      <g>
       <use style="stroke:#000000;" x="44.61075" xlink:href="#mce5d1deb4b" y="11.458375"/>
      </g>
     </g>
     <g id="line2d_34">
      <g>
       <use style="stroke:#000000;" x="231.77475" xlink:href="#me8c6d60213" y="11.458375"/>
      </g>
     </g>
     <g id="text_18">
      <!-- 200 -->
      <g transform="translate(23.81375 13.886625)scale(0.088 -0.088)">
       <use xlink:href="#DejaVuSans-50"/>
       <use x="63.623047" xlink:href="#DejaVuSans-48"/>
       <use x="127.246094" xlink:href="#DejaVuSans-48"/>
      </g>
     </g>
    </g>
    <g id="text_19">
     <!-- Power (W) -->
     <g transform="translate(16.318125 126.823188)rotate(-90)scale(0.12 -0.12)">
      <defs>
       <path d="M 9.1875 72.90625 
L 40.375 72.90625 
Q 54.296875 72.90625 61.734375 66.71875 
Q 69.1875 60.546875 69.1875 49.125 
Q 69.1875 37.640625 61.734375 31.46875 
Q 54.296875 25.296875 40.375 25.296875 
L 27.984375 25.296875 
L 27.984375 0 
L 9.1875 0 
z
M 27.984375 59.28125 
L 27.984375 38.921875 
L 38.375 38.921875 
Q 43.84375 38.921875 46.828125 41.578125 
Q 49.8125 44.234375 49.8125 49.125 
Q 49.8125 54 46.828125 56.640625 
Q 43.84375 59.28125 38.375 59.28125 
z
" id="DejaVuSans-Bold-80"/>
       <path d="M 34.421875 43.5 
Q 28.609375 43.5 25.5625 39.328125 
Q 22.515625 35.15625 22.515625 27.296875 
Q 22.515625 19.4375 25.5625 15.25 
Q 28.609375 11.078125 34.421875 11.078125 
Q 40.140625 11.078125 43.15625 15.25 
Q 46.1875 19.4375 46.1875 27.296875 
Q 46.1875 35.15625 43.15625 39.328125 
Q 40.140625 43.5 34.421875 43.5 
z
M 34.421875 56 
Q 48.53125 56 56.46875 48.375 
Q 64.40625 40.765625 64.40625 27.296875 
Q 64.40625 13.8125 56.46875 6.1875 
Q 48.53125 -1.421875 34.421875 -1.421875 
Q 20.265625 -1.421875 12.28125 6.1875 
Q 4.296875 13.8125 4.296875 27.296875 
Q 4.296875 40.765625 12.28125 48.375 
Q 20.265625 56 34.421875 56 
z
" id="DejaVuSans-Bold-111"/>
       <path d="M 3.515625 54.6875 
L 20.515625 54.6875 
L 29.6875 17 
L 38.921875 54.6875 
L 53.515625 54.6875 
L 62.703125 17.390625 
L 71.921875 54.6875 
L 88.921875 54.6875 
L 74.515625 0 
L 55.421875 0 
L 46.1875 37.59375 
L 37.015625 0 
L 17.921875 0 
z
" id="DejaVuSans-Bold-119"/>
       <path d="M 49.03125 39.796875 
Q 46.734375 40.875 44.453125 41.375 
Q 42.1875 41.890625 39.890625 41.890625 
Q 33.15625 41.890625 29.515625 37.5625 
Q 25.875 33.25 25.875 25.203125 
L 25.875 0 
L 8.40625 0 
L 8.40625 54.6875 
L 25.875 54.6875 
L 25.875 45.703125 
Q 29.25 51.078125 33.609375 53.53125 
Q 37.984375 56 44.09375 56 
Q 44.96875 56 45.984375 55.921875 
Q 47.015625 55.859375 48.96875 55.609375 
z
" id="DejaVuSans-Bold-114"/>
       <path d="M 2.984375 72.90625 
L 21 72.90625 
L 33.59375 19.921875 
L 46.09375 72.90625 
L 64.203125 72.90625 
L 76.703125 19.921875 
L 89.3125 72.90625 
L 107.171875 72.90625 
L 89.984375 0 
L 68.3125 0 
L 55.078125 55.421875 
L 42 0 
L 20.3125 0 
z
" id="DejaVuSans-Bold-87"/>
      </defs>
      <use xlink:href="#DejaVuSans-Bold-80"/>
      <use x="73.291016" xlink:href="#DejaVuSans-Bold-111"/>
      <use x="141.992188" xlink:href="#DejaVuSans-Bold-119"/>
      <use x="234.375" xlink:href="#DejaVuSans-Bold-101"/>
      <use x="302.197266" xlink:href="#DejaVuSans-Bold-114"/>
      <use x="351.513672" xlink:href="#DejaVuSans-Bold-32"/>
      <use x="386.328125" xlink:href="#DejaVuSans-Bold-40"/>
      <use x="432.03125" xlink:href="#DejaVuSans-Bold-87"/>
      <use x="542.333984" xlink:href="#DejaVuSans-Bold-41"/>
     </g>
    </g>
   </g>
   <g id="patch_7">
    <path d="M 118.047975 45.484597 
Q 95.47778 63.534592 73.606108 81.025959 
" style="fill:none;stroke:#ff0000;stroke-linecap:round;stroke-width:0.8;"/>
    <path d="M 78.853734 79.902381 
L 73.606108 81.025959 
L 75.855822 76.153712 
L 78.853734 79.902381 
z
" style="fill:#ff0000;stroke:#ff0000;stroke-linecap:round;stroke-width:0.8;"/>
   </g>
   <g id="text_20">
    <g id="patch_8">
     <path d="M 67.748464 43.835086 
L 212.800339 43.835086 
L 212.800339 11.583961 
L 67.748464 11.583961 
z
" style="fill:#fffafa;opacity:0.75;stroke:#000000;stroke-linejoin:miter;stroke-width:0.8;"/>
    </g>
    <!-- Predicted: 1102MHz -->
    <g transform="translate(71.348464 24.302086)scale(0.12 -0.12)">
     <defs>
      <path d="M 45.609375 46.6875 
L 45.609375 75.984375 
L 63.1875 75.984375 
L 63.1875 0 
L 45.609375 0 
L 45.609375 7.90625 
Q 42 3.078125 37.640625 0.828125 
Q 33.296875 -1.421875 27.59375 -1.421875 
Q 17.484375 -1.421875 10.984375 6.609375 
Q 4.5 14.65625 4.5 27.296875 
Q 4.5 39.9375 10.984375 47.96875 
Q 17.484375 56 27.59375 56 
Q 33.25 56 37.625 53.734375 
Q 42 51.46875 45.609375 46.6875 
z
M 34.078125 11.28125 
Q 39.703125 11.28125 42.65625 15.375 
Q 45.609375 19.484375 45.609375 27.296875 
Q 45.609375 35.109375 42.65625 39.203125 
Q 39.703125 43.3125 34.078125 43.3125 
Q 28.515625 43.3125 25.5625 39.203125 
Q 22.609375 35.109375 22.609375 27.296875 
Q 22.609375 19.484375 25.5625 15.375 
Q 28.515625 11.28125 34.078125 11.28125 
z
" id="DejaVuSans-Bold-100"/>
      <path d="M 52.59375 52.984375 
L 52.59375 38.71875 
Q 49.03125 41.15625 45.4375 42.328125 
Q 41.84375 43.5 37.984375 43.5 
Q 30.671875 43.5 26.59375 39.234375 
Q 22.515625 34.96875 22.515625 27.296875 
Q 22.515625 19.625 26.59375 15.34375 
Q 30.671875 11.078125 37.984375 11.078125 
Q 42.09375 11.078125 45.78125 12.296875 
Q 49.46875 13.53125 52.59375 15.921875 
L 52.59375 1.609375 
Q 48.484375 0.09375 44.265625 -0.65625 
Q 40.046875 -1.421875 35.796875 -1.421875 
Q 21 -1.421875 12.640625 6.171875 
Q 4.296875 13.765625 4.296875 27.296875 
Q 4.296875 40.828125 12.640625 48.40625 
Q 21 56 35.796875 56 
Q 40.09375 56 44.265625 55.25 
Q 48.4375 54.5 52.59375 52.984375 
z
" id="DejaVuSans-Bold-99"/>
      <path d="M 27.484375 70.21875 
L 27.484375 54.6875 
L 45.515625 54.6875 
L 45.515625 42.1875 
L 27.484375 42.1875 
L 27.484375 19 
Q 27.484375 15.1875 29 13.84375 
Q 30.515625 12.5 35.015625 12.5 
L 44 12.5 
L 44 0 
L 29 0 
Q 18.65625 0 14.328125 4.3125 
Q 10.015625 8.640625 10.015625 19 
L 10.015625 42.1875 
L 1.3125 42.1875 
L 1.3125 54.6875 
L 10.015625 54.6875 
L 10.015625 70.21875 
z
" id="DejaVuSans-Bold-116"/>
      <path d="M 11.1875 54.6875 
L 28.8125 54.6875 
L 28.8125 35.796875 
L 11.1875 35.796875 
z
M 11.1875 18.890625 
L 28.8125 18.890625 
L 28.8125 0 
L 11.1875 0 
z
" id="DejaVuSans-Bold-58"/>
      <path d="M 11.71875 12.984375 
L 28.328125 12.984375 
L 28.328125 60.109375 
L 11.28125 56.59375 
L 11.28125 69.390625 
L 28.21875 72.90625 
L 46.09375 72.90625 
L 46.09375 12.984375 
L 62.703125 12.984375 
L 62.703125 0 
L 11.71875 0 
z
" id="DejaVuSans-Bold-49"/>
      <path d="M 46 36.53125 
Q 46 50.203125 43.4375 55.78125 
Q 40.875 61.375 34.8125 61.375 
Q 28.765625 61.375 26.171875 55.78125 
Q 23.578125 50.203125 23.578125 36.53125 
Q 23.578125 22.703125 26.171875 17.03125 
Q 28.765625 11.375 34.8125 11.375 
Q 40.828125 11.375 43.40625 17.03125 
Q 46 22.703125 46 36.53125 
z
M 64.796875 36.375 
Q 64.796875 18.265625 56.984375 8.421875 
Q 49.171875 -1.421875 34.8125 -1.421875 
Q 20.40625 -1.421875 12.59375 8.421875 
Q 4.78125 18.265625 4.78125 36.375 
Q 4.78125 54.546875 12.59375 64.375 
Q 20.40625 74.21875 34.8125 74.21875 
Q 49.171875 74.21875 56.984375 64.375 
Q 64.796875 54.546875 64.796875 36.375 
z
" id="DejaVuSans-Bold-48"/>
      <path d="M 28.8125 13.8125 
L 60.890625 13.8125 
L 60.890625 0 
L 7.90625 0 
L 7.90625 13.8125 
L 34.515625 37.3125 
Q 38.09375 40.53125 39.796875 43.609375 
Q 41.5 46.6875 41.5 50 
Q 41.5 55.125 38.0625 58.25 
Q 34.625 61.375 28.90625 61.375 
Q 24.515625 61.375 19.28125 59.5 
Q 14.0625 57.625 8.109375 53.90625 
L 8.109375 69.921875 
Q 14.453125 72.015625 20.65625 73.109375 
Q 26.859375 74.21875 32.8125 74.21875 
Q 45.90625 74.21875 53.15625 68.453125 
Q 60.40625 62.703125 60.40625 52.390625 
Q 60.40625 46.4375 57.328125 41.28125 
Q 54.25 36.140625 44.390625 27.484375 
z
" id="DejaVuSans-Bold-50"/>
      <path d="M 9.1875 72.90625 
L 33.109375 72.90625 
L 49.703125 33.890625 
L 66.40625 72.90625 
L 90.28125 72.90625 
L 90.28125 0 
L 72.515625 0 
L 72.515625 53.328125 
L 55.71875 14.015625 
L 43.796875 14.015625 
L 27 53.328125 
L 27 0 
L 9.1875 0 
z
" id="DejaVuSans-Bold-77"/>
      <path d="M 9.1875 72.90625 
L 27.984375 72.90625 
L 27.984375 45.125 
L 55.71875 45.125 
L 55.71875 72.90625 
L 74.515625 72.90625 
L 74.515625 0 
L 55.71875 0 
L 55.71875 30.90625 
L 27.984375 30.90625 
L 27.984375 0 
L 9.1875 0 
z
" id="DejaVuSans-Bold-72"/>
      <path d="M 5.71875 54.6875 
L 53.421875 54.6875 
L 53.421875 42.484375 
L 24.609375 12.5 
L 53.421875 12.5 
L 53.421875 0 
L 4.5 0 
L 4.5 12.203125 
L 33.296875 42.1875 
L 5.71875 42.1875 
z
" id="DejaVuSans-Bold-122"/>
     </defs>
     <use xlink:href="#DejaVuSans-Bold-80"/>
     <use x="73.291016" xlink:href="#DejaVuSans-Bold-114"/>
     <use x="122.607422" xlink:href="#DejaVuSans-Bold-101"/>
     <use x="190.429688" xlink:href="#DejaVuSans-Bold-100"/>
     <use x="262.011719" xlink:href="#DejaVuSans-Bold-105"/>
     <use x="296.289062" xlink:href="#DejaVuSans-Bold-99"/>
     <use x="355.566406" xlink:href="#DejaVuSans-Bold-116"/>
     <use x="403.369141" xlink:href="#DejaVuSans-Bold-101"/>
     <use x="471.191406" xlink:href="#DejaVuSans-Bold-100"/>
     <use x="542.773438" xlink:href="#DejaVuSans-Bold-58"/>
     <use x="582.763672" xlink:href="#DejaVuSans-Bold-32"/>
     <use x="617.578125" xlink:href="#DejaVuSans-Bold-49"/>
     <use x="687.158203" xlink:href="#DejaVuSans-Bold-49"/>
     <use x="756.738281" xlink:href="#DejaVuSans-Bold-48"/>
     <use x="826.318359" xlink:href="#DejaVuSans-Bold-50"/>
     <use x="895.898438" xlink:href="#DejaVuSans-Bold-77"/>
     <use x="995.410156" xlink:href="#DejaVuSans-Bold-72"/>
     <use x="1079.101562" xlink:href="#DejaVuSans-Bold-122"/>
    </g>
    <!-- Measured: 1117MHz -->
    <g transform="translate(71.348464 37.739461)scale(0.12 -0.12)">
     <defs>
      <path d="M 32.90625 24.609375 
Q 27.4375 24.609375 24.671875 22.75 
Q 21.921875 20.90625 21.921875 17.28125 
Q 21.921875 13.96875 24.140625 12.078125 
Q 26.375 10.203125 30.328125 10.203125 
Q 35.25 10.203125 38.625 13.734375 
Q 42 17.28125 42 22.609375 
L 42 24.609375 
z
M 59.625 31.203125 
L 59.625 0 
L 42 0 
L 42 8.109375 
Q 38.484375 3.125 34.078125 0.84375 
Q 29.6875 -1.421875 23.390625 -1.421875 
Q 14.890625 -1.421875 9.59375 3.53125 
Q 4.296875 8.5 4.296875 16.40625 
Q 4.296875 26.03125 10.90625 30.515625 
Q 17.53125 35.015625 31.6875 35.015625 
L 42 35.015625 
L 42 36.375 
Q 42 40.53125 38.71875 42.453125 
Q 35.453125 44.390625 28.515625 44.390625 
Q 22.90625 44.390625 18.0625 43.265625 
Q 13.234375 42.140625 9.078125 39.890625 
L 9.078125 53.21875 
Q 14.703125 54.59375 20.359375 55.296875 
Q 26.03125 56 31.6875 56 
Q 46.484375 56 53.046875 50.171875 
Q 59.625 44.34375 59.625 31.203125 
z
" id="DejaVuSans-Bold-97"/>
      <path d="M 51.125 52.984375 
L 51.125 39.703125 
Q 45.515625 42.046875 40.28125 43.21875 
Q 35.0625 44.390625 30.421875 44.390625 
Q 25.4375 44.390625 23.015625 43.140625 
Q 20.609375 41.890625 20.609375 39.3125 
Q 20.609375 37.203125 22.4375 36.078125 
Q 24.265625 34.96875 29 34.421875 
L 32.078125 33.984375 
Q 45.515625 32.28125 50.140625 28.375 
Q 54.78125 24.46875 54.78125 16.109375 
Q 54.78125 7.375 48.328125 2.96875 
Q 41.890625 -1.421875 29.109375 -1.421875 
Q 23.6875 -1.421875 17.890625 -0.5625 
Q 12.109375 0.296875 6 2 
L 6 15.28125 
Q 11.234375 12.75 16.71875 11.46875 
Q 22.21875 10.203125 27.875 10.203125 
Q 33.015625 10.203125 35.59375 11.609375 
Q 38.1875 13.03125 38.1875 15.828125 
Q 38.1875 18.171875 36.40625 19.3125 
Q 34.625 20.453125 29.296875 21.09375 
L 26.21875 21.484375 
Q 14.546875 22.953125 9.859375 26.90625 
Q 5.171875 30.859375 5.171875 38.921875 
Q 5.171875 47.609375 11.125 51.796875 
Q 17.09375 56 29.390625 56 
Q 34.234375 56 39.546875 55.265625 
Q 44.875 54.546875 51.125 52.984375 
z
" id="DejaVuSans-Bold-115"/>
      <path d="M 6.6875 72.90625 
L 61.625 72.90625 
L 61.625 62.3125 
L 33.203125 0 
L 14.890625 0 
L 41.796875 59.078125 
L 6.6875 59.078125 
z
" id="DejaVuSans-Bold-55"/>
     </defs>
     <use xlink:href="#DejaVuSans-Bold-77"/>
     <use x="99.511719" xlink:href="#DejaVuSans-Bold-101"/>
     <use x="167.333984" xlink:href="#DejaVuSans-Bold-97"/>
     <use x="234.814453" xlink:href="#DejaVuSans-Bold-115"/>
     <use x="294.335938" xlink:href="#DejaVuSans-Bold-117"/>
     <use x="365.527344" xlink:href="#DejaVuSans-Bold-114"/>
     <use x="414.84375" xlink:href="#DejaVuSans-Bold-101"/>
     <use x="482.666016" xlink:href="#DejaVuSans-Bold-100"/>
     <use x="554.248047" xlink:href="#DejaVuSans-Bold-58"/>
     <use x="594.238281" xlink:href="#DejaVuSans-Bold-32"/>
     <use x="629.052734" xlink:href="#DejaVuSans-Bold-49"/>
     <use x="698.632812" xlink:href="#DejaVuSans-Bold-49"/>
     <use x="768.212891" xlink:href="#DejaVuSans-Bold-49"/>
     <use x="837.792969" xlink:href="#DejaVuSans-Bold-55"/>
     <use x="907.373047" xlink:href="#DejaVuSans-Bold-77"/>
     <use x="1006.884766" xlink:href="#DejaVuSans-Bold-72"/>
     <use x="1090.576172" xlink:href="#DejaVuSans-Bold-122"/>
    </g>
   </g>
  </g>
 </g>
 <defs>
  <clipPath id="p9798ba8b71">
   <rect height="160.164" width="187.164" x="44.61075" y="11.458375"/>
  </clipPath>
 </defs>
</svg>
