<?xml version="1.0" encoding="utf-8" standalone="no"?>
<!DOCTYPE svg PUBLIC "-//W3C//DTD SVG 1.1//EN"
  "http://www.w3.org/Graphics/SVG/1.1/DTD/svg11.dtd">
<!-- Created with matplotlib (https://matplotlib.org/) -->
<svg height="208.920688pt" version="1.1" viewBox="0 0 244.58675 208.920688" width="244.58675pt" xmlns="http://www.w3.org/2000/svg" xmlns:xlink="http://www.w3.org/1999/xlink">
 <metadata>
  <rdf:RDF xmlns:cc="http://creativecommons.org/ns#" xmlns:dc="http://purl.org/dc/elements/1.1/" xmlns:rdf="http://www.w3.org/1999/02/22-rdf-syntax-ns#">
   <cc:Work>
    <dc:type rdf:resource="http://purl.org/dc/dcmitype/StillImage"/>
    <dc:date>2021-10-22T16:12:53.620181</dc:date>
    <dc:format>image/svg+xml</dc:format>
    <dc:creator>
     <cc:Agent>
      <dc:title>Matplotlib v3.3.4, https://matplotlib.org/</dc:title>
     </cc:Agent>
    </dc:creator>
   </cc:Work>
  </rdf:RDF>
 </metadata>
 <defs>
  <style type="text/css">*{stroke-linecap:butt;stroke-linejoin:round;}</style>
 </defs>
 <g id="figure_1">
  <g id="patch_1">
   <path d="M 0 208.920688 
L 244.58675 208.920688 
L 244.58675 0 
L 0 0 
z
" style="fill:none;"/>
  </g>
  <g id="axes_1">
   <g id="patch_2">
    <path d="M 39.01175 171.622375 
L 228.98825 171.622375 
L 228.98825 11.458375 
L 39.01175 11.458375 
z
" style="fill:none;"/>
   </g>
   <g id="PathCollection_1">
    <defs>
     <path d="M -0 3.162278 
L 1.897367 0 
L 0 -3.162278 
L -1.897367 -0 
z
" id="ma2f2f3b21b" style="stroke:#ffffff;stroke-width:0.357771;"/>
    </defs>
    <g clip-path="url(#p8b050d827f)">
     <use style="fill:#0000ff;stroke:#ffffff;stroke-width:0.357771;" x="177.211523" xlink:href="#ma2f2f3b21b" y="132.037945"/>
     <use style="fill:#0000ff;stroke:#ffffff;stroke-width:0.357771;" x="188.913401" xlink:href="#ma2f2f3b21b" y="128.257525"/>
     <use style="fill:#0000ff;stroke:#ffffff;stroke-width:0.357771;" x="177.695146" xlink:href="#ma2f2f3b21b" y="130.841145"/>
     <use style="fill:#0000ff;stroke:#ffffff;stroke-width:0.357771;" x="207.874193" xlink:href="#ma2f2f3b21b" y="127.570768"/>
     <use style="fill:#0000ff;stroke:#ffffff;stroke-width:0.357771;" x="174.239734" xlink:href="#ma2f2f3b21b" y="124.501655"/>
     <use style="fill:#0000ff;stroke:#ffffff;stroke-width:0.357771;" x="190.448466" xlink:href="#ma2f2f3b21b" y="130.428019"/>
     <use style="fill:#0000ff;stroke:#ffffff;stroke-width:0.357771;" x="188.057904" xlink:href="#ma2f2f3b21b" y="123.79282"/>
     <use style="fill:#0000ff;stroke:#ffffff;stroke-width:0.357771;" x="177.386364" xlink:href="#ma2f2f3b21b" y="121.437586"/>
     <use style="fill:#0000ff;stroke:#ffffff;stroke-width:0.357771;" x="192.43927" xlink:href="#ma2f2f3b21b" y="124.253023"/>
     <use style="fill:#0000ff;stroke:#ffffff;stroke-width:0.357771;" x="172.34923" xlink:href="#ma2f2f3b21b" y="125.335901"/>
     <use style="fill:#0000ff;stroke:#ffffff;stroke-width:0.357771;" x="181.495573" xlink:href="#ma2f2f3b21b" y="125.346388"/>
     <use style="fill:#0000ff;stroke:#ffffff;stroke-width:0.357771;" x="160.001873" xlink:href="#ma2f2f3b21b" y="126.716951"/>
     <use style="fill:#0000ff;stroke:#ffffff;stroke-width:0.357771;" x="181.308746" xlink:href="#ma2f2f3b21b" y="125.967111"/>
     <use style="fill:#0000ff;stroke:#ffffff;stroke-width:0.357771;" x="157.108382" xlink:href="#ma2f2f3b21b" y="128.239286"/>
     <use style="fill:#0000ff;stroke:#ffffff;stroke-width:0.357771;" x="187.23041" xlink:href="#ma2f2f3b21b" y="125.445112"/>
     <use style="fill:#0000ff;stroke:#ffffff;stroke-width:0.357771;" x="137.132209" xlink:href="#ma2f2f3b21b" y="125.95054"/>
     <use style="fill:#0000ff;stroke:#ffffff;stroke-width:0.357771;" x="176.844446" xlink:href="#ma2f2f3b21b" y="123.702615"/>
     <use style="fill:#0000ff;stroke:#ffffff;stroke-width:0.357771;" x="158.216337" xlink:href="#ma2f2f3b21b" y="125.636003"/>
     <use style="fill:#0000ff;stroke:#ffffff;stroke-width:0.357771;" x="168.207408" xlink:href="#ma2f2f3b21b" y="119.417363"/>
     <use style="fill:#0000ff;stroke:#ffffff;stroke-width:0.357771;" x="154.400879" xlink:href="#ma2f2f3b21b" y="143.327328"/>
     <use style="fill:#0000ff;stroke:#ffffff;stroke-width:0.357771;" x="149.141059" xlink:href="#ma2f2f3b21b" y="122.344568"/>
     <use style="fill:#0000ff;stroke:#ffffff;stroke-width:0.357771;" x="129.001376" xlink:href="#ma2f2f3b21b" y="115.798781"/>
     <use style="fill:#0000ff;stroke:#ffffff;stroke-width:0.357771;" x="186.968269" xlink:href="#ma2f2f3b21b" y="114.912152"/>
     <use style="fill:#0000ff;stroke:#ffffff;stroke-width:0.357771;" x="131.651528" xlink:href="#ma2f2f3b21b" y="117.12165"/>
     <use style="fill:#0000ff;stroke:#ffffff;stroke-width:0.357771;" x="130.387559" xlink:href="#ma2f2f3b21b" y="120.690786"/>
     <use style="fill:#0000ff;stroke:#ffffff;stroke-width:0.357771;" x="127.238886" xlink:href="#ma2f2f3b21b" y="120.676594"/>
     <use style="fill:#0000ff;stroke:#ffffff;stroke-width:0.357771;" x="182.238293" xlink:href="#ma2f2f3b21b" y="121.92926"/>
     <use style="fill:#0000ff;stroke:#ffffff;stroke-width:0.357771;" x="118.427847" xlink:href="#ma2f2f3b21b" y="108.929289"/>
     <use style="fill:#0000ff;stroke:#ffffff;stroke-width:0.357771;" x="157.080743" xlink:href="#ma2f2f3b21b" y="112.373438"/>
     <use style="fill:#0000ff;stroke:#ffffff;stroke-width:0.357771;" x="143.7416" xlink:href="#ma2f2f3b21b" y="116.47769"/>
     <use style="fill:#0000ff;stroke:#ffffff;stroke-width:0.357771;" x="115.25204" xlink:href="#ma2f2f3b21b" y="111.510365"/>
     <use style="fill:#0000ff;stroke:#ffffff;stroke-width:0.357771;" x="115.053224" xlink:href="#ma2f2f3b21b" y="111.13369"/>
     <use style="fill:#0000ff;stroke:#ffffff;stroke-width:0.357771;" x="113.335751" xlink:href="#ma2f2f3b21b" y="111.498444"/>
     <use style="fill:#0000ff;stroke:#ffffff;stroke-width:0.357771;" x="100.493886" xlink:href="#ma2f2f3b21b" y="81.361953"/>
     <use style="fill:#0000ff;stroke:#ffffff;stroke-width:0.357771;" x="108.209811" xlink:href="#ma2f2f3b21b" y="102.128651"/>
     <use style="fill:#0000ff;stroke:#ffffff;stroke-width:0.357771;" x="141.308658" xlink:href="#ma2f2f3b21b" y="110.029879"/>
     <use style="fill:#0000ff;stroke:#ffffff;stroke-width:0.357771;" x="99.175784" xlink:href="#ma2f2f3b21b" y="100.242339"/>
     <use style="fill:#0000ff;stroke:#ffffff;stroke-width:0.357771;" x="141.121235" xlink:href="#ma2f2f3b21b" y="114.609833"/>
     <use style="fill:#0000ff;stroke:#ffffff;stroke-width:0.357771;" x="113.125848" xlink:href="#ma2f2f3b21b" y="106.743262"/>
     <use style="fill:#0000ff;stroke:#ffffff;stroke-width:0.357771;" x="113.10257" xlink:href="#ma2f2f3b21b" y="107.29481"/>
     <use style="fill:#0000ff;stroke:#ffffff;stroke-width:0.357771;" x="135.395039" xlink:href="#ma2f2f3b21b" y="104.369078"/>
     <use style="fill:#0000ff;stroke:#ffffff;stroke-width:0.357771;" x="98.147734" xlink:href="#ma2f2f3b21b" y="99.921449"/>
     <use style="fill:#0000ff;stroke:#ffffff;stroke-width:0.357771;" x="112.819951" xlink:href="#ma2f2f3b21b" y="108.642753"/>
     <use style="fill:#0000ff;stroke:#ffffff;stroke-width:0.357771;" x="101.234445" xlink:href="#ma2f2f3b21b" y="104.891239"/>
     <use style="fill:#0000ff;stroke:#ffffff;stroke-width:0.357771;" x="104.818014" xlink:href="#ma2f2f3b21b" y="100.732081"/>
     <use style="fill:#0000ff;stroke:#ffffff;stroke-width:0.357771;" x="134.731529" xlink:href="#ma2f2f3b21b" y="105.580344"/>
     <use style="fill:#0000ff;stroke:#ffffff;stroke-width:0.357771;" x="117.44912" xlink:href="#ma2f2f3b21b" y="106.682378"/>
     <use style="fill:#0000ff;stroke:#ffffff;stroke-width:0.357771;" x="87.458322" xlink:href="#ma2f2f3b21b" y="101.769777"/>
     <use style="fill:#0000ff;stroke:#ffffff;stroke-width:0.357771;" x="114.629548" xlink:href="#ma2f2f3b21b" y="94.669368"/>
     <use style="fill:#0000ff;stroke:#ffffff;stroke-width:0.357771;" x="127.066261" xlink:href="#ma2f2f3b21b" y="102.824336"/>
     <use style="fill:#0000ff;stroke:#ffffff;stroke-width:0.357771;" x="103.600093" xlink:href="#ma2f2f3b21b" y="97.151619"/>
     <use style="fill:#0000ff;stroke:#ffffff;stroke-width:0.357771;" x="130.611898" xlink:href="#ma2f2f3b21b" y="96.366238"/>
     <use style="fill:#0000ff;stroke:#ffffff;stroke-width:0.357771;" x="110.980002" xlink:href="#ma2f2f3b21b" y="96.374234"/>
     <use style="fill:#0000ff;stroke:#ffffff;stroke-width:0.357771;" x="89.93198" xlink:href="#ma2f2f3b21b" y="90.61126"/>
     <use style="fill:#0000ff;stroke:#ffffff;stroke-width:0.357771;" x="110.133566" xlink:href="#ma2f2f3b21b" y="102.241595"/>
     <use style="fill:#0000ff;stroke:#ffffff;stroke-width:0.357771;" x="114.939969" xlink:href="#ma2f2f3b21b" y="97.027576"/>
     <use style="fill:#0000ff;stroke:#ffffff;stroke-width:0.357771;" x="110.036497" xlink:href="#ma2f2f3b21b" y="99.01672"/>
     <use style="fill:#0000ff;stroke:#ffffff;stroke-width:0.357771;" x="149.277604" xlink:href="#ma2f2f3b21b" y="104.411502"/>
     <use style="fill:#0000ff;stroke:#ffffff;stroke-width:0.357771;" x="93.227639" xlink:href="#ma2f2f3b21b" y="97.3078"/>
     <use style="fill:#0000ff;stroke:#ffffff;stroke-width:0.357771;" x="77.390388" xlink:href="#ma2f2f3b21b" y="93.00368"/>
     <use style="fill:#0000ff;stroke:#ffffff;stroke-width:0.357771;" x="133.825955" xlink:href="#ma2f2f3b21b" y="106.861144"/>
     <use style="fill:#0000ff;stroke:#ffffff;stroke-width:0.357771;" x="107.55658" xlink:href="#ma2f2f3b21b" y="95.037674"/>
     <use style="fill:#0000ff;stroke:#ffffff;stroke-width:0.357771;" x="100.132143" xlink:href="#ma2f2f3b21b" y="94.789078"/>
     <use style="fill:#0000ff;stroke:#ffffff;stroke-width:0.357771;" x="116.186572" xlink:href="#ma2f2f3b21b" y="95.573461"/>
     <use style="fill:#0000ff;stroke:#ffffff;stroke-width:0.357771;" x="118.151995" xlink:href="#ma2f2f3b21b" y="99.289251"/>
     <use style="fill:#0000ff;stroke:#ffffff;stroke-width:0.357771;" x="111.342223" xlink:href="#ma2f2f3b21b" y="105.547721"/>
     <use style="fill:#0000ff;stroke:#ffffff;stroke-width:0.357771;" x="103.026347" xlink:href="#ma2f2f3b21b" y="101.140977"/>
     <use style="fill:#0000ff;stroke:#ffffff;stroke-width:0.357771;" x="98.130558" xlink:href="#ma2f2f3b21b" y="90.480807"/>
     <use style="fill:#0000ff;stroke:#ffffff;stroke-width:0.357771;" x="66.056529" xlink:href="#ma2f2f3b21b" y="98.385744"/>
     <use style="fill:#0000ff;stroke:#ffffff;stroke-width:0.357771;" x="128.980127" xlink:href="#ma2f2f3b21b" y="100.327823"/>
     <use style="fill:#0000ff;stroke:#ffffff;stroke-width:0.357771;" x="104.246542" xlink:href="#ma2f2f3b21b" y="91.877609"/>
     <use style="fill:#0000ff;stroke:#ffffff;stroke-width:0.357771;" x="93.042319" xlink:href="#ma2f2f3b21b" y="89.472406"/>
     <use style="fill:#0000ff;stroke:#ffffff;stroke-width:0.357771;" x="120.912114" xlink:href="#ma2f2f3b21b" y="97.147529"/>
     <use style="fill:#0000ff;stroke:#ffffff;stroke-width:0.357771;" x="83.485285" xlink:href="#ma2f2f3b21b" y="100.619034"/>
     <use style="fill:#0000ff;stroke:#ffffff;stroke-width:0.357771;" x="105.121214" xlink:href="#ma2f2f3b21b" y="88.672965"/>
     <use style="fill:#0000ff;stroke:#ffffff;stroke-width:0.357771;" x="91.915593" xlink:href="#ma2f2f3b21b" y="87.056714"/>
     <use style="fill:#0000ff;stroke:#ffffff;stroke-width:0.357771;" x="88.980285" xlink:href="#ma2f2f3b21b" y="79.085529"/>
     <use style="fill:#0000ff;stroke:#ffffff;stroke-width:0.357771;" x="93.655475" xlink:href="#ma2f2f3b21b" y="92.652985"/>
     <use style="fill:#0000ff;stroke:#ffffff;stroke-width:0.357771;" x="85.909562" xlink:href="#ma2f2f3b21b" y="81.744283"/>
     <use style="fill:#0000ff;stroke:#ffffff;stroke-width:0.357771;" x="114.212192" xlink:href="#ma2f2f3b21b" y="96.76706"/>
     <use style="fill:#0000ff;stroke:#ffffff;stroke-width:0.357771;" x="77.562505" xlink:href="#ma2f2f3b21b" y="87.932949"/>
     <use style="fill:#0000ff;stroke:#ffffff;stroke-width:0.357771;" x="125.362238" xlink:href="#ma2f2f3b21b" y="88.710121"/>
     <use style="fill:#0000ff;stroke:#ffffff;stroke-width:0.357771;" x="117.430772" xlink:href="#ma2f2f3b21b" y="82.106869"/>
     <use style="fill:#0000ff;stroke:#ffffff;stroke-width:0.357771;" x="94.125167" xlink:href="#ma2f2f3b21b" y="88.522237"/>
     <use style="fill:#0000ff;stroke:#ffffff;stroke-width:0.357771;" x="122.499488" xlink:href="#ma2f2f3b21b" y="79.823343"/>
     <use style="fill:#0000ff;stroke:#ffffff;stroke-width:0.357771;" x="95.053165" xlink:href="#ma2f2f3b21b" y="80.413643"/>
     <use style="fill:#0000ff;stroke:#ffffff;stroke-width:0.357771;" x="123.098079" xlink:href="#ma2f2f3b21b" y="87.034368"/>
     <use style="fill:#0000ff;stroke:#ffffff;stroke-width:0.357771;" x="119.153012" xlink:href="#ma2f2f3b21b" y="82.777644"/>
     <use style="fill:#0000ff;stroke:#ffffff;stroke-width:0.357771;" x="104.702206" xlink:href="#ma2f2f3b21b" y="65.605466"/>
     <use style="fill:#0000ff;stroke:#ffffff;stroke-width:0.357771;" x="78.524504" xlink:href="#ma2f2f3b21b" y="70.428936"/>
     <use style="fill:#0000ff;stroke:#ffffff;stroke-width:0.357771;" x="75.970073" xlink:href="#ma2f2f3b21b" y="62.793317"/>
     <use style="fill:#0000ff;stroke:#ffffff;stroke-width:0.357771;" x="81.367892" xlink:href="#ma2f2f3b21b" y="70.425891"/>
     <use style="fill:#0000ff;stroke:#ffffff;stroke-width:0.357771;" x="121.110419" xlink:href="#ma2f2f3b21b" y="69.267482"/>
     <use style="fill:#0000ff;stroke:#ffffff;stroke-width:0.357771;" x="89.377364" xlink:href="#ma2f2f3b21b" y="61.37534"/>
     <use style="fill:#0000ff;stroke:#ffffff;stroke-width:0.357771;" x="87.391547" xlink:href="#ma2f2f3b21b" y="65.268343"/>
     <use style="fill:#0000ff;stroke:#ffffff;stroke-width:0.357771;" x="116.607045" xlink:href="#ma2f2f3b21b" y="78.782022"/>
     <use style="fill:#0000ff;stroke:#ffffff;stroke-width:0.357771;" x="71.274376" xlink:href="#ma2f2f3b21b" y="61.369972"/>
     <use style="fill:#0000ff;stroke:#ffffff;stroke-width:0.357771;" x="60.531524" xlink:href="#ma2f2f3b21b" y="46.089303"/>
     <use style="fill:#0000ff;stroke:#ffffff;stroke-width:0.357771;" x="80.611505" xlink:href="#ma2f2f3b21b" y="60.929086"/>
     <use style="fill:#0000ff;stroke:#ffffff;stroke-width:0.357771;" x="108.13685" xlink:href="#ma2f2f3b21b" y="61.409705"/>
     <use style="fill:#0000ff;stroke:#ffffff;stroke-width:0.357771;" x="99.51619" xlink:href="#ma2f2f3b21b" y="65.23297"/>
     <use style="fill:#0000ff;stroke:#ffffff;stroke-width:0.357771;" x="123.176258" xlink:href="#ma2f2f3b21b" y="63.285911"/>
     <use style="fill:#0000ff;stroke:#ffffff;stroke-width:0.357771;" x="99.719048" xlink:href="#ma2f2f3b21b" y="59.896794"/>
     <use style="fill:#0000ff;stroke:#ffffff;stroke-width:0.357771;" x="98.663955" xlink:href="#ma2f2f3b21b" y="55.589085"/>
     <use style="fill:#0000ff;stroke:#ffffff;stroke-width:0.357771;" x="78.704479" xlink:href="#ma2f2f3b21b" y="53.399394"/>
     <use style="fill:#0000ff;stroke:#ffffff;stroke-width:0.357771;" x="91.16886" xlink:href="#ma2f2f3b21b" y="33.678869"/>
     <use style="fill:#0000ff;stroke:#ffffff;stroke-width:0.357771;" x="112.633717" xlink:href="#ma2f2f3b21b" y="51.103284"/>
     <use style="fill:#0000ff;stroke:#ffffff;stroke-width:0.357771;" x="108.232653" xlink:href="#ma2f2f3b21b" y="96.740366"/>
     <use style="fill:#0000ff;stroke:#ffffff;stroke-width:0.357771;" x="103.809271" xlink:href="#ma2f2f3b21b" y="40.432533"/>
     <use style="fill:#0000ff;stroke:#ffffff;stroke-width:0.357771;" x="91.889184" xlink:href="#ma2f2f3b21b" y="43.388157"/>
     <use style="fill:#0000ff;stroke:#ffffff;stroke-width:0.357771;" x="96.573389" xlink:href="#ma2f2f3b21b" y="44.201086"/>
     <use style="fill:#0000ff;stroke:#ffffff;stroke-width:0.357771;" x="87.799165" xlink:href="#ma2f2f3b21b" y="40.82384"/>
     <use style="fill:#0000ff;stroke:#ffffff;stroke-width:0.357771;" x="92.165455" xlink:href="#ma2f2f3b21b" y="45.884281"/>
    </g>
   </g>
   <g id="patch_3">
    <path d="M 39.01175 171.622375 
L 39.01175 11.458375 
" style="fill:none;stroke:#000000;stroke-linecap:square;stroke-linejoin:miter;"/>
   </g>
   <g id="patch_4">
    <path d="M 228.98825 171.622375 
L 228.98825 11.458375 
" style="fill:none;stroke:#000000;stroke-linecap:square;stroke-linejoin:miter;"/>
   </g>
   <g id="patch_5">
    <path d="M 39.01175 171.622375 
L 228.98825 171.622375 
" style="fill:none;stroke:#000000;stroke-linecap:square;stroke-linejoin:miter;"/>
   </g>
   <g id="patch_6">
    <path d="M 39.01175 11.458375 
L 228.98825 11.458375 
" style="fill:none;stroke:#000000;stroke-linecap:square;stroke-linejoin:miter;"/>
   </g>
   <g id="matplotlib.axis_1">
    <g id="xtick_1">
     <g id="line2d_1">
      <defs>
       <path d="M 0 0 
L 0 -4.8 
" id="mdf5dec3b52" style="stroke:#000000;"/>
      </defs>
      <g>
       <use style="stroke:#000000;" x="39.01175" xlink:href="#mdf5dec3b52" y="171.622375"/>
      </g>
     </g>
     <g id="line2d_2">
      <defs>
       <path d="M 0 0 
L 0 4.8 
" id="me04b76655f" style="stroke:#000000;"/>
      </defs>
      <g>
       <use style="stroke:#000000;" x="39.01175" xlink:href="#me04b76655f" y="11.458375"/>
      </g>
     </g>
     <g id="text_1">
      <!-- 70 -->
      <g transform="translate(33.41275 182.309)scale(0.088 -0.088)">
       <defs>
        <path d="M 8.203125 72.90625 
L 55.078125 72.90625 
L 55.078125 68.703125 
L 28.609375 0 
L 18.3125 0 
L 43.21875 64.59375 
L 8.203125 64.59375 
z
" id="DejaVuSans-55"/>
        <path d="M 31.78125 66.40625 
Q 24.171875 66.40625 20.328125 58.90625 
Q 16.5 51.421875 16.5 36.375 
Q 16.5 21.390625 20.328125 13.890625 
Q 24.171875 6.390625 31.78125 6.390625 
Q 39.453125 6.390625 43.28125 13.890625 
Q 47.125 21.390625 47.125 36.375 
Q 47.125 51.421875 43.28125 58.90625 
Q 39.453125 66.40625 31.78125 66.40625 
z
M 31.78125 74.21875 
Q 44.046875 74.21875 50.515625 64.515625 
Q 56.984375 54.828125 56.984375 36.375 
Q 56.984375 17.96875 50.515625 8.265625 
Q 44.046875 -1.421875 31.78125 -1.421875 
Q 19.53125 -1.421875 13.0625 8.265625 
Q 6.59375 17.96875 6.59375 36.375 
Q 6.59375 54.828125 13.0625 64.515625 
Q 19.53125 74.21875 31.78125 74.21875 
z
" id="DejaVuSans-48"/>
       </defs>
       <use xlink:href="#DejaVuSans-55"/>
       <use x="63.623047" xlink:href="#DejaVuSans-48"/>
      </g>
     </g>
    </g>
    <g id="xtick_2">
     <g id="line2d_3">
      <g>
       <use style="stroke:#000000;" x="77.00705" xlink:href="#mdf5dec3b52" y="171.622375"/>
      </g>
     </g>
     <g id="line2d_4">
      <g>
       <use style="stroke:#000000;" x="77.00705" xlink:href="#me04b76655f" y="11.458375"/>
      </g>
     </g>
     <g id="text_2">
      <!-- 80 -->
      <g transform="translate(71.40805 182.309)scale(0.088 -0.088)">
       <defs>
        <path d="M 31.78125 34.625 
Q 24.75 34.625 20.71875 30.859375 
Q 16.703125 27.09375 16.703125 20.515625 
Q 16.703125 13.921875 20.71875 10.15625 
Q 24.75 6.390625 31.78125 6.390625 
Q 38.8125 6.390625 42.859375 10.171875 
Q 46.921875 13.96875 46.921875 20.515625 
Q 46.921875 27.09375 42.890625 30.859375 
Q 38.875 34.625 31.78125 34.625 
z
M 21.921875 38.8125 
Q 15.578125 40.375 12.03125 44.71875 
Q 8.5 49.078125 8.5 55.328125 
Q 8.5 64.0625 14.71875 69.140625 
Q 20.953125 74.21875 31.78125 74.21875 
Q 42.671875 74.21875 48.875 69.140625 
Q 55.078125 64.0625 55.078125 55.328125 
Q 55.078125 49.078125 51.53125 44.71875 
Q 48 40.375 41.703125 38.8125 
Q 48.828125 37.15625 52.796875 32.3125 
Q 56.78125 27.484375 56.78125 20.515625 
Q 56.78125 9.90625 50.3125 4.234375 
Q 43.84375 -1.421875 31.78125 -1.421875 
Q 19.734375 -1.421875 13.25 4.234375 
Q 6.78125 9.90625 6.78125 20.515625 
Q 6.78125 27.484375 10.78125 32.3125 
Q 14.796875 37.15625 21.921875 38.8125 
z
M 18.3125 54.390625 
Q 18.3125 48.734375 21.84375 45.5625 
Q 25.390625 42.390625 31.78125 42.390625 
Q 38.140625 42.390625 41.71875 45.5625 
Q 45.3125 48.734375 45.3125 54.390625 
Q 45.3125 60.0625 41.71875 63.234375 
Q 38.140625 66.40625 31.78125 66.40625 
Q 25.390625 66.40625 21.84375 63.234375 
Q 18.3125 60.0625 18.3125 54.390625 
z
" id="DejaVuSans-56"/>
       </defs>
       <use xlink:href="#DejaVuSans-56"/>
       <use x="63.623047" xlink:href="#DejaVuSans-48"/>
      </g>
     </g>
    </g>
    <g id="xtick_3">
     <g id="line2d_5">
      <g>
       <use style="stroke:#000000;" x="115.00235" xlink:href="#mdf5dec3b52" y="171.622375"/>
      </g>
     </g>
     <g id="line2d_6">
      <g>
       <use style="stroke:#000000;" x="115.00235" xlink:href="#me04b76655f" y="11.458375"/>
      </g>
     </g>
     <g id="text_3">
      <!-- 90 -->
      <g transform="translate(109.40335 182.309)scale(0.088 -0.088)">
       <defs>
        <path d="M 10.984375 1.515625 
L 10.984375 10.5 
Q 14.703125 8.734375 18.5 7.8125 
Q 22.3125 6.890625 25.984375 6.890625 
Q 35.75 6.890625 40.890625 13.453125 
Q 46.046875 20.015625 46.78125 33.40625 
Q 43.953125 29.203125 39.59375 26.953125 
Q 35.25 24.703125 29.984375 24.703125 
Q 19.046875 24.703125 12.671875 31.3125 
Q 6.296875 37.9375 6.296875 49.421875 
Q 6.296875 60.640625 12.9375 67.421875 
Q 19.578125 74.21875 30.609375 74.21875 
Q 43.265625 74.21875 49.921875 64.515625 
Q 56.59375 54.828125 56.59375 36.375 
Q 56.59375 19.140625 48.40625 8.859375 
Q 40.234375 -1.421875 26.421875 -1.421875 
Q 22.703125 -1.421875 18.890625 -0.6875 
Q 15.09375 0.046875 10.984375 1.515625 
z
M 30.609375 32.421875 
Q 37.25 32.421875 41.125 36.953125 
Q 45.015625 41.5 45.015625 49.421875 
Q 45.015625 57.28125 41.125 61.84375 
Q 37.25 66.40625 30.609375 66.40625 
Q 23.96875 66.40625 20.09375 61.84375 
Q 16.21875 57.28125 16.21875 49.421875 
Q 16.21875 41.5 20.09375 36.953125 
Q 23.96875 32.421875 30.609375 32.421875 
z
" id="DejaVuSans-57"/>
       </defs>
       <use xlink:href="#DejaVuSans-57"/>
       <use x="63.623047" xlink:href="#DejaVuSans-48"/>
      </g>
     </g>
    </g>
    <g id="xtick_4">
     <g id="line2d_7">
      <g>
       <use style="stroke:#000000;" x="152.99765" xlink:href="#mdf5dec3b52" y="171.622375"/>
      </g>
     </g>
     <g id="line2d_8">
      <g>
       <use style="stroke:#000000;" x="152.99765" xlink:href="#me04b76655f" y="11.458375"/>
      </g>
     </g>
     <g id="text_4">
      <!-- 100 -->
      <g transform="translate(144.59915 182.309)scale(0.088 -0.088)">
       <defs>
        <path d="M 12.40625 8.296875 
L 28.515625 8.296875 
L 28.515625 63.921875 
L 10.984375 60.40625 
L 10.984375 69.390625 
L 28.421875 72.90625 
L 38.28125 72.90625 
L 38.28125 8.296875 
L 54.390625 8.296875 
L 54.390625 0 
L 12.40625 0 
z
" id="DejaVuSans-49"/>
       </defs>
       <use xlink:href="#DejaVuSans-49"/>
       <use x="63.623047" xlink:href="#DejaVuSans-48"/>
       <use x="127.246094" xlink:href="#DejaVuSans-48"/>
      </g>
     </g>
    </g>
    <g id="xtick_5">
     <g id="line2d_9">
      <g>
       <use style="stroke:#000000;" x="190.99295" xlink:href="#mdf5dec3b52" y="171.622375"/>
      </g>
     </g>
     <g id="line2d_10">
      <g>
       <use style="stroke:#000000;" x="190.99295" xlink:href="#me04b76655f" y="11.458375"/>
      </g>
     </g>
     <g id="text_5">
      <!-- 110 -->
      <g transform="translate(182.59445 182.309)scale(0.088 -0.088)">
       <use xlink:href="#DejaVuSans-49"/>
       <use x="63.623047" xlink:href="#DejaVuSans-49"/>
       <use x="127.246094" xlink:href="#DejaVuSans-48"/>
      </g>
     </g>
    </g>
    <g id="xtick_6">
     <g id="line2d_11">
      <g>
       <use style="stroke:#000000;" x="228.98825" xlink:href="#mdf5dec3b52" y="171.622375"/>
      </g>
     </g>
     <g id="line2d_12">
      <g>
       <use style="stroke:#000000;" x="228.98825" xlink:href="#me04b76655f" y="11.458375"/>
      </g>
     </g>
     <g id="text_6">
      <!-- 120 -->
      <g transform="translate(220.58975 182.309)scale(0.088 -0.088)">
       <defs>
        <path d="M 19.1875 8.296875 
L 53.609375 8.296875 
L 53.609375 0 
L 7.328125 0 
L 7.328125 8.296875 
Q 12.9375 14.109375 22.625 23.890625 
Q 32.328125 33.6875 34.8125 36.53125 
Q 39.546875 41.84375 41.421875 45.53125 
Q 43.3125 49.21875 43.3125 52.78125 
Q 43.3125 58.59375 39.234375 62.25 
Q 35.15625 65.921875 28.609375 65.921875 
Q 23.96875 65.921875 18.8125 64.3125 
Q 13.671875 62.703125 7.8125 59.421875 
L 7.8125 69.390625 
Q 13.765625 71.78125 18.9375 73 
Q 24.125 74.21875 28.421875 74.21875 
Q 39.75 74.21875 46.484375 68.546875 
Q 53.21875 62.890625 53.21875 53.421875 
Q 53.21875 48.921875 51.53125 44.890625 
Q 49.859375 40.875 45.40625 35.40625 
Q 44.1875 33.984375 37.640625 27.21875 
Q 31.109375 20.453125 19.1875 8.296875 
z
" id="DejaVuSans-50"/>
       </defs>
       <use xlink:href="#DejaVuSans-49"/>
       <use x="63.623047" xlink:href="#DejaVuSans-50"/>
       <use x="127.246094" xlink:href="#DejaVuSans-48"/>
      </g>
     </g>
    </g>
    <g id="text_7">
     <!-- Run Time (S) -->
     <g transform="translate(86.748047 199.017094)scale(0.13 -0.13)">
      <defs>
       <path d="M 35.890625 40.578125 
Q 41.796875 40.578125 44.359375 42.765625 
Q 46.921875 44.96875 46.921875 50 
Q 46.921875 54.984375 44.359375 57.125 
Q 41.796875 59.28125 35.890625 59.28125 
L 27.984375 59.28125 
L 27.984375 40.578125 
z
M 27.984375 27.59375 
L 27.984375 0 
L 9.1875 0 
L 9.1875 72.90625 
L 37.890625 72.90625 
Q 52.296875 72.90625 59 68.0625 
Q 65.71875 63.234375 65.71875 52.78125 
Q 65.71875 45.5625 62.21875 40.921875 
Q 58.734375 36.28125 51.703125 34.078125 
Q 55.5625 33.203125 58.609375 30.09375 
Q 61.671875 27 64.796875 20.703125 
L 75 0 
L 54.984375 0 
L 46.09375 18.109375 
Q 43.40625 23.578125 40.640625 25.578125 
Q 37.890625 27.59375 33.296875 27.59375 
z
" id="DejaVuSans-Bold-82"/>
       <path d="M 7.8125 21.296875 
L 7.8125 54.6875 
L 25.390625 54.6875 
L 25.390625 49.21875 
Q 25.390625 44.78125 25.34375 38.0625 
Q 25.296875 31.34375 25.296875 29.109375 
Q 25.296875 22.515625 25.640625 19.609375 
Q 25.984375 16.703125 26.8125 15.375 
Q 27.875 13.671875 29.609375 12.734375 
Q 31.34375 11.8125 33.59375 11.8125 
Q 39.0625 11.8125 42.1875 16.015625 
Q 45.3125 20.21875 45.3125 27.6875 
L 45.3125 54.6875 
L 62.796875 54.6875 
L 62.796875 0 
L 45.3125 0 
L 45.3125 7.90625 
Q 41.359375 3.125 36.9375 0.84375 
Q 32.515625 -1.421875 27.203125 -1.421875 
Q 17.71875 -1.421875 12.765625 4.390625 
Q 7.8125 10.203125 7.8125 21.296875 
z
" id="DejaVuSans-Bold-117"/>
       <path d="M 63.375 33.296875 
L 63.375 0 
L 45.796875 0 
L 45.796875 5.421875 
L 45.796875 25.484375 
Q 45.796875 32.5625 45.484375 35.25 
Q 45.171875 37.9375 44.390625 39.203125 
Q 43.359375 40.921875 41.59375 41.875 
Q 39.84375 42.828125 37.59375 42.828125 
Q 32.125 42.828125 29 38.59375 
Q 25.875 34.375 25.875 26.90625 
L 25.875 0 
L 8.40625 0 
L 8.40625 54.6875 
L 25.875 54.6875 
L 25.875 46.6875 
Q 29.828125 51.46875 34.265625 53.734375 
Q 38.71875 56 44.09375 56 
Q 53.5625 56 58.46875 50.1875 
Q 63.375 44.390625 63.375 33.296875 
z
" id="DejaVuSans-Bold-110"/>
       <path id="DejaVuSans-Bold-32"/>
       <path d="M 0.484375 72.90625 
L 67.671875 72.90625 
L 67.671875 58.6875 
L 43.5 58.6875 
L 43.5 0 
L 24.703125 0 
L 24.703125 58.6875 
L 0.484375 58.6875 
z
" id="DejaVuSans-Bold-84"/>
       <path d="M 8.40625 54.6875 
L 25.875 54.6875 
L 25.875 0 
L 8.40625 0 
z
M 8.40625 75.984375 
L 25.875 75.984375 
L 25.875 61.71875 
L 8.40625 61.71875 
z
" id="DejaVuSans-Bold-105"/>
       <path d="M 59.078125 45.609375 
Q 62.40625 50.6875 66.96875 53.34375 
Q 71.53125 56 77 56 
Q 86.421875 56 91.359375 50.1875 
Q 96.296875 44.390625 96.296875 33.296875 
L 96.296875 0 
L 78.71875 0 
L 78.71875 28.515625 
Q 78.765625 29.15625 78.78125 29.828125 
Q 78.8125 30.515625 78.8125 31.78125 
Q 78.8125 37.59375 77.09375 40.203125 
Q 75.390625 42.828125 71.578125 42.828125 
Q 66.609375 42.828125 63.890625 38.71875 
Q 61.1875 34.625 61.078125 26.859375 
L 61.078125 0 
L 43.5 0 
L 43.5 28.515625 
Q 43.5 37.59375 41.9375 40.203125 
Q 40.375 42.828125 36.375 42.828125 
Q 31.34375 42.828125 28.609375 38.703125 
Q 25.875 34.578125 25.875 26.90625 
L 25.875 0 
L 8.296875 0 
L 8.296875 54.6875 
L 25.875 54.6875 
L 25.875 46.6875 
Q 29.109375 51.3125 33.28125 53.65625 
Q 37.453125 56 42.484375 56 
Q 48.140625 56 52.484375 53.265625 
Q 56.84375 50.53125 59.078125 45.609375 
z
" id="DejaVuSans-Bold-109"/>
       <path d="M 62.984375 27.484375 
L 62.984375 22.515625 
L 22.125 22.515625 
Q 22.75 16.359375 26.5625 13.28125 
Q 30.375 10.203125 37.203125 10.203125 
Q 42.71875 10.203125 48.5 11.84375 
Q 54.296875 13.484375 60.40625 16.796875 
L 60.40625 3.328125 
Q 54.203125 0.984375 48 -0.21875 
Q 41.796875 -1.421875 35.59375 -1.421875 
Q 20.75 -1.421875 12.515625 6.125 
Q 4.296875 13.671875 4.296875 27.296875 
Q 4.296875 40.671875 12.375 48.328125 
Q 20.453125 56 34.625 56 
Q 47.515625 56 55.25 48.234375 
Q 62.984375 40.484375 62.984375 27.484375 
z
M 45.015625 33.296875 
Q 45.015625 38.28125 42.109375 41.328125 
Q 39.203125 44.390625 34.515625 44.390625 
Q 29.4375 44.390625 26.265625 41.53125 
Q 23.09375 38.671875 22.3125 33.296875 
z
" id="DejaVuSans-Bold-101"/>
       <path d="M 37.703125 -13.1875 
L 23.1875 -13.1875 
Q 15.71875 -1.125 12.15625 9.734375 
Q 8.59375 20.609375 8.59375 31.296875 
Q 8.59375 42 12.171875 52.953125 
Q 15.765625 63.921875 23.1875 75.875 
L 37.703125 75.875 
Q 31.453125 64.3125 28.328125 53.25 
Q 25.203125 42.1875 25.203125 31.390625 
Q 25.203125 20.609375 28.296875 9.515625 
Q 31.390625 -1.5625 37.703125 -13.1875 
z
" id="DejaVuSans-Bold-40"/>
       <path d="M 59.90625 70.609375 
L 59.90625 55.171875 
Q 53.90625 57.859375 48.1875 59.21875 
Q 42.484375 60.59375 37.40625 60.59375 
Q 30.671875 60.59375 27.4375 58.734375 
Q 24.21875 56.890625 24.21875 52.984375 
Q 24.21875 50.046875 26.390625 48.40625 
Q 28.5625 46.78125 34.28125 45.609375 
L 42.28125 44 
Q 54.4375 41.546875 59.5625 36.5625 
Q 64.703125 31.59375 64.703125 22.40625 
Q 64.703125 10.359375 57.546875 4.46875 
Q 50.390625 -1.421875 35.6875 -1.421875 
Q 28.765625 -1.421875 21.78125 -0.09375 
Q 14.796875 1.21875 7.8125 3.8125 
L 7.8125 19.671875 
Q 14.796875 15.96875 21.3125 14.078125 
Q 27.828125 12.203125 33.890625 12.203125 
Q 40.046875 12.203125 43.3125 14.25 
Q 46.578125 16.3125 46.578125 20.125 
Q 46.578125 23.53125 44.359375 25.390625 
Q 42.140625 27.25 35.5 28.71875 
L 28.21875 30.328125 
Q 17.28125 32.671875 12.21875 37.796875 
Q 7.171875 42.921875 7.171875 51.609375 
Q 7.171875 62.5 14.203125 68.359375 
Q 21.234375 74.21875 34.421875 74.21875 
Q 40.4375 74.21875 46.78125 73.3125 
Q 53.125 72.40625 59.90625 70.609375 
z
" id="DejaVuSans-Bold-83"/>
       <path d="M 8.015625 -13.1875 
Q 14.265625 -1.5625 17.390625 9.515625 
Q 20.515625 20.609375 20.515625 31.390625 
Q 20.515625 42.1875 17.390625 53.25 
Q 14.265625 64.3125 8.015625 75.875 
L 22.515625 75.875 
Q 29.9375 63.921875 33.515625 52.953125 
Q 37.109375 42 37.109375 31.296875 
Q 37.109375 20.609375 33.546875 9.734375 
Q 29.984375 -1.125 22.515625 -13.1875 
z
" id="DejaVuSans-Bold-41"/>
      </defs>
      <use xlink:href="#DejaVuSans-Bold-82"/>
      <use x="77.001953" xlink:href="#DejaVuSans-Bold-117"/>
      <use x="148.193359" xlink:href="#DejaVuSans-Bold-110"/>
      <use x="219.384766" xlink:href="#DejaVuSans-Bold-32"/>
      <use x="254.199219" xlink:href="#DejaVuSans-Bold-84"/>
      <use x="322.412109" xlink:href="#DejaVuSans-Bold-105"/>
      <use x="356.689453" xlink:href="#DejaVuSans-Bold-109"/>
      <use x="460.888672" xlink:href="#DejaVuSans-Bold-101"/>
      <use x="528.710938" xlink:href="#DejaVuSans-Bold-32"/>
      <use x="563.525391" xlink:href="#DejaVuSans-Bold-40"/>
      <use x="609.228516" xlink:href="#DejaVuSans-Bold-83"/>
      <use x="681.25" xlink:href="#DejaVuSans-Bold-41"/>
     </g>
    </g>
   </g>
   <g id="matplotlib.axis_2">
    <g id="ytick_1">
     <g id="line2d_13">
      <defs>
       <path d="M 0 0 
L 4.8 0 
" id="m68dc6f935c" style="stroke:#000000;"/>
      </defs>
      <g>
       <use style="stroke:#000000;" x="39.01175" xlink:href="#m68dc6f935c" y="171.622375"/>
      </g>
     </g>
     <g id="line2d_14">
      <defs>
       <path d="M 0 0 
L -4.8 0 
" id="md24b0d4d32" style="stroke:#000000;"/>
      </defs>
      <g>
       <use style="stroke:#000000;" x="228.98825" xlink:href="#md24b0d4d32" y="171.622375"/>
      </g>
     </g>
     <g id="text_8">
      <!-- 30 -->
      <g transform="translate(23.81375 174.050625)scale(0.088 -0.088)">
       <defs>
        <path d="M 40.578125 39.3125 
Q 47.65625 37.796875 51.625 33 
Q 55.609375 28.21875 55.609375 21.1875 
Q 55.609375 10.40625 48.1875 4.484375 
Q 40.765625 -1.421875 27.09375 -1.421875 
Q 22.515625 -1.421875 17.65625 -0.515625 
Q 12.796875 0.390625 7.625 2.203125 
L 7.625 11.71875 
Q 11.71875 9.328125 16.59375 8.109375 
Q 21.484375 6.890625 26.8125 6.890625 
Q 36.078125 6.890625 40.9375 10.546875 
Q 45.796875 14.203125 45.796875 21.1875 
Q 45.796875 27.640625 41.28125 31.265625 
Q 36.765625 34.90625 28.71875 34.90625 
L 20.21875 34.90625 
L 20.21875 43.015625 
L 29.109375 43.015625 
Q 36.375 43.015625 40.234375 45.921875 
Q 44.09375 48.828125 44.09375 54.296875 
Q 44.09375 59.90625 40.109375 62.90625 
Q 36.140625 65.921875 28.71875 65.921875 
Q 24.65625 65.921875 20.015625 65.03125 
Q 15.375 64.15625 9.8125 62.3125 
L 9.8125 71.09375 
Q 15.4375 72.65625 20.34375 73.4375 
Q 25.25 74.21875 29.59375 74.21875 
Q 40.828125 74.21875 47.359375 69.109375 
Q 53.90625 64.015625 53.90625 55.328125 
Q 53.90625 49.265625 50.4375 45.09375 
Q 46.96875 40.921875 40.578125 39.3125 
z
" id="DejaVuSans-51"/>
       </defs>
       <use xlink:href="#DejaVuSans-51"/>
       <use x="63.623047" xlink:href="#DejaVuSans-48"/>
      </g>
     </g>
    </g>
    <g id="ytick_2">
     <g id="line2d_15">
      <g>
       <use style="stroke:#000000;" x="39.01175" xlink:href="#m68dc6f935c" y="144.928375"/>
      </g>
     </g>
     <g id="line2d_16">
      <g>
       <use style="stroke:#000000;" x="228.98825" xlink:href="#md24b0d4d32" y="144.928375"/>
      </g>
     </g>
     <g id="text_9">
      <!-- 40 -->
      <g transform="translate(23.81375 147.356625)scale(0.088 -0.088)">
       <defs>
        <path d="M 37.796875 64.3125 
L 12.890625 25.390625 
L 37.796875 25.390625 
z
M 35.203125 72.90625 
L 47.609375 72.90625 
L 47.609375 25.390625 
L 58.015625 25.390625 
L 58.015625 17.1875 
L 47.609375 17.1875 
L 47.609375 0 
L 37.796875 0 
L 37.796875 17.1875 
L 4.890625 17.1875 
L 4.890625 26.703125 
z
" id="DejaVuSans-52"/>
       </defs>
       <use xlink:href="#DejaVuSans-52"/>
       <use x="63.623047" xlink:href="#DejaVuSans-48"/>
      </g>
     </g>
    </g>
    <g id="ytick_3">
     <g id="line2d_17">
      <g>
       <use style="stroke:#000000;" x="39.01175" xlink:href="#m68dc6f935c" y="118.234375"/>
      </g>
     </g>
     <g id="line2d_18">
      <g>
       <use style="stroke:#000000;" x="228.98825" xlink:href="#md24b0d4d32" y="118.234375"/>
      </g>
     </g>
     <g id="text_10">
      <!-- 50 -->
      <g transform="translate(23.81375 120.662625)scale(0.088 -0.088)">
       <defs>
        <path d="M 10.796875 72.90625 
L 49.515625 72.90625 
L 49.515625 64.59375 
L 19.828125 64.59375 
L 19.828125 46.734375 
Q 21.96875 47.46875 24.109375 47.828125 
Q 26.265625 48.1875 28.421875 48.1875 
Q 40.625 48.1875 47.75 41.5 
Q 54.890625 34.8125 54.890625 23.390625 
Q 54.890625 11.625 47.5625 5.09375 
Q 40.234375 -1.421875 26.90625 -1.421875 
Q 22.3125 -1.421875 17.546875 -0.640625 
Q 12.796875 0.140625 7.71875 1.703125 
L 7.71875 11.625 
Q 12.109375 9.234375 16.796875 8.0625 
Q 21.484375 6.890625 26.703125 6.890625 
Q 35.15625 6.890625 40.078125 11.328125 
Q 45.015625 15.765625 45.015625 23.390625 
Q 45.015625 31 40.078125 35.4375 
Q 35.15625 39.890625 26.703125 39.890625 
Q 22.75 39.890625 18.8125 39.015625 
Q 14.890625 38.140625 10.796875 36.28125 
z
" id="DejaVuSans-53"/>
       </defs>
       <use xlink:href="#DejaVuSans-53"/>
       <use x="63.623047" xlink:href="#DejaVuSans-48"/>
      </g>
     </g>
    </g>
    <g id="ytick_4">
     <g id="line2d_19">
      <g>
       <use style="stroke:#000000;" x="39.01175" xlink:href="#m68dc6f935c" y="91.540375"/>
      </g>
     </g>
     <g id="line2d_20">
      <g>
       <use style="stroke:#000000;" x="228.98825" xlink:href="#md24b0d4d32" y="91.540375"/>
      </g>
     </g>
     <g id="text_11">
      <!-- 60 -->
      <g transform="translate(23.81375 93.968625)scale(0.088 -0.088)">
       <defs>
        <path d="M 33.015625 40.375 
Q 26.375 40.375 22.484375 35.828125 
Q 18.609375 31.296875 18.609375 23.390625 
Q 18.609375 15.53125 22.484375 10.953125 
Q 26.375 6.390625 33.015625 6.390625 
Q 39.65625 6.390625 43.53125 10.953125 
Q 47.40625 15.53125 47.40625 23.390625 
Q 47.40625 31.296875 43.53125 35.828125 
Q 39.65625 40.375 33.015625 40.375 
z
M 52.59375 71.296875 
L 52.59375 62.3125 
Q 48.875 64.0625 45.09375 64.984375 
Q 41.3125 65.921875 37.59375 65.921875 
Q 27.828125 65.921875 22.671875 59.328125 
Q 17.53125 52.734375 16.796875 39.40625 
Q 19.671875 43.65625 24.015625 45.921875 
Q 28.375 48.1875 33.59375 48.1875 
Q 44.578125 48.1875 50.953125 41.515625 
Q 57.328125 34.859375 57.328125 23.390625 
Q 57.328125 12.15625 50.6875 5.359375 
Q 44.046875 -1.421875 33.015625 -1.421875 
Q 20.359375 -1.421875 13.671875 8.265625 
Q 6.984375 17.96875 6.984375 36.375 
Q 6.984375 53.65625 15.1875 63.9375 
Q 23.390625 74.21875 37.203125 74.21875 
Q 40.921875 74.21875 44.703125 73.484375 
Q 48.484375 72.75 52.59375 71.296875 
z
" id="DejaVuSans-54"/>
       </defs>
       <use xlink:href="#DejaVuSans-54"/>
       <use x="63.623047" xlink:href="#DejaVuSans-48"/>
      </g>
     </g>
    </g>
    <g id="ytick_5">
     <g id="line2d_21">
      <g>
       <use style="stroke:#000000;" x="39.01175" xlink:href="#m68dc6f935c" y="64.846375"/>
      </g>
     </g>
     <g id="line2d_22">
      <g>
       <use style="stroke:#000000;" x="228.98825" xlink:href="#md24b0d4d32" y="64.846375"/>
      </g>
     </g>
     <g id="text_12">
      <!-- 70 -->
      <g transform="translate(23.81375 67.274625)scale(0.088 -0.088)">
       <use xlink:href="#DejaVuSans-55"/>
       <use x="63.623047" xlink:href="#DejaVuSans-48"/>
      </g>
     </g>
    </g>
    <g id="ytick_6">
     <g id="line2d_23">
      <g>
       <use style="stroke:#000000;" x="39.01175" xlink:href="#m68dc6f935c" y="38.152375"/>
      </g>
     </g>
     <g id="line2d_24">
      <g>
       <use style="stroke:#000000;" x="228.98825" xlink:href="#md24b0d4d32" y="38.152375"/>
      </g>
     </g>
     <g id="text_13">
      <!-- 80 -->
      <g transform="translate(23.81375 40.580625)scale(0.088 -0.088)">
       <use xlink:href="#DejaVuSans-56"/>
       <use x="63.623047" xlink:href="#DejaVuSans-48"/>
      </g>
     </g>
    </g>
    <g id="ytick_7">
     <g id="line2d_25">
      <g>
       <use style="stroke:#000000;" x="39.01175" xlink:href="#m68dc6f935c" y="11.458375"/>
      </g>
     </g>
     <g id="line2d_26">
      <g>
       <use style="stroke:#000000;" x="228.98825" xlink:href="#md24b0d4d32" y="11.458375"/>
      </g>
     </g>
     <g id="text_14">
      <!-- 90 -->
      <g transform="translate(23.81375 13.886625)scale(0.088 -0.088)">
       <use xlink:href="#DejaVuSans-57"/>
       <use x="63.623047" xlink:href="#DejaVuSans-48"/>
      </g>
     </g>
    </g>
    <g id="text_15">
     <!-- Power (W) -->
     <g transform="translate(16.318125 126.823188)rotate(-90)scale(0.12 -0.12)">
      <defs>
       <path d="M 9.1875 72.90625 
L 40.375 72.90625 
Q 54.296875 72.90625 61.734375 66.71875 
Q 69.1875 60.546875 69.1875 49.125 
Q 69.1875 37.640625 61.734375 31.46875 
Q 54.296875 25.296875 40.375 25.296875 
L 27.984375 25.296875 
L 27.984375 0 
L 9.1875 0 
z
M 27.984375 59.28125 
L 27.984375 38.921875 
L 38.375 38.921875 
Q 43.84375 38.921875 46.828125 41.578125 
Q 49.8125 44.234375 49.8125 49.125 
Q 49.8125 54 46.828125 56.640625 
Q 43.84375 59.28125 38.375 59.28125 
z
" id="DejaVuSans-Bold-80"/>
       <path d="M 34.421875 43.5 
Q 28.609375 43.5 25.5625 39.328125 
Q 22.515625 35.15625 22.515625 27.296875 
Q 22.515625 19.4375 25.5625 15.25 
Q 28.609375 11.078125 34.421875 11.078125 
Q 40.140625 11.078125 43.15625 15.25 
Q 46.1875 19.4375 46.1875 27.296875 
Q 46.1875 35.15625 43.15625 39.328125 
Q 40.140625 43.5 34.421875 43.5 
z
M 34.421875 56 
Q 48.53125 56 56.46875 48.375 
Q 64.40625 40.765625 64.40625 27.296875 
Q 64.40625 13.8125 56.46875 6.1875 
Q 48.53125 -1.421875 34.421875 -1.421875 
Q 20.265625 -1.421875 12.28125 6.1875 
Q 4.296875 13.8125 4.296875 27.296875 
Q 4.296875 40.765625 12.28125 48.375 
Q 20.265625 56 34.421875 56 
z
" id="DejaVuSans-Bold-111"/>
       <path d="M 3.515625 54.6875 
L 20.515625 54.6875 
L 29.6875 17 
L 38.921875 54.6875 
L 53.515625 54.6875 
L 62.703125 17.390625 
L 71.921875 54.6875 
L 88.921875 54.6875 
L 74.515625 0 
L 55.421875 0 
L 46.1875 37.59375 
L 37.015625 0 
L 17.921875 0 
z
" id="DejaVuSans-Bold-119"/>
       <path d="M 49.03125 39.796875 
Q 46.734375 40.875 44.453125 41.375 
Q 42.1875 41.890625 39.890625 41.890625 
Q 33.15625 41.890625 29.515625 37.5625 
Q 25.875 33.25 25.875 25.203125 
L 25.875 0 
L 8.40625 0 
L 8.40625 54.6875 
L 25.875 54.6875 
L 25.875 45.703125 
Q 29.25 51.078125 33.609375 53.53125 
Q 37.984375 56 44.09375 56 
Q 44.96875 56 45.984375 55.921875 
Q 47.015625 55.859375 48.96875 55.609375 
z
" id="DejaVuSans-Bold-114"/>
       <path d="M 2.984375 72.90625 
L 21 72.90625 
L 33.59375 19.921875 
L 46.09375 72.90625 
L 64.203125 72.90625 
L 76.703125 19.921875 
L 89.3125 72.90625 
L 107.171875 72.90625 
L 89.984375 0 
L 68.3125 0 
L 55.078125 55.421875 
L 42 0 
L 20.3125 0 
z
" id="DejaVuSans-Bold-87"/>
      </defs>
      <use xlink:href="#DejaVuSans-Bold-80"/>
      <use x="73.291016" xlink:href="#DejaVuSans-Bold-111"/>
      <use x="141.992188" xlink:href="#DejaVuSans-Bold-119"/>
      <use x="234.375" xlink:href="#DejaVuSans-Bold-101"/>
      <use x="302.197266" xlink:href="#DejaVuSans-Bold-114"/>
      <use x="351.513672" xlink:href="#DejaVuSans-Bold-32"/>
      <use x="386.328125" xlink:href="#DejaVuSans-Bold-40"/>
      <use x="432.03125" xlink:href="#DejaVuSans-Bold-87"/>
      <use x="542.333984" xlink:href="#DejaVuSans-Bold-41"/>
     </g>
    </g>
   </g>
   <g id="patch_7">
    <path d="M 111.828547 68.297892 
Q 101.578851 78.737157 91.955788 88.538198 
" style="fill:none;stroke:#ff0000;stroke-linecap:round;stroke-width:0.8;"/>
    <path d="M 97.031194 86.794566 
L 91.955788 88.538198 
L 93.606126 83.431694 
L 97.031194 86.794566 
z
" style="fill:#ff0000;stroke:#ff0000;stroke-linecap:round;stroke-width:0.8;"/>
   </g>
   <g id="text_16">
    <g id="patch_8">
     <path d="M 56.931524 66.468494 
L 201.983399 66.468494 
L 201.983399 34.217369 
L 56.931524 34.217369 
z
" style="fill:#fffafa;opacity:0.75;stroke:#000000;stroke-linejoin:miter;stroke-width:0.8;"/>
    </g>
    <!-- Predicted: 937MHz -->
    <g transform="translate(60.531524 46.935494)scale(0.12 -0.12)">
     <defs>
      <path d="M 45.609375 46.6875 
L 45.609375 75.984375 
L 63.1875 75.984375 
L 63.1875 0 
L 45.609375 0 
L 45.609375 7.90625 
Q 42 3.078125 37.640625 0.828125 
Q 33.296875 -1.421875 27.59375 -1.421875 
Q 17.484375 -1.421875 10.984375 6.609375 
Q 4.5 14.65625 4.5 27.296875 
Q 4.5 39.9375 10.984375 47.96875 
Q 17.484375 56 27.59375 56 
Q 33.25 56 37.625 53.734375 
Q 42 51.46875 45.609375 46.6875 
z
M 34.078125 11.28125 
Q 39.703125 11.28125 42.65625 15.375 
Q 45.609375 19.484375 45.609375 27.296875 
Q 45.609375 35.109375 42.65625 39.203125 
Q 39.703125 43.3125 34.078125 43.3125 
Q 28.515625 43.3125 25.5625 39.203125 
Q 22.609375 35.109375 22.609375 27.296875 
Q 22.609375 19.484375 25.5625 15.375 
Q 28.515625 11.28125 34.078125 11.28125 
z
" id="DejaVuSans-Bold-100"/>
      <path d="M 52.59375 52.984375 
L 52.59375 38.71875 
Q 49.03125 41.15625 45.4375 42.328125 
Q 41.84375 43.5 37.984375 43.5 
Q 30.671875 43.5 26.59375 39.234375 
Q 22.515625 34.96875 22.515625 27.296875 
Q 22.515625 19.625 26.59375 15.34375 
Q 30.671875 11.078125 37.984375 11.078125 
Q 42.09375 11.078125 45.78125 12.296875 
Q 49.46875 13.53125 52.59375 15.921875 
L 52.59375 1.609375 
Q 48.484375 0.09375 44.265625 -0.65625 
Q 40.046875 -1.421875 35.796875 -1.421875 
Q 21 -1.421875 12.640625 6.171875 
Q 4.296875 13.765625 4.296875 27.296875 
Q 4.296875 40.828125 12.640625 48.40625 
Q 21 56 35.796875 56 
Q 40.09375 56 44.265625 55.25 
Q 48.4375 54.5 52.59375 52.984375 
z
" id="DejaVuSans-Bold-99"/>
      <path d="M 27.484375 70.21875 
L 27.484375 54.6875 
L 45.515625 54.6875 
L 45.515625 42.1875 
L 27.484375 42.1875 
L 27.484375 19 
Q 27.484375 15.1875 29 13.84375 
Q 30.515625 12.5 35.015625 12.5 
L 44 12.5 
L 44 0 
L 29 0 
Q 18.65625 0 14.328125 4.3125 
Q 10.015625 8.640625 10.015625 19 
L 10.015625 42.1875 
L 1.3125 42.1875 
L 1.3125 54.6875 
L 10.015625 54.6875 
L 10.015625 70.21875 
z
" id="DejaVuSans-Bold-116"/>
      <path d="M 11.1875 54.6875 
L 28.8125 54.6875 
L 28.8125 35.796875 
L 11.1875 35.796875 
z
M 11.1875 18.890625 
L 28.8125 18.890625 
L 28.8125 0 
L 11.1875 0 
z
" id="DejaVuSans-Bold-58"/>
      <path d="M 10.015625 1.609375 
L 10.015625 15.09375 
Q 14.5 12.984375 18.59375 11.9375 
Q 22.703125 10.890625 26.703125 10.890625 
Q 35.109375 10.890625 39.796875 15.546875 
Q 44.484375 20.21875 45.3125 29.390625 
Q 42 26.953125 38.234375 25.734375 
Q 34.46875 24.515625 30.078125 24.515625 
Q 18.890625 24.515625 12.03125 31.03125 
Q 5.171875 37.546875 5.171875 48.1875 
Q 5.171875 59.96875 12.8125 67.046875 
Q 20.453125 74.125 33.296875 74.125 
Q 47.5625 74.125 55.375 64.5 
Q 63.1875 54.890625 63.1875 37.3125 
Q 63.1875 19.234375 54.046875 8.90625 
Q 44.921875 -1.421875 29 -1.421875 
Q 23.875 -1.421875 19.1875 -0.65625 
Q 14.5 0.09375 10.015625 1.609375 
z
M 33.203125 36.71875 
Q 38.140625 36.71875 40.625 39.90625 
Q 43.109375 43.109375 43.109375 49.515625 
Q 43.109375 55.859375 40.625 59.078125 
Q 38.140625 62.3125 33.203125 62.3125 
Q 28.265625 62.3125 25.78125 59.078125 
Q 23.296875 55.859375 23.296875 49.515625 
Q 23.296875 43.109375 25.78125 39.90625 
Q 28.265625 36.71875 33.203125 36.71875 
z
" id="DejaVuSans-Bold-57"/>
      <path d="M 46.578125 39.3125 
Q 53.953125 37.40625 57.78125 32.6875 
Q 61.625 27.984375 61.625 20.703125 
Q 61.625 9.859375 53.3125 4.21875 
Q 45.015625 -1.421875 29.109375 -1.421875 
Q 23.484375 -1.421875 17.84375 -0.515625 
Q 12.203125 0.390625 6.6875 2.203125 
L 6.6875 16.703125 
Q 11.96875 14.0625 17.15625 12.71875 
Q 22.359375 11.375 27.390625 11.375 
Q 34.859375 11.375 38.84375 13.953125 
Q 42.828125 16.546875 42.828125 21.390625 
Q 42.828125 26.375 38.75 28.9375 
Q 34.671875 31.5 26.703125 31.5 
L 19.1875 31.5 
L 19.1875 43.609375 
L 27.09375 43.609375 
Q 34.1875 43.609375 37.640625 45.828125 
Q 41.109375 48.046875 41.109375 52.59375 
Q 41.109375 56.78125 37.734375 59.078125 
Q 34.375 61.375 28.21875 61.375 
Q 23.6875 61.375 19.046875 60.34375 
Q 14.40625 59.328125 9.8125 57.328125 
L 9.8125 71.09375 
Q 15.375 72.65625 20.84375 73.4375 
Q 26.3125 74.21875 31.59375 74.21875 
Q 45.796875 74.21875 52.84375 69.546875 
Q 59.90625 64.890625 59.90625 55.515625 
Q 59.90625 49.125 56.53125 45.046875 
Q 53.171875 40.96875 46.578125 39.3125 
z
" id="DejaVuSans-Bold-51"/>
      <path d="M 6.6875 72.90625 
L 61.625 72.90625 
L 61.625 62.3125 
L 33.203125 0 
L 14.890625 0 
L 41.796875 59.078125 
L 6.6875 59.078125 
z
" id="DejaVuSans-Bold-55"/>
      <path d="M 9.1875 72.90625 
L 33.109375 72.90625 
L 49.703125 33.890625 
L 66.40625 72.90625 
L 90.28125 72.90625 
L 90.28125 0 
L 72.515625 0 
L 72.515625 53.328125 
L 55.71875 14.015625 
L 43.796875 14.015625 
L 27 53.328125 
L 27 0 
L 9.1875 0 
z
" id="DejaVuSans-Bold-77"/>
      <path d="M 9.1875 72.90625 
L 27.984375 72.90625 
L 27.984375 45.125 
L 55.71875 45.125 
L 55.71875 72.90625 
L 74.515625 72.90625 
L 74.515625 0 
L 55.71875 0 
L 55.71875 30.90625 
L 27.984375 30.90625 
L 27.984375 0 
L 9.1875 0 
z
" id="DejaVuSans-Bold-72"/>
      <path d="M 5.71875 54.6875 
L 53.421875 54.6875 
L 53.421875 42.484375 
L 24.609375 12.5 
L 53.421875 12.5 
L 53.421875 0 
L 4.5 0 
L 4.5 12.203125 
L 33.296875 42.1875 
L 5.71875 42.1875 
z
" id="DejaVuSans-Bold-122"/>
     </defs>
     <use xlink:href="#DejaVuSans-Bold-80"/>
     <use x="73.291016" xlink:href="#DejaVuSans-Bold-114"/>
     <use x="122.607422" xlink:href="#DejaVuSans-Bold-101"/>
     <use x="190.429688" xlink:href="#DejaVuSans-Bold-100"/>
     <use x="262.011719" xlink:href="#DejaVuSans-Bold-105"/>
     <use x="296.289062" xlink:href="#DejaVuSans-Bold-99"/>
     <use x="355.566406" xlink:href="#DejaVuSans-Bold-116"/>
     <use x="403.369141" xlink:href="#DejaVuSans-Bold-101"/>
     <use x="471.191406" xlink:href="#DejaVuSans-Bold-100"/>
     <use x="542.773438" xlink:href="#DejaVuSans-Bold-58"/>
     <use x="582.763672" xlink:href="#DejaVuSans-Bold-32"/>
     <use x="617.578125" xlink:href="#DejaVuSans-Bold-57"/>
     <use x="687.158203" xlink:href="#DejaVuSans-Bold-51"/>
     <use x="756.738281" xlink:href="#DejaVuSans-Bold-55"/>
     <use x="826.318359" xlink:href="#DejaVuSans-Bold-77"/>
     <use x="925.830078" xlink:href="#DejaVuSans-Bold-72"/>
     <use x="1009.521484" xlink:href="#DejaVuSans-Bold-122"/>
    </g>
    <!-- Measured: 1050MHz -->
    <g transform="translate(60.531524 60.372869)scale(0.12 -0.12)">
     <defs>
      <path d="M 32.90625 24.609375 
Q 27.4375 24.609375 24.671875 22.75 
Q 21.921875 20.90625 21.921875 17.28125 
Q 21.921875 13.96875 24.140625 12.078125 
Q 26.375 10.203125 30.328125 10.203125 
Q 35.25 10.203125 38.625 13.734375 
Q 42 17.28125 42 22.609375 
L 42 24.609375 
z
M 59.625 31.203125 
L 59.625 0 
L 42 0 
L 42 8.109375 
Q 38.484375 3.125 34.078125 0.84375 
Q 29.6875 -1.421875 23.390625 -1.421875 
Q 14.890625 -1.421875 9.59375 3.53125 
Q 4.296875 8.5 4.296875 16.40625 
Q 4.296875 26.03125 10.90625 30.515625 
Q 17.53125 35.015625 31.6875 35.015625 
L 42 35.015625 
L 42 36.375 
Q 42 40.53125 38.71875 42.453125 
Q 35.453125 44.390625 28.515625 44.390625 
Q 22.90625 44.390625 18.0625 43.265625 
Q 13.234375 42.140625 9.078125 39.890625 
L 9.078125 53.21875 
Q 14.703125 54.59375 20.359375 55.296875 
Q 26.03125 56 31.6875 56 
Q 46.484375 56 53.046875 50.171875 
Q 59.625 44.34375 59.625 31.203125 
z
" id="DejaVuSans-Bold-97"/>
      <path d="M 51.125 52.984375 
L 51.125 39.703125 
Q 45.515625 42.046875 40.28125 43.21875 
Q 35.0625 44.390625 30.421875 44.390625 
Q 25.4375 44.390625 23.015625 43.140625 
Q 20.609375 41.890625 20.609375 39.3125 
Q 20.609375 37.203125 22.4375 36.078125 
Q 24.265625 34.96875 29 34.421875 
L 32.078125 33.984375 
Q 45.515625 32.28125 50.140625 28.375 
Q 54.78125 24.46875 54.78125 16.109375 
Q 54.78125 7.375 48.328125 2.96875 
Q 41.890625 -1.421875 29.109375 -1.421875 
Q 23.6875 -1.421875 17.890625 -0.5625 
Q 12.109375 0.296875 6 2 
L 6 15.28125 
Q 11.234375 12.75 16.71875 11.46875 
Q 22.21875 10.203125 27.875 10.203125 
Q 33.015625 10.203125 35.59375 11.609375 
Q 38.1875 13.03125 38.1875 15.828125 
Q 38.1875 18.171875 36.40625 19.3125 
Q 34.625 20.453125 29.296875 21.09375 
L 26.21875 21.484375 
Q 14.546875 22.953125 9.859375 26.90625 
Q 5.171875 30.859375 5.171875 38.921875 
Q 5.171875 47.609375 11.125 51.796875 
Q 17.09375 56 29.390625 56 
Q 34.234375 56 39.546875 55.265625 
Q 44.875 54.546875 51.125 52.984375 
z
" id="DejaVuSans-Bold-115"/>
      <path d="M 11.71875 12.984375 
L 28.328125 12.984375 
L 28.328125 60.109375 
L 11.28125 56.59375 
L 11.28125 69.390625 
L 28.21875 72.90625 
L 46.09375 72.90625 
L 46.09375 12.984375 
L 62.703125 12.984375 
L 62.703125 0 
L 11.71875 0 
z
" id="DejaVuSans-Bold-49"/>
      <path d="M 46 36.53125 
Q 46 50.203125 43.4375 55.78125 
Q 40.875 61.375 34.8125 61.375 
Q 28.765625 61.375 26.171875 55.78125 
Q 23.578125 50.203125 23.578125 36.53125 
Q 23.578125 22.703125 26.171875 17.03125 
Q 28.765625 11.375 34.8125 11.375 
Q 40.828125 11.375 43.40625 17.03125 
Q 46 22.703125 46 36.53125 
z
M 64.796875 36.375 
Q 64.796875 18.265625 56.984375 8.421875 
Q 49.171875 -1.421875 34.8125 -1.421875 
Q 20.40625 -1.421875 12.59375 8.421875 
Q 4.78125 18.265625 4.78125 36.375 
Q 4.78125 54.546875 12.59375 64.375 
Q 20.40625 74.21875 34.8125 74.21875 
Q 49.171875 74.21875 56.984375 64.375 
Q 64.796875 54.546875 64.796875 36.375 
z
" id="DejaVuSans-Bold-48"/>
      <path d="M 10.59375 72.90625 
L 57.328125 72.90625 
L 57.328125 59.078125 
L 25.59375 59.078125 
L 25.59375 47.796875 
Q 27.734375 48.390625 29.90625 48.703125 
Q 32.078125 49.03125 34.421875 49.03125 
Q 47.75 49.03125 55.171875 42.359375 
Q 62.59375 35.6875 62.59375 23.78125 
Q 62.59375 11.96875 54.515625 5.265625 
Q 46.4375 -1.421875 32.078125 -1.421875 
Q 25.875 -1.421875 19.796875 -0.21875 
Q 13.71875 0.984375 7.71875 3.421875 
L 7.71875 18.21875 
Q 13.671875 14.796875 19.015625 13.078125 
Q 24.359375 11.375 29.109375 11.375 
Q 35.9375 11.375 39.859375 14.71875 
Q 43.796875 18.0625 43.796875 23.78125 
Q 43.796875 29.546875 39.859375 32.859375 
Q 35.9375 36.1875 29.109375 36.1875 
Q 25.046875 36.1875 20.453125 35.125 
Q 15.875 34.078125 10.59375 31.890625 
z
" id="DejaVuSans-Bold-53"/>
     </defs>
     <use xlink:href="#DejaVuSans-Bold-77"/>
     <use x="99.511719" xlink:href="#DejaVuSans-Bold-101"/>
     <use x="167.333984" xlink:href="#DejaVuSans-Bold-97"/>
     <use x="234.814453" xlink:href="#DejaVuSans-Bold-115"/>
     <use x="294.335938" xlink:href="#DejaVuSans-Bold-117"/>
     <use x="365.527344" xlink:href="#DejaVuSans-Bold-114"/>
     <use x="414.84375" xlink:href="#DejaVuSans-Bold-101"/>
     <use x="482.666016" xlink:href="#DejaVuSans-Bold-100"/>
     <use x="554.248047" xlink:href="#DejaVuSans-Bold-58"/>
     <use x="594.238281" xlink:href="#DejaVuSans-Bold-32"/>
     <use x="629.052734" xlink:href="#DejaVuSans-Bold-49"/>
     <use x="698.632812" xlink:href="#DejaVuSans-Bold-48"/>
     <use x="768.212891" xlink:href="#DejaVuSans-Bold-53"/>
     <use x="837.792969" xlink:href="#DejaVuSans-Bold-48"/>
     <use x="907.373047" xlink:href="#DejaVuSans-Bold-77"/>
     <use x="1006.884766" xlink:href="#DejaVuSans-Bold-72"/>
     <use x="1090.576172" xlink:href="#DejaVuSans-Bold-122"/>
    </g>
   </g>
  </g>
 </g>
 <defs>
  <clipPath id="p8b050d827f">
   <rect height="160.164" width="189.9765" x="39.01175" y="11.458375"/>
  </clipPath>
 </defs>
</svg>
