<?xml version="1.0" encoding="utf-8" standalone="no"?>
<!DOCTYPE svg PUBLIC "-//W3C//DTD SVG 1.1//EN"
  "http://www.w3.org/Graphics/SVG/1.1/DTD/svg11.dtd">
<!-- Created with matplotlib (https://matplotlib.org/) -->
<svg height="208.0335pt" version="1.1" viewBox="0 0 282.316004 208.0335" width="282.316004pt" xmlns="http://www.w3.org/2000/svg" xmlns:xlink="http://www.w3.org/1999/xlink">
 <metadata>
  <rdf:RDF xmlns:cc="http://creativecommons.org/ns#" xmlns:dc="http://purl.org/dc/elements/1.1/" xmlns:rdf="http://www.w3.org/1999/02/22-rdf-syntax-ns#">
   <cc:Work>
    <dc:type rdf:resource="http://purl.org/dc/dcmitype/StillImage"/>
    <dc:date>2021-10-22T16:12:45.752602</dc:date>
    <dc:format>image/svg+xml</dc:format>
    <dc:creator>
     <cc:Agent>
      <dc:title>Matplotlib v3.3.4, https://matplotlib.org/</dc:title>
     </cc:Agent>
    </dc:creator>
   </cc:Work>
  </rdf:RDF>
 </metadata>
 <defs>
  <style type="text/css">*{stroke-linecap:butt;stroke-linejoin:round;}</style>
 </defs>
 <g id="figure_1">
  <g id="patch_1">
   <path d="M 0 208.0335 
L 282.316004 208.0335 
L 282.316004 0 
L 0 0 
z
" style="fill:none;"/>
  </g>
  <g id="axes_1">
   <g id="patch_2">
    <path d="M 48.341313 171.622375 
L 268.579122 171.622375 
L 268.579122 11.458375 
L 48.341313 11.458375 
z
" style="fill:none;"/>
   </g>
   <g id="PathCollection_1">
    <defs>
     <path d="M -0 4.472136 
L 2.683282 0 
L 0 -4.472136 
L -2.683282 -0 
z
" id="md2cd39c6fa" style="stroke:#ffffff;stroke-width:0.505964;"/>
    </defs>
    <g clip-path="url(#pa1a3beb575)">
     <use style="fill:#0000ff;stroke:#ffffff;stroke-width:0.505964;" x="56.498268" xlink:href="#md2cd39c6fa" y="36.679368"/>
     <use style="fill:#0000ff;stroke:#ffffff;stroke-width:0.505964;" x="58.12966" xlink:href="#md2cd39c6fa" y="36.445394"/>
     <use style="fill:#0000ff;stroke:#ffffff;stroke-width:0.505964;" x="59.994107" xlink:href="#md2cd39c6fa" y="37.291419"/>
     <use style="fill:#0000ff;stroke:#ffffff;stroke-width:0.505964;" x="61.625498" xlink:href="#md2cd39c6fa" y="37.722401"/>
     <use style="fill:#0000ff;stroke:#ffffff;stroke-width:0.505964;" x="63.489945" xlink:href="#md2cd39c6fa" y="38.117801"/>
     <use style="fill:#0000ff;stroke:#ffffff;stroke-width:0.505964;" x="65.121336" xlink:href="#md2cd39c6fa" y="38.694327"/>
     <use style="fill:#0000ff;stroke:#ffffff;stroke-width:0.505964;" x="66.985783" xlink:href="#md2cd39c6fa" y="38.567426"/>
     <use style="fill:#0000ff;stroke:#ffffff;stroke-width:0.505964;" x="68.617174" xlink:href="#md2cd39c6fa" y="39.414758"/>
     <use style="fill:#0000ff;stroke:#ffffff;stroke-width:0.505964;" x="70.481621" xlink:href="#md2cd39c6fa" y="39.324412"/>
     <use style="fill:#0000ff;stroke:#ffffff;stroke-width:0.505964;" x="72.113013" xlink:href="#md2cd39c6fa" y="43.610017"/>
     <use style="fill:#0000ff;stroke:#ffffff;stroke-width:0.505964;" x="73.97746" xlink:href="#md2cd39c6fa" y="47.51748"/>
     <use style="fill:#0000ff;stroke:#ffffff;stroke-width:0.505964;" x="75.608851" xlink:href="#md2cd39c6fa" y="48.887651"/>
     <use style="fill:#0000ff;stroke:#ffffff;stroke-width:0.505964;" x="77.473298" xlink:href="#md2cd39c6fa" y="48.828198"/>
     <use style="fill:#0000ff;stroke:#ffffff;stroke-width:0.505964;" x="79.104689" xlink:href="#md2cd39c6fa" y="55.119543"/>
     <use style="fill:#0000ff;stroke:#ffffff;stroke-width:0.505964;" x="80.969136" xlink:href="#md2cd39c6fa" y="59.229934"/>
     <use style="fill:#0000ff;stroke:#ffffff;stroke-width:0.505964;" x="82.600527" xlink:href="#md2cd39c6fa" y="58.30482"/>
     <use style="fill:#0000ff;stroke:#ffffff;stroke-width:0.505964;" x="84.464974" xlink:href="#md2cd39c6fa" y="57.826468"/>
     <use style="fill:#0000ff;stroke:#ffffff;stroke-width:0.505964;" x="86.096366" xlink:href="#md2cd39c6fa" y="64.187695"/>
     <use style="fill:#0000ff;stroke:#ffffff;stroke-width:0.505964;" x="87.960813" xlink:href="#md2cd39c6fa" y="87.009182"/>
     <use style="fill:#0000ff;stroke:#ffffff;stroke-width:0.505964;" x="89.592204" xlink:href="#md2cd39c6fa" y="65.381122"/>
     <use style="fill:#0000ff;stroke:#ffffff;stroke-width:0.505964;" x="91.456651" xlink:href="#md2cd39c6fa" y="66.190898"/>
     <use style="fill:#0000ff;stroke:#ffffff;stroke-width:0.505964;" x="93.088042" xlink:href="#md2cd39c6fa" y="72.16146"/>
     <use style="fill:#0000ff;stroke:#ffffff;stroke-width:0.505964;" x="94.952489" xlink:href="#md2cd39c6fa" y="94.986784"/>
     <use style="fill:#0000ff;stroke:#ffffff;stroke-width:0.505964;" x="96.58388" xlink:href="#md2cd39c6fa" y="71.977752"/>
     <use style="fill:#0000ff;stroke:#ffffff;stroke-width:0.505964;" x="98.448327" xlink:href="#md2cd39c6fa" y="74.568507"/>
     <use style="fill:#0000ff;stroke:#ffffff;stroke-width:0.505964;" x="100.079719" xlink:href="#md2cd39c6fa" y="73.865368"/>
     <use style="fill:#0000ff;stroke:#ffffff;stroke-width:0.505964;" x="101.944166" xlink:href="#md2cd39c6fa" y="93.867218"/>
     <use style="fill:#0000ff;stroke:#ffffff;stroke-width:0.505964;" x="103.575557" xlink:href="#md2cd39c6fa" y="95.515517"/>
     <use style="fill:#0000ff;stroke:#ffffff;stroke-width:0.505964;" x="105.440004" xlink:href="#md2cd39c6fa" y="85.252573"/>
     <use style="fill:#0000ff;stroke:#ffffff;stroke-width:0.505964;" x="107.071395" xlink:href="#md2cd39c6fa" y="86.141439"/>
     <use style="fill:#0000ff;stroke:#ffffff;stroke-width:0.505964;" x="108.935842" xlink:href="#md2cd39c6fa" y="98.234487"/>
     <use style="fill:#0000ff;stroke:#ffffff;stroke-width:0.505964;" x="110.567233" xlink:href="#md2cd39c6fa" y="105.692979"/>
     <use style="fill:#0000ff;stroke:#ffffff;stroke-width:0.505964;" x="112.43168" xlink:href="#md2cd39c6fa" y="90.388476"/>
     <use style="fill:#0000ff;stroke:#ffffff;stroke-width:0.505964;" x="114.063072" xlink:href="#md2cd39c6fa" y="91.961376"/>
     <use style="fill:#0000ff;stroke:#ffffff;stroke-width:0.505964;" x="115.927519" xlink:href="#md2cd39c6fa" y="96.004588"/>
     <use style="fill:#0000ff;stroke:#ffffff;stroke-width:0.505964;" x="117.55891" xlink:href="#md2cd39c6fa" y="111.023416"/>
     <use style="fill:#0000ff;stroke:#ffffff;stroke-width:0.505964;" x="119.423357" xlink:href="#md2cd39c6fa" y="99.479032"/>
     <use style="fill:#0000ff;stroke:#ffffff;stroke-width:0.505964;" x="121.054748" xlink:href="#md2cd39c6fa" y="104.21446"/>
     <use style="fill:#0000ff;stroke:#ffffff;stroke-width:0.505964;" x="122.919195" xlink:href="#md2cd39c6fa" y="108.475207"/>
     <use style="fill:#0000ff;stroke:#ffffff;stroke-width:0.505964;" x="124.550586" xlink:href="#md2cd39c6fa" y="113.482254"/>
     <use style="fill:#0000ff;stroke:#ffffff;stroke-width:0.505964;" x="126.415033" xlink:href="#md2cd39c6fa" y="105.3706"/>
     <use style="fill:#0000ff;stroke:#ffffff;stroke-width:0.505964;" x="128.046425" xlink:href="#md2cd39c6fa" y="107.370793"/>
     <use style="fill:#0000ff;stroke:#ffffff;stroke-width:0.505964;" x="129.910872" xlink:href="#md2cd39c6fa" y="109.689186"/>
     <use style="fill:#0000ff;stroke:#ffffff;stroke-width:0.505964;" x="131.542263" xlink:href="#md2cd39c6fa" y="110.051938"/>
     <use style="fill:#0000ff;stroke:#ffffff;stroke-width:0.505964;" x="133.40671" xlink:href="#md2cd39c6fa" y="109.634756"/>
     <use style="fill:#0000ff;stroke:#ffffff;stroke-width:0.505964;" x="135.038101" xlink:href="#md2cd39c6fa" y="111.351765"/>
     <use style="fill:#0000ff;stroke:#ffffff;stroke-width:0.505964;" x="136.902548" xlink:href="#md2cd39c6fa" y="114.10296"/>
     <use style="fill:#0000ff;stroke:#ffffff;stroke-width:0.505964;" x="138.533939" xlink:href="#md2cd39c6fa" y="112.403389"/>
     <use style="fill:#0000ff;stroke:#ffffff;stroke-width:0.505964;" x="140.398386" xlink:href="#md2cd39c6fa" y="113.601025"/>
     <use style="fill:#0000ff;stroke:#ffffff;stroke-width:0.505964;" x="142.029778" xlink:href="#md2cd39c6fa" y="113.702383"/>
     <use style="fill:#0000ff;stroke:#ffffff;stroke-width:0.505964;" x="143.894225" xlink:href="#md2cd39c6fa" y="116.579877"/>
     <use style="fill:#0000ff;stroke:#ffffff;stroke-width:0.505964;" x="145.525616" xlink:href="#md2cd39c6fa" y="118.667044"/>
     <use style="fill:#0000ff;stroke:#ffffff;stroke-width:0.505964;" x="147.390063" xlink:href="#md2cd39c6fa" y="117.429732"/>
     <use style="fill:#0000ff;stroke:#ffffff;stroke-width:0.505964;" x="149.021454" xlink:href="#md2cd39c6fa" y="117.578044"/>
     <use style="fill:#0000ff;stroke:#ffffff;stroke-width:0.505964;" x="150.885901" xlink:href="#md2cd39c6fa" y="118.131225"/>
     <use style="fill:#0000ff;stroke:#ffffff;stroke-width:0.505964;" x="152.517292" xlink:href="#md2cd39c6fa" y="120.493068"/>
     <use style="fill:#0000ff;stroke:#ffffff;stroke-width:0.505964;" x="154.381739" xlink:href="#md2cd39c6fa" y="121.726523"/>
     <use style="fill:#0000ff;stroke:#ffffff;stroke-width:0.505964;" x="156.01313" xlink:href="#md2cd39c6fa" y="120.798372"/>
     <use style="fill:#0000ff;stroke:#ffffff;stroke-width:0.505964;" x="157.877578" xlink:href="#md2cd39c6fa" y="120.969363"/>
     <use style="fill:#0000ff;stroke:#ffffff;stroke-width:0.505964;" x="159.508969" xlink:href="#md2cd39c6fa" y="121.09925"/>
     <use style="fill:#0000ff;stroke:#ffffff;stroke-width:0.505964;" x="161.373416" xlink:href="#md2cd39c6fa" y="122.355608"/>
     <use style="fill:#0000ff;stroke:#ffffff;stroke-width:0.505964;" x="163.004807" xlink:href="#md2cd39c6fa" y="123.77625"/>
     <use style="fill:#0000ff;stroke:#ffffff;stroke-width:0.505964;" x="164.869254" xlink:href="#md2cd39c6fa" y="125.83619"/>
     <use style="fill:#0000ff;stroke:#ffffff;stroke-width:0.505964;" x="166.500645" xlink:href="#md2cd39c6fa" y="125.275718"/>
     <use style="fill:#0000ff;stroke:#ffffff;stroke-width:0.505964;" x="168.365092" xlink:href="#md2cd39c6fa" y="126.855166"/>
     <use style="fill:#0000ff;stroke:#ffffff;stroke-width:0.505964;" x="169.996483" xlink:href="#md2cd39c6fa" y="125.18365"/>
     <use style="fill:#0000ff;stroke:#ffffff;stroke-width:0.505964;" x="171.860931" xlink:href="#md2cd39c6fa" y="126.426554"/>
     <use style="fill:#0000ff;stroke:#ffffff;stroke-width:0.505964;" x="173.492322" xlink:href="#md2cd39c6fa" y="126.98659"/>
     <use style="fill:#0000ff;stroke:#ffffff;stroke-width:0.505964;" x="175.356769" xlink:href="#md2cd39c6fa" y="127.413933"/>
     <use style="fill:#0000ff;stroke:#ffffff;stroke-width:0.505964;" x="176.98816" xlink:href="#md2cd39c6fa" y="128.585527"/>
     <use style="fill:#0000ff;stroke:#ffffff;stroke-width:0.505964;" x="178.852607" xlink:href="#md2cd39c6fa" y="129.4146"/>
     <use style="fill:#0000ff;stroke:#ffffff;stroke-width:0.505964;" x="180.483998" xlink:href="#md2cd39c6fa" y="130.997699"/>
     <use style="fill:#0000ff;stroke:#ffffff;stroke-width:0.505964;" x="182.348445" xlink:href="#md2cd39c6fa" y="132.023203"/>
     <use style="fill:#0000ff;stroke:#ffffff;stroke-width:0.505964;" x="183.979836" xlink:href="#md2cd39c6fa" y="132.051206"/>
     <use style="fill:#0000ff;stroke:#ffffff;stroke-width:0.505964;" x="185.844284" xlink:href="#md2cd39c6fa" y="133.297513"/>
     <use style="fill:#0000ff;stroke:#ffffff;stroke-width:0.505964;" x="187.475675" xlink:href="#md2cd39c6fa" y="132.470926"/>
     <use style="fill:#0000ff;stroke:#ffffff;stroke-width:0.505964;" x="189.340122" xlink:href="#md2cd39c6fa" y="136.384322"/>
     <use style="fill:#0000ff;stroke:#ffffff;stroke-width:0.505964;" x="190.971513" xlink:href="#md2cd39c6fa" y="133.85555"/>
     <use style="fill:#0000ff;stroke:#ffffff;stroke-width:0.505964;" x="192.83596" xlink:href="#md2cd39c6fa" y="136.704944"/>
     <use style="fill:#0000ff;stroke:#ffffff;stroke-width:0.505964;" x="194.467351" xlink:href="#md2cd39c6fa" y="134.522934"/>
     <use style="fill:#0000ff;stroke:#ffffff;stroke-width:0.505964;" x="196.331798" xlink:href="#md2cd39c6fa" y="132.667159"/>
     <use style="fill:#0000ff;stroke:#ffffff;stroke-width:0.505964;" x="197.963189" xlink:href="#md2cd39c6fa" y="130.511544"/>
     <use style="fill:#0000ff;stroke:#ffffff;stroke-width:0.505964;" x="199.827637" xlink:href="#md2cd39c6fa" y="127.140553"/>
     <use style="fill:#0000ff;stroke:#ffffff;stroke-width:0.505964;" x="201.459028" xlink:href="#md2cd39c6fa" y="124.831782"/>
     <use style="fill:#0000ff;stroke:#ffffff;stroke-width:0.505964;" x="203.323475" xlink:href="#md2cd39c6fa" y="119.040816"/>
     <use style="fill:#0000ff;stroke:#ffffff;stroke-width:0.505964;" x="204.954866" xlink:href="#md2cd39c6fa" y="116.569139"/>
     <use style="fill:#0000ff;stroke:#ffffff;stroke-width:0.505964;" x="206.819313" xlink:href="#md2cd39c6fa" y="109.23439"/>
     <use style="fill:#0000ff;stroke:#ffffff;stroke-width:0.505964;" x="208.450704" xlink:href="#md2cd39c6fa" y="110.829976"/>
     <use style="fill:#0000ff;stroke:#ffffff;stroke-width:0.505964;" x="210.315151" xlink:href="#md2cd39c6fa" y="108.511634"/>
     <use style="fill:#0000ff;stroke:#ffffff;stroke-width:0.505964;" x="211.946542" xlink:href="#md2cd39c6fa" y="108.606451"/>
     <use style="fill:#0000ff;stroke:#ffffff;stroke-width:0.505964;" x="213.810989" xlink:href="#md2cd39c6fa" y="101.136979"/>
     <use style="fill:#0000ff;stroke:#ffffff;stroke-width:0.505964;" x="215.442381" xlink:href="#md2cd39c6fa" y="101.071472"/>
     <use style="fill:#0000ff;stroke:#ffffff;stroke-width:0.505964;" x="217.306828" xlink:href="#md2cd39c6fa" y="97.545404"/>
     <use style="fill:#0000ff;stroke:#ffffff;stroke-width:0.505964;" x="218.938219" xlink:href="#md2cd39c6fa" y="91.37531"/>
     <use style="fill:#0000ff;stroke:#ffffff;stroke-width:0.505964;" x="220.802666" xlink:href="#md2cd39c6fa" y="91.050914"/>
     <use style="fill:#0000ff;stroke:#ffffff;stroke-width:0.505964;" x="222.434057" xlink:href="#md2cd39c6fa" y="83.073465"/>
     <use style="fill:#0000ff;stroke:#ffffff;stroke-width:0.505964;" x="224.298504" xlink:href="#md2cd39c6fa" y="80.301129"/>
     <use style="fill:#0000ff;stroke:#ffffff;stroke-width:0.505964;" x="225.929895" xlink:href="#md2cd39c6fa" y="74.990277"/>
     <use style="fill:#0000ff;stroke:#ffffff;stroke-width:0.505964;" x="227.794342" xlink:href="#md2cd39c6fa" y="72.954432"/>
     <use style="fill:#0000ff;stroke:#ffffff;stroke-width:0.505964;" x="229.425734" xlink:href="#md2cd39c6fa" y="71.186426"/>
     <use style="fill:#0000ff;stroke:#ffffff;stroke-width:0.505964;" x="231.290181" xlink:href="#md2cd39c6fa" y="63.636552"/>
     <use style="fill:#0000ff;stroke:#ffffff;stroke-width:0.505964;" x="232.921572" xlink:href="#md2cd39c6fa" y="63.015115"/>
     <use style="fill:#0000ff;stroke:#ffffff;stroke-width:0.505964;" x="234.786019" xlink:href="#md2cd39c6fa" y="51.502008"/>
     <use style="fill:#0000ff;stroke:#ffffff;stroke-width:0.505964;" x="236.41741" xlink:href="#md2cd39c6fa" y="49.974735"/>
     <use style="fill:#0000ff;stroke:#ffffff;stroke-width:0.505964;" x="238.281857" xlink:href="#md2cd39c6fa" y="39.727629"/>
     <use style="fill:#0000ff;stroke:#ffffff;stroke-width:0.505964;" x="239.913248" xlink:href="#md2cd39c6fa" y="41.606775"/>
     <use style="fill:#0000ff;stroke:#ffffff;stroke-width:0.505964;" x="241.777695" xlink:href="#md2cd39c6fa" y="41.084986"/>
     <use style="fill:#0000ff;stroke:#ffffff;stroke-width:0.505964;" x="243.409087" xlink:href="#md2cd39c6fa" y="41.208633"/>
     <use style="fill:#0000ff;stroke:#ffffff;stroke-width:0.505964;" x="245.273534" xlink:href="#md2cd39c6fa" y="41.913419"/>
     <use style="fill:#0000ff;stroke:#ffffff;stroke-width:0.505964;" x="246.904925" xlink:href="#md2cd39c6fa" y="40.449443"/>
     <use style="fill:#0000ff;stroke:#ffffff;stroke-width:0.505964;" x="248.769372" xlink:href="#md2cd39c6fa" y="41.015744"/>
     <use style="fill:#0000ff;stroke:#ffffff;stroke-width:0.505964;" x="250.400763" xlink:href="#md2cd39c6fa" y="40.753613"/>
     <use style="fill:#0000ff;stroke:#ffffff;stroke-width:0.505964;" x="252.26521" xlink:href="#md2cd39c6fa" y="39.130108"/>
     <use style="fill:#0000ff;stroke:#ffffff;stroke-width:0.505964;" x="253.896601" xlink:href="#md2cd39c6fa" y="39.772257"/>
     <use style="fill:#0000ff;stroke:#ffffff;stroke-width:0.505964;" x="255.761048" xlink:href="#md2cd39c6fa" y="38.572257"/>
     <use style="fill:#0000ff;stroke:#ffffff;stroke-width:0.505964;" x="257.39244" xlink:href="#md2cd39c6fa" y="38.882174"/>
     <use style="fill:#0000ff;stroke:#ffffff;stroke-width:0.505964;" x="259.256887" xlink:href="#md2cd39c6fa" y="40.429659"/>
    </g>
   </g>
   <g id="patch_3">
    <path d="M 48.341313 171.622375 
L 48.341313 11.458375 
" style="fill:none;stroke:#000000;stroke-linecap:square;stroke-linejoin:miter;"/>
   </g>
   <g id="patch_4">
    <path d="M 268.579122 171.622375 
L 268.579122 11.458375 
" style="fill:none;stroke:#000000;stroke-linecap:square;stroke-linejoin:miter;"/>
   </g>
   <g id="patch_5">
    <path d="M 48.341313 171.622375 
L 268.579122 171.622375 
" style="fill:none;stroke:#000000;stroke-linecap:square;stroke-linejoin:miter;"/>
   </g>
   <g id="patch_6">
    <path d="M 48.341313 11.458375 
L 268.579122 11.458375 
" style="fill:none;stroke:#000000;stroke-linecap:square;stroke-linejoin:miter;"/>
   </g>
   <g id="matplotlib.axis_1">
    <g id="xtick_1">
     <g id="line2d_1">
      <defs>
       <path d="M 0 0 
L 0 -4.8 
" id="mee13fb1dbc" style="stroke:#000000;"/>
      </defs>
      <g>
       <use style="stroke:#000000;" x="77.473298" xlink:href="#mee13fb1dbc" y="171.622375"/>
      </g>
     </g>
     <g id="line2d_2">
      <defs>
       <path d="M 0 0 
L 0 4.8 
" id="m0bfc1d3808" style="stroke:#000000;"/>
      </defs>
      <g>
       <use style="stroke:#000000;" x="77.473298" xlink:href="#m0bfc1d3808" y="11.458375"/>
      </g>
     </g>
     <g id="text_1">
      <!-- 600 -->
      <g transform="translate(69.074798 182.309)scale(0.088 -0.088)">
       <defs>
        <path d="M 33.015625 40.375 
Q 26.375 40.375 22.484375 35.828125 
Q 18.609375 31.296875 18.609375 23.390625 
Q 18.609375 15.53125 22.484375 10.953125 
Q 26.375 6.390625 33.015625 6.390625 
Q 39.65625 6.390625 43.53125 10.953125 
Q 47.40625 15.53125 47.40625 23.390625 
Q 47.40625 31.296875 43.53125 35.828125 
Q 39.65625 40.375 33.015625 40.375 
z
M 52.59375 71.296875 
L 52.59375 62.3125 
Q 48.875 64.0625 45.09375 64.984375 
Q 41.3125 65.921875 37.59375 65.921875 
Q 27.828125 65.921875 22.671875 59.328125 
Q 17.53125 52.734375 16.796875 39.40625 
Q 19.671875 43.65625 24.015625 45.921875 
Q 28.375 48.1875 33.59375 48.1875 
Q 44.578125 48.1875 50.953125 41.515625 
Q 57.328125 34.859375 57.328125 23.390625 
Q 57.328125 12.15625 50.6875 5.359375 
Q 44.046875 -1.421875 33.015625 -1.421875 
Q 20.359375 -1.421875 13.671875 8.265625 
Q 6.984375 17.96875 6.984375 36.375 
Q 6.984375 53.65625 15.1875 63.9375 
Q 23.390625 74.21875 37.203125 74.21875 
Q 40.921875 74.21875 44.703125 73.484375 
Q 48.484375 72.75 52.59375 71.296875 
z
" id="DejaVuSans-54"/>
        <path d="M 31.78125 66.40625 
Q 24.171875 66.40625 20.328125 58.90625 
Q 16.5 51.421875 16.5 36.375 
Q 16.5 21.390625 20.328125 13.890625 
Q 24.171875 6.390625 31.78125 6.390625 
Q 39.453125 6.390625 43.28125 13.890625 
Q 47.125 21.390625 47.125 36.375 
Q 47.125 51.421875 43.28125 58.90625 
Q 39.453125 66.40625 31.78125 66.40625 
z
M 31.78125 74.21875 
Q 44.046875 74.21875 50.515625 64.515625 
Q 56.984375 54.828125 56.984375 36.375 
Q 56.984375 17.96875 50.515625 8.265625 
Q 44.046875 -1.421875 31.78125 -1.421875 
Q 19.53125 -1.421875 13.0625 8.265625 
Q 6.59375 17.96875 6.59375 36.375 
Q 6.59375 54.828125 13.0625 64.515625 
Q 19.53125 74.21875 31.78125 74.21875 
z
" id="DejaVuSans-48"/>
       </defs>
       <use xlink:href="#DejaVuSans-54"/>
       <use x="63.623047" xlink:href="#DejaVuSans-48"/>
       <use x="127.246094" xlink:href="#DejaVuSans-48"/>
      </g>
     </g>
    </g>
    <g id="xtick_2">
     <g id="line2d_3">
      <g>
       <use style="stroke:#000000;" x="124.084475" xlink:href="#mee13fb1dbc" y="171.622375"/>
      </g>
     </g>
     <g id="line2d_4">
      <g>
       <use style="stroke:#000000;" x="124.084475" xlink:href="#m0bfc1d3808" y="11.458375"/>
      </g>
     </g>
     <g id="text_2">
      <!-- 800 -->
      <g transform="translate(115.685975 182.309)scale(0.088 -0.088)">
       <defs>
        <path d="M 31.78125 34.625 
Q 24.75 34.625 20.71875 30.859375 
Q 16.703125 27.09375 16.703125 20.515625 
Q 16.703125 13.921875 20.71875 10.15625 
Q 24.75 6.390625 31.78125 6.390625 
Q 38.8125 6.390625 42.859375 10.171875 
Q 46.921875 13.96875 46.921875 20.515625 
Q 46.921875 27.09375 42.890625 30.859375 
Q 38.875 34.625 31.78125 34.625 
z
M 21.921875 38.8125 
Q 15.578125 40.375 12.03125 44.71875 
Q 8.5 49.078125 8.5 55.328125 
Q 8.5 64.0625 14.71875 69.140625 
Q 20.953125 74.21875 31.78125 74.21875 
Q 42.671875 74.21875 48.875 69.140625 
Q 55.078125 64.0625 55.078125 55.328125 
Q 55.078125 49.078125 51.53125 44.71875 
Q 48 40.375 41.703125 38.8125 
Q 48.828125 37.15625 52.796875 32.3125 
Q 56.78125 27.484375 56.78125 20.515625 
Q 56.78125 9.90625 50.3125 4.234375 
Q 43.84375 -1.421875 31.78125 -1.421875 
Q 19.734375 -1.421875 13.25 4.234375 
Q 6.78125 9.90625 6.78125 20.515625 
Q 6.78125 27.484375 10.78125 32.3125 
Q 14.796875 37.15625 21.921875 38.8125 
z
M 18.3125 54.390625 
Q 18.3125 48.734375 21.84375 45.5625 
Q 25.390625 42.390625 31.78125 42.390625 
Q 38.140625 42.390625 41.71875 45.5625 
Q 45.3125 48.734375 45.3125 54.390625 
Q 45.3125 60.0625 41.71875 63.234375 
Q 38.140625 66.40625 31.78125 66.40625 
Q 25.390625 66.40625 21.84375 63.234375 
Q 18.3125 60.0625 18.3125 54.390625 
z
" id="DejaVuSans-56"/>
       </defs>
       <use xlink:href="#DejaVuSans-56"/>
       <use x="63.623047" xlink:href="#DejaVuSans-48"/>
       <use x="127.246094" xlink:href="#DejaVuSans-48"/>
      </g>
     </g>
    </g>
    <g id="xtick_3">
     <g id="line2d_5">
      <g>
       <use style="stroke:#000000;" x="170.695651" xlink:href="#mee13fb1dbc" y="171.622375"/>
      </g>
     </g>
     <g id="line2d_6">
      <g>
       <use style="stroke:#000000;" x="170.695651" xlink:href="#m0bfc1d3808" y="11.458375"/>
      </g>
     </g>
     <g id="text_3">
      <!-- 1000 -->
      <g transform="translate(159.497651 182.309)scale(0.088 -0.088)">
       <defs>
        <path d="M 12.40625 8.296875 
L 28.515625 8.296875 
L 28.515625 63.921875 
L 10.984375 60.40625 
L 10.984375 69.390625 
L 28.421875 72.90625 
L 38.28125 72.90625 
L 38.28125 8.296875 
L 54.390625 8.296875 
L 54.390625 0 
L 12.40625 0 
z
" id="DejaVuSans-49"/>
       </defs>
       <use xlink:href="#DejaVuSans-49"/>
       <use x="63.623047" xlink:href="#DejaVuSans-48"/>
       <use x="127.246094" xlink:href="#DejaVuSans-48"/>
       <use x="190.869141" xlink:href="#DejaVuSans-48"/>
      </g>
     </g>
    </g>
    <g id="xtick_4">
     <g id="line2d_7">
      <g>
       <use style="stroke:#000000;" x="217.306828" xlink:href="#mee13fb1dbc" y="171.622375"/>
      </g>
     </g>
     <g id="line2d_8">
      <g>
       <use style="stroke:#000000;" x="217.306828" xlink:href="#m0bfc1d3808" y="11.458375"/>
      </g>
     </g>
     <g id="text_4">
      <!-- 1200 -->
      <g transform="translate(206.108828 182.309)scale(0.088 -0.088)">
       <defs>
        <path d="M 19.1875 8.296875 
L 53.609375 8.296875 
L 53.609375 0 
L 7.328125 0 
L 7.328125 8.296875 
Q 12.9375 14.109375 22.625 23.890625 
Q 32.328125 33.6875 34.8125 36.53125 
Q 39.546875 41.84375 41.421875 45.53125 
Q 43.3125 49.21875 43.3125 52.78125 
Q 43.3125 58.59375 39.234375 62.25 
Q 35.15625 65.921875 28.609375 65.921875 
Q 23.96875 65.921875 18.8125 64.3125 
Q 13.671875 62.703125 7.8125 59.421875 
L 7.8125 69.390625 
Q 13.765625 71.78125 18.9375 73 
Q 24.125 74.21875 28.421875 74.21875 
Q 39.75 74.21875 46.484375 68.546875 
Q 53.21875 62.890625 53.21875 53.421875 
Q 53.21875 48.921875 51.53125 44.890625 
Q 49.859375 40.875 45.40625 35.40625 
Q 44.1875 33.984375 37.640625 27.21875 
Q 31.109375 20.453125 19.1875 8.296875 
z
" id="DejaVuSans-50"/>
       </defs>
       <use xlink:href="#DejaVuSans-49"/>
       <use x="63.623047" xlink:href="#DejaVuSans-50"/>
       <use x="127.246094" xlink:href="#DejaVuSans-48"/>
       <use x="190.869141" xlink:href="#DejaVuSans-48"/>
      </g>
     </g>
    </g>
    <g id="xtick_5">
     <g id="line2d_9">
      <g>
       <use style="stroke:#000000;" x="263.918004" xlink:href="#mee13fb1dbc" y="171.622375"/>
      </g>
     </g>
     <g id="line2d_10">
      <g>
       <use style="stroke:#000000;" x="263.918004" xlink:href="#m0bfc1d3808" y="11.458375"/>
      </g>
     </g>
     <g id="text_5">
      <!-- 1400 -->
      <g transform="translate(252.720004 182.309)scale(0.088 -0.088)">
       <defs>
        <path d="M 37.796875 64.3125 
L 12.890625 25.390625 
L 37.796875 25.390625 
z
M 35.203125 72.90625 
L 47.609375 72.90625 
L 47.609375 25.390625 
L 58.015625 25.390625 
L 58.015625 17.1875 
L 47.609375 17.1875 
L 47.609375 0 
L 37.796875 0 
L 37.796875 17.1875 
L 4.890625 17.1875 
L 4.890625 26.703125 
z
" id="DejaVuSans-52"/>
       </defs>
       <use xlink:href="#DejaVuSans-49"/>
       <use x="63.623047" xlink:href="#DejaVuSans-52"/>
       <use x="127.246094" xlink:href="#DejaVuSans-48"/>
       <use x="190.869141" xlink:href="#DejaVuSans-48"/>
      </g>
     </g>
    </g>
    <g id="text_6">
     <!-- Core Frequency (MHz) -->
     <g transform="translate(83.640217 198.244125)scale(0.12 -0.12)">
      <defs>
       <path d="M 67 4 
Q 61.8125 1.3125 56.203125 -0.046875 
Q 50.59375 -1.421875 44.484375 -1.421875 
Q 26.265625 -1.421875 15.625 8.765625 
Q 4.984375 18.953125 4.984375 36.375 
Q 4.984375 53.859375 15.625 64.03125 
Q 26.265625 74.21875 44.484375 74.21875 
Q 50.59375 74.21875 56.203125 72.84375 
Q 61.8125 71.484375 67 68.796875 
L 67 53.71875 
Q 61.765625 57.28125 56.6875 58.9375 
Q 51.609375 60.59375 46 60.59375 
Q 35.9375 60.59375 30.171875 54.140625 
Q 24.421875 47.703125 24.421875 36.375 
Q 24.421875 25.09375 30.171875 18.640625 
Q 35.9375 12.203125 46 12.203125 
Q 51.609375 12.203125 56.6875 13.859375 
Q 61.765625 15.53125 67 19.09375 
z
" id="DejaVuSans-Bold-67"/>
       <path d="M 34.421875 43.5 
Q 28.609375 43.5 25.5625 39.328125 
Q 22.515625 35.15625 22.515625 27.296875 
Q 22.515625 19.4375 25.5625 15.25 
Q 28.609375 11.078125 34.421875 11.078125 
Q 40.140625 11.078125 43.15625 15.25 
Q 46.1875 19.4375 46.1875 27.296875 
Q 46.1875 35.15625 43.15625 39.328125 
Q 40.140625 43.5 34.421875 43.5 
z
M 34.421875 56 
Q 48.53125 56 56.46875 48.375 
Q 64.40625 40.765625 64.40625 27.296875 
Q 64.40625 13.8125 56.46875 6.1875 
Q 48.53125 -1.421875 34.421875 -1.421875 
Q 20.265625 -1.421875 12.28125 6.1875 
Q 4.296875 13.8125 4.296875 27.296875 
Q 4.296875 40.765625 12.28125 48.375 
Q 20.265625 56 34.421875 56 
z
" id="DejaVuSans-Bold-111"/>
       <path d="M 49.03125 39.796875 
Q 46.734375 40.875 44.453125 41.375 
Q 42.1875 41.890625 39.890625 41.890625 
Q 33.15625 41.890625 29.515625 37.5625 
Q 25.875 33.25 25.875 25.203125 
L 25.875 0 
L 8.40625 0 
L 8.40625 54.6875 
L 25.875 54.6875 
L 25.875 45.703125 
Q 29.25 51.078125 33.609375 53.53125 
Q 37.984375 56 44.09375 56 
Q 44.96875 56 45.984375 55.921875 
Q 47.015625 55.859375 48.96875 55.609375 
z
" id="DejaVuSans-Bold-114"/>
       <path d="M 62.984375 27.484375 
L 62.984375 22.515625 
L 22.125 22.515625 
Q 22.75 16.359375 26.5625 13.28125 
Q 30.375 10.203125 37.203125 10.203125 
Q 42.71875 10.203125 48.5 11.84375 
Q 54.296875 13.484375 60.40625 16.796875 
L 60.40625 3.328125 
Q 54.203125 0.984375 48 -0.21875 
Q 41.796875 -1.421875 35.59375 -1.421875 
Q 20.75 -1.421875 12.515625 6.125 
Q 4.296875 13.671875 4.296875 27.296875 
Q 4.296875 40.671875 12.375 48.328125 
Q 20.453125 56 34.625 56 
Q 47.515625 56 55.25 48.234375 
Q 62.984375 40.484375 62.984375 27.484375 
z
M 45.015625 33.296875 
Q 45.015625 38.28125 42.109375 41.328125 
Q 39.203125 44.390625 34.515625 44.390625 
Q 29.4375 44.390625 26.265625 41.53125 
Q 23.09375 38.671875 22.3125 33.296875 
z
" id="DejaVuSans-Bold-101"/>
       <path id="DejaVuSans-Bold-32"/>
       <path d="M 9.1875 72.90625 
L 59.90625 72.90625 
L 59.90625 58.6875 
L 27.984375 58.6875 
L 27.984375 45.125 
L 58.015625 45.125 
L 58.015625 30.90625 
L 27.984375 30.90625 
L 27.984375 0 
L 9.1875 0 
z
" id="DejaVuSans-Bold-70"/>
       <path d="M 34.078125 43.3125 
Q 28.515625 43.3125 25.5625 39.203125 
Q 22.609375 35.109375 22.609375 27.296875 
Q 22.609375 19.484375 25.5625 15.375 
Q 28.515625 11.28125 34.078125 11.28125 
Q 39.703125 11.28125 42.65625 15.375 
Q 45.609375 19.484375 45.609375 27.296875 
Q 45.609375 35.109375 42.65625 39.203125 
Q 39.703125 43.3125 34.078125 43.3125 
z
M 45.609375 7.90625 
Q 42 3.078125 37.640625 0.828125 
Q 33.296875 -1.421875 27.59375 -1.421875 
Q 17.484375 -1.421875 10.984375 6.609375 
Q 4.5 14.65625 4.5 27.296875 
Q 4.5 39.9375 10.984375 47.921875 
Q 17.484375 55.90625 27.59375 55.90625 
Q 33.296875 55.90625 37.640625 53.65625 
Q 42 51.421875 45.609375 46.578125 
L 45.609375 54.6875 
L 63.1875 54.6875 
L 63.1875 -20.796875 
L 45.609375 -20.796875 
z
" id="DejaVuSans-Bold-113"/>
       <path d="M 7.8125 21.296875 
L 7.8125 54.6875 
L 25.390625 54.6875 
L 25.390625 49.21875 
Q 25.390625 44.78125 25.34375 38.0625 
Q 25.296875 31.34375 25.296875 29.109375 
Q 25.296875 22.515625 25.640625 19.609375 
Q 25.984375 16.703125 26.8125 15.375 
Q 27.875 13.671875 29.609375 12.734375 
Q 31.34375 11.8125 33.59375 11.8125 
Q 39.0625 11.8125 42.1875 16.015625 
Q 45.3125 20.21875 45.3125 27.6875 
L 45.3125 54.6875 
L 62.796875 54.6875 
L 62.796875 0 
L 45.3125 0 
L 45.3125 7.90625 
Q 41.359375 3.125 36.9375 0.84375 
Q 32.515625 -1.421875 27.203125 -1.421875 
Q 17.71875 -1.421875 12.765625 4.390625 
Q 7.8125 10.203125 7.8125 21.296875 
z
" id="DejaVuSans-Bold-117"/>
       <path d="M 63.375 33.296875 
L 63.375 0 
L 45.796875 0 
L 45.796875 5.421875 
L 45.796875 25.484375 
Q 45.796875 32.5625 45.484375 35.25 
Q 45.171875 37.9375 44.390625 39.203125 
Q 43.359375 40.921875 41.59375 41.875 
Q 39.84375 42.828125 37.59375 42.828125 
Q 32.125 42.828125 29 38.59375 
Q 25.875 34.375 25.875 26.90625 
L 25.875 0 
L 8.40625 0 
L 8.40625 54.6875 
L 25.875 54.6875 
L 25.875 46.6875 
Q 29.828125 51.46875 34.265625 53.734375 
Q 38.71875 56 44.09375 56 
Q 53.5625 56 58.46875 50.1875 
Q 63.375 44.390625 63.375 33.296875 
z
" id="DejaVuSans-Bold-110"/>
       <path d="M 52.59375 52.984375 
L 52.59375 38.71875 
Q 49.03125 41.15625 45.4375 42.328125 
Q 41.84375 43.5 37.984375 43.5 
Q 30.671875 43.5 26.59375 39.234375 
Q 22.515625 34.96875 22.515625 27.296875 
Q 22.515625 19.625 26.59375 15.34375 
Q 30.671875 11.078125 37.984375 11.078125 
Q 42.09375 11.078125 45.78125 12.296875 
Q 49.46875 13.53125 52.59375 15.921875 
L 52.59375 1.609375 
Q 48.484375 0.09375 44.265625 -0.65625 
Q 40.046875 -1.421875 35.796875 -1.421875 
Q 21 -1.421875 12.640625 6.171875 
Q 4.296875 13.765625 4.296875 27.296875 
Q 4.296875 40.828125 12.640625 48.40625 
Q 21 56 35.796875 56 
Q 40.09375 56 44.265625 55.25 
Q 48.4375 54.5 52.59375 52.984375 
z
" id="DejaVuSans-Bold-99"/>
       <path d="M 1.21875 54.6875 
L 18.703125 54.6875 
L 33.40625 17.578125 
L 45.90625 54.6875 
L 63.375 54.6875 
L 40.375 -5.171875 
Q 36.921875 -14.3125 32.296875 -17.9375 
Q 27.6875 -21.578125 20.125 -21.578125 
L 10.015625 -21.578125 
L 10.015625 -10.109375 
L 15.484375 -10.109375 
Q 19.921875 -10.109375 21.9375 -8.6875 
Q 23.96875 -7.28125 25.09375 -3.609375 
L 25.59375 -2.09375 
z
" id="DejaVuSans-Bold-121"/>
       <path d="M 37.703125 -13.1875 
L 23.1875 -13.1875 
Q 15.71875 -1.125 12.15625 9.734375 
Q 8.59375 20.609375 8.59375 31.296875 
Q 8.59375 42 12.171875 52.953125 
Q 15.765625 63.921875 23.1875 75.875 
L 37.703125 75.875 
Q 31.453125 64.3125 28.328125 53.25 
Q 25.203125 42.1875 25.203125 31.390625 
Q 25.203125 20.609375 28.296875 9.515625 
Q 31.390625 -1.5625 37.703125 -13.1875 
z
" id="DejaVuSans-Bold-40"/>
       <path d="M 9.1875 72.90625 
L 33.109375 72.90625 
L 49.703125 33.890625 
L 66.40625 72.90625 
L 90.28125 72.90625 
L 90.28125 0 
L 72.515625 0 
L 72.515625 53.328125 
L 55.71875 14.015625 
L 43.796875 14.015625 
L 27 53.328125 
L 27 0 
L 9.1875 0 
z
" id="DejaVuSans-Bold-77"/>
       <path d="M 9.1875 72.90625 
L 27.984375 72.90625 
L 27.984375 45.125 
L 55.71875 45.125 
L 55.71875 72.90625 
L 74.515625 72.90625 
L 74.515625 0 
L 55.71875 0 
L 55.71875 30.90625 
L 27.984375 30.90625 
L 27.984375 0 
L 9.1875 0 
z
" id="DejaVuSans-Bold-72"/>
       <path d="M 5.71875 54.6875 
L 53.421875 54.6875 
L 53.421875 42.484375 
L 24.609375 12.5 
L 53.421875 12.5 
L 53.421875 0 
L 4.5 0 
L 4.5 12.203125 
L 33.296875 42.1875 
L 5.71875 42.1875 
z
" id="DejaVuSans-Bold-122"/>
       <path d="M 8.015625 -13.1875 
Q 14.265625 -1.5625 17.390625 9.515625 
Q 20.515625 20.609375 20.515625 31.390625 
Q 20.515625 42.1875 17.390625 53.25 
Q 14.265625 64.3125 8.015625 75.875 
L 22.515625 75.875 
Q 29.9375 63.921875 33.515625 52.953125 
Q 37.109375 42 37.109375 31.296875 
Q 37.109375 20.609375 33.546875 9.734375 
Q 29.984375 -1.125 22.515625 -13.1875 
z
" id="DejaVuSans-Bold-41"/>
      </defs>
      <use xlink:href="#DejaVuSans-Bold-67"/>
      <use x="73.388672" xlink:href="#DejaVuSans-Bold-111"/>
      <use x="142.089844" xlink:href="#DejaVuSans-Bold-114"/>
      <use x="191.40625" xlink:href="#DejaVuSans-Bold-101"/>
      <use x="259.228516" xlink:href="#DejaVuSans-Bold-32"/>
      <use x="294.042969" xlink:href="#DejaVuSans-Bold-70"/>
      <use x="355.978516" xlink:href="#DejaVuSans-Bold-114"/>
      <use x="405.294922" xlink:href="#DejaVuSans-Bold-101"/>
      <use x="473.117188" xlink:href="#DejaVuSans-Bold-113"/>
      <use x="544.699219" xlink:href="#DejaVuSans-Bold-117"/>
      <use x="615.890625" xlink:href="#DejaVuSans-Bold-101"/>
      <use x="683.712891" xlink:href="#DejaVuSans-Bold-110"/>
      <use x="754.904297" xlink:href="#DejaVuSans-Bold-99"/>
      <use x="814.181641" xlink:href="#DejaVuSans-Bold-121"/>
      <use x="879.367188" xlink:href="#DejaVuSans-Bold-32"/>
      <use x="914.181641" xlink:href="#DejaVuSans-Bold-40"/>
      <use x="959.884766" xlink:href="#DejaVuSans-Bold-77"/>
      <use x="1059.396484" xlink:href="#DejaVuSans-Bold-72"/>
      <use x="1143.087891" xlink:href="#DejaVuSans-Bold-122"/>
      <use x="1201.291016" xlink:href="#DejaVuSans-Bold-41"/>
     </g>
    </g>
   </g>
   <g id="matplotlib.axis_2">
    <g id="ytick_1">
     <g id="line2d_11">
      <defs>
       <path d="M 0 0 
L 4.8 0 
" id="mbb996c7fce" style="stroke:#000000;"/>
      </defs>
      <g>
       <use style="stroke:#000000;" x="48.341313" xlink:href="#mbb996c7fce" y="171.622375"/>
      </g>
     </g>
     <g id="line2d_12">
      <defs>
       <path d="M 0 0 
L -4.8 0 
" id="m40e09d77c5" style="stroke:#000000;"/>
      </defs>
      <g>
       <use style="stroke:#000000;" x="268.579122" xlink:href="#m40e09d77c5" y="171.622375"/>
      </g>
     </g>
     <g id="text_7">
      <!-- 750 -->
      <g transform="translate(27.544313 174.050625)scale(0.088 -0.088)">
       <defs>
        <path d="M 8.203125 72.90625 
L 55.078125 72.90625 
L 55.078125 68.703125 
L 28.609375 0 
L 18.3125 0 
L 43.21875 64.59375 
L 8.203125 64.59375 
z
" id="DejaVuSans-55"/>
        <path d="M 10.796875 72.90625 
L 49.515625 72.90625 
L 49.515625 64.59375 
L 19.828125 64.59375 
L 19.828125 46.734375 
Q 21.96875 47.46875 24.109375 47.828125 
Q 26.265625 48.1875 28.421875 48.1875 
Q 40.625 48.1875 47.75 41.5 
Q 54.890625 34.8125 54.890625 23.390625 
Q 54.890625 11.625 47.5625 5.09375 
Q 40.234375 -1.421875 26.90625 -1.421875 
Q 22.3125 -1.421875 17.546875 -0.640625 
Q 12.796875 0.140625 7.71875 1.703125 
L 7.71875 11.625 
Q 12.109375 9.234375 16.796875 8.0625 
Q 21.484375 6.890625 26.703125 6.890625 
Q 35.15625 6.890625 40.078125 11.328125 
Q 45.015625 15.765625 45.015625 23.390625 
Q 45.015625 31 40.078125 35.4375 
Q 35.15625 39.890625 26.703125 39.890625 
Q 22.75 39.890625 18.8125 39.015625 
Q 14.890625 38.140625 10.796875 36.28125 
z
" id="DejaVuSans-53"/>
       </defs>
       <use xlink:href="#DejaVuSans-55"/>
       <use x="63.623047" xlink:href="#DejaVuSans-53"/>
       <use x="127.246094" xlink:href="#DejaVuSans-48"/>
      </g>
     </g>
    </g>
    <g id="ytick_2">
     <g id="line2d_13">
      <g>
       <use style="stroke:#000000;" x="48.341313" xlink:href="#mbb996c7fce" y="139.589575"/>
      </g>
     </g>
     <g id="line2d_14">
      <g>
       <use style="stroke:#000000;" x="268.579122" xlink:href="#m40e09d77c5" y="139.589575"/>
      </g>
     </g>
     <g id="text_8">
      <!-- 800 -->
      <g transform="translate(27.544313 142.017825)scale(0.088 -0.088)">
       <use xlink:href="#DejaVuSans-56"/>
       <use x="63.623047" xlink:href="#DejaVuSans-48"/>
       <use x="127.246094" xlink:href="#DejaVuSans-48"/>
      </g>
     </g>
    </g>
    <g id="ytick_3">
     <g id="line2d_15">
      <g>
       <use style="stroke:#000000;" x="48.341313" xlink:href="#mbb996c7fce" y="107.556775"/>
      </g>
     </g>
     <g id="line2d_16">
      <g>
       <use style="stroke:#000000;" x="268.579122" xlink:href="#m40e09d77c5" y="107.556775"/>
      </g>
     </g>
     <g id="text_9">
      <!-- 850 -->
      <g transform="translate(27.544313 109.985025)scale(0.088 -0.088)">
       <use xlink:href="#DejaVuSans-56"/>
       <use x="63.623047" xlink:href="#DejaVuSans-53"/>
       <use x="127.246094" xlink:href="#DejaVuSans-48"/>
      </g>
     </g>
    </g>
    <g id="ytick_4">
     <g id="line2d_17">
      <g>
       <use style="stroke:#000000;" x="48.341313" xlink:href="#mbb996c7fce" y="75.523975"/>
      </g>
     </g>
     <g id="line2d_18">
      <g>
       <use style="stroke:#000000;" x="268.579122" xlink:href="#m40e09d77c5" y="75.523975"/>
      </g>
     </g>
     <g id="text_10">
      <!-- 900 -->
      <g transform="translate(27.544313 77.952225)scale(0.088 -0.088)">
       <defs>
        <path d="M 10.984375 1.515625 
L 10.984375 10.5 
Q 14.703125 8.734375 18.5 7.8125 
Q 22.3125 6.890625 25.984375 6.890625 
Q 35.75 6.890625 40.890625 13.453125 
Q 46.046875 20.015625 46.78125 33.40625 
Q 43.953125 29.203125 39.59375 26.953125 
Q 35.25 24.703125 29.984375 24.703125 
Q 19.046875 24.703125 12.671875 31.3125 
Q 6.296875 37.9375 6.296875 49.421875 
Q 6.296875 60.640625 12.9375 67.421875 
Q 19.578125 74.21875 30.609375 74.21875 
Q 43.265625 74.21875 49.921875 64.515625 
Q 56.59375 54.828125 56.59375 36.375 
Q 56.59375 19.140625 48.40625 8.859375 
Q 40.234375 -1.421875 26.421875 -1.421875 
Q 22.703125 -1.421875 18.890625 -0.6875 
Q 15.09375 0.046875 10.984375 1.515625 
z
M 30.609375 32.421875 
Q 37.25 32.421875 41.125 36.953125 
Q 45.015625 41.5 45.015625 49.421875 
Q 45.015625 57.28125 41.125 61.84375 
Q 37.25 66.40625 30.609375 66.40625 
Q 23.96875 66.40625 20.09375 61.84375 
Q 16.21875 57.28125 16.21875 49.421875 
Q 16.21875 41.5 20.09375 36.953125 
Q 23.96875 32.421875 30.609375 32.421875 
z
" id="DejaVuSans-57"/>
       </defs>
       <use xlink:href="#DejaVuSans-57"/>
       <use x="63.623047" xlink:href="#DejaVuSans-48"/>
       <use x="127.246094" xlink:href="#DejaVuSans-48"/>
      </g>
     </g>
    </g>
    <g id="ytick_5">
     <g id="line2d_19">
      <g>
       <use style="stroke:#000000;" x="48.341313" xlink:href="#mbb996c7fce" y="43.491175"/>
      </g>
     </g>
     <g id="line2d_20">
      <g>
       <use style="stroke:#000000;" x="268.579122" xlink:href="#m40e09d77c5" y="43.491175"/>
      </g>
     </g>
     <g id="text_11">
      <!-- 950 -->
      <g transform="translate(27.544313 45.919425)scale(0.088 -0.088)">
       <use xlink:href="#DejaVuSans-57"/>
       <use x="63.623047" xlink:href="#DejaVuSans-53"/>
       <use x="127.246094" xlink:href="#DejaVuSans-48"/>
      </g>
     </g>
    </g>
    <g id="ytick_6">
     <g id="line2d_21">
      <g>
       <use style="stroke:#000000;" x="48.341313" xlink:href="#mbb996c7fce" y="11.458375"/>
      </g>
     </g>
     <g id="line2d_22">
      <g>
       <use style="stroke:#000000;" x="268.579122" xlink:href="#m40e09d77c5" y="11.458375"/>
      </g>
     </g>
     <g id="text_12">
      <!-- 1000 -->
      <g transform="translate(21.945313 13.886625)scale(0.088 -0.088)">
       <use xlink:href="#DejaVuSans-49"/>
       <use x="63.623047" xlink:href="#DejaVuSans-48"/>
       <use x="127.246094" xlink:href="#DejaVuSans-48"/>
       <use x="190.869141" xlink:href="#DejaVuSans-48"/>
      </g>
     </g>
    </g>
    <g id="text_13">
     <!-- Energy (J) -->
     <g transform="translate(14.7875 119.381781)rotate(-90)scale(0.1 -0.1)">
      <defs>
       <path d="M 9.1875 72.90625 
L 59.90625 72.90625 
L 59.90625 58.6875 
L 27.984375 58.6875 
L 27.984375 45.125 
L 58.015625 45.125 
L 58.015625 30.90625 
L 27.984375 30.90625 
L 27.984375 14.203125 
L 60.984375 14.203125 
L 60.984375 0 
L 9.1875 0 
z
" id="DejaVuSans-Bold-69"/>
       <path d="M 45.609375 9.28125 
Q 42 4.5 37.640625 2.25 
Q 33.296875 0 27.59375 0 
Q 17.578125 0 11.03125 7.875 
Q 4.5 15.765625 4.5 27.984375 
Q 4.5 40.234375 11.03125 48.0625 
Q 17.578125 55.90625 27.59375 55.90625 
Q 33.296875 55.90625 37.640625 53.65625 
Q 42 51.421875 45.609375 46.578125 
L 45.609375 54.6875 
L 63.1875 54.6875 
L 63.1875 5.515625 
Q 63.1875 -7.671875 54.859375 -14.625 
Q 46.53125 -21.578125 30.71875 -21.578125 
Q 25.59375 -21.578125 20.796875 -20.796875 
Q 16.015625 -20.015625 11.1875 -18.40625 
L 11.1875 -4.78125 
Q 15.765625 -7.421875 20.15625 -8.71875 
Q 24.5625 -10.015625 29 -10.015625 
Q 37.59375 -10.015625 41.59375 -6.25 
Q 45.609375 -2.484375 45.609375 5.515625 
z
M 34.078125 43.3125 
Q 28.65625 43.3125 25.625 39.296875 
Q 22.609375 35.296875 22.609375 27.984375 
Q 22.609375 20.453125 25.53125 16.578125 
Q 28.46875 12.703125 34.078125 12.703125 
Q 39.546875 12.703125 42.578125 16.703125 
Q 45.609375 20.703125 45.609375 27.984375 
Q 45.609375 35.296875 42.578125 39.296875 
Q 39.546875 43.3125 34.078125 43.3125 
z
" id="DejaVuSans-Bold-103"/>
       <path d="M 9.1875 72.90625 
L 27.984375 72.90625 
L 27.984375 7.078125 
Q 27.984375 -6.546875 20.578125 -13.28125 
Q 13.1875 -20.015625 -1.8125 -20.015625 
L -5.609375 -20.015625 
L -5.609375 -5.8125 
L -2.6875 -5.8125 
Q 3.171875 -5.8125 6.171875 -2.53125 
Q 9.1875 0.734375 9.1875 7.078125 
z
" id="DejaVuSans-Bold-74"/>
      </defs>
      <use xlink:href="#DejaVuSans-Bold-69"/>
      <use x="68.310547" xlink:href="#DejaVuSans-Bold-110"/>
      <use x="139.501953" xlink:href="#DejaVuSans-Bold-101"/>
      <use x="207.324219" xlink:href="#DejaVuSans-Bold-114"/>
      <use x="256.640625" xlink:href="#DejaVuSans-Bold-103"/>
      <use x="328.222656" xlink:href="#DejaVuSans-Bold-121"/>
      <use x="393.408203" xlink:href="#DejaVuSans-Bold-32"/>
      <use x="428.222656" xlink:href="#DejaVuSans-Bold-40"/>
      <use x="473.925781" xlink:href="#DejaVuSans-Bold-74"/>
      <use x="511.132812" xlink:href="#DejaVuSans-Bold-41"/>
     </g>
    </g>
   </g>
   <g id="patch_7">
    <path d="M 206.254265 47.249577 
Q 199.693554 90.98765 193.265523 133.841191 
" style="fill:none;stroke:#ff0000;stroke-linecap:round;stroke-width:0.8;"/>
    <path d="M 195.528209 130.621214 
L 193.265523 133.841191 
L 192.047153 130.099056 
L 195.528209 130.621214 
z
" style="fill:#ff0000;stroke:#ff0000;stroke-linecap:round;stroke-width:0.8;"/>
   </g>
   <g id="patch_8">
    <path d="M 151.40496 44.870444 
L 264.26696 44.870444 
L 264.26696 28.539444 
L 151.40496 28.539444 
z
" style="fill:#ffffff;stroke:#000000;stroke-linejoin:miter;stroke-width:0.8;"/>
   </g>
   <g id="text_14">
    <!-- 804.50262J, 1095MHz -->
    <g transform="translate(154.92496 39.353944)scale(0.096 -0.096)">
     <defs>
      <path d="M 10.6875 12.40625 
L 21 12.40625 
L 21 0 
L 10.6875 0 
z
" id="DejaVuSans-46"/>
      <path d="M 9.8125 72.90625 
L 19.671875 72.90625 
L 19.671875 5.078125 
Q 19.671875 -8.109375 14.671875 -14.0625 
Q 9.671875 -20.015625 -1.421875 -20.015625 
L -5.171875 -20.015625 
L -5.171875 -11.71875 
L -2.09375 -11.71875 
Q 4.4375 -11.71875 7.125 -8.046875 
Q 9.8125 -4.390625 9.8125 5.078125 
z
" id="DejaVuSans-74"/>
      <path d="M 11.71875 12.40625 
L 22.015625 12.40625 
L 22.015625 4 
L 14.015625 -11.625 
L 7.71875 -11.625 
L 11.71875 4 
z
" id="DejaVuSans-44"/>
      <path id="DejaVuSans-32"/>
      <path d="M 9.8125 72.90625 
L 24.515625 72.90625 
L 43.109375 23.296875 
L 61.8125 72.90625 
L 76.515625 72.90625 
L 76.515625 0 
L 66.890625 0 
L 66.890625 64.015625 
L 48.09375 14.015625 
L 38.1875 14.015625 
L 19.390625 64.015625 
L 19.390625 0 
L 9.8125 0 
z
" id="DejaVuSans-77"/>
      <path d="M 9.8125 72.90625 
L 19.671875 72.90625 
L 19.671875 43.015625 
L 55.515625 43.015625 
L 55.515625 72.90625 
L 65.375 72.90625 
L 65.375 0 
L 55.515625 0 
L 55.515625 34.71875 
L 19.671875 34.71875 
L 19.671875 0 
L 9.8125 0 
z
" id="DejaVuSans-72"/>
      <path d="M 5.515625 54.6875 
L 48.1875 54.6875 
L 48.1875 46.484375 
L 14.40625 7.171875 
L 48.1875 7.171875 
L 48.1875 0 
L 4.296875 0 
L 4.296875 8.203125 
L 38.09375 47.515625 
L 5.515625 47.515625 
z
" id="DejaVuSans-122"/>
     </defs>
     <use xlink:href="#DejaVuSans-56"/>
     <use x="63.623047" xlink:href="#DejaVuSans-48"/>
     <use x="127.246094" xlink:href="#DejaVuSans-52"/>
     <use x="190.869141" xlink:href="#DejaVuSans-46"/>
     <use x="222.65625" xlink:href="#DejaVuSans-53"/>
     <use x="286.279297" xlink:href="#DejaVuSans-48"/>
     <use x="349.902344" xlink:href="#DejaVuSans-50"/>
     <use x="413.525391" xlink:href="#DejaVuSans-54"/>
     <use x="477.148438" xlink:href="#DejaVuSans-50"/>
     <use x="540.771484" xlink:href="#DejaVuSans-74"/>
     <use x="570.263672" xlink:href="#DejaVuSans-44"/>
     <use x="602.050781" xlink:href="#DejaVuSans-32"/>
     <use x="633.837891" xlink:href="#DejaVuSans-49"/>
     <use x="697.460938" xlink:href="#DejaVuSans-48"/>
     <use x="761.083984" xlink:href="#DejaVuSans-57"/>
     <use x="824.707031" xlink:href="#DejaVuSans-53"/>
     <use x="888.330078" xlink:href="#DejaVuSans-77"/>
     <use x="974.609375" xlink:href="#DejaVuSans-72"/>
     <use x="1049.804688" xlink:href="#DejaVuSans-122"/>
    </g>
   </g>
  </g>
 </g>
 <defs>
  <clipPath id="pa1a3beb575">
   <rect height="160.164" width="220.23781" x="48.341313" y="11.458375"/>
  </clipPath>
 </defs>
</svg>
