<?xml version="1.0" encoding="utf-8" standalone="no"?>
<!DOCTYPE svg PUBLIC "-//W3C//DTD SVG 1.1//EN"
  "http://www.w3.org/Graphics/SVG/1.1/DTD/svg11.dtd">
<!-- Created with matplotlib (https://matplotlib.org/) -->
<svg height="208.0335pt" version="1.1" viewBox="0 0 282.216614 208.0335" width="282.216614pt" xmlns="http://www.w3.org/2000/svg" xmlns:xlink="http://www.w3.org/1999/xlink">
 <metadata>
  <rdf:RDF xmlns:cc="http://creativecommons.org/ns#" xmlns:dc="http://purl.org/dc/elements/1.1/" xmlns:rdf="http://www.w3.org/1999/02/22-rdf-syntax-ns#">
   <cc:Work>
    <dc:type rdf:resource="http://purl.org/dc/dcmitype/StillImage"/>
    <dc:date>2021-10-22T16:12:49.623438</dc:date>
    <dc:format>image/svg+xml</dc:format>
    <dc:creator>
     <cc:Agent>
      <dc:title>Matplotlib v3.3.4, https://matplotlib.org/</dc:title>
     </cc:Agent>
    </dc:creator>
   </cc:Work>
  </rdf:RDF>
 </metadata>
 <defs>
  <style type="text/css">*{stroke-linecap:butt;stroke-linejoin:round;}</style>
 </defs>
 <g id="figure_1">
  <g id="patch_1">
   <path d="M 0 208.0335 
L 282.216614 208.0335 
L 282.216614 0 
L 0 0 
z
" style="fill:none;"/>
  </g>
  <g id="axes_1">
   <g id="patch_2">
    <path d="M 39.872875 171.622375 
L 268.660685 171.622375 
L 268.660685 11.458375 
L 39.872875 11.458375 
z
" style="fill:none;"/>
   </g>
   <g id="PathCollection_1">
    <defs>
     <path d="M -0 3.162278 
L 1.897367 0 
L 0 -3.162278 
L -1.897367 -0 
z
" id="m85566c8690" style="stroke:#ffffff;stroke-width:0.357771;"/>
    </defs>
    <g clip-path="url(#pfb0b00ef77)">
     <use style="fill:#0000ff;stroke:#ffffff;stroke-width:0.357771;" x="48.346498" xlink:href="#m85566c8690" y="21.068215"/>
     <use style="fill:#0000ff;stroke:#ffffff;stroke-width:0.357771;" x="50.041222" xlink:href="#m85566c8690" y="21.708871"/>
     <use style="fill:#0000ff;stroke:#ffffff;stroke-width:0.357771;" x="51.97805" xlink:href="#m85566c8690" y="21.708871"/>
     <use style="fill:#0000ff;stroke:#ffffff;stroke-width:0.357771;" x="53.672775" xlink:href="#m85566c8690" y="21.708871"/>
     <use style="fill:#0000ff;stroke:#ffffff;stroke-width:0.357771;" x="55.609603" xlink:href="#m85566c8690" y="22.990183"/>
     <use style="fill:#0000ff;stroke:#ffffff;stroke-width:0.357771;" x="57.304327" xlink:href="#m85566c8690" y="22.990183"/>
     <use style="fill:#0000ff;stroke:#ffffff;stroke-width:0.357771;" x="59.241155" xlink:href="#m85566c8690" y="22.349527"/>
     <use style="fill:#0000ff;stroke:#ffffff;stroke-width:0.357771;" x="60.93588" xlink:href="#m85566c8690" y="22.349527"/>
     <use style="fill:#0000ff;stroke:#ffffff;stroke-width:0.357771;" x="62.872708" xlink:href="#m85566c8690" y="22.349527"/>
     <use style="fill:#0000ff;stroke:#ffffff;stroke-width:0.357771;" x="64.567432" xlink:href="#m85566c8690" y="26.193463"/>
     <use style="fill:#0000ff;stroke:#ffffff;stroke-width:0.357771;" x="66.50426" xlink:href="#m85566c8690" y="32.600023"/>
     <use style="fill:#0000ff;stroke:#ffffff;stroke-width:0.357771;" x="68.198985" xlink:href="#m85566c8690" y="33.240679"/>
     <use style="fill:#0000ff;stroke:#ffffff;stroke-width:0.357771;" x="70.135813" xlink:href="#m85566c8690" y="33.240679"/>
     <use style="fill:#0000ff;stroke:#ffffff;stroke-width:0.357771;" x="71.830537" xlink:href="#m85566c8690" y="43.491175"/>
     <use style="fill:#0000ff;stroke:#ffffff;stroke-width:0.357771;" x="73.767365" xlink:href="#m85566c8690" y="44.131831"/>
     <use style="fill:#0000ff;stroke:#ffffff;stroke-width:0.357771;" x="75.46209" xlink:href="#m85566c8690" y="45.413143"/>
     <use style="fill:#0000ff;stroke:#ffffff;stroke-width:0.357771;" x="77.398918" xlink:href="#m85566c8690" y="44.772487"/>
     <use style="fill:#0000ff;stroke:#ffffff;stroke-width:0.357771;" x="79.093642" xlink:href="#m85566c8690" y="62.070199"/>
     <use style="fill:#0000ff;stroke:#ffffff;stroke-width:0.357771;" x="81.03047" xlink:href="#m85566c8690" y="62.710855"/>
     <use style="fill:#0000ff;stroke:#ffffff;stroke-width:0.357771;" x="82.725195" xlink:href="#m85566c8690" y="62.710855"/>
     <use style="fill:#0000ff;stroke:#ffffff;stroke-width:0.357771;" x="84.662023" xlink:href="#m85566c8690" y="62.710855"/>
     <use style="fill:#0000ff;stroke:#ffffff;stroke-width:0.357771;" x="86.356747" xlink:href="#m85566c8690" y="77.445943"/>
     <use style="fill:#0000ff;stroke:#ffffff;stroke-width:0.357771;" x="88.293575" xlink:href="#m85566c8690" y="78.086599"/>
     <use style="fill:#0000ff;stroke:#ffffff;stroke-width:0.357771;" x="89.9883" xlink:href="#m85566c8690" y="78.086599"/>
     <use style="fill:#0000ff;stroke:#ffffff;stroke-width:0.357771;" x="91.925128" xlink:href="#m85566c8690" y="77.445943"/>
     <use style="fill:#0000ff;stroke:#ffffff;stroke-width:0.357771;" x="93.619852" xlink:href="#m85566c8690" y="96.024967"/>
     <use style="fill:#0000ff;stroke:#ffffff;stroke-width:0.357771;" x="95.55668" xlink:href="#m85566c8690" y="96.665623"/>
     <use style="fill:#0000ff;stroke:#ffffff;stroke-width:0.357771;" x="97.251405" xlink:href="#m85566c8690" y="96.024967"/>
     <use style="fill:#0000ff;stroke:#ffffff;stroke-width:0.357771;" x="99.188233" xlink:href="#m85566c8690" y="96.665623"/>
     <use style="fill:#0000ff;stroke:#ffffff;stroke-width:0.357771;" x="100.882958" xlink:href="#m85566c8690" y="96.665623"/>
     <use style="fill:#0000ff;stroke:#ffffff;stroke-width:0.357771;" x="102.819786" xlink:href="#m85566c8690" y="102.431527"/>
     <use style="fill:#0000ff;stroke:#ffffff;stroke-width:0.357771;" x="104.51451" xlink:href="#m85566c8690" y="101.790871"/>
     <use style="fill:#0000ff;stroke:#ffffff;stroke-width:0.357771;" x="106.451338" xlink:href="#m85566c8690" y="102.431527"/>
     <use style="fill:#0000ff;stroke:#ffffff;stroke-width:0.357771;" x="108.146063" xlink:href="#m85566c8690" y="102.431527"/>
     <use style="fill:#0000ff;stroke:#ffffff;stroke-width:0.357771;" x="110.082891" xlink:href="#m85566c8690" y="112.041367"/>
     <use style="fill:#0000ff;stroke:#ffffff;stroke-width:0.357771;" x="111.777615" xlink:href="#m85566c8690" y="112.041367"/>
     <use style="fill:#0000ff;stroke:#ffffff;stroke-width:0.357771;" x="113.714443" xlink:href="#m85566c8690" y="112.682023"/>
     <use style="fill:#0000ff;stroke:#ffffff;stroke-width:0.357771;" x="115.409168" xlink:href="#m85566c8690" y="112.041367"/>
     <use style="fill:#0000ff;stroke:#ffffff;stroke-width:0.357771;" x="117.345996" xlink:href="#m85566c8690" y="120.369895"/>
     <use style="fill:#0000ff;stroke:#ffffff;stroke-width:0.357771;" x="119.04072" xlink:href="#m85566c8690" y="120.369895"/>
     <use style="fill:#0000ff;stroke:#ffffff;stroke-width:0.357771;" x="120.977548" xlink:href="#m85566c8690" y="121.010551"/>
     <use style="fill:#0000ff;stroke:#ffffff;stroke-width:0.357771;" x="122.672273" xlink:href="#m85566c8690" y="128.698423"/>
     <use style="fill:#0000ff;stroke:#ffffff;stroke-width:0.357771;" x="124.609101" xlink:href="#m85566c8690" y="128.698423"/>
     <use style="fill:#0000ff;stroke:#ffffff;stroke-width:0.357771;" x="126.303825" xlink:href="#m85566c8690" y="128.698423"/>
     <use style="fill:#0000ff;stroke:#ffffff;stroke-width:0.357771;" x="128.240653" xlink:href="#m85566c8690" y="128.698423"/>
     <use style="fill:#0000ff;stroke:#ffffff;stroke-width:0.357771;" x="129.935378" xlink:href="#m85566c8690" y="135.745639"/>
     <use style="fill:#0000ff;stroke:#ffffff;stroke-width:0.357771;" x="131.872206" xlink:href="#m85566c8690" y="135.745639"/>
     <use style="fill:#0000ff;stroke:#ffffff;stroke-width:0.357771;" x="133.56693" xlink:href="#m85566c8690" y="135.745639"/>
     <use style="fill:#0000ff;stroke:#ffffff;stroke-width:0.357771;" x="135.503758" xlink:href="#m85566c8690" y="135.745639"/>
     <use style="fill:#0000ff;stroke:#ffffff;stroke-width:0.357771;" x="137.198483" xlink:href="#m85566c8690" y="140.870887"/>
     <use style="fill:#0000ff;stroke:#ffffff;stroke-width:0.357771;" x="139.135311" xlink:href="#m85566c8690" y="140.870887"/>
     <use style="fill:#0000ff;stroke:#ffffff;stroke-width:0.357771;" x="140.830035" xlink:href="#m85566c8690" y="140.870887"/>
     <use style="fill:#0000ff;stroke:#ffffff;stroke-width:0.357771;" x="142.766863" xlink:href="#m85566c8690" y="140.870887"/>
     <use style="fill:#0000ff;stroke:#ffffff;stroke-width:0.357771;" x="144.461588" xlink:href="#m85566c8690" y="143.433511"/>
     <use style="fill:#0000ff;stroke:#ffffff;stroke-width:0.357771;" x="146.398416" xlink:href="#m85566c8690" y="143.433511"/>
     <use style="fill:#0000ff;stroke:#ffffff;stroke-width:0.357771;" x="148.09314" xlink:href="#m85566c8690" y="143.433511"/>
     <use style="fill:#0000ff;stroke:#ffffff;stroke-width:0.357771;" x="150.029968" xlink:href="#m85566c8690" y="143.433511"/>
     <use style="fill:#0000ff;stroke:#ffffff;stroke-width:0.357771;" x="151.724693" xlink:href="#m85566c8690" y="144.714823"/>
     <use style="fill:#0000ff;stroke:#ffffff;stroke-width:0.357771;" x="153.661521" xlink:href="#m85566c8690" y="144.714823"/>
     <use style="fill:#0000ff;stroke:#ffffff;stroke-width:0.357771;" x="155.356246" xlink:href="#m85566c8690" y="144.714823"/>
     <use style="fill:#0000ff;stroke:#ffffff;stroke-width:0.357771;" x="157.293074" xlink:href="#m85566c8690" y="144.714823"/>
     <use style="fill:#0000ff;stroke:#ffffff;stroke-width:0.357771;" x="158.987798" xlink:href="#m85566c8690" y="144.714823"/>
     <use style="fill:#0000ff;stroke:#ffffff;stroke-width:0.357771;" x="160.924626" xlink:href="#m85566c8690" y="145.355479"/>
     <use style="fill:#0000ff;stroke:#ffffff;stroke-width:0.357771;" x="162.619351" xlink:href="#m85566c8690" y="145.355479"/>
     <use style="fill:#0000ff;stroke:#ffffff;stroke-width:0.357771;" x="164.556179" xlink:href="#m85566c8690" y="145.355479"/>
     <use style="fill:#0000ff;stroke:#ffffff;stroke-width:0.357771;" x="166.250903" xlink:href="#m85566c8690" y="145.996135"/>
     <use style="fill:#0000ff;stroke:#ffffff;stroke-width:0.357771;" x="168.187731" xlink:href="#m85566c8690" y="145.996135"/>
     <use style="fill:#0000ff;stroke:#ffffff;stroke-width:0.357771;" x="169.882456" xlink:href="#m85566c8690" y="145.996135"/>
     <use style="fill:#0000ff;stroke:#ffffff;stroke-width:0.357771;" x="171.819284" xlink:href="#m85566c8690" y="145.355479"/>
     <use style="fill:#0000ff;stroke:#ffffff;stroke-width:0.357771;" x="173.514008" xlink:href="#m85566c8690" y="145.355479"/>
     <use style="fill:#0000ff;stroke:#ffffff;stroke-width:0.357771;" x="175.450836" xlink:href="#m85566c8690" y="145.355479"/>
     <use style="fill:#0000ff;stroke:#ffffff;stroke-width:0.357771;" x="177.145561" xlink:href="#m85566c8690" y="145.996135"/>
     <use style="fill:#0000ff;stroke:#ffffff;stroke-width:0.357771;" x="179.082389" xlink:href="#m85566c8690" y="145.996135"/>
     <use style="fill:#0000ff;stroke:#ffffff;stroke-width:0.357771;" x="180.777113" xlink:href="#m85566c8690" y="145.996135"/>
     <use style="fill:#0000ff;stroke:#ffffff;stroke-width:0.357771;" x="182.713941" xlink:href="#m85566c8690" y="145.996135"/>
     <use style="fill:#0000ff;stroke:#ffffff;stroke-width:0.357771;" x="184.408666" xlink:href="#m85566c8690" y="145.996135"/>
     <use style="fill:#0000ff;stroke:#ffffff;stroke-width:0.357771;" x="186.345494" xlink:href="#m85566c8690" y="145.996135"/>
     <use style="fill:#0000ff;stroke:#ffffff;stroke-width:0.357771;" x="188.040218" xlink:href="#m85566c8690" y="145.996135"/>
     <use style="fill:#0000ff;stroke:#ffffff;stroke-width:0.357771;" x="189.977046" xlink:href="#m85566c8690" y="145.996135"/>
     <use style="fill:#0000ff;stroke:#ffffff;stroke-width:0.357771;" x="191.671771" xlink:href="#m85566c8690" y="145.996135"/>
     <use style="fill:#0000ff;stroke:#ffffff;stroke-width:0.357771;" x="193.608599" xlink:href="#m85566c8690" y="145.996135"/>
     <use style="fill:#0000ff;stroke:#ffffff;stroke-width:0.357771;" x="195.303323" xlink:href="#m85566c8690" y="145.355479"/>
     <use style="fill:#0000ff;stroke:#ffffff;stroke-width:0.357771;" x="197.240151" xlink:href="#m85566c8690" y="145.355479"/>
     <use style="fill:#0000ff;stroke:#ffffff;stroke-width:0.357771;" x="198.934876" xlink:href="#m85566c8690" y="145.355479"/>
     <use style="fill:#0000ff;stroke:#ffffff;stroke-width:0.357771;" x="200.871704" xlink:href="#m85566c8690" y="145.355479"/>
     <use style="fill:#0000ff;stroke:#ffffff;stroke-width:0.357771;" x="202.566428" xlink:href="#m85566c8690" y="145.355479"/>
     <use style="fill:#0000ff;stroke:#ffffff;stroke-width:0.357771;" x="204.503256" xlink:href="#m85566c8690" y="145.355479"/>
     <use style="fill:#0000ff;stroke:#ffffff;stroke-width:0.357771;" x="206.197981" xlink:href="#m85566c8690" y="145.355479"/>
     <use style="fill:#0000ff;stroke:#ffffff;stroke-width:0.357771;" x="208.134809" xlink:href="#m85566c8690" y="145.355479"/>
     <use style="fill:#0000ff;stroke:#ffffff;stroke-width:0.357771;" x="209.829534" xlink:href="#m85566c8690" y="145.355479"/>
     <use style="fill:#0000ff;stroke:#ffffff;stroke-width:0.357771;" x="211.766362" xlink:href="#m85566c8690" y="145.355479"/>
     <use style="fill:#0000ff;stroke:#ffffff;stroke-width:0.357771;" x="213.461086" xlink:href="#m85566c8690" y="145.355479"/>
     <use style="fill:#0000ff;stroke:#ffffff;stroke-width:0.357771;" x="215.397914" xlink:href="#m85566c8690" y="145.355479"/>
     <use style="fill:#0000ff;stroke:#ffffff;stroke-width:0.357771;" x="217.092639" xlink:href="#m85566c8690" y="145.355479"/>
     <use style="fill:#0000ff;stroke:#ffffff;stroke-width:0.357771;" x="219.029467" xlink:href="#m85566c8690" y="145.355479"/>
     <use style="fill:#0000ff;stroke:#ffffff;stroke-width:0.357771;" x="220.724191" xlink:href="#m85566c8690" y="145.355479"/>
     <use style="fill:#0000ff;stroke:#ffffff;stroke-width:0.357771;" x="222.661019" xlink:href="#m85566c8690" y="145.355479"/>
     <use style="fill:#0000ff;stroke:#ffffff;stroke-width:0.357771;" x="224.355744" xlink:href="#m85566c8690" y="145.355479"/>
     <use style="fill:#0000ff;stroke:#ffffff;stroke-width:0.357771;" x="226.292572" xlink:href="#m85566c8690" y="145.355479"/>
     <use style="fill:#0000ff;stroke:#ffffff;stroke-width:0.357771;" x="227.987296" xlink:href="#m85566c8690" y="145.355479"/>
     <use style="fill:#0000ff;stroke:#ffffff;stroke-width:0.357771;" x="229.924124" xlink:href="#m85566c8690" y="144.714823"/>
     <use style="fill:#0000ff;stroke:#ffffff;stroke-width:0.357771;" x="231.618849" xlink:href="#m85566c8690" y="144.714823"/>
     <use style="fill:#0000ff;stroke:#ffffff;stroke-width:0.357771;" x="233.555677" xlink:href="#m85566c8690" y="144.714823"/>
     <use style="fill:#0000ff;stroke:#ffffff;stroke-width:0.357771;" x="235.250401" xlink:href="#m85566c8690" y="144.714823"/>
     <use style="fill:#0000ff;stroke:#ffffff;stroke-width:0.357771;" x="237.187229" xlink:href="#m85566c8690" y="144.714823"/>
     <use style="fill:#0000ff;stroke:#ffffff;stroke-width:0.357771;" x="238.881954" xlink:href="#m85566c8690" y="144.714823"/>
     <use style="fill:#0000ff;stroke:#ffffff;stroke-width:0.357771;" x="240.818782" xlink:href="#m85566c8690" y="144.714823"/>
     <use style="fill:#0000ff;stroke:#ffffff;stroke-width:0.357771;" x="242.513506" xlink:href="#m85566c8690" y="144.714823"/>
     <use style="fill:#0000ff;stroke:#ffffff;stroke-width:0.357771;" x="244.450334" xlink:href="#m85566c8690" y="144.714823"/>
     <use style="fill:#0000ff;stroke:#ffffff;stroke-width:0.357771;" x="246.145059" xlink:href="#m85566c8690" y="144.074167"/>
     <use style="fill:#0000ff;stroke:#ffffff;stroke-width:0.357771;" x="248.081887" xlink:href="#m85566c8690" y="144.074167"/>
     <use style="fill:#0000ff;stroke:#ffffff;stroke-width:0.357771;" x="249.776611" xlink:href="#m85566c8690" y="144.074167"/>
     <use style="fill:#0000ff;stroke:#ffffff;stroke-width:0.357771;" x="251.713439" xlink:href="#m85566c8690" y="144.074167"/>
     <use style="fill:#0000ff;stroke:#ffffff;stroke-width:0.357771;" x="253.408164" xlink:href="#m85566c8690" y="144.074167"/>
     <use style="fill:#0000ff;stroke:#ffffff;stroke-width:0.357771;" x="255.344992" xlink:href="#m85566c8690" y="144.074167"/>
     <use style="fill:#0000ff;stroke:#ffffff;stroke-width:0.357771;" x="257.039716" xlink:href="#m85566c8690" y="144.074167"/>
     <use style="fill:#0000ff;stroke:#ffffff;stroke-width:0.357771;" x="258.976544" xlink:href="#m85566c8690" y="144.074167"/>
    </g>
   </g>
   <g id="patch_3">
    <path d="M 39.872875 171.622375 
L 39.872875 11.458375 
" style="fill:none;stroke:#000000;stroke-linecap:square;stroke-linejoin:miter;"/>
   </g>
   <g id="patch_4">
    <path d="M 268.660685 171.622375 
L 268.660685 11.458375 
" style="fill:none;stroke:#000000;stroke-linecap:square;stroke-linejoin:miter;"/>
   </g>
   <g id="patch_5">
    <path d="M 39.872875 171.622375 
L 268.660685 171.622375 
" style="fill:none;stroke:#000000;stroke-linecap:square;stroke-linejoin:miter;"/>
   </g>
   <g id="patch_6">
    <path d="M 39.872875 11.458375 
L 268.660685 11.458375 
" style="fill:none;stroke:#000000;stroke-linecap:square;stroke-linejoin:miter;"/>
   </g>
   <g id="matplotlib.axis_1">
    <g id="xtick_1">
     <g id="line2d_1">
      <defs>
       <path d="M 0 0 
L 0 -4.8 
" id="m9457b3171c" style="stroke:#000000;"/>
      </defs>
      <g>
       <use style="stroke:#000000;" x="70.135813" xlink:href="#m9457b3171c" y="171.622375"/>
      </g>
     </g>
     <g id="line2d_2">
      <defs>
       <path d="M 0 0 
L 0 4.8 
" id="m6d98445992" style="stroke:#000000;"/>
      </defs>
      <g>
       <use style="stroke:#000000;" x="70.135813" xlink:href="#m6d98445992" y="11.458375"/>
      </g>
     </g>
     <g id="text_1">
      <!-- 600 -->
      <g transform="translate(61.737313 182.309)scale(0.088 -0.088)">
       <defs>
        <path d="M 33.015625 40.375 
Q 26.375 40.375 22.484375 35.828125 
Q 18.609375 31.296875 18.609375 23.390625 
Q 18.609375 15.53125 22.484375 10.953125 
Q 26.375 6.390625 33.015625 6.390625 
Q 39.65625 6.390625 43.53125 10.953125 
Q 47.40625 15.53125 47.40625 23.390625 
Q 47.40625 31.296875 43.53125 35.828125 
Q 39.65625 40.375 33.015625 40.375 
z
M 52.59375 71.296875 
L 52.59375 62.3125 
Q 48.875 64.0625 45.09375 64.984375 
Q 41.3125 65.921875 37.59375 65.921875 
Q 27.828125 65.921875 22.671875 59.328125 
Q 17.53125 52.734375 16.796875 39.40625 
Q 19.671875 43.65625 24.015625 45.921875 
Q 28.375 48.1875 33.59375 48.1875 
Q 44.578125 48.1875 50.953125 41.515625 
Q 57.328125 34.859375 57.328125 23.390625 
Q 57.328125 12.15625 50.6875 5.359375 
Q 44.046875 -1.421875 33.015625 -1.421875 
Q 20.359375 -1.421875 13.671875 8.265625 
Q 6.984375 17.96875 6.984375 36.375 
Q 6.984375 53.65625 15.1875 63.9375 
Q 23.390625 74.21875 37.203125 74.21875 
Q 40.921875 74.21875 44.703125 73.484375 
Q 48.484375 72.75 52.59375 71.296875 
z
" id="DejaVuSans-54"/>
        <path d="M 31.78125 66.40625 
Q 24.171875 66.40625 20.328125 58.90625 
Q 16.5 51.421875 16.5 36.375 
Q 16.5 21.390625 20.328125 13.890625 
Q 24.171875 6.390625 31.78125 6.390625 
Q 39.453125 6.390625 43.28125 13.890625 
Q 47.125 21.390625 47.125 36.375 
Q 47.125 51.421875 43.28125 58.90625 
Q 39.453125 66.40625 31.78125 66.40625 
z
M 31.78125 74.21875 
Q 44.046875 74.21875 50.515625 64.515625 
Q 56.984375 54.828125 56.984375 36.375 
Q 56.984375 17.96875 50.515625 8.265625 
Q 44.046875 -1.421875 31.78125 -1.421875 
Q 19.53125 -1.421875 13.0625 8.265625 
Q 6.59375 17.96875 6.59375 36.375 
Q 6.59375 54.828125 13.0625 64.515625 
Q 19.53125 74.21875 31.78125 74.21875 
z
" id="DejaVuSans-48"/>
       </defs>
       <use xlink:href="#DejaVuSans-54"/>
       <use x="63.623047" xlink:href="#DejaVuSans-48"/>
       <use x="127.246094" xlink:href="#DejaVuSans-48"/>
      </g>
     </g>
    </g>
    <g id="xtick_2">
     <g id="line2d_3">
      <g>
       <use style="stroke:#000000;" x="118.556513" xlink:href="#m9457b3171c" y="171.622375"/>
      </g>
     </g>
     <g id="line2d_4">
      <g>
       <use style="stroke:#000000;" x="118.556513" xlink:href="#m6d98445992" y="11.458375"/>
      </g>
     </g>
     <g id="text_2">
      <!-- 800 -->
      <g transform="translate(110.158013 182.309)scale(0.088 -0.088)">
       <defs>
        <path d="M 31.78125 34.625 
Q 24.75 34.625 20.71875 30.859375 
Q 16.703125 27.09375 16.703125 20.515625 
Q 16.703125 13.921875 20.71875 10.15625 
Q 24.75 6.390625 31.78125 6.390625 
Q 38.8125 6.390625 42.859375 10.171875 
Q 46.921875 13.96875 46.921875 20.515625 
Q 46.921875 27.09375 42.890625 30.859375 
Q 38.875 34.625 31.78125 34.625 
z
M 21.921875 38.8125 
Q 15.578125 40.375 12.03125 44.71875 
Q 8.5 49.078125 8.5 55.328125 
Q 8.5 64.0625 14.71875 69.140625 
Q 20.953125 74.21875 31.78125 74.21875 
Q 42.671875 74.21875 48.875 69.140625 
Q 55.078125 64.0625 55.078125 55.328125 
Q 55.078125 49.078125 51.53125 44.71875 
Q 48 40.375 41.703125 38.8125 
Q 48.828125 37.15625 52.796875 32.3125 
Q 56.78125 27.484375 56.78125 20.515625 
Q 56.78125 9.90625 50.3125 4.234375 
Q 43.84375 -1.421875 31.78125 -1.421875 
Q 19.734375 -1.421875 13.25 4.234375 
Q 6.78125 9.90625 6.78125 20.515625 
Q 6.78125 27.484375 10.78125 32.3125 
Q 14.796875 37.15625 21.921875 38.8125 
z
M 18.3125 54.390625 
Q 18.3125 48.734375 21.84375 45.5625 
Q 25.390625 42.390625 31.78125 42.390625 
Q 38.140625 42.390625 41.71875 45.5625 
Q 45.3125 48.734375 45.3125 54.390625 
Q 45.3125 60.0625 41.71875 63.234375 
Q 38.140625 66.40625 31.78125 66.40625 
Q 25.390625 66.40625 21.84375 63.234375 
Q 18.3125 60.0625 18.3125 54.390625 
z
" id="DejaVuSans-56"/>
       </defs>
       <use xlink:href="#DejaVuSans-56"/>
       <use x="63.623047" xlink:href="#DejaVuSans-48"/>
       <use x="127.246094" xlink:href="#DejaVuSans-48"/>
      </g>
     </g>
    </g>
    <g id="xtick_3">
     <g id="line2d_5">
      <g>
       <use style="stroke:#000000;" x="166.977214" xlink:href="#m9457b3171c" y="171.622375"/>
      </g>
     </g>
     <g id="line2d_6">
      <g>
       <use style="stroke:#000000;" x="166.977214" xlink:href="#m6d98445992" y="11.458375"/>
      </g>
     </g>
     <g id="text_3">
      <!-- 1000 -->
      <g transform="translate(155.779214 182.309)scale(0.088 -0.088)">
       <defs>
        <path d="M 12.40625 8.296875 
L 28.515625 8.296875 
L 28.515625 63.921875 
L 10.984375 60.40625 
L 10.984375 69.390625 
L 28.421875 72.90625 
L 38.28125 72.90625 
L 38.28125 8.296875 
L 54.390625 8.296875 
L 54.390625 0 
L 12.40625 0 
z
" id="DejaVuSans-49"/>
       </defs>
       <use xlink:href="#DejaVuSans-49"/>
       <use x="63.623047" xlink:href="#DejaVuSans-48"/>
       <use x="127.246094" xlink:href="#DejaVuSans-48"/>
       <use x="190.869141" xlink:href="#DejaVuSans-48"/>
      </g>
     </g>
    </g>
    <g id="xtick_4">
     <g id="line2d_7">
      <g>
       <use style="stroke:#000000;" x="215.397914" xlink:href="#m9457b3171c" y="171.622375"/>
      </g>
     </g>
     <g id="line2d_8">
      <g>
       <use style="stroke:#000000;" x="215.397914" xlink:href="#m6d98445992" y="11.458375"/>
      </g>
     </g>
     <g id="text_4">
      <!-- 1200 -->
      <g transform="translate(204.199914 182.309)scale(0.088 -0.088)">
       <defs>
        <path d="M 19.1875 8.296875 
L 53.609375 8.296875 
L 53.609375 0 
L 7.328125 0 
L 7.328125 8.296875 
Q 12.9375 14.109375 22.625 23.890625 
Q 32.328125 33.6875 34.8125 36.53125 
Q 39.546875 41.84375 41.421875 45.53125 
Q 43.3125 49.21875 43.3125 52.78125 
Q 43.3125 58.59375 39.234375 62.25 
Q 35.15625 65.921875 28.609375 65.921875 
Q 23.96875 65.921875 18.8125 64.3125 
Q 13.671875 62.703125 7.8125 59.421875 
L 7.8125 69.390625 
Q 13.765625 71.78125 18.9375 73 
Q 24.125 74.21875 28.421875 74.21875 
Q 39.75 74.21875 46.484375 68.546875 
Q 53.21875 62.890625 53.21875 53.421875 
Q 53.21875 48.921875 51.53125 44.890625 
Q 49.859375 40.875 45.40625 35.40625 
Q 44.1875 33.984375 37.640625 27.21875 
Q 31.109375 20.453125 19.1875 8.296875 
z
" id="DejaVuSans-50"/>
       </defs>
       <use xlink:href="#DejaVuSans-49"/>
       <use x="63.623047" xlink:href="#DejaVuSans-50"/>
       <use x="127.246094" xlink:href="#DejaVuSans-48"/>
       <use x="190.869141" xlink:href="#DejaVuSans-48"/>
      </g>
     </g>
    </g>
    <g id="xtick_5">
     <g id="line2d_9">
      <g>
       <use style="stroke:#000000;" x="263.818614" xlink:href="#m9457b3171c" y="171.622375"/>
      </g>
     </g>
     <g id="line2d_10">
      <g>
       <use style="stroke:#000000;" x="263.818614" xlink:href="#m6d98445992" y="11.458375"/>
      </g>
     </g>
     <g id="text_5">
      <!-- 1400 -->
      <g transform="translate(252.620614 182.309)scale(0.088 -0.088)">
       <defs>
        <path d="M 37.796875 64.3125 
L 12.890625 25.390625 
L 37.796875 25.390625 
z
M 35.203125 72.90625 
L 47.609375 72.90625 
L 47.609375 25.390625 
L 58.015625 25.390625 
L 58.015625 17.1875 
L 47.609375 17.1875 
L 47.609375 0 
L 37.796875 0 
L 37.796875 17.1875 
L 4.890625 17.1875 
L 4.890625 26.703125 
z
" id="DejaVuSans-52"/>
       </defs>
       <use xlink:href="#DejaVuSans-49"/>
       <use x="63.623047" xlink:href="#DejaVuSans-52"/>
       <use x="127.246094" xlink:href="#DejaVuSans-48"/>
       <use x="190.869141" xlink:href="#DejaVuSans-48"/>
      </g>
     </g>
    </g>
    <g id="text_6">
     <!-- Core Frequency (MHz) -->
     <g transform="translate(79.44678 198.244125)scale(0.12 -0.12)">
      <defs>
       <path d="M 67 4 
Q 61.8125 1.3125 56.203125 -0.046875 
Q 50.59375 -1.421875 44.484375 -1.421875 
Q 26.265625 -1.421875 15.625 8.765625 
Q 4.984375 18.953125 4.984375 36.375 
Q 4.984375 53.859375 15.625 64.03125 
Q 26.265625 74.21875 44.484375 74.21875 
Q 50.59375 74.21875 56.203125 72.84375 
Q 61.8125 71.484375 67 68.796875 
L 67 53.71875 
Q 61.765625 57.28125 56.6875 58.9375 
Q 51.609375 60.59375 46 60.59375 
Q 35.9375 60.59375 30.171875 54.140625 
Q 24.421875 47.703125 24.421875 36.375 
Q 24.421875 25.09375 30.171875 18.640625 
Q 35.9375 12.203125 46 12.203125 
Q 51.609375 12.203125 56.6875 13.859375 
Q 61.765625 15.53125 67 19.09375 
z
" id="DejaVuSans-Bold-67"/>
       <path d="M 34.421875 43.5 
Q 28.609375 43.5 25.5625 39.328125 
Q 22.515625 35.15625 22.515625 27.296875 
Q 22.515625 19.4375 25.5625 15.25 
Q 28.609375 11.078125 34.421875 11.078125 
Q 40.140625 11.078125 43.15625 15.25 
Q 46.1875 19.4375 46.1875 27.296875 
Q 46.1875 35.15625 43.15625 39.328125 
Q 40.140625 43.5 34.421875 43.5 
z
M 34.421875 56 
Q 48.53125 56 56.46875 48.375 
Q 64.40625 40.765625 64.40625 27.296875 
Q 64.40625 13.8125 56.46875 6.1875 
Q 48.53125 -1.421875 34.421875 -1.421875 
Q 20.265625 -1.421875 12.28125 6.1875 
Q 4.296875 13.8125 4.296875 27.296875 
Q 4.296875 40.765625 12.28125 48.375 
Q 20.265625 56 34.421875 56 
z
" id="DejaVuSans-Bold-111"/>
       <path d="M 49.03125 39.796875 
Q 46.734375 40.875 44.453125 41.375 
Q 42.1875 41.890625 39.890625 41.890625 
Q 33.15625 41.890625 29.515625 37.5625 
Q 25.875 33.25 25.875 25.203125 
L 25.875 0 
L 8.40625 0 
L 8.40625 54.6875 
L 25.875 54.6875 
L 25.875 45.703125 
Q 29.25 51.078125 33.609375 53.53125 
Q 37.984375 56 44.09375 56 
Q 44.96875 56 45.984375 55.921875 
Q 47.015625 55.859375 48.96875 55.609375 
z
" id="DejaVuSans-Bold-114"/>
       <path d="M 62.984375 27.484375 
L 62.984375 22.515625 
L 22.125 22.515625 
Q 22.75 16.359375 26.5625 13.28125 
Q 30.375 10.203125 37.203125 10.203125 
Q 42.71875 10.203125 48.5 11.84375 
Q 54.296875 13.484375 60.40625 16.796875 
L 60.40625 3.328125 
Q 54.203125 0.984375 48 -0.21875 
Q 41.796875 -1.421875 35.59375 -1.421875 
Q 20.75 -1.421875 12.515625 6.125 
Q 4.296875 13.671875 4.296875 27.296875 
Q 4.296875 40.671875 12.375 48.328125 
Q 20.453125 56 34.625 56 
Q 47.515625 56 55.25 48.234375 
Q 62.984375 40.484375 62.984375 27.484375 
z
M 45.015625 33.296875 
Q 45.015625 38.28125 42.109375 41.328125 
Q 39.203125 44.390625 34.515625 44.390625 
Q 29.4375 44.390625 26.265625 41.53125 
Q 23.09375 38.671875 22.3125 33.296875 
z
" id="DejaVuSans-Bold-101"/>
       <path id="DejaVuSans-Bold-32"/>
       <path d="M 9.1875 72.90625 
L 59.90625 72.90625 
L 59.90625 58.6875 
L 27.984375 58.6875 
L 27.984375 45.125 
L 58.015625 45.125 
L 58.015625 30.90625 
L 27.984375 30.90625 
L 27.984375 0 
L 9.1875 0 
z
" id="DejaVuSans-Bold-70"/>
       <path d="M 34.078125 43.3125 
Q 28.515625 43.3125 25.5625 39.203125 
Q 22.609375 35.109375 22.609375 27.296875 
Q 22.609375 19.484375 25.5625 15.375 
Q 28.515625 11.28125 34.078125 11.28125 
Q 39.703125 11.28125 42.65625 15.375 
Q 45.609375 19.484375 45.609375 27.296875 
Q 45.609375 35.109375 42.65625 39.203125 
Q 39.703125 43.3125 34.078125 43.3125 
z
M 45.609375 7.90625 
Q 42 3.078125 37.640625 0.828125 
Q 33.296875 -1.421875 27.59375 -1.421875 
Q 17.484375 -1.421875 10.984375 6.609375 
Q 4.5 14.65625 4.5 27.296875 
Q 4.5 39.9375 10.984375 47.921875 
Q 17.484375 55.90625 27.59375 55.90625 
Q 33.296875 55.90625 37.640625 53.65625 
Q 42 51.421875 45.609375 46.578125 
L 45.609375 54.6875 
L 63.1875 54.6875 
L 63.1875 -20.796875 
L 45.609375 -20.796875 
z
" id="DejaVuSans-Bold-113"/>
       <path d="M 7.8125 21.296875 
L 7.8125 54.6875 
L 25.390625 54.6875 
L 25.390625 49.21875 
Q 25.390625 44.78125 25.34375 38.0625 
Q 25.296875 31.34375 25.296875 29.109375 
Q 25.296875 22.515625 25.640625 19.609375 
Q 25.984375 16.703125 26.8125 15.375 
Q 27.875 13.671875 29.609375 12.734375 
Q 31.34375 11.8125 33.59375 11.8125 
Q 39.0625 11.8125 42.1875 16.015625 
Q 45.3125 20.21875 45.3125 27.6875 
L 45.3125 54.6875 
L 62.796875 54.6875 
L 62.796875 0 
L 45.3125 0 
L 45.3125 7.90625 
Q 41.359375 3.125 36.9375 0.84375 
Q 32.515625 -1.421875 27.203125 -1.421875 
Q 17.71875 -1.421875 12.765625 4.390625 
Q 7.8125 10.203125 7.8125 21.296875 
z
" id="DejaVuSans-Bold-117"/>
       <path d="M 63.375 33.296875 
L 63.375 0 
L 45.796875 0 
L 45.796875 5.421875 
L 45.796875 25.484375 
Q 45.796875 32.5625 45.484375 35.25 
Q 45.171875 37.9375 44.390625 39.203125 
Q 43.359375 40.921875 41.59375 41.875 
Q 39.84375 42.828125 37.59375 42.828125 
Q 32.125 42.828125 29 38.59375 
Q 25.875 34.375 25.875 26.90625 
L 25.875 0 
L 8.40625 0 
L 8.40625 54.6875 
L 25.875 54.6875 
L 25.875 46.6875 
Q 29.828125 51.46875 34.265625 53.734375 
Q 38.71875 56 44.09375 56 
Q 53.5625 56 58.46875 50.1875 
Q 63.375 44.390625 63.375 33.296875 
z
" id="DejaVuSans-Bold-110"/>
       <path d="M 52.59375 52.984375 
L 52.59375 38.71875 
Q 49.03125 41.15625 45.4375 42.328125 
Q 41.84375 43.5 37.984375 43.5 
Q 30.671875 43.5 26.59375 39.234375 
Q 22.515625 34.96875 22.515625 27.296875 
Q 22.515625 19.625 26.59375 15.34375 
Q 30.671875 11.078125 37.984375 11.078125 
Q 42.09375 11.078125 45.78125 12.296875 
Q 49.46875 13.53125 52.59375 15.921875 
L 52.59375 1.609375 
Q 48.484375 0.09375 44.265625 -0.65625 
Q 40.046875 -1.421875 35.796875 -1.421875 
Q 21 -1.421875 12.640625 6.171875 
Q 4.296875 13.765625 4.296875 27.296875 
Q 4.296875 40.828125 12.640625 48.40625 
Q 21 56 35.796875 56 
Q 40.09375 56 44.265625 55.25 
Q 48.4375 54.5 52.59375 52.984375 
z
" id="DejaVuSans-Bold-99"/>
       <path d="M 1.21875 54.6875 
L 18.703125 54.6875 
L 33.40625 17.578125 
L 45.90625 54.6875 
L 63.375 54.6875 
L 40.375 -5.171875 
Q 36.921875 -14.3125 32.296875 -17.9375 
Q 27.6875 -21.578125 20.125 -21.578125 
L 10.015625 -21.578125 
L 10.015625 -10.109375 
L 15.484375 -10.109375 
Q 19.921875 -10.109375 21.9375 -8.6875 
Q 23.96875 -7.28125 25.09375 -3.609375 
L 25.59375 -2.09375 
z
" id="DejaVuSans-Bold-121"/>
       <path d="M 37.703125 -13.1875 
L 23.1875 -13.1875 
Q 15.71875 -1.125 12.15625 9.734375 
Q 8.59375 20.609375 8.59375 31.296875 
Q 8.59375 42 12.171875 52.953125 
Q 15.765625 63.921875 23.1875 75.875 
L 37.703125 75.875 
Q 31.453125 64.3125 28.328125 53.25 
Q 25.203125 42.1875 25.203125 31.390625 
Q 25.203125 20.609375 28.296875 9.515625 
Q 31.390625 -1.5625 37.703125 -13.1875 
z
" id="DejaVuSans-Bold-40"/>
       <path d="M 9.1875 72.90625 
L 33.109375 72.90625 
L 49.703125 33.890625 
L 66.40625 72.90625 
L 90.28125 72.90625 
L 90.28125 0 
L 72.515625 0 
L 72.515625 53.328125 
L 55.71875 14.015625 
L 43.796875 14.015625 
L 27 53.328125 
L 27 0 
L 9.1875 0 
z
" id="DejaVuSans-Bold-77"/>
       <path d="M 9.1875 72.90625 
L 27.984375 72.90625 
L 27.984375 45.125 
L 55.71875 45.125 
L 55.71875 72.90625 
L 74.515625 72.90625 
L 74.515625 0 
L 55.71875 0 
L 55.71875 30.90625 
L 27.984375 30.90625 
L 27.984375 0 
L 9.1875 0 
z
" id="DejaVuSans-Bold-72"/>
       <path d="M 5.71875 54.6875 
L 53.421875 54.6875 
L 53.421875 42.484375 
L 24.609375 12.5 
L 53.421875 12.5 
L 53.421875 0 
L 4.5 0 
L 4.5 12.203125 
L 33.296875 42.1875 
L 5.71875 42.1875 
z
" id="DejaVuSans-Bold-122"/>
       <path d="M 8.015625 -13.1875 
Q 14.265625 -1.5625 17.390625 9.515625 
Q 20.515625 20.609375 20.515625 31.390625 
Q 20.515625 42.1875 17.390625 53.25 
Q 14.265625 64.3125 8.015625 75.875 
L 22.515625 75.875 
Q 29.9375 63.921875 33.515625 52.953125 
Q 37.109375 42 37.109375 31.296875 
Q 37.109375 20.609375 33.546875 9.734375 
Q 29.984375 -1.125 22.515625 -13.1875 
z
" id="DejaVuSans-Bold-41"/>
      </defs>
      <use xlink:href="#DejaVuSans-Bold-67"/>
      <use x="73.388672" xlink:href="#DejaVuSans-Bold-111"/>
      <use x="142.089844" xlink:href="#DejaVuSans-Bold-114"/>
      <use x="191.40625" xlink:href="#DejaVuSans-Bold-101"/>
      <use x="259.228516" xlink:href="#DejaVuSans-Bold-32"/>
      <use x="294.042969" xlink:href="#DejaVuSans-Bold-70"/>
      <use x="355.978516" xlink:href="#DejaVuSans-Bold-114"/>
      <use x="405.294922" xlink:href="#DejaVuSans-Bold-101"/>
      <use x="473.117188" xlink:href="#DejaVuSans-Bold-113"/>
      <use x="544.699219" xlink:href="#DejaVuSans-Bold-117"/>
      <use x="615.890625" xlink:href="#DejaVuSans-Bold-101"/>
      <use x="683.712891" xlink:href="#DejaVuSans-Bold-110"/>
      <use x="754.904297" xlink:href="#DejaVuSans-Bold-99"/>
      <use x="814.181641" xlink:href="#DejaVuSans-Bold-121"/>
      <use x="879.367188" xlink:href="#DejaVuSans-Bold-32"/>
      <use x="914.181641" xlink:href="#DejaVuSans-Bold-40"/>
      <use x="959.884766" xlink:href="#DejaVuSans-Bold-77"/>
      <use x="1059.396484" xlink:href="#DejaVuSans-Bold-72"/>
      <use x="1143.087891" xlink:href="#DejaVuSans-Bold-122"/>
      <use x="1201.291016" xlink:href="#DejaVuSans-Bold-41"/>
     </g>
    </g>
   </g>
   <g id="matplotlib.axis_2">
    <g id="ytick_1">
     <g id="line2d_11">
      <defs>
       <path d="M 0 0 
L 4.8 0 
" id="md6d4fd1692" style="stroke:#000000;"/>
      </defs>
      <g>
       <use style="stroke:#000000;" x="39.872875" xlink:href="#md6d4fd1692" y="171.622375"/>
      </g>
     </g>
     <g id="line2d_12">
      <defs>
       <path d="M 0 0 
L -4.8 0 
" id="m883b1c38fd" style="stroke:#000000;"/>
      </defs>
      <g>
       <use style="stroke:#000000;" x="268.660685" xlink:href="#m883b1c38fd" y="171.622375"/>
      </g>
     </g>
     <g id="text_7">
      <!-- 1.5 -->
      <g transform="translate(21.878125 174.050625)scale(0.088 -0.088)">
       <defs>
        <path d="M 10.6875 12.40625 
L 21 12.40625 
L 21 0 
L 10.6875 0 
z
" id="DejaVuSans-46"/>
        <path d="M 10.796875 72.90625 
L 49.515625 72.90625 
L 49.515625 64.59375 
L 19.828125 64.59375 
L 19.828125 46.734375 
Q 21.96875 47.46875 24.109375 47.828125 
Q 26.265625 48.1875 28.421875 48.1875 
Q 40.625 48.1875 47.75 41.5 
Q 54.890625 34.8125 54.890625 23.390625 
Q 54.890625 11.625 47.5625 5.09375 
Q 40.234375 -1.421875 26.90625 -1.421875 
Q 22.3125 -1.421875 17.546875 -0.640625 
Q 12.796875 0.140625 7.71875 1.703125 
L 7.71875 11.625 
Q 12.109375 9.234375 16.796875 8.0625 
Q 21.484375 6.890625 26.703125 6.890625 
Q 35.15625 6.890625 40.078125 11.328125 
Q 45.015625 15.765625 45.015625 23.390625 
Q 45.015625 31 40.078125 35.4375 
Q 35.15625 39.890625 26.703125 39.890625 
Q 22.75 39.890625 18.8125 39.015625 
Q 14.890625 38.140625 10.796875 36.28125 
z
" id="DejaVuSans-53"/>
       </defs>
       <use xlink:href="#DejaVuSans-49"/>
       <use x="63.623047" xlink:href="#DejaVuSans-46"/>
       <use x="95.410156" xlink:href="#DejaVuSans-53"/>
      </g>
     </g>
    </g>
    <g id="ytick_2">
     <g id="line2d_13">
      <g>
       <use style="stroke:#000000;" x="39.872875" xlink:href="#md6d4fd1692" y="139.589575"/>
      </g>
     </g>
     <g id="line2d_14">
      <g>
       <use style="stroke:#000000;" x="268.660685" xlink:href="#m883b1c38fd" y="139.589575"/>
      </g>
     </g>
     <g id="text_8">
      <!-- 2.0 -->
      <g transform="translate(21.878125 142.017825)scale(0.088 -0.088)">
       <use xlink:href="#DejaVuSans-50"/>
       <use x="63.623047" xlink:href="#DejaVuSans-46"/>
       <use x="95.410156" xlink:href="#DejaVuSans-48"/>
      </g>
     </g>
    </g>
    <g id="ytick_3">
     <g id="line2d_15">
      <g>
       <use style="stroke:#000000;" x="39.872875" xlink:href="#md6d4fd1692" y="107.556775"/>
      </g>
     </g>
     <g id="line2d_16">
      <g>
       <use style="stroke:#000000;" x="268.660685" xlink:href="#m883b1c38fd" y="107.556775"/>
      </g>
     </g>
     <g id="text_9">
      <!-- 2.5 -->
      <g transform="translate(21.878125 109.985025)scale(0.088 -0.088)">
       <use xlink:href="#DejaVuSans-50"/>
       <use x="63.623047" xlink:href="#DejaVuSans-46"/>
       <use x="95.410156" xlink:href="#DejaVuSans-53"/>
      </g>
     </g>
    </g>
    <g id="ytick_4">
     <g id="line2d_17">
      <g>
       <use style="stroke:#000000;" x="39.872875" xlink:href="#md6d4fd1692" y="75.523975"/>
      </g>
     </g>
     <g id="line2d_18">
      <g>
       <use style="stroke:#000000;" x="268.660685" xlink:href="#m883b1c38fd" y="75.523975"/>
      </g>
     </g>
     <g id="text_10">
      <!-- 3.0 -->
      <g transform="translate(21.878125 77.952225)scale(0.088 -0.088)">
       <defs>
        <path d="M 40.578125 39.3125 
Q 47.65625 37.796875 51.625 33 
Q 55.609375 28.21875 55.609375 21.1875 
Q 55.609375 10.40625 48.1875 4.484375 
Q 40.765625 -1.421875 27.09375 -1.421875 
Q 22.515625 -1.421875 17.65625 -0.515625 
Q 12.796875 0.390625 7.625 2.203125 
L 7.625 11.71875 
Q 11.71875 9.328125 16.59375 8.109375 
Q 21.484375 6.890625 26.8125 6.890625 
Q 36.078125 6.890625 40.9375 10.546875 
Q 45.796875 14.203125 45.796875 21.1875 
Q 45.796875 27.640625 41.28125 31.265625 
Q 36.765625 34.90625 28.71875 34.90625 
L 20.21875 34.90625 
L 20.21875 43.015625 
L 29.109375 43.015625 
Q 36.375 43.015625 40.234375 45.921875 
Q 44.09375 48.828125 44.09375 54.296875 
Q 44.09375 59.90625 40.109375 62.90625 
Q 36.140625 65.921875 28.71875 65.921875 
Q 24.65625 65.921875 20.015625 65.03125 
Q 15.375 64.15625 9.8125 62.3125 
L 9.8125 71.09375 
Q 15.4375 72.65625 20.34375 73.4375 
Q 25.25 74.21875 29.59375 74.21875 
Q 40.828125 74.21875 47.359375 69.109375 
Q 53.90625 64.015625 53.90625 55.328125 
Q 53.90625 49.265625 50.4375 45.09375 
Q 46.96875 40.921875 40.578125 39.3125 
z
" id="DejaVuSans-51"/>
       </defs>
       <use xlink:href="#DejaVuSans-51"/>
       <use x="63.623047" xlink:href="#DejaVuSans-46"/>
       <use x="95.410156" xlink:href="#DejaVuSans-48"/>
      </g>
     </g>
    </g>
    <g id="ytick_5">
     <g id="line2d_19">
      <g>
       <use style="stroke:#000000;" x="39.872875" xlink:href="#md6d4fd1692" y="43.491175"/>
      </g>
     </g>
     <g id="line2d_20">
      <g>
       <use style="stroke:#000000;" x="268.660685" xlink:href="#m883b1c38fd" y="43.491175"/>
      </g>
     </g>
     <g id="text_11">
      <!-- 3.5 -->
      <g transform="translate(21.878125 45.919425)scale(0.088 -0.088)">
       <use xlink:href="#DejaVuSans-51"/>
       <use x="63.623047" xlink:href="#DejaVuSans-46"/>
       <use x="95.410156" xlink:href="#DejaVuSans-53"/>
      </g>
     </g>
    </g>
    <g id="ytick_6">
     <g id="line2d_21">
      <g>
       <use style="stroke:#000000;" x="39.872875" xlink:href="#md6d4fd1692" y="11.458375"/>
      </g>
     </g>
     <g id="line2d_22">
      <g>
       <use style="stroke:#000000;" x="268.660685" xlink:href="#m883b1c38fd" y="11.458375"/>
      </g>
     </g>
     <g id="text_12">
      <!-- 4.0 -->
      <g transform="translate(21.878125 13.886625)scale(0.088 -0.088)">
       <use xlink:href="#DejaVuSans-52"/>
       <use x="63.623047" xlink:href="#DejaVuSans-46"/>
       <use x="95.410156" xlink:href="#DejaVuSans-48"/>
      </g>
     </g>
    </g>
    <g id="text_13">
     <!-- Run Time (S) -->
     <g transform="translate(14.798438 127.888031)rotate(-90)scale(0.1 -0.1)">
      <defs>
       <path d="M 35.890625 40.578125 
Q 41.796875 40.578125 44.359375 42.765625 
Q 46.921875 44.96875 46.921875 50 
Q 46.921875 54.984375 44.359375 57.125 
Q 41.796875 59.28125 35.890625 59.28125 
L 27.984375 59.28125 
L 27.984375 40.578125 
z
M 27.984375 27.59375 
L 27.984375 0 
L 9.1875 0 
L 9.1875 72.90625 
L 37.890625 72.90625 
Q 52.296875 72.90625 59 68.0625 
Q 65.71875 63.234375 65.71875 52.78125 
Q 65.71875 45.5625 62.21875 40.921875 
Q 58.734375 36.28125 51.703125 34.078125 
Q 55.5625 33.203125 58.609375 30.09375 
Q 61.671875 27 64.796875 20.703125 
L 75 0 
L 54.984375 0 
L 46.09375 18.109375 
Q 43.40625 23.578125 40.640625 25.578125 
Q 37.890625 27.59375 33.296875 27.59375 
z
" id="DejaVuSans-Bold-82"/>
       <path d="M 0.484375 72.90625 
L 67.671875 72.90625 
L 67.671875 58.6875 
L 43.5 58.6875 
L 43.5 0 
L 24.703125 0 
L 24.703125 58.6875 
L 0.484375 58.6875 
z
" id="DejaVuSans-Bold-84"/>
       <path d="M 8.40625 54.6875 
L 25.875 54.6875 
L 25.875 0 
L 8.40625 0 
z
M 8.40625 75.984375 
L 25.875 75.984375 
L 25.875 61.71875 
L 8.40625 61.71875 
z
" id="DejaVuSans-Bold-105"/>
       <path d="M 59.078125 45.609375 
Q 62.40625 50.6875 66.96875 53.34375 
Q 71.53125 56 77 56 
Q 86.421875 56 91.359375 50.1875 
Q 96.296875 44.390625 96.296875 33.296875 
L 96.296875 0 
L 78.71875 0 
L 78.71875 28.515625 
Q 78.765625 29.15625 78.78125 29.828125 
Q 78.8125 30.515625 78.8125 31.78125 
Q 78.8125 37.59375 77.09375 40.203125 
Q 75.390625 42.828125 71.578125 42.828125 
Q 66.609375 42.828125 63.890625 38.71875 
Q 61.1875 34.625 61.078125 26.859375 
L 61.078125 0 
L 43.5 0 
L 43.5 28.515625 
Q 43.5 37.59375 41.9375 40.203125 
Q 40.375 42.828125 36.375 42.828125 
Q 31.34375 42.828125 28.609375 38.703125 
Q 25.875 34.578125 25.875 26.90625 
L 25.875 0 
L 8.296875 0 
L 8.296875 54.6875 
L 25.875 54.6875 
L 25.875 46.6875 
Q 29.109375 51.3125 33.28125 53.65625 
Q 37.453125 56 42.484375 56 
Q 48.140625 56 52.484375 53.265625 
Q 56.84375 50.53125 59.078125 45.609375 
z
" id="DejaVuSans-Bold-109"/>
       <path d="M 59.90625 70.609375 
L 59.90625 55.171875 
Q 53.90625 57.859375 48.1875 59.21875 
Q 42.484375 60.59375 37.40625 60.59375 
Q 30.671875 60.59375 27.4375 58.734375 
Q 24.21875 56.890625 24.21875 52.984375 
Q 24.21875 50.046875 26.390625 48.40625 
Q 28.5625 46.78125 34.28125 45.609375 
L 42.28125 44 
Q 54.4375 41.546875 59.5625 36.5625 
Q 64.703125 31.59375 64.703125 22.40625 
Q 64.703125 10.359375 57.546875 4.46875 
Q 50.390625 -1.421875 35.6875 -1.421875 
Q 28.765625 -1.421875 21.78125 -0.09375 
Q 14.796875 1.21875 7.8125 3.8125 
L 7.8125 19.671875 
Q 14.796875 15.96875 21.3125 14.078125 
Q 27.828125 12.203125 33.890625 12.203125 
Q 40.046875 12.203125 43.3125 14.25 
Q 46.578125 16.3125 46.578125 20.125 
Q 46.578125 23.53125 44.359375 25.390625 
Q 42.140625 27.25 35.5 28.71875 
L 28.21875 30.328125 
Q 17.28125 32.671875 12.21875 37.796875 
Q 7.171875 42.921875 7.171875 51.609375 
Q 7.171875 62.5 14.203125 68.359375 
Q 21.234375 74.21875 34.421875 74.21875 
Q 40.4375 74.21875 46.78125 73.3125 
Q 53.125 72.40625 59.90625 70.609375 
z
" id="DejaVuSans-Bold-83"/>
      </defs>
      <use xlink:href="#DejaVuSans-Bold-82"/>
      <use x="77.001953" xlink:href="#DejaVuSans-Bold-117"/>
      <use x="148.193359" xlink:href="#DejaVuSans-Bold-110"/>
      <use x="219.384766" xlink:href="#DejaVuSans-Bold-32"/>
      <use x="254.199219" xlink:href="#DejaVuSans-Bold-84"/>
      <use x="322.412109" xlink:href="#DejaVuSans-Bold-105"/>
      <use x="356.689453" xlink:href="#DejaVuSans-Bold-109"/>
      <use x="460.888672" xlink:href="#DejaVuSans-Bold-101"/>
      <use x="528.710938" xlink:href="#DejaVuSans-Bold-32"/>
      <use x="563.525391" xlink:href="#DejaVuSans-Bold-40"/>
      <use x="609.228516" xlink:href="#DejaVuSans-Bold-83"/>
      <use x="681.25" xlink:href="#DejaVuSans-Bold-41"/>
     </g>
    </g>
   </g>
   <g id="patch_7">
    <path d="M 130.419646 56.417992 
Q 147.964037 100.27897 165.176246 143.309492 
" style="fill:none;stroke:#ff0000;stroke-linecap:round;stroke-width:0.8;"/>
    <path d="M 165.50307 139.387607 
L 165.176246 143.309492 
L 162.234832 140.694902 
L 165.50307 139.387607 
z
" style="fill:#ff0000;stroke:#ff0000;stroke-linecap:round;stroke-width:0.8;"/>
   </g>
   <g id="patch_8">
    <path d="M 89.566653 54.161635 
L 162.935153 54.161635 
L 162.935153 37.830635 
L 89.566653 37.830635 
z
" style="fill:#ffffff;stroke:#000000;stroke-linejoin:miter;stroke-width:0.8;"/>
   </g>
   <g id="text_14">
    <!-- 1.9S, 997MHz -->
    <g transform="translate(93.086653 48.645135)scale(0.096 -0.096)">
     <defs>
      <path d="M 10.984375 1.515625 
L 10.984375 10.5 
Q 14.703125 8.734375 18.5 7.8125 
Q 22.3125 6.890625 25.984375 6.890625 
Q 35.75 6.890625 40.890625 13.453125 
Q 46.046875 20.015625 46.78125 33.40625 
Q 43.953125 29.203125 39.59375 26.953125 
Q 35.25 24.703125 29.984375 24.703125 
Q 19.046875 24.703125 12.671875 31.3125 
Q 6.296875 37.9375 6.296875 49.421875 
Q 6.296875 60.640625 12.9375 67.421875 
Q 19.578125 74.21875 30.609375 74.21875 
Q 43.265625 74.21875 49.921875 64.515625 
Q 56.59375 54.828125 56.59375 36.375 
Q 56.59375 19.140625 48.40625 8.859375 
Q 40.234375 -1.421875 26.421875 -1.421875 
Q 22.703125 -1.421875 18.890625 -0.6875 
Q 15.09375 0.046875 10.984375 1.515625 
z
M 30.609375 32.421875 
Q 37.25 32.421875 41.125 36.953125 
Q 45.015625 41.5 45.015625 49.421875 
Q 45.015625 57.28125 41.125 61.84375 
Q 37.25 66.40625 30.609375 66.40625 
Q 23.96875 66.40625 20.09375 61.84375 
Q 16.21875 57.28125 16.21875 49.421875 
Q 16.21875 41.5 20.09375 36.953125 
Q 23.96875 32.421875 30.609375 32.421875 
z
" id="DejaVuSans-57"/>
      <path d="M 53.515625 70.515625 
L 53.515625 60.890625 
Q 47.90625 63.578125 42.921875 64.890625 
Q 37.9375 66.21875 33.296875 66.21875 
Q 25.25 66.21875 20.875 63.09375 
Q 16.5 59.96875 16.5 54.203125 
Q 16.5 49.359375 19.40625 46.890625 
Q 22.3125 44.4375 30.421875 42.921875 
L 36.375 41.703125 
Q 47.40625 39.59375 52.65625 34.296875 
Q 57.90625 29 57.90625 20.125 
Q 57.90625 9.515625 50.796875 4.046875 
Q 43.703125 -1.421875 29.984375 -1.421875 
Q 24.8125 -1.421875 18.96875 -0.25 
Q 13.140625 0.921875 6.890625 3.21875 
L 6.890625 13.375 
Q 12.890625 10.015625 18.65625 8.296875 
Q 24.421875 6.59375 29.984375 6.59375 
Q 38.421875 6.59375 43.015625 9.90625 
Q 47.609375 13.234375 47.609375 19.390625 
Q 47.609375 24.75 44.3125 27.78125 
Q 41.015625 30.8125 33.5 32.328125 
L 27.484375 33.5 
Q 16.453125 35.6875 11.515625 40.375 
Q 6.59375 45.0625 6.59375 53.421875 
Q 6.59375 63.09375 13.40625 68.65625 
Q 20.21875 74.21875 32.171875 74.21875 
Q 37.3125 74.21875 42.625 73.28125 
Q 47.953125 72.359375 53.515625 70.515625 
z
" id="DejaVuSans-83"/>
      <path d="M 11.71875 12.40625 
L 22.015625 12.40625 
L 22.015625 4 
L 14.015625 -11.625 
L 7.71875 -11.625 
L 11.71875 4 
z
" id="DejaVuSans-44"/>
      <path id="DejaVuSans-32"/>
      <path d="M 8.203125 72.90625 
L 55.078125 72.90625 
L 55.078125 68.703125 
L 28.609375 0 
L 18.3125 0 
L 43.21875 64.59375 
L 8.203125 64.59375 
z
" id="DejaVuSans-55"/>
      <path d="M 9.8125 72.90625 
L 24.515625 72.90625 
L 43.109375 23.296875 
L 61.8125 72.90625 
L 76.515625 72.90625 
L 76.515625 0 
L 66.890625 0 
L 66.890625 64.015625 
L 48.09375 14.015625 
L 38.1875 14.015625 
L 19.390625 64.015625 
L 19.390625 0 
L 9.8125 0 
z
" id="DejaVuSans-77"/>
      <path d="M 9.8125 72.90625 
L 19.671875 72.90625 
L 19.671875 43.015625 
L 55.515625 43.015625 
L 55.515625 72.90625 
L 65.375 72.90625 
L 65.375 0 
L 55.515625 0 
L 55.515625 34.71875 
L 19.671875 34.71875 
L 19.671875 0 
L 9.8125 0 
z
" id="DejaVuSans-72"/>
      <path d="M 5.515625 54.6875 
L 48.1875 54.6875 
L 48.1875 46.484375 
L 14.40625 7.171875 
L 48.1875 7.171875 
L 48.1875 0 
L 4.296875 0 
L 4.296875 8.203125 
L 38.09375 47.515625 
L 5.515625 47.515625 
z
" id="DejaVuSans-122"/>
     </defs>
     <use xlink:href="#DejaVuSans-49"/>
     <use x="63.623047" xlink:href="#DejaVuSans-46"/>
     <use x="95.410156" xlink:href="#DejaVuSans-57"/>
     <use x="159.033203" xlink:href="#DejaVuSans-83"/>
     <use x="222.509766" xlink:href="#DejaVuSans-44"/>
     <use x="254.296875" xlink:href="#DejaVuSans-32"/>
     <use x="286.083984" xlink:href="#DejaVuSans-57"/>
     <use x="349.707031" xlink:href="#DejaVuSans-57"/>
     <use x="413.330078" xlink:href="#DejaVuSans-55"/>
     <use x="476.953125" xlink:href="#DejaVuSans-77"/>
     <use x="563.232422" xlink:href="#DejaVuSans-72"/>
     <use x="638.427734" xlink:href="#DejaVuSans-122"/>
    </g>
   </g>
  </g>
 </g>
 <defs>
  <clipPath id="pfb0b00ef77">
   <rect height="160.164" width="228.78781" x="39.872875" y="11.458375"/>
  </clipPath>
 </defs>
</svg>
