<?xml version="1.0" encoding="utf-8" standalone="no"?>
<!DOCTYPE svg PUBLIC "-//W3C//DTD SVG 1.1//EN"
  "http://www.w3.org/Graphics/SVG/1.1/DTD/svg11.dtd">
<!-- Created with matplotlib (https://matplotlib.org/) -->
<svg height="208.0335pt" version="1.1" viewBox="0 0 282.062722 208.0335" width="282.062722pt" xmlns="http://www.w3.org/2000/svg" xmlns:xlink="http://www.w3.org/1999/xlink">
 <metadata>
  <rdf:RDF xmlns:cc="http://creativecommons.org/ns#" xmlns:dc="http://purl.org/dc/elements/1.1/" xmlns:rdf="http://www.w3.org/1999/02/22-rdf-syntax-ns#">
   <cc:Work>
    <dc:type rdf:resource="http://purl.org/dc/dcmitype/StillImage"/>
    <dc:date>2021-10-22T16:12:49.424158</dc:date>
    <dc:format>image/svg+xml</dc:format>
    <dc:creator>
     <cc:Agent>
      <dc:title>Matplotlib v3.3.4, https://matplotlib.org/</dc:title>
     </cc:Agent>
    </dc:creator>
   </cc:Work>
  </rdf:RDF>
 </metadata>
 <defs>
  <style type="text/css">*{stroke-linecap:butt;stroke-linejoin:round;}</style>
 </defs>
 <g id="figure_1">
  <g id="patch_1">
   <path d="M 0 208.0335 
L 282.062722 208.0335 
L 282.062722 0 
L 0 0 
z
" style="fill:none;"/>
  </g>
  <g id="axes_1">
   <g id="patch_2">
    <path d="M 37.076125 171.622375 
L 268.563935 171.622375 
L 268.563935 11.458375 
L 37.076125 11.458375 
z
" style="fill:none;"/>
   </g>
   <g id="PathCollection_1">
    <defs>
     <path d="M -0 3.162278 
L 1.897367 0 
L 0 -3.162278 
L -1.897367 -0 
z
" id="ma02c2dfda5" style="stroke:#ffffff;stroke-width:0.357771;"/>
    </defs>
    <g clip-path="url(#pdc67b8ddcc)">
     <use style="fill:#0000ff;stroke:#ffffff;stroke-width:0.357771;" x="45.649748" xlink:href="#ma02c2dfda5" y="30.144175"/>
     <use style="fill:#0000ff;stroke:#ffffff;stroke-width:0.357771;" x="47.364472" xlink:href="#ma02c2dfda5" y="31.389895"/>
     <use style="fill:#0000ff;stroke:#ffffff;stroke-width:0.357771;" x="49.324157" xlink:href="#ma02c2dfda5" y="32.813575"/>
     <use style="fill:#0000ff;stroke:#ffffff;stroke-width:0.357771;" x="51.038882" xlink:href="#ma02c2dfda5" y="34.059295"/>
     <use style="fill:#0000ff;stroke:#ffffff;stroke-width:0.357771;" x="52.998567" xlink:href="#ma02c2dfda5" y="35.305015"/>
     <use style="fill:#0000ff;stroke:#ffffff;stroke-width:0.357771;" x="54.713291" xlink:href="#ma02c2dfda5" y="36.372775"/>
     <use style="fill:#0000ff;stroke:#ffffff;stroke-width:0.357771;" x="56.672977" xlink:href="#ma02c2dfda5" y="37.440535"/>
     <use style="fill:#0000ff;stroke:#ffffff;stroke-width:0.357771;" x="58.387701" xlink:href="#ma02c2dfda5" y="38.508295"/>
     <use style="fill:#0000ff;stroke:#ffffff;stroke-width:0.357771;" x="60.347386" xlink:href="#ma02c2dfda5" y="39.576055"/>
     <use style="fill:#0000ff;stroke:#ffffff;stroke-width:0.357771;" x="62.062111" xlink:href="#ma02c2dfda5" y="41.711575"/>
     <use style="fill:#0000ff;stroke:#ffffff;stroke-width:0.357771;" x="64.021796" xlink:href="#ma02c2dfda5" y="47.228335"/>
     <use style="fill:#0000ff;stroke:#ffffff;stroke-width:0.357771;" x="65.73652" xlink:href="#ma02c2dfda5" y="48.474055"/>
     <use style="fill:#0000ff;stroke:#ffffff;stroke-width:0.357771;" x="67.696206" xlink:href="#ma02c2dfda5" y="49.541815"/>
     <use style="fill:#0000ff;stroke:#ffffff;stroke-width:0.357771;" x="69.41093" xlink:href="#ma02c2dfda5" y="52.211215"/>
     <use style="fill:#0000ff;stroke:#ffffff;stroke-width:0.357771;" x="71.370615" xlink:href="#ma02c2dfda5" y="60.041455"/>
     <use style="fill:#0000ff;stroke:#ffffff;stroke-width:0.357771;" x="73.08534" xlink:href="#ma02c2dfda5" y="60.931255"/>
     <use style="fill:#0000ff;stroke:#ffffff;stroke-width:0.357771;" x="75.045025" xlink:href="#ma02c2dfda5" y="61.999015"/>
     <use style="fill:#0000ff;stroke:#ffffff;stroke-width:0.357771;" x="76.759749" xlink:href="#ma02c2dfda5" y="64.490455"/>
     <use style="fill:#0000ff;stroke:#ffffff;stroke-width:0.357771;" x="78.719435" xlink:href="#ma02c2dfda5" y="72.142735"/>
     <use style="fill:#0000ff;stroke:#ffffff;stroke-width:0.357771;" x="80.434159" xlink:href="#ma02c2dfda5" y="73.210495"/>
     <use style="fill:#0000ff;stroke:#ffffff;stroke-width:0.357771;" x="82.393844" xlink:href="#ma02c2dfda5" y="74.100295"/>
     <use style="fill:#0000ff;stroke:#ffffff;stroke-width:0.357771;" x="84.108569" xlink:href="#ma02c2dfda5" y="76.413775"/>
     <use style="fill:#0000ff;stroke:#ffffff;stroke-width:0.357771;" x="86.068254" xlink:href="#ma02c2dfda5" y="82.998295"/>
     <use style="fill:#0000ff;stroke:#ffffff;stroke-width:0.357771;" x="87.782979" xlink:href="#ma02c2dfda5" y="84.599935"/>
     <use style="fill:#0000ff;stroke:#ffffff;stroke-width:0.357771;" x="89.742664" xlink:href="#ma02c2dfda5" y="85.667695"/>
     <use style="fill:#0000ff;stroke:#ffffff;stroke-width:0.357771;" x="91.457388" xlink:href="#ma02c2dfda5" y="86.557495"/>
     <use style="fill:#0000ff;stroke:#ffffff;stroke-width:0.357771;" x="93.417073" xlink:href="#ma02c2dfda5" y="92.074255"/>
     <use style="fill:#0000ff;stroke:#ffffff;stroke-width:0.357771;" x="95.131798" xlink:href="#ma02c2dfda5" y="95.455495"/>
     <use style="fill:#0000ff;stroke:#ffffff;stroke-width:0.357771;" x="97.091483" xlink:href="#ma02c2dfda5" y="96.345295"/>
     <use style="fill:#0000ff;stroke:#ffffff;stroke-width:0.357771;" x="98.806208" xlink:href="#ma02c2dfda5" y="97.235095"/>
     <use style="fill:#0000ff;stroke:#ffffff;stroke-width:0.357771;" x="100.765893" xlink:href="#ma02c2dfda5" y="100.616335"/>
     <use style="fill:#0000ff;stroke:#ffffff;stroke-width:0.357771;" x="102.480617" xlink:href="#ma02c2dfda5" y="103.641655"/>
     <use style="fill:#0000ff;stroke:#ffffff;stroke-width:0.357771;" x="104.440302" xlink:href="#ma02c2dfda5" y="104.887375"/>
     <use style="fill:#0000ff;stroke:#ffffff;stroke-width:0.357771;" x="106.155027" xlink:href="#ma02c2dfda5" y="105.955135"/>
     <use style="fill:#0000ff;stroke:#ffffff;stroke-width:0.357771;" x="108.114712" xlink:href="#ma02c2dfda5" y="107.378815"/>
     <use style="fill:#0000ff;stroke:#ffffff;stroke-width:0.357771;" x="109.829437" xlink:href="#ma02c2dfda5" y="111.827815"/>
     <use style="fill:#0000ff;stroke:#ffffff;stroke-width:0.357771;" x="111.789122" xlink:href="#ma02c2dfda5" y="112.717615"/>
     <use style="fill:#0000ff;stroke:#ffffff;stroke-width:0.357771;" x="113.503846" xlink:href="#ma02c2dfda5" y="114.141295"/>
     <use style="fill:#0000ff;stroke:#ffffff;stroke-width:0.357771;" x="115.463531" xlink:href="#ma02c2dfda5" y="115.742935"/>
     <use style="fill:#0000ff;stroke:#ffffff;stroke-width:0.357771;" x="117.178256" xlink:href="#ma02c2dfda5" y="118.056415"/>
     <use style="fill:#0000ff;stroke:#ffffff;stroke-width:0.357771;" x="119.137941" xlink:href="#ma02c2dfda5" y="118.946215"/>
     <use style="fill:#0000ff;stroke:#ffffff;stroke-width:0.357771;" x="120.852666" xlink:href="#ma02c2dfda5" y="120.013975"/>
     <use style="fill:#0000ff;stroke:#ffffff;stroke-width:0.357771;" x="122.812351" xlink:href="#ma02c2dfda5" y="121.081735"/>
     <use style="fill:#0000ff;stroke:#ffffff;stroke-width:0.357771;" x="124.527075" xlink:href="#ma02c2dfda5" y="122.149495"/>
     <use style="fill:#0000ff;stroke:#ffffff;stroke-width:0.357771;" x="126.48676" xlink:href="#ma02c2dfda5" y="123.039295"/>
     <use style="fill:#0000ff;stroke:#ffffff;stroke-width:0.357771;" x="128.201485" xlink:href="#ma02c2dfda5" y="123.929095"/>
     <use style="fill:#0000ff;stroke:#ffffff;stroke-width:0.357771;" x="130.16117" xlink:href="#ma02c2dfda5" y="124.818895"/>
     <use style="fill:#0000ff;stroke:#ffffff;stroke-width:0.357771;" x="131.875895" xlink:href="#ma02c2dfda5" y="125.708695"/>
     <use style="fill:#0000ff;stroke:#ffffff;stroke-width:0.357771;" x="133.83558" xlink:href="#ma02c2dfda5" y="126.598495"/>
     <use style="fill:#0000ff;stroke:#ffffff;stroke-width:0.357771;" x="135.550304" xlink:href="#ma02c2dfda5" y="127.488295"/>
     <use style="fill:#0000ff;stroke:#ffffff;stroke-width:0.357771;" x="137.509989" xlink:href="#ma02c2dfda5" y="128.200135"/>
     <use style="fill:#0000ff;stroke:#ffffff;stroke-width:0.357771;" x="139.224714" xlink:href="#ma02c2dfda5" y="129.089935"/>
     <use style="fill:#0000ff;stroke:#ffffff;stroke-width:0.357771;" x="141.184399" xlink:href="#ma02c2dfda5" y="129.801775"/>
     <use style="fill:#0000ff;stroke:#ffffff;stroke-width:0.357771;" x="142.899124" xlink:href="#ma02c2dfda5" y="130.691575"/>
     <use style="fill:#0000ff;stroke:#ffffff;stroke-width:0.357771;" x="144.858809" xlink:href="#ma02c2dfda5" y="131.403415"/>
     <use style="fill:#0000ff;stroke:#ffffff;stroke-width:0.357771;" x="146.573533" xlink:href="#ma02c2dfda5" y="132.115255"/>
     <use style="fill:#0000ff;stroke:#ffffff;stroke-width:0.357771;" x="148.533218" xlink:href="#ma02c2dfda5" y="133.005055"/>
     <use style="fill:#0000ff;stroke:#ffffff;stroke-width:0.357771;" x="150.247943" xlink:href="#ma02c2dfda5" y="133.716895"/>
     <use style="fill:#0000ff;stroke:#ffffff;stroke-width:0.357771;" x="152.207628" xlink:href="#ma02c2dfda5" y="134.428735"/>
     <use style="fill:#0000ff;stroke:#ffffff;stroke-width:0.357771;" x="153.922353" xlink:href="#ma02c2dfda5" y="135.140575"/>
     <use style="fill:#0000ff;stroke:#ffffff;stroke-width:0.357771;" x="155.882038" xlink:href="#ma02c2dfda5" y="135.852415"/>
     <use style="fill:#0000ff;stroke:#ffffff;stroke-width:0.357771;" x="157.596762" xlink:href="#ma02c2dfda5" y="136.386295"/>
     <use style="fill:#0000ff;stroke:#ffffff;stroke-width:0.357771;" x="159.556447" xlink:href="#ma02c2dfda5" y="137.098135"/>
     <use style="fill:#0000ff;stroke:#ffffff;stroke-width:0.357771;" x="161.271172" xlink:href="#ma02c2dfda5" y="137.809975"/>
     <use style="fill:#0000ff;stroke:#ffffff;stroke-width:0.357771;" x="163.230857" xlink:href="#ma02c2dfda5" y="138.521815"/>
     <use style="fill:#0000ff;stroke:#ffffff;stroke-width:0.357771;" x="164.945582" xlink:href="#ma02c2dfda5" y="139.055695"/>
     <use style="fill:#0000ff;stroke:#ffffff;stroke-width:0.357771;" x="166.905267" xlink:href="#ma02c2dfda5" y="139.767535"/>
     <use style="fill:#0000ff;stroke:#ffffff;stroke-width:0.357771;" x="168.619991" xlink:href="#ma02c2dfda5" y="140.301415"/>
     <use style="fill:#0000ff;stroke:#ffffff;stroke-width:0.357771;" x="170.579677" xlink:href="#ma02c2dfda5" y="141.013255"/>
     <use style="fill:#0000ff;stroke:#ffffff;stroke-width:0.357771;" x="172.294401" xlink:href="#ma02c2dfda5" y="141.547135"/>
     <use style="fill:#0000ff;stroke:#ffffff;stroke-width:0.357771;" x="174.254086" xlink:href="#ma02c2dfda5" y="142.081015"/>
     <use style="fill:#0000ff;stroke:#ffffff;stroke-width:0.357771;" x="175.968811" xlink:href="#ma02c2dfda5" y="142.792855"/>
     <use style="fill:#0000ff;stroke:#ffffff;stroke-width:0.357771;" x="177.928496" xlink:href="#ma02c2dfda5" y="143.326735"/>
     <use style="fill:#0000ff;stroke:#ffffff;stroke-width:0.357771;" x="179.64322" xlink:href="#ma02c2dfda5" y="143.860615"/>
     <use style="fill:#0000ff;stroke:#ffffff;stroke-width:0.357771;" x="181.602906" xlink:href="#ma02c2dfda5" y="144.572455"/>
     <use style="fill:#0000ff;stroke:#ffffff;stroke-width:0.357771;" x="183.31763" xlink:href="#ma02c2dfda5" y="144.928375"/>
     <use style="fill:#0000ff;stroke:#ffffff;stroke-width:0.357771;" x="185.277315" xlink:href="#ma02c2dfda5" y="145.996135"/>
     <use style="fill:#0000ff;stroke:#ffffff;stroke-width:0.357771;" x="186.99204" xlink:href="#ma02c2dfda5" y="145.996135"/>
     <use style="fill:#0000ff;stroke:#ffffff;stroke-width:0.357771;" x="188.951725" xlink:href="#ma02c2dfda5" y="146.885935"/>
     <use style="fill:#0000ff;stroke:#ffffff;stroke-width:0.357771;" x="190.666449" xlink:href="#ma02c2dfda5" y="147.063895"/>
     <use style="fill:#0000ff;stroke:#ffffff;stroke-width:0.357771;" x="192.626135" xlink:href="#ma02c2dfda5" y="147.597775"/>
     <use style="fill:#0000ff;stroke:#ffffff;stroke-width:0.357771;" x="194.340859" xlink:href="#ma02c2dfda5" y="147.953695"/>
     <use style="fill:#0000ff;stroke:#ffffff;stroke-width:0.357771;" x="196.300544" xlink:href="#ma02c2dfda5" y="148.843495"/>
     <use style="fill:#0000ff;stroke:#ffffff;stroke-width:0.357771;" x="198.015269" xlink:href="#ma02c2dfda5" y="148.843495"/>
     <use style="fill:#0000ff;stroke:#ffffff;stroke-width:0.357771;" x="199.974954" xlink:href="#ma02c2dfda5" y="149.555335"/>
     <use style="fill:#0000ff;stroke:#ffffff;stroke-width:0.357771;" x="201.689678" xlink:href="#ma02c2dfda5" y="149.733295"/>
     <use style="fill:#0000ff;stroke:#ffffff;stroke-width:0.357771;" x="203.649364" xlink:href="#ma02c2dfda5" y="150.445135"/>
     <use style="fill:#0000ff;stroke:#ffffff;stroke-width:0.357771;" x="205.364088" xlink:href="#ma02c2dfda5" y="150.623095"/>
     <use style="fill:#0000ff;stroke:#ffffff;stroke-width:0.357771;" x="207.323773" xlink:href="#ma02c2dfda5" y="151.334935"/>
     <use style="fill:#0000ff;stroke:#ffffff;stroke-width:0.357771;" x="209.038498" xlink:href="#ma02c2dfda5" y="151.690855"/>
     <use style="fill:#0000ff;stroke:#ffffff;stroke-width:0.357771;" x="210.998183" xlink:href="#ma02c2dfda5" y="152.224735"/>
     <use style="fill:#0000ff;stroke:#ffffff;stroke-width:0.357771;" x="212.712907" xlink:href="#ma02c2dfda5" y="152.224735"/>
     <use style="fill:#0000ff;stroke:#ffffff;stroke-width:0.357771;" x="214.672593" xlink:href="#ma02c2dfda5" y="152.936575"/>
     <use style="fill:#0000ff;stroke:#ffffff;stroke-width:0.357771;" x="216.387317" xlink:href="#ma02c2dfda5" y="152.936575"/>
     <use style="fill:#0000ff;stroke:#ffffff;stroke-width:0.357771;" x="218.347002" xlink:href="#ma02c2dfda5" y="153.826375"/>
     <use style="fill:#0000ff;stroke:#ffffff;stroke-width:0.357771;" x="220.061727" xlink:href="#ma02c2dfda5" y="153.826375"/>
     <use style="fill:#0000ff;stroke:#ffffff;stroke-width:0.357771;" x="222.021412" xlink:href="#ma02c2dfda5" y="154.360255"/>
     <use style="fill:#0000ff;stroke:#ffffff;stroke-width:0.357771;" x="223.736136" xlink:href="#ma02c2dfda5" y="154.716175"/>
     <use style="fill:#0000ff;stroke:#ffffff;stroke-width:0.357771;" x="225.695822" xlink:href="#ma02c2dfda5" y="155.250055"/>
     <use style="fill:#0000ff;stroke:#ffffff;stroke-width:0.357771;" x="227.410546" xlink:href="#ma02c2dfda5" y="155.250055"/>
     <use style="fill:#0000ff;stroke:#ffffff;stroke-width:0.357771;" x="229.370231" xlink:href="#ma02c2dfda5" y="155.961895"/>
     <use style="fill:#0000ff;stroke:#ffffff;stroke-width:0.357771;" x="231.084956" xlink:href="#ma02c2dfda5" y="155.961895"/>
     <use style="fill:#0000ff;stroke:#ffffff;stroke-width:0.357771;" x="233.044641" xlink:href="#ma02c2dfda5" y="156.139855"/>
     <use style="fill:#0000ff;stroke:#ffffff;stroke-width:0.357771;" x="234.759366" xlink:href="#ma02c2dfda5" y="156.139855"/>
     <use style="fill:#0000ff;stroke:#ffffff;stroke-width:0.357771;" x="236.719051" xlink:href="#ma02c2dfda5" y="156.139855"/>
     <use style="fill:#0000ff;stroke:#ffffff;stroke-width:0.357771;" x="238.433775" xlink:href="#ma02c2dfda5" y="156.317815"/>
     <use style="fill:#0000ff;stroke:#ffffff;stroke-width:0.357771;" x="240.39346" xlink:href="#ma02c2dfda5" y="156.317815"/>
     <use style="fill:#0000ff;stroke:#ffffff;stroke-width:0.357771;" x="242.108185" xlink:href="#ma02c2dfda5" y="156.317815"/>
     <use style="fill:#0000ff;stroke:#ffffff;stroke-width:0.357771;" x="244.06787" xlink:href="#ma02c2dfda5" y="156.317815"/>
     <use style="fill:#0000ff;stroke:#ffffff;stroke-width:0.357771;" x="245.782595" xlink:href="#ma02c2dfda5" y="156.317815"/>
     <use style="fill:#0000ff;stroke:#ffffff;stroke-width:0.357771;" x="247.74228" xlink:href="#ma02c2dfda5" y="156.317815"/>
     <use style="fill:#0000ff;stroke:#ffffff;stroke-width:0.357771;" x="249.457004" xlink:href="#ma02c2dfda5" y="156.317815"/>
     <use style="fill:#0000ff;stroke:#ffffff;stroke-width:0.357771;" x="251.416689" xlink:href="#ma02c2dfda5" y="156.139855"/>
     <use style="fill:#0000ff;stroke:#ffffff;stroke-width:0.357771;" x="253.131414" xlink:href="#ma02c2dfda5" y="156.139855"/>
     <use style="fill:#0000ff;stroke:#ffffff;stroke-width:0.357771;" x="255.091099" xlink:href="#ma02c2dfda5" y="156.139855"/>
     <use style="fill:#0000ff;stroke:#ffffff;stroke-width:0.357771;" x="256.805824" xlink:href="#ma02c2dfda5" y="156.139855"/>
     <use style="fill:#0000ff;stroke:#ffffff;stroke-width:0.357771;" x="258.765509" xlink:href="#ma02c2dfda5" y="156.317815"/>
    </g>
   </g>
   <g id="patch_3">
    <path d="M 37.076125 171.622375 
L 37.076125 11.458375 
" style="fill:none;stroke:#000000;stroke-linecap:square;stroke-linejoin:miter;"/>
   </g>
   <g id="patch_4">
    <path d="M 268.563935 171.622375 
L 268.563935 11.458375 
" style="fill:none;stroke:#000000;stroke-linecap:square;stroke-linejoin:miter;"/>
   </g>
   <g id="patch_5">
    <path d="M 37.076125 171.622375 
L 268.563935 171.622375 
" style="fill:none;stroke:#000000;stroke-linecap:square;stroke-linejoin:miter;"/>
   </g>
   <g id="patch_6">
    <path d="M 37.076125 11.458375 
L 268.563935 11.458375 
" style="fill:none;stroke:#000000;stroke-linecap:square;stroke-linejoin:miter;"/>
   </g>
   <g id="matplotlib.axis_1">
    <g id="xtick_1">
     <g id="line2d_1">
      <defs>
       <path d="M 0 0 
L 0 -4.8 
" id="m73a90a44ac" style="stroke:#000000;"/>
      </defs>
      <g>
       <use style="stroke:#000000;" x="67.696206" xlink:href="#m73a90a44ac" y="171.622375"/>
      </g>
     </g>
     <g id="line2d_2">
      <defs>
       <path d="M 0 0 
L 0 4.8 
" id="m61068dc028" style="stroke:#000000;"/>
      </defs>
      <g>
       <use style="stroke:#000000;" x="67.696206" xlink:href="#m61068dc028" y="11.458375"/>
      </g>
     </g>
     <g id="text_1">
      <!-- 600 -->
      <g transform="translate(59.297706 182.309)scale(0.088 -0.088)">
       <defs>
        <path d="M 33.015625 40.375 
Q 26.375 40.375 22.484375 35.828125 
Q 18.609375 31.296875 18.609375 23.390625 
Q 18.609375 15.53125 22.484375 10.953125 
Q 26.375 6.390625 33.015625 6.390625 
Q 39.65625 6.390625 43.53125 10.953125 
Q 47.40625 15.53125 47.40625 23.390625 
Q 47.40625 31.296875 43.53125 35.828125 
Q 39.65625 40.375 33.015625 40.375 
z
M 52.59375 71.296875 
L 52.59375 62.3125 
Q 48.875 64.0625 45.09375 64.984375 
Q 41.3125 65.921875 37.59375 65.921875 
Q 27.828125 65.921875 22.671875 59.328125 
Q 17.53125 52.734375 16.796875 39.40625 
Q 19.671875 43.65625 24.015625 45.921875 
Q 28.375 48.1875 33.59375 48.1875 
Q 44.578125 48.1875 50.953125 41.515625 
Q 57.328125 34.859375 57.328125 23.390625 
Q 57.328125 12.15625 50.6875 5.359375 
Q 44.046875 -1.421875 33.015625 -1.421875 
Q 20.359375 -1.421875 13.671875 8.265625 
Q 6.984375 17.96875 6.984375 36.375 
Q 6.984375 53.65625 15.1875 63.9375 
Q 23.390625 74.21875 37.203125 74.21875 
Q 40.921875 74.21875 44.703125 73.484375 
Q 48.484375 72.75 52.59375 71.296875 
z
" id="DejaVuSans-54"/>
        <path d="M 31.78125 66.40625 
Q 24.171875 66.40625 20.328125 58.90625 
Q 16.5 51.421875 16.5 36.375 
Q 16.5 21.390625 20.328125 13.890625 
Q 24.171875 6.390625 31.78125 6.390625 
Q 39.453125 6.390625 43.28125 13.890625 
Q 47.125 21.390625 47.125 36.375 
Q 47.125 51.421875 43.28125 58.90625 
Q 39.453125 66.40625 31.78125 66.40625 
z
M 31.78125 74.21875 
Q 44.046875 74.21875 50.515625 64.515625 
Q 56.984375 54.828125 56.984375 36.375 
Q 56.984375 17.96875 50.515625 8.265625 
Q 44.046875 -1.421875 31.78125 -1.421875 
Q 19.53125 -1.421875 13.0625 8.265625 
Q 6.59375 17.96875 6.59375 36.375 
Q 6.59375 54.828125 13.0625 64.515625 
Q 19.53125 74.21875 31.78125 74.21875 
z
" id="DejaVuSans-48"/>
       </defs>
       <use xlink:href="#DejaVuSans-54"/>
       <use x="63.623047" xlink:href="#DejaVuSans-48"/>
       <use x="127.246094" xlink:href="#DejaVuSans-48"/>
      </g>
     </g>
    </g>
    <g id="xtick_2">
     <g id="line2d_3">
      <g>
       <use style="stroke:#000000;" x="116.688335" xlink:href="#m73a90a44ac" y="171.622375"/>
      </g>
     </g>
     <g id="line2d_4">
      <g>
       <use style="stroke:#000000;" x="116.688335" xlink:href="#m61068dc028" y="11.458375"/>
      </g>
     </g>
     <g id="text_2">
      <!-- 800 -->
      <g transform="translate(108.289835 182.309)scale(0.088 -0.088)">
       <defs>
        <path d="M 31.78125 34.625 
Q 24.75 34.625 20.71875 30.859375 
Q 16.703125 27.09375 16.703125 20.515625 
Q 16.703125 13.921875 20.71875 10.15625 
Q 24.75 6.390625 31.78125 6.390625 
Q 38.8125 6.390625 42.859375 10.171875 
Q 46.921875 13.96875 46.921875 20.515625 
Q 46.921875 27.09375 42.890625 30.859375 
Q 38.875 34.625 31.78125 34.625 
z
M 21.921875 38.8125 
Q 15.578125 40.375 12.03125 44.71875 
Q 8.5 49.078125 8.5 55.328125 
Q 8.5 64.0625 14.71875 69.140625 
Q 20.953125 74.21875 31.78125 74.21875 
Q 42.671875 74.21875 48.875 69.140625 
Q 55.078125 64.0625 55.078125 55.328125 
Q 55.078125 49.078125 51.53125 44.71875 
Q 48 40.375 41.703125 38.8125 
Q 48.828125 37.15625 52.796875 32.3125 
Q 56.78125 27.484375 56.78125 20.515625 
Q 56.78125 9.90625 50.3125 4.234375 
Q 43.84375 -1.421875 31.78125 -1.421875 
Q 19.734375 -1.421875 13.25 4.234375 
Q 6.78125 9.90625 6.78125 20.515625 
Q 6.78125 27.484375 10.78125 32.3125 
Q 14.796875 37.15625 21.921875 38.8125 
z
M 18.3125 54.390625 
Q 18.3125 48.734375 21.84375 45.5625 
Q 25.390625 42.390625 31.78125 42.390625 
Q 38.140625 42.390625 41.71875 45.5625 
Q 45.3125 48.734375 45.3125 54.390625 
Q 45.3125 60.0625 41.71875 63.234375 
Q 38.140625 66.40625 31.78125 66.40625 
Q 25.390625 66.40625 21.84375 63.234375 
Q 18.3125 60.0625 18.3125 54.390625 
z
" id="DejaVuSans-56"/>
       </defs>
       <use xlink:href="#DejaVuSans-56"/>
       <use x="63.623047" xlink:href="#DejaVuSans-48"/>
       <use x="127.246094" xlink:href="#DejaVuSans-48"/>
      </g>
     </g>
    </g>
    <g id="xtick_3">
     <g id="line2d_5">
      <g>
       <use style="stroke:#000000;" x="165.680464" xlink:href="#m73a90a44ac" y="171.622375"/>
      </g>
     </g>
     <g id="line2d_6">
      <g>
       <use style="stroke:#000000;" x="165.680464" xlink:href="#m61068dc028" y="11.458375"/>
      </g>
     </g>
     <g id="text_3">
      <!-- 1000 -->
      <g transform="translate(154.482464 182.309)scale(0.088 -0.088)">
       <defs>
        <path d="M 12.40625 8.296875 
L 28.515625 8.296875 
L 28.515625 63.921875 
L 10.984375 60.40625 
L 10.984375 69.390625 
L 28.421875 72.90625 
L 38.28125 72.90625 
L 38.28125 8.296875 
L 54.390625 8.296875 
L 54.390625 0 
L 12.40625 0 
z
" id="DejaVuSans-49"/>
       </defs>
       <use xlink:href="#DejaVuSans-49"/>
       <use x="63.623047" xlink:href="#DejaVuSans-48"/>
       <use x="127.246094" xlink:href="#DejaVuSans-48"/>
       <use x="190.869141" xlink:href="#DejaVuSans-48"/>
      </g>
     </g>
    </g>
    <g id="xtick_4">
     <g id="line2d_7">
      <g>
       <use style="stroke:#000000;" x="214.672593" xlink:href="#m73a90a44ac" y="171.622375"/>
      </g>
     </g>
     <g id="line2d_8">
      <g>
       <use style="stroke:#000000;" x="214.672593" xlink:href="#m61068dc028" y="11.458375"/>
      </g>
     </g>
     <g id="text_4">
      <!-- 1200 -->
      <g transform="translate(203.474593 182.309)scale(0.088 -0.088)">
       <defs>
        <path d="M 19.1875 8.296875 
L 53.609375 8.296875 
L 53.609375 0 
L 7.328125 0 
L 7.328125 8.296875 
Q 12.9375 14.109375 22.625 23.890625 
Q 32.328125 33.6875 34.8125 36.53125 
Q 39.546875 41.84375 41.421875 45.53125 
Q 43.3125 49.21875 43.3125 52.78125 
Q 43.3125 58.59375 39.234375 62.25 
Q 35.15625 65.921875 28.609375 65.921875 
Q 23.96875 65.921875 18.8125 64.3125 
Q 13.671875 62.703125 7.8125 59.421875 
L 7.8125 69.390625 
Q 13.765625 71.78125 18.9375 73 
Q 24.125 74.21875 28.421875 74.21875 
Q 39.75 74.21875 46.484375 68.546875 
Q 53.21875 62.890625 53.21875 53.421875 
Q 53.21875 48.921875 51.53125 44.890625 
Q 49.859375 40.875 45.40625 35.40625 
Q 44.1875 33.984375 37.640625 27.21875 
Q 31.109375 20.453125 19.1875 8.296875 
z
" id="DejaVuSans-50"/>
       </defs>
       <use xlink:href="#DejaVuSans-49"/>
       <use x="63.623047" xlink:href="#DejaVuSans-50"/>
       <use x="127.246094" xlink:href="#DejaVuSans-48"/>
       <use x="190.869141" xlink:href="#DejaVuSans-48"/>
      </g>
     </g>
    </g>
    <g id="xtick_5">
     <g id="line2d_9">
      <g>
       <use style="stroke:#000000;" x="263.664722" xlink:href="#m73a90a44ac" y="171.622375"/>
      </g>
     </g>
     <g id="line2d_10">
      <g>
       <use style="stroke:#000000;" x="263.664722" xlink:href="#m61068dc028" y="11.458375"/>
      </g>
     </g>
     <g id="text_5">
      <!-- 1400 -->
      <g transform="translate(252.466722 182.309)scale(0.088 -0.088)">
       <defs>
        <path d="M 37.796875 64.3125 
L 12.890625 25.390625 
L 37.796875 25.390625 
z
M 35.203125 72.90625 
L 47.609375 72.90625 
L 47.609375 25.390625 
L 58.015625 25.390625 
L 58.015625 17.1875 
L 47.609375 17.1875 
L 47.609375 0 
L 37.796875 0 
L 37.796875 17.1875 
L 4.890625 17.1875 
L 4.890625 26.703125 
z
" id="DejaVuSans-52"/>
       </defs>
       <use xlink:href="#DejaVuSans-49"/>
       <use x="63.623047" xlink:href="#DejaVuSans-52"/>
       <use x="127.246094" xlink:href="#DejaVuSans-48"/>
       <use x="190.869141" xlink:href="#DejaVuSans-48"/>
      </g>
     </g>
    </g>
    <g id="text_6">
     <!-- Core Frequency (MHz) -->
     <g transform="translate(78.00003 198.244125)scale(0.12 -0.12)">
      <defs>
       <path d="M 67 4 
Q 61.8125 1.3125 56.203125 -0.046875 
Q 50.59375 -1.421875 44.484375 -1.421875 
Q 26.265625 -1.421875 15.625 8.765625 
Q 4.984375 18.953125 4.984375 36.375 
Q 4.984375 53.859375 15.625 64.03125 
Q 26.265625 74.21875 44.484375 74.21875 
Q 50.59375 74.21875 56.203125 72.84375 
Q 61.8125 71.484375 67 68.796875 
L 67 53.71875 
Q 61.765625 57.28125 56.6875 58.9375 
Q 51.609375 60.59375 46 60.59375 
Q 35.9375 60.59375 30.171875 54.140625 
Q 24.421875 47.703125 24.421875 36.375 
Q 24.421875 25.09375 30.171875 18.640625 
Q 35.9375 12.203125 46 12.203125 
Q 51.609375 12.203125 56.6875 13.859375 
Q 61.765625 15.53125 67 19.09375 
z
" id="DejaVuSans-Bold-67"/>
       <path d="M 34.421875 43.5 
Q 28.609375 43.5 25.5625 39.328125 
Q 22.515625 35.15625 22.515625 27.296875 
Q 22.515625 19.4375 25.5625 15.25 
Q 28.609375 11.078125 34.421875 11.078125 
Q 40.140625 11.078125 43.15625 15.25 
Q 46.1875 19.4375 46.1875 27.296875 
Q 46.1875 35.15625 43.15625 39.328125 
Q 40.140625 43.5 34.421875 43.5 
z
M 34.421875 56 
Q 48.53125 56 56.46875 48.375 
Q 64.40625 40.765625 64.40625 27.296875 
Q 64.40625 13.8125 56.46875 6.1875 
Q 48.53125 -1.421875 34.421875 -1.421875 
Q 20.265625 -1.421875 12.28125 6.1875 
Q 4.296875 13.8125 4.296875 27.296875 
Q 4.296875 40.765625 12.28125 48.375 
Q 20.265625 56 34.421875 56 
z
" id="DejaVuSans-Bold-111"/>
       <path d="M 49.03125 39.796875 
Q 46.734375 40.875 44.453125 41.375 
Q 42.1875 41.890625 39.890625 41.890625 
Q 33.15625 41.890625 29.515625 37.5625 
Q 25.875 33.25 25.875 25.203125 
L 25.875 0 
L 8.40625 0 
L 8.40625 54.6875 
L 25.875 54.6875 
L 25.875 45.703125 
Q 29.25 51.078125 33.609375 53.53125 
Q 37.984375 56 44.09375 56 
Q 44.96875 56 45.984375 55.921875 
Q 47.015625 55.859375 48.96875 55.609375 
z
" id="DejaVuSans-Bold-114"/>
       <path d="M 62.984375 27.484375 
L 62.984375 22.515625 
L 22.125 22.515625 
Q 22.75 16.359375 26.5625 13.28125 
Q 30.375 10.203125 37.203125 10.203125 
Q 42.71875 10.203125 48.5 11.84375 
Q 54.296875 13.484375 60.40625 16.796875 
L 60.40625 3.328125 
Q 54.203125 0.984375 48 -0.21875 
Q 41.796875 -1.421875 35.59375 -1.421875 
Q 20.75 -1.421875 12.515625 6.125 
Q 4.296875 13.671875 4.296875 27.296875 
Q 4.296875 40.671875 12.375 48.328125 
Q 20.453125 56 34.625 56 
Q 47.515625 56 55.25 48.234375 
Q 62.984375 40.484375 62.984375 27.484375 
z
M 45.015625 33.296875 
Q 45.015625 38.28125 42.109375 41.328125 
Q 39.203125 44.390625 34.515625 44.390625 
Q 29.4375 44.390625 26.265625 41.53125 
Q 23.09375 38.671875 22.3125 33.296875 
z
" id="DejaVuSans-Bold-101"/>
       <path id="DejaVuSans-Bold-32"/>
       <path d="M 9.1875 72.90625 
L 59.90625 72.90625 
L 59.90625 58.6875 
L 27.984375 58.6875 
L 27.984375 45.125 
L 58.015625 45.125 
L 58.015625 30.90625 
L 27.984375 30.90625 
L 27.984375 0 
L 9.1875 0 
z
" id="DejaVuSans-Bold-70"/>
       <path d="M 34.078125 43.3125 
Q 28.515625 43.3125 25.5625 39.203125 
Q 22.609375 35.109375 22.609375 27.296875 
Q 22.609375 19.484375 25.5625 15.375 
Q 28.515625 11.28125 34.078125 11.28125 
Q 39.703125 11.28125 42.65625 15.375 
Q 45.609375 19.484375 45.609375 27.296875 
Q 45.609375 35.109375 42.65625 39.203125 
Q 39.703125 43.3125 34.078125 43.3125 
z
M 45.609375 7.90625 
Q 42 3.078125 37.640625 0.828125 
Q 33.296875 -1.421875 27.59375 -1.421875 
Q 17.484375 -1.421875 10.984375 6.609375 
Q 4.5 14.65625 4.5 27.296875 
Q 4.5 39.9375 10.984375 47.921875 
Q 17.484375 55.90625 27.59375 55.90625 
Q 33.296875 55.90625 37.640625 53.65625 
Q 42 51.421875 45.609375 46.578125 
L 45.609375 54.6875 
L 63.1875 54.6875 
L 63.1875 -20.796875 
L 45.609375 -20.796875 
z
" id="DejaVuSans-Bold-113"/>
       <path d="M 7.8125 21.296875 
L 7.8125 54.6875 
L 25.390625 54.6875 
L 25.390625 49.21875 
Q 25.390625 44.78125 25.34375 38.0625 
Q 25.296875 31.34375 25.296875 29.109375 
Q 25.296875 22.515625 25.640625 19.609375 
Q 25.984375 16.703125 26.8125 15.375 
Q 27.875 13.671875 29.609375 12.734375 
Q 31.34375 11.8125 33.59375 11.8125 
Q 39.0625 11.8125 42.1875 16.015625 
Q 45.3125 20.21875 45.3125 27.6875 
L 45.3125 54.6875 
L 62.796875 54.6875 
L 62.796875 0 
L 45.3125 0 
L 45.3125 7.90625 
Q 41.359375 3.125 36.9375 0.84375 
Q 32.515625 -1.421875 27.203125 -1.421875 
Q 17.71875 -1.421875 12.765625 4.390625 
Q 7.8125 10.203125 7.8125 21.296875 
z
" id="DejaVuSans-Bold-117"/>
       <path d="M 63.375 33.296875 
L 63.375 0 
L 45.796875 0 
L 45.796875 5.421875 
L 45.796875 25.484375 
Q 45.796875 32.5625 45.484375 35.25 
Q 45.171875 37.9375 44.390625 39.203125 
Q 43.359375 40.921875 41.59375 41.875 
Q 39.84375 42.828125 37.59375 42.828125 
Q 32.125 42.828125 29 38.59375 
Q 25.875 34.375 25.875 26.90625 
L 25.875 0 
L 8.40625 0 
L 8.40625 54.6875 
L 25.875 54.6875 
L 25.875 46.6875 
Q 29.828125 51.46875 34.265625 53.734375 
Q 38.71875 56 44.09375 56 
Q 53.5625 56 58.46875 50.1875 
Q 63.375 44.390625 63.375 33.296875 
z
" id="DejaVuSans-Bold-110"/>
       <path d="M 52.59375 52.984375 
L 52.59375 38.71875 
Q 49.03125 41.15625 45.4375 42.328125 
Q 41.84375 43.5 37.984375 43.5 
Q 30.671875 43.5 26.59375 39.234375 
Q 22.515625 34.96875 22.515625 27.296875 
Q 22.515625 19.625 26.59375 15.34375 
Q 30.671875 11.078125 37.984375 11.078125 
Q 42.09375 11.078125 45.78125 12.296875 
Q 49.46875 13.53125 52.59375 15.921875 
L 52.59375 1.609375 
Q 48.484375 0.09375 44.265625 -0.65625 
Q 40.046875 -1.421875 35.796875 -1.421875 
Q 21 -1.421875 12.640625 6.171875 
Q 4.296875 13.765625 4.296875 27.296875 
Q 4.296875 40.828125 12.640625 48.40625 
Q 21 56 35.796875 56 
Q 40.09375 56 44.265625 55.25 
Q 48.4375 54.5 52.59375 52.984375 
z
" id="DejaVuSans-Bold-99"/>
       <path d="M 1.21875 54.6875 
L 18.703125 54.6875 
L 33.40625 17.578125 
L 45.90625 54.6875 
L 63.375 54.6875 
L 40.375 -5.171875 
Q 36.921875 -14.3125 32.296875 -17.9375 
Q 27.6875 -21.578125 20.125 -21.578125 
L 10.015625 -21.578125 
L 10.015625 -10.109375 
L 15.484375 -10.109375 
Q 19.921875 -10.109375 21.9375 -8.6875 
Q 23.96875 -7.28125 25.09375 -3.609375 
L 25.59375 -2.09375 
z
" id="DejaVuSans-Bold-121"/>
       <path d="M 37.703125 -13.1875 
L 23.1875 -13.1875 
Q 15.71875 -1.125 12.15625 9.734375 
Q 8.59375 20.609375 8.59375 31.296875 
Q 8.59375 42 12.171875 52.953125 
Q 15.765625 63.921875 23.1875 75.875 
L 37.703125 75.875 
Q 31.453125 64.3125 28.328125 53.25 
Q 25.203125 42.1875 25.203125 31.390625 
Q 25.203125 20.609375 28.296875 9.515625 
Q 31.390625 -1.5625 37.703125 -13.1875 
z
" id="DejaVuSans-Bold-40"/>
       <path d="M 9.1875 72.90625 
L 33.109375 72.90625 
L 49.703125 33.890625 
L 66.40625 72.90625 
L 90.28125 72.90625 
L 90.28125 0 
L 72.515625 0 
L 72.515625 53.328125 
L 55.71875 14.015625 
L 43.796875 14.015625 
L 27 53.328125 
L 27 0 
L 9.1875 0 
z
" id="DejaVuSans-Bold-77"/>
       <path d="M 9.1875 72.90625 
L 27.984375 72.90625 
L 27.984375 45.125 
L 55.71875 45.125 
L 55.71875 72.90625 
L 74.515625 72.90625 
L 74.515625 0 
L 55.71875 0 
L 55.71875 30.90625 
L 27.984375 30.90625 
L 27.984375 0 
L 9.1875 0 
z
" id="DejaVuSans-Bold-72"/>
       <path d="M 5.71875 54.6875 
L 53.421875 54.6875 
L 53.421875 42.484375 
L 24.609375 12.5 
L 53.421875 12.5 
L 53.421875 0 
L 4.5 0 
L 4.5 12.203125 
L 33.296875 42.1875 
L 5.71875 42.1875 
z
" id="DejaVuSans-Bold-122"/>
       <path d="M 8.015625 -13.1875 
Q 14.265625 -1.5625 17.390625 9.515625 
Q 20.515625 20.609375 20.515625 31.390625 
Q 20.515625 42.1875 17.390625 53.25 
Q 14.265625 64.3125 8.015625 75.875 
L 22.515625 75.875 
Q 29.9375 63.921875 33.515625 52.953125 
Q 37.109375 42 37.109375 31.296875 
Q 37.109375 20.609375 33.546875 9.734375 
Q 29.984375 -1.125 22.515625 -13.1875 
z
" id="DejaVuSans-Bold-41"/>
      </defs>
      <use xlink:href="#DejaVuSans-Bold-67"/>
      <use x="73.388672" xlink:href="#DejaVuSans-Bold-111"/>
      <use x="142.089844" xlink:href="#DejaVuSans-Bold-114"/>
      <use x="191.40625" xlink:href="#DejaVuSans-Bold-101"/>
      <use x="259.228516" xlink:href="#DejaVuSans-Bold-32"/>
      <use x="294.042969" xlink:href="#DejaVuSans-Bold-70"/>
      <use x="355.978516" xlink:href="#DejaVuSans-Bold-114"/>
      <use x="405.294922" xlink:href="#DejaVuSans-Bold-101"/>
      <use x="473.117188" xlink:href="#DejaVuSans-Bold-113"/>
      <use x="544.699219" xlink:href="#DejaVuSans-Bold-117"/>
      <use x="615.890625" xlink:href="#DejaVuSans-Bold-101"/>
      <use x="683.712891" xlink:href="#DejaVuSans-Bold-110"/>
      <use x="754.904297" xlink:href="#DejaVuSans-Bold-99"/>
      <use x="814.181641" xlink:href="#DejaVuSans-Bold-121"/>
      <use x="879.367188" xlink:href="#DejaVuSans-Bold-32"/>
      <use x="914.181641" xlink:href="#DejaVuSans-Bold-40"/>
      <use x="959.884766" xlink:href="#DejaVuSans-Bold-77"/>
      <use x="1059.396484" xlink:href="#DejaVuSans-Bold-72"/>
      <use x="1143.087891" xlink:href="#DejaVuSans-Bold-122"/>
      <use x="1201.291016" xlink:href="#DejaVuSans-Bold-41"/>
     </g>
    </g>
   </g>
   <g id="matplotlib.axis_2">
    <g id="ytick_1">
     <g id="line2d_11">
      <defs>
       <path d="M 0 0 
L 4.8 0 
" id="m02f9f3a524" style="stroke:#000000;"/>
      </defs>
      <g>
       <use style="stroke:#000000;" x="37.076125" xlink:href="#m02f9f3a524" y="171.622375"/>
      </g>
     </g>
     <g id="line2d_12">
      <defs>
       <path d="M 0 0 
L -4.8 0 
" id="mf625e563b4" style="stroke:#000000;"/>
      </defs>
      <g>
       <use style="stroke:#000000;" x="268.563935" xlink:href="#mf625e563b4" y="171.622375"/>
      </g>
     </g>
     <g id="text_7">
      <!-- 3 -->
      <g transform="translate(27.477125 174.050625)scale(0.088 -0.088)">
       <defs>
        <path d="M 40.578125 39.3125 
Q 47.65625 37.796875 51.625 33 
Q 55.609375 28.21875 55.609375 21.1875 
Q 55.609375 10.40625 48.1875 4.484375 
Q 40.765625 -1.421875 27.09375 -1.421875 
Q 22.515625 -1.421875 17.65625 -0.515625 
Q 12.796875 0.390625 7.625 2.203125 
L 7.625 11.71875 
Q 11.71875 9.328125 16.59375 8.109375 
Q 21.484375 6.890625 26.8125 6.890625 
Q 36.078125 6.890625 40.9375 10.546875 
Q 45.796875 14.203125 45.796875 21.1875 
Q 45.796875 27.640625 41.28125 31.265625 
Q 36.765625 34.90625 28.71875 34.90625 
L 20.21875 34.90625 
L 20.21875 43.015625 
L 29.109375 43.015625 
Q 36.375 43.015625 40.234375 45.921875 
Q 44.09375 48.828125 44.09375 54.296875 
Q 44.09375 59.90625 40.109375 62.90625 
Q 36.140625 65.921875 28.71875 65.921875 
Q 24.65625 65.921875 20.015625 65.03125 
Q 15.375 64.15625 9.8125 62.3125 
L 9.8125 71.09375 
Q 15.4375 72.65625 20.34375 73.4375 
Q 25.25 74.21875 29.59375 74.21875 
Q 40.828125 74.21875 47.359375 69.109375 
Q 53.90625 64.015625 53.90625 55.328125 
Q 53.90625 49.265625 50.4375 45.09375 
Q 46.96875 40.921875 40.578125 39.3125 
z
" id="DejaVuSans-51"/>
       </defs>
       <use xlink:href="#DejaVuSans-51"/>
      </g>
     </g>
    </g>
    <g id="ytick_2">
     <g id="line2d_13">
      <g>
       <use style="stroke:#000000;" x="37.076125" xlink:href="#m02f9f3a524" y="153.826375"/>
      </g>
     </g>
     <g id="line2d_14">
      <g>
       <use style="stroke:#000000;" x="268.563935" xlink:href="#mf625e563b4" y="153.826375"/>
      </g>
     </g>
     <g id="text_8">
      <!-- 4 -->
      <g transform="translate(27.477125 156.254625)scale(0.088 -0.088)">
       <use xlink:href="#DejaVuSans-52"/>
      </g>
     </g>
    </g>
    <g id="ytick_3">
     <g id="line2d_15">
      <g>
       <use style="stroke:#000000;" x="37.076125" xlink:href="#m02f9f3a524" y="136.030375"/>
      </g>
     </g>
     <g id="line2d_16">
      <g>
       <use style="stroke:#000000;" x="268.563935" xlink:href="#mf625e563b4" y="136.030375"/>
      </g>
     </g>
     <g id="text_9">
      <!-- 5 -->
      <g transform="translate(27.477125 138.458625)scale(0.088 -0.088)">
       <defs>
        <path d="M 10.796875 72.90625 
L 49.515625 72.90625 
L 49.515625 64.59375 
L 19.828125 64.59375 
L 19.828125 46.734375 
Q 21.96875 47.46875 24.109375 47.828125 
Q 26.265625 48.1875 28.421875 48.1875 
Q 40.625 48.1875 47.75 41.5 
Q 54.890625 34.8125 54.890625 23.390625 
Q 54.890625 11.625 47.5625 5.09375 
Q 40.234375 -1.421875 26.90625 -1.421875 
Q 22.3125 -1.421875 17.546875 -0.640625 
Q 12.796875 0.140625 7.71875 1.703125 
L 7.71875 11.625 
Q 12.109375 9.234375 16.796875 8.0625 
Q 21.484375 6.890625 26.703125 6.890625 
Q 35.15625 6.890625 40.078125 11.328125 
Q 45.015625 15.765625 45.015625 23.390625 
Q 45.015625 31 40.078125 35.4375 
Q 35.15625 39.890625 26.703125 39.890625 
Q 22.75 39.890625 18.8125 39.015625 
Q 14.890625 38.140625 10.796875 36.28125 
z
" id="DejaVuSans-53"/>
       </defs>
       <use xlink:href="#DejaVuSans-53"/>
      </g>
     </g>
    </g>
    <g id="ytick_4">
     <g id="line2d_17">
      <g>
       <use style="stroke:#000000;" x="37.076125" xlink:href="#m02f9f3a524" y="118.234375"/>
      </g>
     </g>
     <g id="line2d_18">
      <g>
       <use style="stroke:#000000;" x="268.563935" xlink:href="#mf625e563b4" y="118.234375"/>
      </g>
     </g>
     <g id="text_10">
      <!-- 6 -->
      <g transform="translate(27.477125 120.662625)scale(0.088 -0.088)">
       <use xlink:href="#DejaVuSans-54"/>
      </g>
     </g>
    </g>
    <g id="ytick_5">
     <g id="line2d_19">
      <g>
       <use style="stroke:#000000;" x="37.076125" xlink:href="#m02f9f3a524" y="100.438375"/>
      </g>
     </g>
     <g id="line2d_20">
      <g>
       <use style="stroke:#000000;" x="268.563935" xlink:href="#mf625e563b4" y="100.438375"/>
      </g>
     </g>
     <g id="text_11">
      <!-- 7 -->
      <g transform="translate(27.477125 102.866625)scale(0.088 -0.088)">
       <defs>
        <path d="M 8.203125 72.90625 
L 55.078125 72.90625 
L 55.078125 68.703125 
L 28.609375 0 
L 18.3125 0 
L 43.21875 64.59375 
L 8.203125 64.59375 
z
" id="DejaVuSans-55"/>
       </defs>
       <use xlink:href="#DejaVuSans-55"/>
      </g>
     </g>
    </g>
    <g id="ytick_6">
     <g id="line2d_21">
      <g>
       <use style="stroke:#000000;" x="37.076125" xlink:href="#m02f9f3a524" y="82.642375"/>
      </g>
     </g>
     <g id="line2d_22">
      <g>
       <use style="stroke:#000000;" x="268.563935" xlink:href="#mf625e563b4" y="82.642375"/>
      </g>
     </g>
     <g id="text_12">
      <!-- 8 -->
      <g transform="translate(27.477125 85.070625)scale(0.088 -0.088)">
       <use xlink:href="#DejaVuSans-56"/>
      </g>
     </g>
    </g>
    <g id="ytick_7">
     <g id="line2d_23">
      <g>
       <use style="stroke:#000000;" x="37.076125" xlink:href="#m02f9f3a524" y="64.846375"/>
      </g>
     </g>
     <g id="line2d_24">
      <g>
       <use style="stroke:#000000;" x="268.563935" xlink:href="#mf625e563b4" y="64.846375"/>
      </g>
     </g>
     <g id="text_13">
      <!-- 9 -->
      <g transform="translate(27.477125 67.274625)scale(0.088 -0.088)">
       <defs>
        <path d="M 10.984375 1.515625 
L 10.984375 10.5 
Q 14.703125 8.734375 18.5 7.8125 
Q 22.3125 6.890625 25.984375 6.890625 
Q 35.75 6.890625 40.890625 13.453125 
Q 46.046875 20.015625 46.78125 33.40625 
Q 43.953125 29.203125 39.59375 26.953125 
Q 35.25 24.703125 29.984375 24.703125 
Q 19.046875 24.703125 12.671875 31.3125 
Q 6.296875 37.9375 6.296875 49.421875 
Q 6.296875 60.640625 12.9375 67.421875 
Q 19.578125 74.21875 30.609375 74.21875 
Q 43.265625 74.21875 49.921875 64.515625 
Q 56.59375 54.828125 56.59375 36.375 
Q 56.59375 19.140625 48.40625 8.859375 
Q 40.234375 -1.421875 26.421875 -1.421875 
Q 22.703125 -1.421875 18.890625 -0.6875 
Q 15.09375 0.046875 10.984375 1.515625 
z
M 30.609375 32.421875 
Q 37.25 32.421875 41.125 36.953125 
Q 45.015625 41.5 45.015625 49.421875 
Q 45.015625 57.28125 41.125 61.84375 
Q 37.25 66.40625 30.609375 66.40625 
Q 23.96875 66.40625 20.09375 61.84375 
Q 16.21875 57.28125 16.21875 49.421875 
Q 16.21875 41.5 20.09375 36.953125 
Q 23.96875 32.421875 30.609375 32.421875 
z
" id="DejaVuSans-57"/>
       </defs>
       <use xlink:href="#DejaVuSans-57"/>
      </g>
     </g>
    </g>
    <g id="ytick_8">
     <g id="line2d_25">
      <g>
       <use style="stroke:#000000;" x="37.076125" xlink:href="#m02f9f3a524" y="47.050375"/>
      </g>
     </g>
     <g id="line2d_26">
      <g>
       <use style="stroke:#000000;" x="268.563935" xlink:href="#mf625e563b4" y="47.050375"/>
      </g>
     </g>
     <g id="text_14">
      <!-- 10 -->
      <g transform="translate(21.878125 49.478625)scale(0.088 -0.088)">
       <use xlink:href="#DejaVuSans-49"/>
       <use x="63.623047" xlink:href="#DejaVuSans-48"/>
      </g>
     </g>
    </g>
    <g id="ytick_9">
     <g id="line2d_27">
      <g>
       <use style="stroke:#000000;" x="37.076125" xlink:href="#m02f9f3a524" y="29.254375"/>
      </g>
     </g>
     <g id="line2d_28">
      <g>
       <use style="stroke:#000000;" x="268.563935" xlink:href="#mf625e563b4" y="29.254375"/>
      </g>
     </g>
     <g id="text_15">
      <!-- 11 -->
      <g transform="translate(21.878125 31.682625)scale(0.088 -0.088)">
       <use xlink:href="#DejaVuSans-49"/>
       <use x="63.623047" xlink:href="#DejaVuSans-49"/>
      </g>
     </g>
    </g>
    <g id="ytick_10">
     <g id="line2d_29">
      <g>
       <use style="stroke:#000000;" x="37.076125" xlink:href="#m02f9f3a524" y="11.458375"/>
      </g>
     </g>
     <g id="line2d_30">
      <g>
       <use style="stroke:#000000;" x="268.563935" xlink:href="#mf625e563b4" y="11.458375"/>
      </g>
     </g>
     <g id="text_16">
      <!-- 12 -->
      <g transform="translate(21.878125 13.886625)scale(0.088 -0.088)">
       <use xlink:href="#DejaVuSans-49"/>
       <use x="63.623047" xlink:href="#DejaVuSans-50"/>
      </g>
     </g>
    </g>
    <g id="text_17">
     <!-- Run Time (S) -->
     <g transform="translate(14.798438 127.888031)rotate(-90)scale(0.1 -0.1)">
      <defs>
       <path d="M 35.890625 40.578125 
Q 41.796875 40.578125 44.359375 42.765625 
Q 46.921875 44.96875 46.921875 50 
Q 46.921875 54.984375 44.359375 57.125 
Q 41.796875 59.28125 35.890625 59.28125 
L 27.984375 59.28125 
L 27.984375 40.578125 
z
M 27.984375 27.59375 
L 27.984375 0 
L 9.1875 0 
L 9.1875 72.90625 
L 37.890625 72.90625 
Q 52.296875 72.90625 59 68.0625 
Q 65.71875 63.234375 65.71875 52.78125 
Q 65.71875 45.5625 62.21875 40.921875 
Q 58.734375 36.28125 51.703125 34.078125 
Q 55.5625 33.203125 58.609375 30.09375 
Q 61.671875 27 64.796875 20.703125 
L 75 0 
L 54.984375 0 
L 46.09375 18.109375 
Q 43.40625 23.578125 40.640625 25.578125 
Q 37.890625 27.59375 33.296875 27.59375 
z
" id="DejaVuSans-Bold-82"/>
       <path d="M 0.484375 72.90625 
L 67.671875 72.90625 
L 67.671875 58.6875 
L 43.5 58.6875 
L 43.5 0 
L 24.703125 0 
L 24.703125 58.6875 
L 0.484375 58.6875 
z
" id="DejaVuSans-Bold-84"/>
       <path d="M 8.40625 54.6875 
L 25.875 54.6875 
L 25.875 0 
L 8.40625 0 
z
M 8.40625 75.984375 
L 25.875 75.984375 
L 25.875 61.71875 
L 8.40625 61.71875 
z
" id="DejaVuSans-Bold-105"/>
       <path d="M 59.078125 45.609375 
Q 62.40625 50.6875 66.96875 53.34375 
Q 71.53125 56 77 56 
Q 86.421875 56 91.359375 50.1875 
Q 96.296875 44.390625 96.296875 33.296875 
L 96.296875 0 
L 78.71875 0 
L 78.71875 28.515625 
Q 78.765625 29.15625 78.78125 29.828125 
Q 78.8125 30.515625 78.8125 31.78125 
Q 78.8125 37.59375 77.09375 40.203125 
Q 75.390625 42.828125 71.578125 42.828125 
Q 66.609375 42.828125 63.890625 38.71875 
Q 61.1875 34.625 61.078125 26.859375 
L 61.078125 0 
L 43.5 0 
L 43.5 28.515625 
Q 43.5 37.59375 41.9375 40.203125 
Q 40.375 42.828125 36.375 42.828125 
Q 31.34375 42.828125 28.609375 38.703125 
Q 25.875 34.578125 25.875 26.90625 
L 25.875 0 
L 8.296875 0 
L 8.296875 54.6875 
L 25.875 54.6875 
L 25.875 46.6875 
Q 29.109375 51.3125 33.28125 53.65625 
Q 37.453125 56 42.484375 56 
Q 48.140625 56 52.484375 53.265625 
Q 56.84375 50.53125 59.078125 45.609375 
z
" id="DejaVuSans-Bold-109"/>
       <path d="M 59.90625 70.609375 
L 59.90625 55.171875 
Q 53.90625 57.859375 48.1875 59.21875 
Q 42.484375 60.59375 37.40625 60.59375 
Q 30.671875 60.59375 27.4375 58.734375 
Q 24.21875 56.890625 24.21875 52.984375 
Q 24.21875 50.046875 26.390625 48.40625 
Q 28.5625 46.78125 34.28125 45.609375 
L 42.28125 44 
Q 54.4375 41.546875 59.5625 36.5625 
Q 64.703125 31.59375 64.703125 22.40625 
Q 64.703125 10.359375 57.546875 4.46875 
Q 50.390625 -1.421875 35.6875 -1.421875 
Q 28.765625 -1.421875 21.78125 -0.09375 
Q 14.796875 1.21875 7.8125 3.8125 
L 7.8125 19.671875 
Q 14.796875 15.96875 21.3125 14.078125 
Q 27.828125 12.203125 33.890625 12.203125 
Q 40.046875 12.203125 43.3125 14.25 
Q 46.578125 16.3125 46.578125 20.125 
Q 46.578125 23.53125 44.359375 25.390625 
Q 42.140625 27.25 35.5 28.71875 
L 28.21875 30.328125 
Q 17.28125 32.671875 12.21875 37.796875 
Q 7.171875 42.921875 7.171875 51.609375 
Q 7.171875 62.5 14.203125 68.359375 
Q 21.234375 74.21875 34.421875 74.21875 
Q 40.4375 74.21875 46.78125 73.3125 
Q 53.125 72.40625 59.90625 70.609375 
z
" id="DejaVuSans-Bold-83"/>
      </defs>
      <use xlink:href="#DejaVuSans-Bold-82"/>
      <use x="77.001953" xlink:href="#DejaVuSans-Bold-117"/>
      <use x="148.193359" xlink:href="#DejaVuSans-Bold-110"/>
      <use x="219.384766" xlink:href="#DejaVuSans-Bold-32"/>
      <use x="254.199219" xlink:href="#DejaVuSans-Bold-84"/>
      <use x="322.412109" xlink:href="#DejaVuSans-Bold-105"/>
      <use x="356.689453" xlink:href="#DejaVuSans-Bold-109"/>
      <use x="460.888672" xlink:href="#DejaVuSans-Bold-101"/>
      <use x="528.710938" xlink:href="#DejaVuSans-Bold-32"/>
      <use x="563.525391" xlink:href="#DejaVuSans-Bold-40"/>
      <use x="609.228516" xlink:href="#DejaVuSans-Bold-83"/>
      <use x="681.25" xlink:href="#DejaVuSans-Bold-41"/>
     </g>
    </g>
   </g>
   <g id="patch_7">
    <path d="M 202.602518 66.739672 
Q 220.146909 110.60065 237.359118 153.631172 
" style="fill:none;stroke:#ff0000;stroke-linecap:round;stroke-width:0.8;"/>
    <path d="M 237.685942 149.709287 
L 237.359118 153.631172 
L 234.417704 151.016582 
L 237.685942 149.709287 
z
" style="fill:#ff0000;stroke:#ff0000;stroke-linecap:round;stroke-width:0.8;"/>
   </g>
   <g id="patch_8">
    <path d="M 155.641525 64.483315 
L 241.226025 64.483315 
L 241.226025 48.152315 
L 155.641525 48.152315 
z
" style="fill:#ffffff;stroke:#000000;stroke-linejoin:miter;stroke-width:0.8;"/>
   </g>
   <g id="text_18">
    <!-- 3.86S, 1297MHz -->
    <g transform="translate(159.161525 58.966815)scale(0.096 -0.096)">
     <defs>
      <path d="M 10.6875 12.40625 
L 21 12.40625 
L 21 0 
L 10.6875 0 
z
" id="DejaVuSans-46"/>
      <path d="M 53.515625 70.515625 
L 53.515625 60.890625 
Q 47.90625 63.578125 42.921875 64.890625 
Q 37.9375 66.21875 33.296875 66.21875 
Q 25.25 66.21875 20.875 63.09375 
Q 16.5 59.96875 16.5 54.203125 
Q 16.5 49.359375 19.40625 46.890625 
Q 22.3125 44.4375 30.421875 42.921875 
L 36.375 41.703125 
Q 47.40625 39.59375 52.65625 34.296875 
Q 57.90625 29 57.90625 20.125 
Q 57.90625 9.515625 50.796875 4.046875 
Q 43.703125 -1.421875 29.984375 -1.421875 
Q 24.8125 -1.421875 18.96875 -0.25 
Q 13.140625 0.921875 6.890625 3.21875 
L 6.890625 13.375 
Q 12.890625 10.015625 18.65625 8.296875 
Q 24.421875 6.59375 29.984375 6.59375 
Q 38.421875 6.59375 43.015625 9.90625 
Q 47.609375 13.234375 47.609375 19.390625 
Q 47.609375 24.75 44.3125 27.78125 
Q 41.015625 30.8125 33.5 32.328125 
L 27.484375 33.5 
Q 16.453125 35.6875 11.515625 40.375 
Q 6.59375 45.0625 6.59375 53.421875 
Q 6.59375 63.09375 13.40625 68.65625 
Q 20.21875 74.21875 32.171875 74.21875 
Q 37.3125 74.21875 42.625 73.28125 
Q 47.953125 72.359375 53.515625 70.515625 
z
" id="DejaVuSans-83"/>
      <path d="M 11.71875 12.40625 
L 22.015625 12.40625 
L 22.015625 4 
L 14.015625 -11.625 
L 7.71875 -11.625 
L 11.71875 4 
z
" id="DejaVuSans-44"/>
      <path id="DejaVuSans-32"/>
      <path d="M 9.8125 72.90625 
L 24.515625 72.90625 
L 43.109375 23.296875 
L 61.8125 72.90625 
L 76.515625 72.90625 
L 76.515625 0 
L 66.890625 0 
L 66.890625 64.015625 
L 48.09375 14.015625 
L 38.1875 14.015625 
L 19.390625 64.015625 
L 19.390625 0 
L 9.8125 0 
z
" id="DejaVuSans-77"/>
      <path d="M 9.8125 72.90625 
L 19.671875 72.90625 
L 19.671875 43.015625 
L 55.515625 43.015625 
L 55.515625 72.90625 
L 65.375 72.90625 
L 65.375 0 
L 55.515625 0 
L 55.515625 34.71875 
L 19.671875 34.71875 
L 19.671875 0 
L 9.8125 0 
z
" id="DejaVuSans-72"/>
      <path d="M 5.515625 54.6875 
L 48.1875 54.6875 
L 48.1875 46.484375 
L 14.40625 7.171875 
L 48.1875 7.171875 
L 48.1875 0 
L 4.296875 0 
L 4.296875 8.203125 
L 38.09375 47.515625 
L 5.515625 47.515625 
z
" id="DejaVuSans-122"/>
     </defs>
     <use xlink:href="#DejaVuSans-51"/>
     <use x="63.623047" xlink:href="#DejaVuSans-46"/>
     <use x="95.410156" xlink:href="#DejaVuSans-56"/>
     <use x="159.033203" xlink:href="#DejaVuSans-54"/>
     <use x="222.65625" xlink:href="#DejaVuSans-83"/>
     <use x="286.132812" xlink:href="#DejaVuSans-44"/>
     <use x="317.919922" xlink:href="#DejaVuSans-32"/>
     <use x="349.707031" xlink:href="#DejaVuSans-49"/>
     <use x="413.330078" xlink:href="#DejaVuSans-50"/>
     <use x="476.953125" xlink:href="#DejaVuSans-57"/>
     <use x="540.576172" xlink:href="#DejaVuSans-55"/>
     <use x="604.199219" xlink:href="#DejaVuSans-77"/>
     <use x="690.478516" xlink:href="#DejaVuSans-72"/>
     <use x="765.673828" xlink:href="#DejaVuSans-122"/>
    </g>
   </g>
  </g>
 </g>
 <defs>
  <clipPath id="pdc67b8ddcc">
   <rect height="160.164" width="231.48781" x="37.076125" y="11.458375"/>
  </clipPath>
 </defs>
</svg>
